<svg xmlns="http://www.w3.org/2000/svg" xmlns:xlink="http://www.w3.org/1999/xlink" width="118" height="118" viewBox="0 0 118 118">
  <defs>
    <filter id="Rectangle_411831" x="0" y="0" width="118" height="118" filterUnits="userSpaceOnUse">
      <feOffset dy="3" input="SourceAlpha"/>
      <feGaussianBlur stdDeviation="3" result="blur"/>
      <feFlood flood-opacity="0.161"/>
      <feComposite operator="in" in2="blur"/>
      <feComposite in="SourceGraphic"/>
    </filter>
    <clipPath id="clip-path">
      <rect id="Rectangle_425834" data-name="Rectangle 425834" width="59.021" height="64.377" fill="none"/>
    </clipPath>
  </defs>
  <g id="Group_1228589" data-name="Group 1228589" transform="translate(-326.781 -3857)">
    <g id="Group_1203422" data-name="Group 1203422" transform="translate(-465 1901)">
      <g id="Group_1203409" data-name="Group 1203409" transform="translate(465 -1896)">
        <g transform="matrix(1, 0, 0, 1, 326.78, 3852)" filter="url(#Rectangle_411831)">
          <g id="Rectangle_411831-2" data-name="Rectangle 411831" transform="translate(9 6)" fill="#37f1e9" stroke="#fff" stroke-width="2">
            <path d="M5,0H68a32,32,0,0,1,32,32V95a5,5,0,0,1-5,5H32A32,32,0,0,1,0,68V5A5,5,0,0,1,5,0Z" stroke="none"/>
            <path d="M5,1H68A31,31,0,0,1,99,32V95a4,4,0,0,1-4,4H32A31,31,0,0,1,1,68V5A4,4,0,0,1,5,1Z" fill="none"/>
          </g>
        </g>
      </g>
    </g>
    <g id="Group_1228596" data-name="Group 1228596" transform="translate(356.271 3880.812)">
      <path id="Path_1495336" data-name="Path 1495336" d="M55.54,1.312V15.987H34.116V1.312Z" transform="translate(2.09 0.08)" fill="#ecf0f1"/>
      <g id="Group_1228595" data-name="Group 1228595" transform="translate(0 0)">
        <g id="Group_1228594" data-name="Group 1228594" clip-path="url(#clip-path)">
          <path id="Path_1495337" data-name="Path 1495337" d="M45.153,23.139a1.356,1.356,0,0,1,.429.964,1.045,1.045,0,0,1-.429.965,1.358,1.358,0,0,1-.965.428A1.418,1.418,0,0,1,42.8,24.1a1.163,1.163,0,0,1,.429-.964,1.358,1.358,0,0,1,.964-.429,1.045,1.045,0,0,1,.965.429" transform="translate(2.621 1.391)"/>
          <path id="Path_1495338" data-name="Path 1495338" d="M45.153,26.874a1.358,1.358,0,0,1,.429.964,1.045,1.045,0,0,1-.429.965,1.359,1.359,0,0,1-.965.429A1.418,1.418,0,0,1,42.8,27.838a1.162,1.162,0,0,1,.429-.965,1.3,1.3,0,0,1,1.928,0" transform="translate(2.621 1.62)"/>
          <path id="Path_1495339" data-name="Path 1495339" d="M45.153,35.756a1.358,1.358,0,0,1,.429.964,1.045,1.045,0,0,1-.429.965,1.359,1.359,0,0,1-.965.429A1.419,1.419,0,0,1,42.8,36.719a1.162,1.162,0,0,1,.429-.964,1.358,1.358,0,0,1,.964-.429,1.045,1.045,0,0,1,.965.429" transform="translate(2.621 2.164)"/>
          <path id="Path_1495340" data-name="Path 1495340" d="M45.153,39.49a1.359,1.359,0,0,1,.429.965,1.044,1.044,0,0,1-.429.964,1.359,1.359,0,0,1-.965.429A1.418,1.418,0,0,1,42.8,40.454a1.164,1.164,0,0,1,.429-.965,1.3,1.3,0,0,1,1.928,0" transform="translate(2.621 2.393)"/>
          <path id="Path_1495341" data-name="Path 1495341" d="M45.153,43.326a1.356,1.356,0,0,1,.429.964,1.161,1.161,0,0,1-.429.964,1.354,1.354,0,0,1-.965.429A1.418,1.418,0,0,1,42.8,44.289a1.162,1.162,0,0,1,.429-.964,1.358,1.358,0,0,1,.964-.429,1.045,1.045,0,0,1,.965.429" transform="translate(2.621 2.628)"/>
          <path id="Path_1495342" data-name="Path 1495342" d="M45.153,47.061a1.356,1.356,0,0,1,.429.964,1.164,1.164,0,0,1-.429.965,1.359,1.359,0,0,1-.965.429A1.419,1.419,0,0,1,42.8,48.024a1.162,1.162,0,0,1,.429-.964,1.3,1.3,0,0,1,1.928,0" transform="translate(2.621 2.856)"/>
          <path id="Path_1495343" data-name="Path 1495343" d="M45.153,50.9a1.359,1.359,0,0,1,.429.965,1.162,1.162,0,0,1-.429.964,1.359,1.359,0,0,1-.965.429A1.418,1.418,0,0,1,42.8,51.86a1.162,1.162,0,0,1,.429-.965,1.358,1.358,0,0,1,.964-.429,1.045,1.045,0,0,1,.965.429" transform="translate(2.621 3.091)"/>
          <path id="Path_1495344" data-name="Path 1495344" d="M45.153,54.63a1.359,1.359,0,0,1,.429.965,1.163,1.163,0,0,1-.429.964,1.359,1.359,0,0,1-.965.429A1.418,1.418,0,0,1,42.8,55.594a1.164,1.164,0,0,1,.429-.965,1.3,1.3,0,0,1,1.928,0" transform="translate(2.621 3.32)"/>
          <path id="Path_1495345" data-name="Path 1495345" d="M39.087,40.374V55.156H17.664V40.374Z" transform="translate(1.082 2.473)" fill="#ecf0f1"/>
          <path id="Path_1495346" data-name="Path 1495346" d="M22.735,1.312V15.987H1.312V1.312Z" transform="translate(0.08 0.081)" fill="#ecf0f1"/>
          <path id="Path_1495347" data-name="Path 1495347" d="M12.349,23.139a1.356,1.356,0,0,1,.429.964,1.045,1.045,0,0,1-.429.965,1.358,1.358,0,0,1-.965.428A1.418,1.418,0,0,1,9.992,24.1a1.163,1.163,0,0,1,.429-.964,1.358,1.358,0,0,1,.964-.429,1.045,1.045,0,0,1,.965.429" transform="translate(0.612 1.391)"/>
          <path id="Path_1495348" data-name="Path 1495348" d="M12.349,26.874a1.358,1.358,0,0,1,.429.964,1.045,1.045,0,0,1-.429.965,1.359,1.359,0,0,1-.965.429,1.418,1.418,0,0,1-1.392-1.392,1.162,1.162,0,0,1,.429-.965,1.3,1.3,0,0,1,1.928,0" transform="translate(0.612 1.62)"/>
          <path id="Path_1495349" data-name="Path 1495349" d="M12.349,35.756a1.358,1.358,0,0,1,.429.964,1.045,1.045,0,0,1-.429.965,1.6,1.6,0,0,1-.965.429,1.419,1.419,0,0,1-1.392-1.393,1.162,1.162,0,0,1,.429-.964,1.6,1.6,0,0,1,.964-.429,1.045,1.045,0,0,1,.965.429" transform="translate(0.612 2.164)"/>
          <path id="Path_1495350" data-name="Path 1495350" d="M12.349,39.49a1.359,1.359,0,0,1,.429.965,1.044,1.044,0,0,1-.429.964,1.6,1.6,0,0,1-.965.429,1.418,1.418,0,0,1-1.392-1.392,1.164,1.164,0,0,1,.429-.965,1.6,1.6,0,0,1,.964-.429,1.359,1.359,0,0,1,.965.429" transform="translate(0.612 2.393)"/>
          <path id="Path_1495351" data-name="Path 1495351" d="M12.343,43.332a1.356,1.356,0,0,1,.429.964,1.161,1.161,0,0,1-.429.964,1.369,1.369,0,0,1-2.25-1.071,1.162,1.162,0,0,1,.429-.964,1.6,1.6,0,0,1,.964-.429.955.955,0,0,1,.857.536" transform="translate(0.618 2.622)"/>
          <path id="Path_1495352" data-name="Path 1495352" d="M12.349,47.061a1.356,1.356,0,0,1,.429.964,1.164,1.164,0,0,1-.429.965,1.6,1.6,0,0,1-.965.429,1.419,1.419,0,0,1-1.392-1.393,1.162,1.162,0,0,1,.429-.964,1.6,1.6,0,0,1,.964-.429,1.359,1.359,0,0,1,.965.429" transform="translate(0.612 2.856)"/>
          <path id="Path_1495353" data-name="Path 1495353" d="M12.349,50.9a1.359,1.359,0,0,1,.429.965,1.162,1.162,0,0,1-.429.964,1.6,1.6,0,0,1-.965.429A1.418,1.418,0,0,1,9.992,51.86a1.163,1.163,0,0,1,.429-.965,1.6,1.6,0,0,1,.964-.429,1.045,1.045,0,0,1,.965.429" transform="translate(0.612 3.091)"/>
          <path id="Path_1495354" data-name="Path 1495354" d="M12.349,54.63a1.359,1.359,0,0,1,.429.965,1.163,1.163,0,0,1-.429.964,1.6,1.6,0,0,1-.965.429,1.418,1.418,0,0,1-1.392-1.392,1.164,1.164,0,0,1,.429-.965,1.6,1.6,0,0,1,.964-.428,1.358,1.358,0,0,1,.965.428" transform="translate(0.612 3.32)"/>
          <path id="Path_1495355" data-name="Path 1495355" d="M22.816,17.461H14.782a1.392,1.392,0,1,1,0-2.785h6.748v-12H2.678v12.1H9.426a1.392,1.392,0,1,1,0,2.785H1.392A1.418,1.418,0,0,1,0,16.176V1.392A1.418,1.418,0,0,1,1.392,0H22.816a1.419,1.419,0,0,1,1.393,1.392V16.068a1.591,1.591,0,0,1-1.393,1.392" transform="translate(0 0)"/>
          <path id="Path_1495356" data-name="Path 1495356" d="M14.318,21.969a1.418,1.418,0,0,1-1.392-1.392V16.506H10.249v4.071a1.418,1.418,0,0,1-1.392,1.392A1.328,1.328,0,0,1,7.57,20.576V15.22a1.418,1.418,0,0,1,1.392-1.392h5.356a1.418,1.418,0,0,1,1.392,1.392v5.356a1.589,1.589,0,0,1-1.392,1.392" transform="translate(0.464 0.847)"/>
          <path id="Path_1495357" data-name="Path 1495357" d="M15.684,21.66H7.65a1.392,1.392,0,1,1,0-2.785h8.034a1.392,1.392,0,0,1,0,2.785" transform="translate(0.383 1.156)"/>
          <path id="Path_1495358" data-name="Path 1495358" d="M17.152,11.567H6.439a1.392,1.392,0,0,1,0-2.785H17.152a1.418,1.418,0,0,1,1.392,1.392,1.59,1.59,0,0,1-1.392,1.392" transform="translate(0.309 0.538)"/>
          <path id="Path_1495359" data-name="Path 1495359" d="M55.62,17.461H47.586a1.392,1.392,0,1,1,0-2.785h6.641v-12H35.482v12.1H42.23a1.392,1.392,0,1,1,0,2.785H34.2A1.418,1.418,0,0,1,32.8,16.176V1.392A1.418,1.418,0,0,1,34.2,0H55.62a1.418,1.418,0,0,1,1.392,1.392V16.068a1.59,1.59,0,0,1-1.392,1.392" transform="translate(2.009 0)"/>
          <path id="Path_1495360" data-name="Path 1495360" d="M47.129,21.969a1.418,1.418,0,0,1-1.392-1.392V16.506H43.059v4.071a1.393,1.393,0,0,1-2.786,0V15.22a1.418,1.418,0,0,1,1.392-1.392h5.356a1.417,1.417,0,0,1,1.392,1.392v5.356a1.4,1.4,0,0,1-1.285,1.392" transform="translate(2.467 0.847)"/>
          <path id="Path_1495361" data-name="Path 1495361" d="M48.488,21.66H40.454a1.392,1.392,0,1,1,0-2.785h8.034a1.392,1.392,0,1,1,0,2.785" transform="translate(2.392 1.156)"/>
          <path id="Path_1495362" data-name="Path 1495362" d="M49.955,11.567H39.242a1.392,1.392,0,1,1,0-2.785H49.955a1.418,1.418,0,0,1,1.392,1.392,1.59,1.59,0,0,1-1.392,1.392" transform="translate(2.318 0.538)"/>
          <path id="Path_1495363" data-name="Path 1495363" d="M39.168,56.522H31.134a1.392,1.392,0,1,1,0-2.785h6.748V41.847H19.137v12.1h6.748a1.392,1.392,0,1,1,0,2.785H17.744a1.418,1.418,0,0,1-1.392-1.392V40.454a1.418,1.418,0,0,1,1.392-1.393H39.168a1.418,1.418,0,0,1,1.392,1.393V55.237a1.4,1.4,0,0,1-1.392,1.285" transform="translate(1.002 2.393)"/>
          <path id="Path_1495364" data-name="Path 1495364" d="M30.676,61.025a1.418,1.418,0,0,1-1.392-1.392V55.669H26.606v4.071a1.392,1.392,0,1,1-2.785,0V54.383a1.417,1.417,0,0,1,1.392-1.392h5.355a1.417,1.417,0,0,1,1.392,1.392v5.356a1.234,1.234,0,0,1-1.285,1.285" transform="translate(1.459 3.246)"/>
          <path id="Path_1495365" data-name="Path 1495365" d="M32.137,60.722H24.1a1.392,1.392,0,1,1,0-2.785h8.034a1.417,1.417,0,0,1,1.392,1.392,1.59,1.59,0,0,1-1.392,1.392" transform="translate(1.391 3.549)"/>
          <path id="Path_1495366" data-name="Path 1495366" d="M33.5,50.628H22.791a1.392,1.392,0,1,1,0-2.785H33.5a1.392,1.392,0,0,1,0,2.785" transform="translate(1.311 2.931)"/>
          <path id="Path_1495367" data-name="Path 1495367" d="M18.462,35.71a3.32,3.32,0,1,1,3.321-3.321,3.337,3.337,0,0,1-3.321,3.321m0-3.963a.643.643,0,1,0,.642.642.617.617,0,0,0-.642-.642" transform="translate(0.927 1.781)"/>
          <path id="Path_1495368" data-name="Path 1495368" d="M26.031,35.71a3.32,3.32,0,1,1,3.321-3.321,3.337,3.337,0,0,1-3.321,3.321m0-3.963a.643.643,0,1,0,.642.642.617.617,0,0,0-.642-.642" transform="translate(1.391 1.781)"/>
          <path id="Path_1495369" data-name="Path 1495369" d="M33.6,35.71a3.32,3.32,0,1,1,3.321-3.321A3.337,3.337,0,0,1,33.6,35.71m0-3.963a.643.643,0,1,0,.642.642.617.617,0,0,0-.642-.642" transform="translate(1.855 1.781)"/>
          <path id="Path_1495370" data-name="Path 1495370" d="M54.153,33.571H35.407a1.392,1.392,0,1,1,0-2.785H54.153a1.392,1.392,0,1,1,0,2.785" transform="translate(2.083 1.886)"/>
          <path id="Path_1495371" data-name="Path 1495371" d="M17.461,33.571H1.393a1.392,1.392,0,1,1,0-2.785H17.461a1.417,1.417,0,0,1,1.392,1.392,1.5,1.5,0,0,1-1.392,1.392" transform="translate(0 1.886)"/>
          <path id="Path_1495372" data-name="Path 1495372" d="M24.337,33.571h-4.07a1.392,1.392,0,1,1,0-2.785h4.07a1.417,1.417,0,0,1,1.392,1.392,1.5,1.5,0,0,1-1.392,1.392" transform="translate(1.156 1.886)"/>
          <path id="Path_1495373" data-name="Path 1495373" d="M31.908,33.571h-4.07a1.392,1.392,0,1,1,0-2.785h4.07A1.417,1.417,0,0,1,33.3,32.178a1.5,1.5,0,0,1-1.392,1.392" transform="translate(1.62 1.886)"/>
        </g>
      </g>
    </g>
  </g>
</svg>
