<svg xmlns="http://www.w3.org/2000/svg" xmlns:xlink="http://www.w3.org/1999/xlink" width="118" height="118" viewBox="0 0 118 118">
  <defs>
    <filter id="Rectangle_411831" x="0" y="0" width="118" height="118" filterUnits="userSpaceOnUse">
      <feOffset dy="3" input="SourceAlpha"/>
      <feGaussianBlur stdDeviation="3" result="blur"/>
      <feFlood flood-opacity="0.161"/>
      <feComposite operator="in" in2="blur"/>
      <feComposite in="SourceGraphic"/>
    </filter>
    <clipPath id="clip-path">
      <rect id="Rectangle_425833" data-name="Rectangle 425833" width="69.464" height="69.464" fill="none"/>
    </clipPath>
  </defs>
  <g id="Group_1228590" data-name="Group 1228590" transform="translate(-326.781 -3857)">
    <g id="Group_1203422" data-name="Group 1203422" transform="translate(-465 1901)">
      <g id="Group_1203409" data-name="Group 1203409" transform="translate(465 -1896)">
        <g transform="matrix(1, 0, 0, 1, 326.78, 3852)" filter="url(#Rectangle_411831)">
          <g id="Rectangle_411831-2" data-name="Rectangle 411831" transform="translate(9 6)" fill="#37f1e9" stroke="#fff" stroke-width="2">
            <path d="M5,0H68a32,32,0,0,1,32,32V95a5,5,0,0,1-5,5H32A32,32,0,0,1,0,68V5A5,5,0,0,1,5,0Z" stroke="none"/>
            <path d="M5,1H68A31,31,0,0,1,99,32V95a4,4,0,0,1-4,4H32A31,31,0,0,1,1,68V5A4,4,0,0,1,5,1Z" fill="none"/>
          </g>
        </g>
      </g>
    </g>
    <g id="Group_1228593" data-name="Group 1228593" transform="translate(351.049 3877.409)">
      <g id="Group_1228592" data-name="Group 1228592" clip-path="url(#clip-path)">
        <path id="Path_1495305" data-name="Path 1495305" d="M16.1,46.963a4.1,4.1,0,0,1,0,5.778v.113a4.086,4.086,0,0,1-5.78-5.778,4,4,0,0,1,5.78-.113" transform="translate(1.121 5.617)" fill="#5165a2"/>
        <path id="Path_1495306" data-name="Path 1495306" d="M52.848,46.659a4.087,4.087,0,0,1-5.78,5.78l-.227-.227a4.043,4.043,0,0,1,.227-5.553,4.157,4.157,0,0,1,5.553-.226.243.243,0,0,0,.227.226" transform="translate(5.625 5.58)" fill="#5165a2"/>
        <path id="Path_1495307" data-name="Path 1495307" d="M52.542,9.923a4.105,4.105,0,0,1,0,5.778l-.341.34a4.118,4.118,0,0,1-5.778-5.778c.113-.115.227-.34.34-.455a4.216,4.216,0,0,1,5.78.115" transform="translate(5.59 1.07)" fill="#5165a2"/>
        <path id="Path_1495308" data-name="Path 1495308" d="M15.915,10.336A4.188,4.188,0,0,1,15.8,16a4.072,4.072,0,0,1-5.666.112A.111.111,0,0,1,10.022,16a4.087,4.087,0,1,1,5.781-5.78Z" transform="translate(1.084 1.108)" fill="#5165a2"/>
        <path id="Path_1495309" data-name="Path 1495309" d="M9.573,31.534a4.04,4.04,0,0,1-3.965,4.08H5.493a4.08,4.08,0,1,1,0-8.16h.115a4.04,4.04,0,0,1,3.965,4.08" transform="translate(0.173 3.368)" fill="#313a52"/>
        <path id="Path_1495310" data-name="Path 1495310" d="M35.715,57.147v.226a4.08,4.08,0,1,1-8.16,0v-.112a3.97,3.97,0,0,1,4.08-3.968,4.1,4.1,0,0,1,4.08,3.854" transform="translate(3.381 6.538)" fill="#313a52"/>
        <path id="Path_1495311" data-name="Path 1495311" d="M56.919,35.209a4.066,4.066,0,0,1-3.625-4.08,4.149,4.149,0,0,1,3.512-4.079h.567a4.079,4.079,0,1,1,0,8.159c-.113.115-.227.115-.454,0" transform="translate(6.538 3.319)" fill="#313a52"/>
        <path id="Path_1495312" data-name="Path 1495312" d="M35.311,5.391v.454a4.108,4.108,0,0,1-8.16,0V5.391a4.08,4.08,0,0,1,8.16,0" transform="translate(3.331 0.161)" fill="#313a52"/>
        <path id="Path_1495313" data-name="Path 1495313" d="M19.9,29.463a5.852,5.852,0,0,1,5.893-5.893,6.4,6.4,0,0,1,2.039.34,7.547,7.547,0,0,1,7.253-5.439,7.426,7.426,0,0,1,7.593,7.479,7.79,7.79,0,0,1,7.593,7.818A7.89,7.89,0,0,1,42.677,41.7H21.034a6.122,6.122,0,0,1-5.893-6.119A5.956,5.956,0,0,1,19.787,29.8c.113-.227.113-.227.113-.34" transform="translate(1.858 2.266)" fill="#86dcfd"/>
        <path id="Path_1495314" data-name="Path 1495314" d="M47.94,12.311a1.643,1.643,0,0,1-.793-.226A29.091,29.091,0,0,0,34.456,6.871a1.426,1.426,0,1,1,.34-2.833A29.808,29.808,0,0,1,48.734,9.817a1.337,1.337,0,0,1,.34,1.927,1.38,1.38,0,0,1-1.134.567" transform="translate(4.072 0.494)"/>
        <path id="Path_1495315" data-name="Path 1495315" d="M57.184,30.126a1.351,1.351,0,0,1-1.36-1.246A27.056,27.056,0,0,0,50.5,16.3a1.451,1.451,0,1,1,2.266-1.813,31.186,31.186,0,0,1,5.893,13.938,1.411,1.411,0,0,1-1.133,1.586.417.417,0,0,1-.34.113" transform="translate(6.161 1.715)"/>
        <path id="Path_1495316" data-name="Path 1495316" d="M51.934,49.312a1.635,1.635,0,0,1-.794-.227,1.336,1.336,0,0,1-.34-1.927,27.548,27.548,0,0,0,5.1-12.8,1.427,1.427,0,1,1,2.834.34,31.116,31.116,0,0,1-5.554,14.05,1.441,1.441,0,0,1-1.245.567" transform="translate(6.199 4.06)"/>
        <path id="Path_1495317" data-name="Path 1495317" d="M34.973,58.884a1.352,1.352,0,0,1-1.361-1.246,1.411,1.411,0,0,1,1.134-1.586A26.2,26.2,0,0,0,47.437,50.5a1.452,1.452,0,0,1,1.814,2.268A30.741,30.741,0,0,1,35.2,58.884Z" transform="translate(4.122 6.161)"/>
        <path id="Path_1495318" data-name="Path 1495318" d="M29.106,58.946H28.88A29.859,29.859,0,0,1,14.6,53.167,1.383,1.383,0,0,1,16.188,50.9a28.893,28.893,0,0,0,13.144,5.326,1.408,1.408,0,0,1,1.246,1.586,1.382,1.382,0,0,1-1.473,1.133" transform="translate(1.716 6.211)"/>
        <path id="Path_1495319" data-name="Path 1495319" d="M10.876,49.931a1.574,1.574,0,0,1-1.133-.567A31.471,31.471,0,0,1,3.738,35.2a1.426,1.426,0,1,1,2.833-.34A27.283,27.283,0,0,0,12.01,47.777a1.574,1.574,0,0,1-.227,2.04c-.228,0-.567.113-.907.113" transform="translate(0.457 4.122)"/>
        <path id="Path_1495320" data-name="Path 1495320" d="M5.21,30.451H4.984a1.41,1.41,0,0,1-1.247-1.586A29.636,29.636,0,0,1,9.628,14.7a1.348,1.348,0,0,1,2.041-.227,1.356,1.356,0,0,1,.226,2.039A27.8,27.8,0,0,0,6.57,29.431,1.362,1.362,0,0,1,5.21,30.451" transform="translate(0.457 1.731)"/>
        <path id="Path_1495321" data-name="Path 1495321" d="M15.3,12.425a1.4,1.4,0,0,1-1.134-.567,1.563,1.563,0,0,1,.227-2.04A30.219,30.219,0,0,1,28.44,4.039a1.427,1.427,0,0,1,.34,2.834A27.876,27.876,0,0,0,15.975,12.2c0,.112-.339.227-.679.227" transform="translate(1.703 0.494)"/>
        <path id="Path_1495322" data-name="Path 1495322" d="M31.379,11.1A5.437,5.437,0,0,1,25.94,6.119V5.552a5.553,5.553,0,0,1,11.106,0v.567A5.828,5.828,0,0,1,31.379,11.1m0-8.272A2.757,2.757,0,0,0,28.66,5.552v.227a2.627,2.627,0,0,0,2.719,2.38,2.707,2.707,0,0,0,2.72-2.38V5.552a2.758,2.758,0,0,0-2.72-2.719" transform="translate(3.182)"/>
        <path id="Path_1495323" data-name="Path 1495323" d="M31.8,63.086a5.562,5.562,0,0,1-5.554-5.553V57.42a5.558,5.558,0,0,1,11.1-.227v.34A5.634,5.634,0,0,1,31.8,63.086m0-8.272a2.663,2.663,0,1,0,2.718,2.606v-.112A2.8,2.8,0,0,0,31.8,54.815" transform="translate(3.22 6.377)"/>
        <path id="Path_1495324" data-name="Path 1495324" d="M49.751,18.561h0A5.393,5.393,0,0,1,45.9,16.975a5.526,5.526,0,0,1-.454-7.253c.113-.226.34-.34.454-.566a5.471,5.471,0,0,1,7.7,0,5.539,5.539,0,0,1,0,7.818,2.459,2.459,0,0,1-.566.454,5.233,5.233,0,0,1-3.287,1.133m.115-8.272a2.653,2.653,0,0,0-1.927.794c-.113.113-.113.226-.227.226a2.68,2.68,0,0,0,2.153,4.307,3.374,3.374,0,0,0,1.7-.567c.112-.112.227-.112.227-.226a2.81,2.81,0,0,0,0-3.854,3.962,3.962,0,0,0-1.927-.679" transform="translate(5.435 0.929)"/>
        <path id="Path_1495325" data-name="Path 1495325" d="M13.312,55.492A5.439,5.439,0,1,1,17.164,46.2a5.508,5.508,0,0,1,.115,7.7l-.115.113a5.805,5.805,0,0,1-3.852,1.474m-1.927-7.366a2.735,2.735,0,0,0-.793,1.927,2.654,2.654,0,0,0,.793,1.927,2.739,2.739,0,0,0,1.927.793,2.663,2.663,0,0,0,1.928-4.532,2.737,2.737,0,0,0-1.928-.793,2.168,2.168,0,0,0-1.927.679" transform="translate(0.966 5.473)"/>
        <path id="Path_1495326" data-name="Path 1495326" d="M57.522,36.819h-.567a5.419,5.419,0,0,1-4.872-5.439,5.5,5.5,0,0,1,4.76-5.439h.679a5.561,5.561,0,0,1,5.552,5.552,5.372,5.372,0,0,1-5.552,5.327m0-8.16h-.34a2.744,2.744,0,0,0,0,5.439h.34a2.72,2.72,0,0,0,0-5.439" transform="translate(6.39 3.182)"/>
        <path id="Path_1495327" data-name="Path 1495327" d="M5.553,37.246a5.552,5.552,0,1,1,0-11.1h.113A5.538,5.538,0,0,1,11.1,31.695a5.611,5.611,0,0,1-5.438,5.552Zm0-8.272a2.72,2.72,0,1,0,0,5.439,2.661,2.661,0,0,0,2.606-2.719,2.586,2.586,0,0,0-2.606-2.72h0" transform="translate(0 3.207)"/>
        <path id="Path_1495328" data-name="Path 1495328" d="M13.009,18.752h0a5.151,5.151,0,0,1-3.626-1.36c-.112-.115-.112-.115-.227-.228a5.449,5.449,0,0,1,7.706-7.7l.227.226a5.591,5.591,0,0,1-.227,7.593,5.594,5.594,0,0,1-3.853,1.474m0-8.16a2.655,2.655,0,0,0-1.927.794,2.735,2.735,0,0,0-.793,1.927,2.654,2.654,0,0,0,.793,1.927l.115.112a2.565,2.565,0,0,0,1.812.68,2.652,2.652,0,0,0,1.927-.793,2.779,2.779,0,0,0,.113-3.74l-.113-.113a2.334,2.334,0,0,0-1.927-.794" transform="translate(0.929 0.966)"/>
        <path id="Path_1495329" data-name="Path 1495329" d="M50.054,55.289A5.4,5.4,0,0,1,46.2,53.7c-.112-.113-.227-.226-.227-.226a5.446,5.446,0,0,1,4.08-9.066,5.775,5.775,0,0,1,3.513,1.246,1.565,1.565,0,0,0,.454.34,5.471,5.471,0,0,1,0,7.7,5.867,5.867,0,0,1-3.966,1.586m0-8.272a2.667,2.667,0,0,0-2.039,4.419l.112.113a2.735,2.735,0,0,0,1.927.794,2.653,2.653,0,0,0,1.927-.794,2.731,2.731,0,0,0,.794-1.927,2.486,2.486,0,0,0-.794-1.927c-.113-.112-.113-.112-.226-.226a3.764,3.764,0,0,0-1.7-.454" transform="translate(5.471 5.449)"/>
        <path id="Path_1495330" data-name="Path 1495330" d="M34.573,29.374a1.294,1.294,0,0,1-.907-.34,1.546,1.546,0,0,1-.226-2.04,8.826,8.826,0,0,1,6.8-3.173,1.473,1.473,0,0,1,0,2.946,6.04,6.04,0,0,0-4.647,2.153c-.112.339-.566.454-1.019.454" transform="translate(4.068 2.922)"/>
        <path id="Path_1495331" data-name="Path 1495331" d="M24.062,31.349a1.288,1.288,0,0,1-.907-.34,4.525,4.525,0,0,0-3.4-1.019,1.426,1.426,0,0,1-.34-2.833,7,7,0,0,1,5.553,1.7,1.429,1.429,0,0,1,.112,2.041,1.688,1.688,0,0,1-1.019.452" transform="translate(2.227 3.326)"/>
        <path id="Path_1495332" data-name="Path 1495332" d="M36.692,41.582a1.426,1.426,0,0,1-.567-2.72h.113c2.38-1.019,3.852-2.379,4.307-4.192a5.837,5.837,0,0,0,.112-2.38,1.4,1.4,0,0,1,2.72-.68,8.558,8.558,0,0,1-.115,3.853c-.452,1.813-1.925,4.419-6.005,6.12Z" transform="translate(4.33 3.746)"/>
        <path id="Path_1495333" data-name="Path 1495333" d="M42.826,43.21H21.295a7.622,7.622,0,0,1-7.365-7.592,7.232,7.232,0,0,1,4.759-6.8,7.342,7.342,0,0,1,7.253-6.459,3.85,3.85,0,0,1,1.133.113,9.188,9.188,0,0,1,8.159-5.213,8.852,8.852,0,0,1,8.952,7.479,10.017,10.017,0,0,1,5.1,2.607A9.177,9.177,0,0,1,51.89,33.8a9.39,9.39,0,0,1-9.065,9.406m-3.513-2.833h3.513a6.4,6.4,0,0,0,0-12.805A1.5,1.5,0,0,1,41.352,26.1a6.193,6.193,0,0,0-12.124-1.586,1.769,1.769,0,0,1-.68.907,1.345,1.345,0,0,1-1.134.112,3.6,3.6,0,0,0-1.586-.227,4.547,4.547,0,0,0-4.532,4.533v.113a1.347,1.347,0,0,1-1.134,1.36,4.5,4.5,0,0,0-3.513,4.419,4.673,4.673,0,0,0,4.535,4.76h2.266Z" transform="translate(1.709 2.118)"/>
        <path id="Path_1495334" data-name="Path 1495334" d="M38.349,47.054H24.184a1.473,1.473,0,1,1,0-2.946H38.349a1.473,1.473,0,1,1,0,2.946" transform="translate(2.786 5.411)"/>
        <path id="Path_1495335" data-name="Path 1495335" d="M30.543,48.6a1.5,1.5,0,0,1-1.473-1.473V32.964a1.473,1.473,0,0,1,2.946,0V47.129A1.681,1.681,0,0,1,30.543,48.6" transform="translate(3.566 3.863)"/>
      </g>
    </g>
  </g>
</svg>
