<svg xmlns="http://www.w3.org/2000/svg" xmlns:xlink="http://www.w3.org/1999/xlink" width="118" height="118" viewBox="0 0 118 118">
  <defs>
    <filter id="Rectangle_411831" x="0" y="0" width="118" height="118" filterUnits="userSpaceOnUse">
      <feOffset dy="3" input="SourceAlpha"/>
      <feGaussianBlur stdDeviation="3" result="blur"/>
      <feFlood flood-opacity="0.161"/>
      <feComposite operator="in" in2="blur"/>
      <feComposite in="SourceGraphic"/>
    </filter>
    <clipPath id="clip-path">
      <rect id="Rectangle_425916" data-name="Rectangle 425916" width="67.39" height="62.502" fill="none"/>
    </clipPath>
  </defs>
  <g id="Group_1228633" data-name="Group 1228633" transform="translate(-326.781 -3852)">
    <g transform="matrix(1, 0, 0, 1, 326.78, 3852)" filter="url(#Rectangle_411831)">
      <g id="Rectangle_411831-2" data-name="Rectangle 411831" transform="translate(9 6)" fill="#b8a9f1" stroke="#fff" stroke-width="2">
        <path d="M5,0H68a32,32,0,0,1,32,32V95a5,5,0,0,1-5,5H32A32,32,0,0,1,0,68V5A5,5,0,0,1,5,0Z" stroke="none"/>
        <path d="M5,1H68A31,31,0,0,1,99,32V95a4,4,0,0,1-4,4H32A31,31,0,0,1,1,68V5A4,4,0,0,1,5,1Z" fill="none"/>
      </g>
    </g>
    <g id="Group_1228643" data-name="Group 1228643" transform="translate(352.087 3876.749)">
      <rect id="Rectangle_425913" data-name="Rectangle 425913" width="12.208" height="6.104" transform="translate(47.364 54.811)" fill="#57606f"/>
      <rect id="Rectangle_425914" data-name="Rectangle 425914" width="12.208" height="10.742" transform="translate(47.364 39.552)" fill="#57606f"/>
      <rect id="Rectangle_425915" data-name="Rectangle 425915" width="12.208" height="18.311" transform="translate(47.364 16.724)" fill="#57606f"/>
      <path id="Path_1495787" data-name="Path 1495787" d="M46.323,1.211,58.531,16.47H34.116Z" transform="translate(7.145 0.254)" fill="#414a56"/>
      <g id="Group_1228642" data-name="Group 1228642" transform="translate(0 0)">
        <g id="Group_1228641" data-name="Group 1228641" clip-path="url(#clip-path)">
          <path id="Path_1495788" data-name="Path 1495788" d="M18.261,13.828a9.278,9.278,0,1,1-9.278,9.278,9.274,9.274,0,0,1,9.278-9.278" transform="translate(1.881 2.896)" fill="#ffd8a8"/>
          <path id="Path_1495789" data-name="Path 1495789" d="M17.458,29.17,22.1,40.888,17.458,45.65l-4.639-4.762Z" transform="translate(2.685 6.11)" fill="#313a52"/>
          <path id="Path_1495790" data-name="Path 1495790" d="M19.867,29.17l-4.639,11.6,4.639,4.882,4.638-4.762Zm0,0A18.684,18.684,0,0,1,37.2,54.805H2.654a19.055,19.055,0,0,1-1.342-6.958A18.573,18.573,0,0,1,19.867,29.17" transform="translate(0.275 6.11)" fill="#65b2fe"/>
          <path id="Path_1495791" data-name="Path 1495791" d="M18.535,34.245A10.864,10.864,0,1,1,29.4,23.38,10.889,10.889,0,0,1,18.535,34.245m0-18.677a7.813,7.813,0,1,0,7.813,7.813,7.867,7.867,0,0,0-7.813-7.813" transform="translate(1.607 2.622)"/>
          <path id="Path_1495792" data-name="Path 1495792" d="M17.3,26.633a4.721,4.721,0,0,1-3.3-1.342,1.555,1.555,0,0,1,2.2-2.2,1.853,1.853,0,0,0,2.441,0,1.554,1.554,0,0,1,2.2,2.2,5.83,5.83,0,0,1-3.54,1.342" transform="translate(2.838 4.741)"/>
          <path id="Path_1495793" data-name="Path 1495793" d="M9.258,53.434a1.616,1.616,0,0,1-1.587-1.587V44.889A1.616,1.616,0,0,1,9.258,43.3a1.515,1.515,0,0,1,1.465,1.588v6.958a1.514,1.514,0,0,1-1.465,1.587" transform="translate(1.607 9.069)"/>
          <path id="Path_1495794" data-name="Path 1495794" d="M24.6,53.434a1.616,1.616,0,0,1-1.587-1.587V44.889a1.587,1.587,0,1,1,3.174,0v6.958A1.616,1.616,0,0,1,24.6,53.434" transform="translate(4.82 9.069)"/>
          <path id="Path_1495795" data-name="Path 1495795" d="M17.719,47.491a1.322,1.322,0,0,1-1.1-.49l-4.639-4.76a2.219,2.219,0,0,1-.366-1.708l4.639-11.6a1.472,1.472,0,0,1,1.465-.977,1.586,1.586,0,0,1,1.465.977l4.639,11.6a1.293,1.293,0,0,1-.366,1.586l-4.638,4.762a1.284,1.284,0,0,1-1.1.611m-2.807-6.715,2.929,2.93,2.93-2.93-3.053-7.2Z" transform="translate(2.423 5.856)"/>
          <path id="Path_1495796" data-name="Path 1495796" d="M16.929,31.01a1.6,1.6,0,0,1-1.588-1.466,1.587,1.587,0,0,1,3.175,0,1.514,1.514,0,0,1-1.587,1.466" transform="translate(3.213 5.856)"/>
          <path id="Path_1495797" data-name="Path 1495797" d="M37.477,56.646H2.929a1.584,1.584,0,0,1-1.465-.976A20.166,20.166,0,0,1,20.142,27.959,20.163,20.163,0,0,1,38.818,55.67a1.619,1.619,0,0,1-1.341.976M3.905,53.594H36.377a16.189,16.189,0,0,0,.855-5.493A17.091,17.091,0,1,0,3.905,53.594" transform="translate(0 5.856)"/>
          <path id="Path_1495798" data-name="Path 1495798" d="M58.785,18.189h-6.1a1.587,1.587,0,0,1,0-3.174h2.93L46.577,3.784,37.545,15.137h2.928a1.587,1.587,0,1,1,0,3.174h-6.1a1.5,1.5,0,0,1-1.342-.854,1.538,1.538,0,0,1,.243-1.588L45.479.611A1.5,1.5,0,0,1,46.7,0a1.7,1.7,0,0,1,1.22.611L60.128,15.869a1.536,1.536,0,0,1,.244,1.588,3.122,3.122,0,0,1-1.587.732" transform="translate(6.891 0)"/>
          <path id="Path_1495799" data-name="Path 1495799" d="M51.645,33.9H39.437a1.617,1.617,0,0,1-1.587-1.588V14a1.616,1.616,0,0,1,1.587-1.587H51.645A1.616,1.616,0,0,1,53.232,14V32.313A1.812,1.812,0,0,1,51.645,33.9M40.9,30.849h9.155V15.59H40.9Z" transform="translate(7.927 2.6)"/>
          <path id="Path_1495800" data-name="Path 1495800" d="M51.645,45.185H39.437A1.615,1.615,0,0,1,37.85,43.6V32.978a1.616,1.616,0,0,1,1.587-1.587H51.645a1.615,1.615,0,0,1,1.587,1.587V43.72a1.811,1.811,0,0,1-1.587,1.465M40.9,42.133h9.155v-7.69H40.9Z" transform="translate(7.927 6.575)"/>
          <path id="Path_1495801" data-name="Path 1495801" d="M51.645,53.286H39.437A1.616,1.616,0,0,1,37.85,51.7v-6.1a1.616,1.616,0,0,1,1.587-1.587H51.645a1.616,1.616,0,0,1,1.587,1.587v6.1a1.812,1.812,0,0,1-1.587,1.587M40.9,50.234h9.155V47.183H40.9Z" transform="translate(7.927 9.217)"/>
          <path id="Path_1495802" data-name="Path 1495802" d="M28.8,10.542H2.8a1.587,1.587,0,1,1,0-3.174h26a1.617,1.617,0,0,1,1.587,1.588A1.811,1.811,0,0,1,28.8,10.542" transform="translate(0.254 1.543)"/>
          <path id="Path_1495803" data-name="Path 1495803" d="M35.314,6.808h-19.9a1.616,1.616,0,0,1-1.587-1.587,1.616,1.616,0,0,1,1.587-1.587h19.9A1.616,1.616,0,0,1,36.9,5.221a1.811,1.811,0,0,1-1.587,1.587" transform="translate(2.896 0.761)"/>
        </g>
      </g>
    </g>
  </g>
</svg>
