<svg xmlns="http://www.w3.org/2000/svg" xmlns:xlink="http://www.w3.org/1999/xlink" width="118" height="118" viewBox="0 0 118 118">
  <defs>
    <filter id="Rectangle_411831" x="0" y="0" width="118" height="118" filterUnits="userSpaceOnUse">
      <feOffset dy="3" input="SourceAlpha"/>
      <feGaussianBlur stdDeviation="3" result="blur"/>
      <feFlood flood-opacity="0.161"/>
      <feComposite operator="in" in2="blur"/>
      <feComposite in="SourceGraphic"/>
    </filter>
    <clipPath id="clip-path">
      <rect id="Rectangle_425827" data-name="Rectangle 425827" width="59.248" height="60.661" transform="translate(0 0)" fill="none"/>
    </clipPath>
  </defs>
  <g id="Group_1228558" data-name="Group 1228558" transform="translate(-326.781 -3857)">
    <g id="Group_1203422" data-name="Group 1203422" transform="translate(-465 1901)">
      <g id="Group_1203409" data-name="Group 1203409" transform="translate(465 -1896)">
        <g transform="matrix(1, 0, 0, 1, 326.78, 3852)" filter="url(#Rectangle_411831)">
          <g id="Rectangle_411831-2" data-name="Rectangle 411831" transform="translate(9 6)" fill="#37f1e9" stroke="#fff" stroke-width="2">
            <path d="M5,0H68a32,32,0,0,1,32,32V95a5,5,0,0,1-5,5H32A32,32,0,0,1,0,68V5A5,5,0,0,1,5,0Z" stroke="none"/>
            <path d="M5,1H68A31,31,0,0,1,99,32V95a4,4,0,0,1-4,4H32A31,31,0,0,1,1,68V5A4,4,0,0,1,5,1Z" fill="none"/>
          </g>
        </g>
      </g>
    </g>
    <g id="Group_1228566" data-name="Group 1228566" transform="translate(356.157 3882.669)">
      <path id="Path_1495230" data-name="Path 1495230" d="M54.2,59.45l3.835-32.8H44.108v3.735H15.139V26.646H1.211l3.836,32.8Z" fill="#febe76"/>
      <g id="Group_1228565" data-name="Group 1228565">
        <g id="Group_1228564" data-name="Group 1228564" clip-path="url(#clip-path)">
          <path id="Path_1495231" data-name="Path 1495231" d="M43.1,1.413h-33V26.646H15.14v3.735H44.109V26.545h5.047V7.469C46.833,5.046,45.421,3.734,43.1,1.413" fill="#ecf0f1"/>
          <path id="Path_1495232" data-name="Path 1495232" d="M33.51,20.792a.869.869,0,0,1-.6.3h-.1a.857.857,0,0,1-.707-.808l-.2-3.027c-4.644.4-11.2,2.826-10.094,8.579.1.5-.2.5-.4.1C17.563,18.269,23.821,11.1,31.9,10.4L32,7.368a.771.771,0,0,1,.2-.505,2.22,2.22,0,0,1,.5-.3,1.456,1.456,0,0,1,.707.2l6.258,6.259a1.357,1.357,0,0,1,.3.4.6.6,0,0,1,.1.4,1.147,1.147,0,0,1-.3.808Z" fill="#e64c42"/>
          <path id="Path_1495233" data-name="Path 1495233" d="M30.28,53.091l1.211,6.359H26.444l1.313-6.359Z" fill="#3c3b3d"/>
          <path id="Path_1495234" data-name="Path 1495234" d="M10.094,20.287v6.359H3.735l1.312-6.359Z" fill="#e8a664"/>
          <path id="Path_1495235" data-name="Path 1495235" d="M54.2,20.287l1.312,6.359H49.155V20.287Z" fill="#e8a664"/>
          <rect id="Rectangle_425817" data-name="Rectangle 425817" width="3.836" height="2.523" transform="translate(28.968 48.044)"/>
          <rect id="Rectangle_425818" data-name="Rectangle 425818" width="3.836" height="2.523" transform="translate(28.968 42.998)"/>
          <rect id="Rectangle_425819" data-name="Rectangle 425819" width="3.836" height="2.523" transform="translate(28.968 37.951)"/>
          <rect id="Rectangle_425820" data-name="Rectangle 425820" width="3.836" height="2.523" transform="translate(28.968 32.904)"/>
          <rect id="Rectangle_425821" data-name="Rectangle 425821" width="3.836" height="2.522" transform="translate(25.233 45.521)"/>
          <rect id="Rectangle_425822" data-name="Rectangle 425822" width="3.836" height="2.523" transform="translate(25.233 40.474)"/>
          <rect id="Rectangle_425823" data-name="Rectangle 425823" width="3.836" height="2.523" transform="translate(25.233 35.428)"/>
          <rect id="Rectangle_425824" data-name="Rectangle 425824" width="2.523" height="2.523" transform="translate(21.398 5.147)"/>
          <rect id="Rectangle_425825" data-name="Rectangle 425825" width="2.523" height="2.523" transform="translate(17.663 5.147)"/>
          <rect id="Rectangle_425826" data-name="Rectangle 425826" width="2.523" height="2.523" transform="translate(13.828 5.147)"/>
          <path id="Path_1495236" data-name="Path 1495236" d="M54.2,60.661H31.491a1.312,1.312,0,0,1,0-2.624h21.6l3.532-30.28H49.155a1.313,1.313,0,0,1,0-2.625h8.882a1.276,1.276,0,0,1,.908.4,1.7,1.7,0,0,1,.3,1.009l-3.835,32.8A1.253,1.253,0,0,1,54.2,60.661"/>
          <path id="Path_1495237" data-name="Path 1495237" d="M26.444,60.661H5.047a1.213,1.213,0,0,1-1.212-1.11L0,26.747a1.7,1.7,0,0,1,.3-1.009,1.1,1.1,0,0,1,.909-.4h8.882a1.313,1.313,0,0,1,0,2.625H2.725l3.533,30.28H26.546a1.336,1.336,0,0,1,1.311,1.312,1.534,1.534,0,0,1-1.413,1.11"/>
          <path id="Path_1495238" data-name="Path 1495238" d="M44.108,31.693H15.139a1.335,1.335,0,0,1-1.311-1.312V27.858H9.992A1.337,1.337,0,0,1,8.68,26.545V1.312A1.337,1.337,0,0,1,9.992,0H43.1a1.236,1.236,0,0,1,.909.4l6.056,6.056a1.5,1.5,0,0,1,.4.909V26.545a1.336,1.336,0,0,1-1.311,1.313H45.319v2.523a1.192,1.192,0,0,1-1.211,1.312M16.351,29.17H42.9V26.647a1.336,1.336,0,0,1,1.312-1.313h3.835V7.974l-5.349-5.35H11.4v22.71h3.836a1.336,1.336,0,0,1,1.311,1.313V29.17Z"/>
          <path id="Path_1495239" data-name="Path 1495239" d="M55.413,27.857A1.2,1.2,0,0,1,54.2,26.848L53.192,21.6H49.155a1.312,1.312,0,1,1,0-2.624H54.2a1.2,1.2,0,0,1,1.211,1.009l1.312,6.359a1.338,1.338,0,0,1-1.009,1.514Z"/>
          <path id="Path_1495240" data-name="Path 1495240" d="M3.734,27.857h-.2a1.284,1.284,0,0,1-1.009-1.514l1.311-6.359a1.2,1.2,0,0,1,1.212-1.009h5.047a1.312,1.312,0,0,1,0,2.624H6.055L5.046,26.848a1.393,1.393,0,0,1-1.312,1.009"/>
          <path id="Path_1495241" data-name="Path 1495241" d="M31.491,60.661H26.444a1.4,1.4,0,0,1-1.009-.5,1.947,1.947,0,0,1-.3-1.009l1.311-6.36a1.2,1.2,0,0,1,1.212-1.008H30.18a1.2,1.2,0,0,1,1.211,1.008l1.21,6.258v.3a1.071,1.071,0,0,1-1.11,1.312m-3.532-2.523h2.018L29.17,54.3h-.5Z"/>
          <path id="Path_1495242" data-name="Path 1495242" d="M55.514,41.786H45.421a1.312,1.312,0,0,1,0-2.624H55.514a1.336,1.336,0,0,1,1.312,1.312,1.41,1.41,0,0,1-1.312,1.312"/>
          <path id="Path_1495243" data-name="Path 1495243" d="M10.094,41.786H3.735a1.312,1.312,0,1,1,0-2.624h6.359a1.337,1.337,0,0,1,1.312,1.312,1.41,1.41,0,0,1-1.312,1.312"/>
          <path id="Path_1495244" data-name="Path 1495244" d="M18.875,55.614H5.047a1.312,1.312,0,1,1,0-2.624H18.875a1.312,1.312,0,0,1,0,2.624"/>
          <path id="Path_1495245" data-name="Path 1495245" d="M21.6,27.353a1.521,1.521,0,0,1-1.414-1.009,11.051,11.051,0,0,1,.1-10.5,14.376,14.376,0,0,1,10.4-6.763l.1-2.018a1.92,1.92,0,0,1,.505-1.313A2.114,2.114,0,0,1,32.6,5.046h.3a2.052,2.052,0,0,1,1.515.607l6.258,6.257a2.206,2.206,0,0,1,.5.807,2.955,2.955,0,0,1,.2.909,2.216,2.216,0,0,1-.706,1.716L34.419,21.6a2.059,2.059,0,0,1-1.515.6h-.3a2.064,2.064,0,0,1-1.816-2.018l-.1-1.615c-2.524.4-5.451,1.413-6.864,3.331a4.158,4.158,0,0,0-.807,3.633,1.849,1.849,0,0,1-.3,1.413,2.465,2.465,0,0,1-1.11.4M33.207,8.176l-.1,2.119A1.289,1.289,0,0,1,32,11.506c-4.139.4-7.772,2.524-9.487,5.552A9.072,9.072,0,0,0,21.4,20.792a1.388,1.388,0,0,1,.3-.4c2.22-2.928,6.661-4.239,9.992-4.442a1.407,1.407,0,0,1,.908.3,1.276,1.276,0,0,1,.4.908l.1,2.121,5.552-5.552Z"/>
          <path id="Path_1495246" data-name="Path 1495246" d="M54.2,50.567H45.319a1.312,1.312,0,1,1,0-2.624H54.2a1.312,1.312,0,1,1,0,2.624"/>
        </g>
      </g>
    </g>
  </g>
</svg>
