<svg xmlns="http://www.w3.org/2000/svg" xmlns:xlink="http://www.w3.org/1999/xlink" width="118" height="118" viewBox="0 0 118 118">
  <defs>
    <filter id="Rectangle_411831" x="0" y="0" width="118" height="118" filterUnits="userSpaceOnUse">
      <feOffset dy="3" input="SourceAlpha"/>
      <feGaussianBlur stdDeviation="3" result="blur"/>
      <feFlood flood-opacity="0.161"/>
      <feComposite operator="in" in2="blur"/>
      <feComposite in="SourceGraphic"/>
    </filter>
    <clipPath id="clip-path">
      <rect id="Rectangle_425828" data-name="Rectangle 425828" width="57.404" height="60.091" fill="none"/>
    </clipPath>
  </defs>
  <g id="Group_1228557" data-name="Group 1228557" transform="translate(-326.781 -3857)">
    <g id="Group_1203422" data-name="Group 1203422" transform="translate(-465 1901)">
      <g id="Group_1203409" data-name="Group 1203409" transform="translate(465 -1896)">
        <g transform="matrix(1, 0, 0, 1, 326.78, 3852)" filter="url(#Rectangle_411831)">
          <g id="Rectangle_411831-2" data-name="Rectangle 411831" transform="translate(9 6)" fill="#37f1e9" stroke="#fff" stroke-width="2">
            <path d="M5,0H68a32,32,0,0,1,32,32V95a5,5,0,0,1-5,5H32A32,32,0,0,1,0,68V5A5,5,0,0,1,5,0Z" stroke="none"/>
            <path d="M5,1H68A31,31,0,0,1,99,32V95a4,4,0,0,1-4,4H32A31,31,0,0,1,1,68V5A4,4,0,0,1,5,1Z" fill="none"/>
          </g>
        </g>
      </g>
    </g>
    <g id="Group_1228568" data-name="Group 1228568" transform="translate(357.079 3882.954)">
      <g id="Group_1228567" data-name="Group 1228567" transform="translate(0 0)" clip-path="url(#clip-path)">
        <path id="Path_1495247" data-name="Path 1495247" d="M20.1,27.617l-.626.731L2.568,46.613H1.733a2.81,2.81,0,0,1-.522-1.565V14.258a2.564,2.564,0,0,1,.522-1.566h.834Z" transform="translate(0.041 0.432)" fill="#bec3c7"/>
        <path id="Path_1495248" data-name="Path 1495248" d="M53.567,12.706l.418-.417a2.847,2.847,0,0,1,.834,1.982v30.79a2.667,2.667,0,0,1-.834,1.982l-.418-.417L36.66,28.362l-.627-.731Z" transform="translate(1.227 0.418)" fill="#bec3c7"/>
        <path id="Path_1495249" data-name="Path 1495249" d="M55.153,12.213l-.418.522L37.2,27.659l-8.558,7.2-8.559-7.2L2.55,12.735H1.716a2.909,2.909,0,0,1,2.4-1.252H53.171a2.263,2.263,0,0,1,1.982.73" transform="translate(0.058 0.39)" fill="#ecf0f1"/>
        <path id="Path_1495250" data-name="Path 1495250" d="M54.736,46.121l.418.417a2.851,2.851,0,0,1-1.983.836H4.116a3.064,3.064,0,0,1-2.4-1.252H2.55L19.563,27.857l.627-.731,8.454,7.2,8.558-7.2.627.731Z" transform="translate(0.058 0.923)" fill="#b3b3b3"/>
        <path id="Path_1495251" data-name="Path 1495251" d="M53.228,49.308H4.174A4.171,4.171,0,0,1,.73,47.429a4.588,4.588,0,0,1-.73-2.3V14.343a3.563,3.563,0,0,1,.73-2.3,4.172,4.172,0,0,1,3.444-1.878H53.228a3.793,3.793,0,0,1,2.923,1.252A4.122,4.122,0,0,1,57.4,14.343v30.79a3.792,3.792,0,0,1-1.252,2.922,4.189,4.189,0,0,1-2.923,1.252M4.174,12.778a1.266,1.266,0,0,0-1.252.731,1.182,1.182,0,0,0-.313.834v30.79a1.188,1.188,0,0,0,.313.836,1.594,1.594,0,0,0,1.252.73H53.228a2.19,2.19,0,0,0,1.149-.418,1.567,1.567,0,0,0,.417-1.148V14.343a2.2,2.2,0,0,0-.417-1.149,1.574,1.574,0,0,0-1.149-.417Z" transform="translate(0 0.346)"/>
        <path id="Path_1495252" data-name="Path 1495252" d="M28.658,36.221a1.188,1.188,0,0,1-.836-.313L19.265,28.6,1.731,13.677a1.331,1.331,0,0,1,1.774-1.983L21.039,26.62l7.723,6.574,7.723-6.574L54.02,11.693A1.435,1.435,0,0,1,55.9,11.8a1.432,1.432,0,0,1-.1,1.878L38.052,28.6l-8.558,7.306a1.188,1.188,0,0,1-.836.313" transform="translate(0.044 0.386)"/>
        <path id="Path_1495253" data-name="Path 1495253" d="M2.567,47.394a1.681,1.681,0,0,1-.939-.313,1.432,1.432,0,0,1-.1-1.878L18.536,26.937a1.331,1.331,0,0,1,1.983,1.774L3.507,46.977a1.136,1.136,0,0,1-.94.417" transform="translate(0.042 0.903)"/>
        <path id="Path_1495254" data-name="Path 1495254" d="M53.592,47.4a1.134,1.134,0,0,1-.939-.417L35.641,28.713a1.33,1.33,0,1,1,1.982-1.774L54.532,45.2a1.328,1.328,0,0,1-.1,1.878,1.186,1.186,0,0,1-.836.313" transform="translate(1.202 0.902)"/>
        <path id="Path_1495255" data-name="Path 1495255" d="M38.668,5.211H15.185a1.381,1.381,0,0,1-1.357-1.357A1.381,1.381,0,0,1,15.185,2.5H38.668a1.381,1.381,0,0,1,1.357,1.357,1.381,1.381,0,0,1-1.357,1.357" transform="translate(0.471 0.085)"/>
        <path id="Path_1495256" data-name="Path 1495256" d="M35.371,7.906a1.278,1.278,0,0,1-.94-.417,1.326,1.326,0,0,1,0-1.88L36.1,3.941l-1.67-1.67A1.329,1.329,0,0,1,36.31.391L38.92,3a1.324,1.324,0,0,1,0,1.879L36.31,7.49a1.871,1.871,0,0,1-.939.417" transform="translate(1.159 0)"/>
        <path id="Path_1495257" data-name="Path 1495257" d="M38.668,55.679H15.185a1.357,1.357,0,0,1,0-2.714H38.668a1.357,1.357,0,0,1,0,2.714" transform="translate(0.471 1.803)"/>
        <path id="Path_1495258" data-name="Path 1495258" d="M17.793,58.373a1.28,1.28,0,0,1-.94-.418l-2.609-2.61a1.323,1.323,0,0,1,0-1.878l2.609-2.61a1.329,1.329,0,0,1,1.879,1.879l-1.669,1.67,1.669,1.67a1.323,1.323,0,0,1,0,1.879,1.874,1.874,0,0,1-.939.418" transform="translate(0.472 1.718)"/>
      </g>
    </g>
  </g>
</svg>
