<svg xmlns="http://www.w3.org/2000/svg" xmlns:xlink="http://www.w3.org/1999/xlink" width="118" height="118" viewBox="0 0 118 118">
  <defs>
    <filter id="Path_1495176" x="0" y="0" width="118" height="118" filterUnits="userSpaceOnUse">
      <feOffset dy="3" input="SourceAlpha"/>
      <feGaussianBlur stdDeviation="3" result="blur"/>
      <feFlood flood-opacity="0.161"/>
      <feComposite operator="in" in2="blur"/>
      <feComposite in="SourceGraphic"/>
    </filter>
  </defs>
  <g id="Group_1228550" data-name="Group 1228550" transform="translate(-791.781 -1956)">
    <g id="Group_1203409" data-name="Group 1203409" transform="translate(465 -1896)">
      <g transform="matrix(1, 0, 0, 1, 326.78, 3852)" filter="url(#Path_1495176)">
        <g id="Path_1495176-2" data-name="Path 1495176" transform="translate(9 6)" fill="#b8a9f1">
          <path d="M 95 99 L 32 99 C 27.8145866394043 99 23.75490760803223 98.18050384521484 19.93370628356934 96.56427764892578 C 16.24237251281738 95.00297546386719 12.92700004577637 92.76761627197266 10.07969379425049 89.92030334472656 C 7.232386589050293 87.072998046875 4.997026443481445 83.75762939453125 3.435719966888428 80.06629180908203 C 1.819493293762207 76.24509429931641 1 72.18540954589844 1 68 L 1 5 C 1 2.794386625289917 2.794386625289917 1 5 1 L 68 1 C 72.18540954589844 1 76.24509429931641 1.819493293762207 80.06629180908203 3.435719966888428 C 83.75762939453125 4.997026443481445 87.072998046875 7.232386589050293 89.92030334472656 10.07969379425049 C 92.76761627197266 12.92700004577637 95.00297546386719 16.24237251281738 96.56427764892578 19.93370628356934 C 98.18050384521484 23.75490760803223 99 27.8145866394043 99 32 L 99 95 C 99 97.20561218261719 97.20561218261719 99 95 99 Z" stroke="none"/>
          <path d="M 5 2 C 3.345802307128906 2 2 3.345802307128906 2 5 L 2 68 C 2 72.05085754394531 2.792915344238281 75.97948455810547 4.356727600097656 79.67674255371094 C 5.86761474609375 83.24888610839844 8.030998229980469 86.45741271972656 10.78679656982422 89.21319580078125 C 13.54258728027344 91.96900177001953 16.75111389160156 94.13238525390625 20.32325744628906 95.64327239990234 C 24.02051544189453 97.20708465576172 27.94914245605469 98 32 98 L 95 98 C 96.65419769287109 98 98 96.65419769287109 98 95 L 98 32 C 98 27.94914245605469 97.20708465576172 24.02051544189453 95.64327239990234 20.32325744628906 C 94.13238525390625 16.75111389160156 91.96900177001953 13.54258728027344 89.21319580078125 10.78679656982422 C 86.45741271972656 8.030998229980469 83.24888610839844 5.86761474609375 79.67674255371094 4.356727600097656 C 75.97948455810547 2.792915344238281 72.05085754394531 2 68 2 L 5 2 M 5 0 L 68 0 C 85.67311096191406 0 100 14.32688903808594 100 32 L 100 95 C 100 97.76141357421875 97.76141357421875 100 95 100 L 32 100 C 14.32688903808594 100 0 85.67311096191406 0 68 L 0 5 C 0 2.238571166992188 2.238571166992188 0 5 0 Z" stroke="none" fill="#fff"/>
        </g>
      </g>
    </g>
    <g id="lightbulb_18536731" transform="translate(766.466 1972.642)">
      <g id="Group_1204582" data-name="Group 1204582" transform="translate(55.044 2.126)">
        <g id="Group_1204579" data-name="Group 1204579" transform="translate(12.474)">
          <path id="Path_1260567" data-name="Path 1260567" d="M153.392,45.351h15.787a10.7,10.7,0,0,1,3.1-6.2c3.914-4.435,5.955-9.438,5.955-14.485,0-8.856-7.567-16.047-16.949-16.163-9.382.115-16.949,7.307-16.949,16.163,0,5.047,2.041,10.05,5.955,14.485A10.7,10.7,0,0,1,153.392,45.351Z" transform="translate(-144.337 -8.5)" fill="#ffc328" fill-rule="evenodd"/>
          <path id="Path_1260568" data-name="Path 1260568" d="M219.185,51.059h11.379a10.7,10.7,0,0,1,3.1-6.2c3.915-4.435,5.955-9.438,5.955-14.485a16.245,16.245,0,0,0-11.183-15.152,29.655,29.655,0,0,0-9.251,35.84Z" transform="translate(-205.722 -14.208)" fill="#ffd54f" fill-rule="evenodd"/>
          <path id="Path_1260569" data-name="Path 1260569" d="M226.038,304.108a6.711,6.711,0,0,1-13.327-.052Z" transform="translate(-202.426 -259.596)" fill="#b2b6b7" fill-rule="evenodd"/>
          <path id="Path_1260570" data-name="Path 1260570" d="M272.1,304.286a6.4,6.4,0,0,1-1.459,3.467,29.807,29.807,0,0,1-3.712-3.487Z" transform="translate(-248.483 -259.774)" fill="#c8c9cd" fill-rule="evenodd"/>
          <path id="Path_1260571" data-name="Path 1260571" d="M186.871,234.835h18.7a1.416,1.416,0,0,1,1.412,1.412v2.617a1.416,1.416,0,0,1-1.412,1.412,1.416,1.416,0,0,1,1.412,1.412v2.618a1.416,1.416,0,0,1-1.412,1.412h-18.7a1.416,1.416,0,0,1-1.412-1.412v-2.618a1.416,1.416,0,0,1,1.412-1.412,1.416,1.416,0,0,1-1.412-1.412v-2.617A1.416,1.416,0,0,1,186.871,234.835Z" transform="translate(-179.273 -200.788)" fill="#595751" fill-rule="evenodd"/>
          <path id="Path_1260572" data-name="Path 1260572" d="M226.581,234.835h13.928a1.416,1.416,0,0,1,1.412,1.412v2.617a1.416,1.416,0,0,1-1.412,1.412,1.416,1.416,0,0,1,1.412,1.412v2.618a1.416,1.416,0,0,1-1.412,1.412h-7.458a29.608,29.608,0,0,1-6.471-10.882Z" transform="translate(-214.209 -200.788)" fill="#706c64" fill-rule="evenodd"/>
          <path id="Path_1260573" data-name="Path 1260573" d="M186.871,276.447h18.7a1.416,1.416,0,0,0,1.412-1.412v-2.618a1.416,1.416,0,0,0-1.412-1.412h-18.7a1.416,1.416,0,0,0-1.412,1.412v2.618A1.416,1.416,0,0,0,186.871,276.447Z" transform="translate(-179.273 -231.518)" fill="#706c64" fill-rule="evenodd"/>
          <path id="Path_1260574" data-name="Path 1260574" d="M246.832,276.447h7.457a1.416,1.416,0,0,0,1.412-1.412v-2.618a1.416,1.416,0,0,0-1.412-1.412H242.8A29.736,29.736,0,0,0,246.832,276.447Z" transform="translate(-227.99 -231.518)" fill="#8f8b81" fill-rule="evenodd"/>
        </g>
        <g id="Group_1204580" data-name="Group 1204580" transform="translate(21.876 9.379)">
          <path id="Path_1260575" data-name="Path 1260575" d="M207.242,70.846h14.314a.4.4,0,0,1,.4.4V85.561a.4.4,0,0,1-.4.4H207.242a.4.4,0,0,1-.4-.4V71.247A.4.4,0,0,1,207.242,70.846Z" transform="translate(-206.841 -70.846)" fill="#30b265" fill-rule="evenodd"/>
          <path id="Path_1260576" data-name="Path 1260576" d="M220.872,70.846h8.978a.4.4,0,0,1,.4.4V85.561a.4.4,0,0,1-.4.4H216.6A29.484,29.484,0,0,1,220.872,70.846Z" transform="translate(-215.135 -70.846)" fill="#4abe69" fill-rule="evenodd"/>
          <path id="Path_1260577" data-name="Path 1260577" d="M231.267,93.354h6.427V101.7h-8.345V95.272Z" transform="translate(-225.963 -89.968)" fill="#58d561" fill-rule="evenodd"/>
          <path id="Path_1260578" data-name="Path 1260578" d="M231.267,93.354h5.44v7.336h-7.358V95.272Z" transform="translate(-225.963 -89.968)" fill="#6ce75a" fill-rule="evenodd"/>
        </g>
        <g id="Group_1204581" data-name="Group 1204581" transform="translate(0 52.364)">
          <path id="Path_1260579" data-name="Path 1260579" d="M87.061,359.314l4.558,17.012c6.191-1.8,9.19-.387,14.327.99a5.641,5.641,0,0,0,4.43-.583l21.3-12.3a3.223,3.223,0,0,0-3.223-5.582l-11.376,6.568a3.777,3.777,0,0,0-4.112-5.761l-3.861,1.035a6.155,6.155,0,0,1-4.835-.636l-5.147-2.972C96.163,355.371,92.992,358.688,87.061,359.314Z" transform="translate(-83.203 -356.598)" fill="#fecbaa" fill-rule="evenodd"/>
          <path id="Path_1260580" data-name="Path 1260580" d="M204.347,395.221a7.388,7.388,0,0,1-3.83.026,1.107,1.107,0,1,1,.572-2.139,5.024,5.024,0,0,0,2.687-.026l6.27-1.68a3.8,3.8,0,0,0,2.8-3.518,3.75,3.75,0,0,1,.448,1.026,3.792,3.792,0,0,1-2.674,4.631Z" transform="translate(-178.894 -383.177)" fill="#fecbaa" fill-rule="evenodd"/>
          <path id="Path_1260581" data-name="Path 1260581" d="M87.059,359.314l2.109,7.872a33.5,33.5,0,0,0,41.945-8.59,3.219,3.219,0,0,0-2.657.253l-11.376,6.568a3.777,3.777,0,0,0-4.112-5.76l-3.861,1.035a6.155,6.155,0,0,1-4.835-.636l-5.147-2.972c-2.966-1.712-6.137,1.6-12.067,2.23Z" transform="translate(-83.201 -356.598)" fill="#fedfc5" fill-rule="evenodd"/>
          <path id="Path_1260582" data-name="Path 1260582" d="M204.347,395.221a7.388,7.388,0,0,1-3.83.026,1.107,1.107,0,1,1,.572-2.139,5.026,5.026,0,0,0,2.687-.026l6.27-1.68a3.8,3.8,0,0,0,2.8-3.518,3.748,3.748,0,0,1,.448,1.026,3.792,3.792,0,0,1-2.674,4.631Z" transform="translate(-178.894 -383.178)" fill="#fecbaa" fill-rule="evenodd"/>
          <path id="Path_1260583" data-name="Path 1260583" d="M65.641,363.34l5.089,18.991a.707.707,0,0,1-.5.864l-2.839.761a.707.707,0,0,1-.864-.5L61.44,364.466a.708.708,0,0,1,.5-.864l2.839-.761A.707.707,0,0,1,65.641,363.34Z" transform="translate(-61.416 -361.881)" fill="#58d561" fill-rule="evenodd"/>
          <path id="Path_1260584" data-name="Path 1260584" d="M65.641,363.341l2.56,9.554a33.513,33.513,0,0,1-5.414-3.4l-1.348-5.029a.708.708,0,0,1,.5-.864l2.839-.761A.707.707,0,0,1,65.641,363.341Z" transform="translate(-61.416 -361.882)" fill="#6ce75a" fill-rule="evenodd"/>
        </g>
      </g>
      <path id="Path_1260585" data-name="Path 1260585" d="M81.433,22.108H87.52V16.019H82.688l-1.256,1.258Zm-2.256,1.128V16.808a1.123,1.123,0,0,1,.334-.8l1.916-1.918a1.123,1.123,0,0,1,.795-.331h6.428a1.127,1.127,0,0,1,1.128,1.128v8.346a1.128,1.128,0,0,1-1.128,1.128H80.3A1.128,1.128,0,0,1,79.176,23.236Zm-.61-10.085H90.393V24.975H78.566ZM75.31,26.887H73.678a1.128,1.128,0,0,1,0-2.256h1.341l1.291-.707v-.609l-.383.25a1.108,1.108,0,0,1-.617.187H73.678a1.128,1.128,0,0,1,0-2.256h1.291l1.341-.883v-.42H73.678a1.128,1.128,0,0,1,0-2.256H76.31v-.42l-1.341-.882H73.678a1.128,1.128,0,0,1,0-2.257H75.31a1.109,1.109,0,0,1,.617.185l.383.25V14.2L75.019,13.5H73.678a1.128,1.128,0,0,1,0-2.256H75.31a1.1,1.1,0,0,1,.539.14l.624.34a1.5,1.5,0,0,1,.66-.662l-.341-.62a1.118,1.118,0,0,1-.135-.543V8.259a1.128,1.128,0,1,1,2.256,0V9.606l.7,1.289h.61l-.248-.379a1.135,1.135,0,0,1-.184-.621V8.259a1.128,1.128,0,0,1,2.256,0v1.3l.88,1.339h.418V8.259a1.128,1.128,0,1,1,2.256,0V10.9h.419l.887-1.339v-1.3a1.128,1.128,0,1,1,2.256,0V9.894a1.086,1.086,0,0,1-.192.621l-.248.379h.61l.709-1.289V8.259a1.128,1.128,0,1,1,2.256,0V9.894a1.125,1.125,0,0,1-.142.543l-.341.62a1.551,1.551,0,0,1,.667.662l.617-.34a1.116,1.116,0,0,1,.539-.14h1.639a1.128,1.128,0,0,1,0,2.256H93.933l-1.284.708v.608l.376-.25a1.128,1.128,0,0,1,.617-.185h1.639a1.128,1.128,0,0,1,0,2.257h-1.3l-1.334.882v.42h2.632a1.128,1.128,0,0,1,0,2.256H92.649v.42l1.334.883,1.3,0a1.128,1.128,0,0,1,0,2.257H93.649a1.132,1.132,0,0,1-.624-.187l-.376-.25v.608l1.284.709h1.348a1.128,1.128,0,0,1,0,2.256H93.649a1.123,1.123,0,0,1-.546-.14l-.617-.34a1.55,1.55,0,0,1-.667.662l.341.62a1.125,1.125,0,0,1,.142.543v1.635a1.128,1.128,0,1,1-2.256,0V28.521l-.709-1.289h-.61l.248.379a1.087,1.087,0,0,1,.192.621v1.635a1.128,1.128,0,1,1-2.256,0v-1.3l-.887-1.339H85.6v2.636a1.128,1.128,0,1,1-2.256,0V27.232h-.418l-.88,1.339v1.3a1.128,1.128,0,1,1-2.256,0V28.232a1.137,1.137,0,0,1,.184-.621l.248-.379h-.61l-.7,1.289v1.346a1.128,1.128,0,1,1-2.256,0V28.232a1.118,1.118,0,0,1,.135-.543l.341-.62a1.5,1.5,0,0,1-.66-.662l-.624.34a1.1,1.1,0,0,1-.539.139Zm28.415,31.6a2.1,2.1,0,0,0-2.859-.767L89.7,64.163a4.843,4.843,0,0,1-2.639,1.78l-5.648,1.513a7.622,7.622,0,0,1-1.994.271,7.176,7.176,0,0,1-1.852-.245,1.128,1.128,0,0,1,.589-2.178,5.114,5.114,0,0,0,2.675-.027l5.648-1.512a2.644,2.644,0,0,0,1.476-1.03c.007-.017.021-.032.028-.048a2.613,2.613,0,0,0,.369-2.171A2.652,2.652,0,0,0,85.1,58.64l-3.86,1.035a7.264,7.264,0,0,1-5.69-.749l-5.144-2.972c-1.178-.678-2.455-.251-4.8.626a30.765,30.765,0,0,1-4.619,1.438l3.931,14.665c4.6-.993,7.535-.157,11.182.884.631.181,1.284.367,1.972.551a4.5,4.5,0,0,0,3.576-.471l21.306-12.3a2.1,2.1,0,0,0,.766-2.861ZM63.156,74.824l-2.022.542L56.267,57.191l2.022-.542ZM58.183,56.242h0ZM84.469,51.4a5.544,5.544,0,0,0,5.094-3.21H79.375A5.543,5.543,0,0,0,84.469,51.4Zm-9.358-5.467H93.82a.284.284,0,0,0,.277-.283V43.028a.284.284,0,0,0-.277-.284H75.111a.285.285,0,0,0-.277.284v2.617A.284.284,0,0,0,75.111,45.929Zm-.795-13.9c-3.711-4.2-5.669-8.955-5.669-13.737,0-8.179,7.095-14.921,15.822-15.035,8.72.114,15.821,6.856,15.821,15.035,0,4.782-1.965,9.533-5.676,13.737a15.443,15.443,0,0,0-2.192,3.019H76.509A15.442,15.442,0,0,0,74.317,32.027Zm.795,8.46H93.82A.284.284,0,0,0,94.1,40.2V37.586a.284.284,0,0,0-.277-.283H75.111a.284.284,0,0,0-.277.283V40.2a.284.284,0,0,0,.277.284Zm30.565,16.871a4.359,4.359,0,0,1-1.589,5.943L82.781,75.6a6.767,6.767,0,0,1-3.427.948A7.179,7.179,0,0,1,77.5,76.3c-.709-.19-1.369-.377-2.008-.56-3.434-.981-6-1.709-10-.868a1.837,1.837,0,0,1-1.341,2.025l-2.838.76a1.843,1.843,0,0,1-.475.063,1.82,1.82,0,0,1-.915-.247,1.79,1.79,0,0,1-.851-1.112L53.976,57.367a1.869,1.869,0,0,1,.184-1.391,1.825,1.825,0,0,1,1.114-.854l2.838-.761a1.839,1.839,0,0,1,2.249,1.3l.043.176a28.236,28.236,0,0,0,4.42-1.366c2.441-.918,4.555-1.712,6.712-.468l5.144,2.973a5.019,5.019,0,0,0,3.98.523l2.682-.719v-3.2a7.726,7.726,0,0,1-6.371-5.387H75.111a2.538,2.538,0,0,1-2.533-2.54V43.028A2.539,2.539,0,0,1,73,41.616a2.535,2.535,0,0,1-.426-1.413V37.586a2.541,2.541,0,0,1,1.454-2.293,17.838,17.838,0,0,0-1.4-1.772C68.548,28.9,66.384,23.63,66.384,18.29A16.7,16.7,0,0,1,71.7,6.113,18.72,18.72,0,0,1,84.455,1h.028A18.747,18.747,0,0,1,97.24,6.113a16.725,16.725,0,0,1,5.307,12.177c0,5.34-2.164,10.608-6.244,15.231a18.994,18.994,0,0,0-1.4,1.772,2.541,2.541,0,0,1,1.454,2.293V40.2a2.536,2.536,0,0,1-.426,1.413,2.539,2.539,0,0,1,.426,1.413v2.617a2.538,2.538,0,0,1-2.533,2.54H91.968A7.726,7.726,0,0,1,85.6,53.572V56.3a4.877,4.877,0,0,1,5.094,4.687l9.046-5.22a4.355,4.355,0,0,1,5.939,1.593Zm4.576-24.7-4.413-2.548a1.128,1.128,0,0,0-1.128,1.954l4.413,2.548a1.116,1.116,0,0,0,.561.15,1.128,1.128,0,0,0,.568-2.1Zm3.335-14.712h-5.094a1.128,1.128,0,0,0,0,2.256h5.094a1.128,1.128,0,0,0,0-2.256Zm-8.315-9.755a1.143,1.143,0,0,0,.568-.152l4.413-2.546a1.128,1.128,0,0,0-1.128-1.955l-4.413,2.547a1.127,1.127,0,0,0,.561,2.106ZM63.092,30.111l-4.406,2.548a1.126,1.126,0,0,0,.56,2.1,1.141,1.141,0,0,0,.568-.15l4.406-2.548a1.123,1.123,0,0,0,.419-1.54,1.135,1.135,0,0,0-1.547-.414ZM55.345,20.2h5.094a1.128,1.128,0,0,0,0-2.256H55.345a1.128,1.128,0,0,0,0,2.256ZM58.268,3.951a1.131,1.131,0,0,0,.419,1.542L63.092,8.04a1.134,1.134,0,0,0,1.547-.412,1.124,1.124,0,0,0-.419-1.542L59.815,3.539a1.134,1.134,0,0,0-1.547.412Z" transform="translate(0)" fill-rule="evenodd"/>
    </g>
  </g>
</svg>
