<svg xmlns="http://www.w3.org/2000/svg" xmlns:xlink="http://www.w3.org/1999/xlink" width="118" height="118" viewBox="0 0 118 118">
  <defs>
    <filter id="Rectangle_411831" x="0" y="0" width="118" height="118" filterUnits="userSpaceOnUse">
      <feOffset dy="3" input="SourceAlpha"/>
      <feGaussianBlur stdDeviation="3" result="blur"/>
      <feFlood flood-opacity="0.161"/>
      <feComposite operator="in" in2="blur"/>
      <feComposite in="SourceGraphic"/>
    </filter>
    <clipPath id="clip-path">
      <rect id="Rectangle_425809" data-name="Rectangle 425809" width="57.732" height="61.609" fill="none"/>
    </clipPath>
  </defs>
  <g id="Group_1228556" data-name="Group 1228556" transform="translate(-326.781 -3857)">
    <g id="Group_1203422" data-name="Group 1203422" transform="translate(-465 1901)">
      <g id="Group_1203409" data-name="Group 1203409" transform="translate(465 -1896)">
        <g transform="matrix(1, 0, 0, 1, 326.78, 3852)" filter="url(#Rectangle_411831)">
          <g id="Rectangle_411831-2" data-name="Rectangle 411831" transform="translate(9 6)" fill="#37f1e9" stroke="#fff" stroke-width="2">
            <path d="M5,0H68a32,32,0,0,1,32,32V95a5,5,0,0,1-5,5H32A32,32,0,0,1,0,68V5A5,5,0,0,1,5,0Z" stroke="none"/>
            <path d="M5,1H68A31,31,0,0,1,99,32V95a4,4,0,0,1-4,4H32A31,31,0,0,1,1,68V5A4,4,0,0,1,5,1Z" fill="none"/>
          </g>
        </g>
      </g>
    </g>
    <g id="Group_1228560" data-name="Group 1228560" transform="translate(356.915 3882.196)">
      <g id="Group_1228559" data-name="Group 1228559" transform="translate(0 0)" clip-path="url(#clip-path)">
        <path id="Path_1495177" data-name="Path 1495177" d="M46.6,2.51a2.619,2.619,0,1,1-2.619,2.62A2.595,2.595,0,0,1,46.6,2.51" transform="translate(1.909 0.109)" fill="#d7deed"/>
        <path id="Path_1495178" data-name="Path 1495178" d="M6.435,50.209a2.6,2.6,0,0,1,2.62,2.619,2.662,2.662,0,0,1-2.62,2.62,2.662,2.662,0,0,1-2.62-2.62,2.6,2.6,0,0,1,2.62-2.619" transform="translate(0.166 2.18)" fill="#d7deed"/>
        <path id="Path_1495179" data-name="Path 1495179" d="M51.951,37.879a23.418,23.418,0,0,1-4.82,1.467c-1.049-4.086-3.248-6.81-5.658-6.81a13.153,13.153,0,0,1,6.6,1.781,15.879,15.879,0,0,1,3.877,3.562" transform="translate(1.8 1.412)" fill="#86dcfd"/>
        <path id="Path_1495180" data-name="Path 1495180" d="M41.473,50.711a32.46,32.46,0,0,1,5.658.524c-1.049,4.087-3.249,6.81-5.658,6.81Z" transform="translate(1.8 2.201)" fill="#86dcfd"/>
        <path id="Path_1495181" data-name="Path 1495181" d="M41.909,58.02a13.336,13.336,0,0,1-4.086-.628h-.105a10.371,10.371,0,0,1-2.409-1.153,15.106,15.106,0,0,1-3.877-3.458,23.547,23.547,0,0,1,4.82-1.467C37.3,55.3,39.394,58.02,41.909,58.02" transform="translate(1.364 2.228)" fill="#86dcfd"/>
        <path id="Path_1495182" data-name="Path 1495182" d="M41.743,45.188v5.763a32.46,32.46,0,0,0-5.658.524,23.4,23.4,0,0,1-.838-6.287Z" transform="translate(1.53 1.962)" fill="#86dcfd"/>
        <path id="Path_1495183" data-name="Path 1495183" d="M47.633,45.188h6.6a12.89,12.89,0,0,1-2.62,7.859A23.4,23.4,0,0,0,46.8,51.58a24.815,24.815,0,0,0,.838-6.392" transform="translate(2.031 1.962)" fill="#86dcfd"/>
        <path id="Path_1495184" data-name="Path 1495184" d="M54.333,45.511h-6.6a23.408,23.408,0,0,0-.838-6.287,21.584,21.584,0,0,0,4.82-1.467,13.028,13.028,0,0,1,2.619,7.754" transform="translate(2.036 1.639)" fill="#3598db"/>
        <path id="Path_1495185" data-name="Path 1495185" d="M51.951,52.785a13.069,13.069,0,0,1-10.478,5.239c2.41,0,4.61-2.724,5.658-6.81a23.641,23.641,0,0,1,4.82,1.571" transform="translate(1.8 2.223)" fill="#3598db"/>
        <path id="Path_1495186" data-name="Path 1495186" d="M47.868,45.45h-6.5V39.687a32.45,32.45,0,0,0,5.658-.524,23.408,23.408,0,0,1,.838,6.287" transform="translate(1.796 1.7)" fill="#86dcfd"/>
        <path id="Path_1495187" data-name="Path 1495187" d="M41.473,45.188h6.5a23.4,23.4,0,0,1-.837,6.287,32.46,32.46,0,0,0-5.658-.524Z" transform="translate(1.8 1.962)" fill="#3598db"/>
        <path id="Path_1495188" data-name="Path 1495188" d="M47.131,39.446a32.481,32.481,0,0,1-5.659.524V32.636c2.41,0,4.5,2.723,5.659,6.81" transform="translate(1.8 1.417)" fill="#3598db"/>
        <path id="Path_1495189" data-name="Path 1495189" d="M41.708,50.711v7.334c-2.41,0-4.611-2.723-5.658-6.81a32.46,32.46,0,0,1,5.658-.524" transform="translate(1.565 2.201)" fill="#3598db"/>
        <path id="Path_1495190" data-name="Path 1495190" d="M41.743,39.687V45.45h-6.5a23.408,23.408,0,0,1,.838-6.287,32.459,32.459,0,0,0,5.658.524" transform="translate(1.53 1.7)" fill="#3598db"/>
        <path id="Path_1495191" data-name="Path 1495191" d="M41.708,32.636V39.97a32.359,32.359,0,0,1-5.658-.524c1.048-4.086,3.144-6.81,5.658-6.81" transform="translate(1.565 1.417)" fill="#86dcfd"/>
        <path id="Path_1495192" data-name="Path 1495192" d="M41.909,32.636c-2.41,0-4.611,2.724-5.658,6.81a21.638,21.638,0,0,1-4.82-1.466,12.009,12.009,0,0,1,3.877-3.458,11.5,11.5,0,0,1,3.038-1.257,9.388,9.388,0,0,1,3.562-.629" transform="translate(1.364 1.417)" fill="#3598db"/>
        <path id="Path_1495193" data-name="Path 1495193" d="M36.259,39.228a23.408,23.408,0,0,0-.838,6.287h-6.6a12.884,12.884,0,0,1,2.62-7.858,23.577,23.577,0,0,0,4.82,1.571" transform="translate(1.251 1.635)" fill="#86dcfd"/>
        <path id="Path_1495194" data-name="Path 1495194" d="M35.522,45.192a23.4,23.4,0,0,0,.838,6.287,21.694,21.694,0,0,0-4.82,1.467,13.6,13.6,0,0,1-2.62-7.858h6.6Z" transform="translate(1.255 1.957)" fill="#3598db"/>
        <path id="Path_1495195" data-name="Path 1495195" d="M24.88,1.306V17.022H1.305V1.306Z" transform="translate(0.057 0.057)" fill="#ecf0f1"/>
        <rect id="Rectangle_425808" data-name="Rectangle 425808" width="7.858" height="5.239" transform="translate(9.221 17.079)" fill="#57606f"/>
        <path id="Path_1495196" data-name="Path 1495196" d="M24.936,18.336H17.079a1.362,1.362,0,1,1,0-2.724h6.5V2.619H2.618v13.1h6.6a1.363,1.363,0,0,1,0,2.725H1.362A1.387,1.387,0,0,1,0,17.079V1.362A1.386,1.386,0,0,1,1.362,0H24.936A1.387,1.387,0,0,1,26.3,1.362V17.079a1.555,1.555,0,0,1-1.363,1.257" transform="translate(0 0)"/>
        <path id="Path_1495197" data-name="Path 1495197" d="M16.752,22.921a1.387,1.387,0,0,1-1.363-1.363V17.577H10.151v3.982a1.387,1.387,0,0,1-1.363,1.363,1.274,1.274,0,0,1-1.257-1.257V16.425a1.388,1.388,0,0,1,1.363-1.363h7.858a1.388,1.388,0,0,1,1.363,1.363v5.239a1.555,1.555,0,0,1-1.363,1.257" transform="translate(0.327 0.654)"/>
        <path id="Path_1495198" data-name="Path 1495198" d="M18.066,22.707H7.588a1.362,1.362,0,1,1,0-2.724H18.066a1.362,1.362,0,0,1,0,2.724" transform="translate(0.27 0.868)"/>
        <path id="Path_1495199" data-name="Path 1495199" d="M18.066,26.523H7.588a1.362,1.362,0,1,1,0-2.724H18.066a1.362,1.362,0,0,1,0,2.724" transform="translate(0.27 1.033)"/>
        <path id="Path_1495200" data-name="Path 1495200" d="M19.48,13.971H6.383a1.362,1.362,0,0,1,0-2.724h13.1a1.387,1.387,0,0,1,1.363,1.362,1.555,1.555,0,0,1-1.363,1.363" transform="translate(0.218 0.488)"/>
        <path id="Path_1495201" data-name="Path 1495201" d="M42.074,28.854a1.387,1.387,0,0,1-1.362-1.363v-.1a1.362,1.362,0,0,1,2.724,0v.1a1.555,1.555,0,0,1-1.363,1.363m0-3.772a1.387,1.387,0,0,1-1.362-1.363v-.105a1.362,1.362,0,0,1,2.724,0v.105a1.555,1.555,0,0,1-1.363,1.363m0-3.877a1.387,1.387,0,0,1-1.362-1.362v-.105a1.362,1.362,0,0,1,2.724,0v.105A1.457,1.457,0,0,1,42.074,21.2m0-3.772a1.386,1.386,0,0,1-1.362-1.362v-.105a1.362,1.362,0,0,1,2.724,0v.105a1.553,1.553,0,0,1-1.363,1.362m0-3.772A1.387,1.387,0,0,1,40.712,12.3v-.1a1.386,1.386,0,0,1,1.362-1.362,1.3,1.3,0,0,1,1.257,1.362v.1a1.371,1.371,0,0,1-1.257,1.363M40.5,11.46h-.1a1.362,1.362,0,1,1,0-2.724h.1A1.388,1.388,0,0,1,41.864,10.1,1.553,1.553,0,0,1,40.5,11.46m-3.876,0h-.1a1.362,1.362,0,1,1,0-2.724h.1a1.362,1.362,0,1,1,0,2.724m-3.772,0h-.1a1.362,1.362,0,1,1,0-2.724h.1a1.362,1.362,0,1,1,0,2.724m-3.771,0h-.106a1.362,1.362,0,0,1,0-2.724h.106A1.388,1.388,0,0,1,30.444,10.1a1.463,1.463,0,0,1-1.362,1.362" transform="translate(1.199 0.379)"/>
        <path id="Path_1495202" data-name="Path 1495202" d="M24.5,49.841H24.4a1.362,1.362,0,1,1,0-2.724H24.5a1.387,1.387,0,0,1,1.362,1.363A1.463,1.463,0,0,1,24.5,49.841m-3.877,0h-.105a1.362,1.362,0,0,1,0-2.724h.105a1.362,1.362,0,1,1,0,2.724m-3.772,0h-.1a1.362,1.362,0,1,1,0-2.724h.1a1.362,1.362,0,0,1,0,2.724m-3.772,0h-.1a1.362,1.362,0,1,1,0-2.724h.1a1.362,1.362,0,0,1,0,2.724m-1.677-2.1a1.388,1.388,0,0,1-1.362-1.363v-.1a1.362,1.362,0,0,1,2.724,0v.1A1.555,1.555,0,0,1,11.4,47.746m0-3.877a1.387,1.387,0,0,1-1.362-1.362V42.4a1.362,1.362,0,0,1,2.724,0v.105A1.458,1.458,0,0,1,11.4,43.868m0-3.772a1.387,1.387,0,0,1-1.362-1.362v-.105a1.362,1.362,0,0,1,2.724,0v.105A1.554,1.554,0,0,1,11.4,40.1m0-3.772a1.387,1.387,0,0,1-1.362-1.362v-.1a1.362,1.362,0,1,1,2.724,0v.1A1.554,1.554,0,0,1,11.4,36.325m0-3.772a1.387,1.387,0,0,1-1.362-1.362v-.105a1.362,1.362,0,0,1,2.724,0v.105A1.554,1.554,0,0,1,11.4,32.553" transform="translate(0.436 1.29)"/>
        <path id="Path_1495203" data-name="Path 1495203" d="M46.659,9.168A3.982,3.982,0,1,1,50.64,5.187a4.048,4.048,0,0,1-3.982,3.982m0-5.239a1.366,1.366,0,1,0,1.257,1.257,1.274,1.274,0,0,0-1.257-1.257" transform="translate(1.853 0.052)"/>
        <path id="Path_1495204" data-name="Path 1495204" d="M6.492,56.867a3.982,3.982,0,1,1,3.981-3.982,4.047,4.047,0,0,1-3.981,3.982m0-5.239A1.362,1.362,0,1,0,7.854,52.99a1.459,1.459,0,0,0-1.363-1.362" transform="translate(0.109 2.123)"/>
        <path id="Path_1495205" data-name="Path 1495205" d="M30.861,38.967a1.294,1.294,0,0,1,.942-2.41,26.462,26.462,0,0,0,20.014,0,1.294,1.294,0,0,1,.942,2.41,28.817,28.817,0,0,1-21.9,0" transform="translate(1.305 1.582)"/>
        <path id="Path_1495206" data-name="Path 1495206" d="M51.92,54.016a26.472,26.472,0,0,0-20.014,0,1.294,1.294,0,0,1-.942-2.41,28.621,28.621,0,0,1,11-2.2,26.812,26.812,0,0,1,11,2.2,1.418,1.418,0,0,1,.734,1.677,1.339,1.339,0,0,1-1.781.734" transform="translate(1.307 2.145)"/>
        <path id="Path_1495207" data-name="Path 1495207" d="M41.8,60.249c-3.038,0-5.553-2.934-6.916-7.754a26.694,26.694,0,0,1-.838-6.706,27.334,27.334,0,0,1,.838-6.706c1.363-4.82,3.877-7.754,6.916-7.754s5.553,2.934,6.916,7.754a26.05,26.05,0,0,1,0,13.307c-1.363,4.925-3.983,7.859-6.916,7.859m0-26.195c-2.515,0-5.135,4.925-5.135,11.84a21.707,21.707,0,0,0,.734,5.972c.943,3.458,2.724,5.763,4.4,5.763,2.515,0,5.134-4.924,5.134-11.84a21.7,21.7,0,0,0-.732-5.972c-1.049-3.458-2.725-5.763-4.4-5.763" transform="translate(1.478 1.36)"/>
        <path id="Path_1495208" data-name="Path 1495208" d="M41.53,60.249a1.388,1.388,0,0,1-1.363-1.362V32.693a1.363,1.363,0,0,1,2.725,0V58.887a1.556,1.556,0,0,1-1.363,1.362" transform="translate(1.744 1.36)"/>
        <path id="Path_1495209" data-name="Path 1495209" d="M55.17,46.607H28.977a1.362,1.362,0,0,1,0-2.724H55.17a1.388,1.388,0,0,1,1.363,1.362,1.554,1.554,0,0,1-1.363,1.363" transform="translate(1.199 1.905)"/>
        <path id="Path_1495210" data-name="Path 1495210" d="M27.615,45.786a13.974,13.974,0,0,1,3.143-8.905c.1-.105.21-.21.21-.314a14.671,14.671,0,0,1,9.115-5.03h.105a14.457,14.457,0,0,1,16.24,14.25,13.976,13.976,0,0,1-3.143,8.907c-.1.1-.21.21-.21.314a14.512,14.512,0,0,1-8.487,4.925,3.365,3.365,0,0,1-.734.1,6.875,6.875,0,0,1-1.467.105A14.342,14.342,0,0,1,27.615,45.786M43.436,57.521h0A11.891,11.891,0,0,0,51.5,52.807a11.667,11.667,0,0,0-.418-14.565s-.105-.1-.21-.21a8.975,8.975,0,0,0-2.1-1.885c-.628-.419-.628-.419-1.152-.734a9.478,9.478,0,0,0-2.41-1.048,14.42,14.42,0,0,0-4.716-.419,11.861,11.861,0,0,0-7.858,19.069c.315.314.21.21.21.314a21.388,21.388,0,0,0,1.677,1.677c.315.21.524.419.839.628.628.419.734.419.837.525a3.423,3.423,0,0,1,.629.314,7.046,7.046,0,0,0,1.782.734,19.249,19.249,0,0,0,4.82.314" transform="translate(1.199 1.363)"/>
      </g>
    </g>
  </g>
</svg>
