<svg xmlns="http://www.w3.org/2000/svg" xmlns:xlink="http://www.w3.org/1999/xlink" width="118" height="118" viewBox="0 0 118 118">
  <defs>
    <filter id="Rectangle_411831" x="0" y="0" width="118" height="118" filterUnits="userSpaceOnUse">
      <feOffset dy="3" input="SourceAlpha"/>
      <feGaussianBlur stdDeviation="3" result="blur"/>
      <feFlood flood-opacity="0.161"/>
      <feComposite operator="in" in2="blur"/>
      <feComposite in="SourceGraphic"/>
    </filter>
    <clipPath id="clip-path">
      <rect id="Rectangle_425830" data-name="Rectangle 425830" width="69.703" height="57.668" fill="none"/>
    </clipPath>
  </defs>
  <g id="Group_1228574" data-name="Group 1228574" transform="translate(-326.781 -3852)">
    <g transform="matrix(1, 0, 0, 1, 326.78, 3852)" filter="url(#Rectangle_411831)">
      <g id="Rectangle_411831-2" data-name="Rectangle 411831" transform="translate(9 6)" fill="#b8a9f1" stroke="#fff" stroke-width="2">
        <path d="M5,0H68a32,32,0,0,1,32,32V95a5,5,0,0,1-5,5H32A32,32,0,0,1,0,68V5A5,5,0,0,1,5,0Z" stroke="none"/>
        <path d="M5,1H68A31,31,0,0,1,99,32V95a4,4,0,0,1-4,4H32A31,31,0,0,1,1,68V5A4,4,0,0,1,5,1Z" fill="none"/>
      </g>
    </g>
    <g id="Group_1228585" data-name="Group 1228585" transform="translate(350.93 3879.166)">
      <g id="Group_1228578" data-name="Group 1228578" transform="translate(0 0)" clip-path="url(#clip-path)">
        <path id="Path_1495267" data-name="Path 1495267" d="M17.907,45.035,12.7,44.911c-6.2,0-11.285-5.457-11.285-11.658a11.431,11.431,0,0,1,8.8-11.037v-.248A11.326,11.326,0,0,1,21.5,10.682a13.169,13.169,0,0,1,3.845.619A14.437,14.437,0,0,1,39.236,1.009,14.215,14.215,0,0,1,53.747,15.146,14.825,14.825,0,0,1,68.257,29.905c0,7.937-6.449,15.006-14.509,15.006H17.907Z" transform="translate(0.323 0.231)" fill="#86dcfd"/>
        <path id="Path_1495268" data-name="Path 1495268" d="M22.523,39.24l7.194-11.782a2.07,2.07,0,0,1,3.72.123l6.7,12.278L44.1,47.052a2.06,2.06,0,0,1-1.86,2.977H19.671a2.112,2.112,0,0,1-1.86-3.1Zm10.542,6.2a1.345,1.345,0,0,0-.5-1.116,1.568,1.568,0,0,0-1.116-.5,1.347,1.347,0,0,0-1.117.5,1.574,1.574,0,0,0-.5,1.116,1.641,1.641,0,0,0,1.612,1.612,1.346,1.346,0,0,0,1.116-.5,1.851,1.851,0,0,0,.5-1.117" transform="translate(4.015 6.028)" fill="#e64c42"/>
        <path id="Path_1495269" data-name="Path 1495269" d="M30.384,41.072a1.57,1.57,0,0,1,.5,1.116,1.347,1.347,0,0,1-.5,1.117,1.57,1.57,0,0,1-1.116.5,1.643,1.643,0,0,1-1.613-1.613,1.345,1.345,0,0,1,.5-1.116,1.573,1.573,0,0,1,1.117-.5,4.4,4.4,0,0,1,1.116.5" transform="translate(6.324 9.279)"/>
        <path id="Path_1495270" data-name="Path 1495270" d="M35.11,19.614a1.411,1.411,0,0,1-.993-.372,1.691,1.691,0,0,1-.247-2.233A15.732,15.732,0,0,1,45.9,11.3a1.612,1.612,0,0,1,0,3.224,12.288,12.288,0,0,0-9.673,4.589,1.358,1.358,0,0,1-1.116.5" transform="translate(7.675 2.585)"/>
        <path id="Path_1495271" data-name="Path 1495271" d="M17.516,22.676a1.406,1.406,0,0,1-.992-.372,9.775,9.775,0,0,0-7.318-2.233,1.561,1.561,0,0,1-.371-3.1,13.024,13.024,0,0,1,9.673,2.852,1.564,1.564,0,0,1,.124,2.233,1.086,1.086,0,0,1-1.117.62" transform="translate(1.705 3.864)"/>
        <path id="Path_1495272" data-name="Path 1495272" d="M39.554,41.627a1.612,1.612,0,0,1-1.488-.993,1.674,1.674,0,0,1,.869-1.983c11.408-4.713,9.177-13.394,9.053-13.766a1.534,1.534,0,1,1,2.976-.745,13.887,13.887,0,0,1-.124,6.7c-.867,3.348-3.472,7.813-10.665,10.789h-.124c-.124-.124-.372,0-.5,0" transform="translate(8.687 5.251)"/>
        <path id="Path_1495273" data-name="Path 1495273" d="M53.946,46.878h-8.8a1.725,1.725,0,0,1-1.613-1.488,1.624,1.624,0,0,1,1.489-1.612h8.8c6.944,0,12.9-6.2,12.9-13.394s-5.953-13.271-12.9-13.271A1.641,1.641,0,0,1,52.21,15.5a12.576,12.576,0,0,0-12.9-12.525,12.91,12.91,0,0,0-12.4,9.177,1.943,1.943,0,0,1-.745.993,1.464,1.464,0,0,1-1.241.123,10.04,10.04,0,0,0-3.348-.619A9.686,9.686,0,0,0,11.9,22.323v.248a1.474,1.474,0,0,1-1.24,1.488A9.668,9.668,0,0,0,3.1,33.484c0,5.457,4.465,10.169,9.673,10.169.124,0,3.348,0,5.208.125h8.31a1.612,1.612,0,0,1,0,3.224h-8.31c-1.364,0-5.084-.124-5.208-.124C5.828,46.878,0,40.8,0,33.608a12.549,12.549,0,0,1,2.852-8.061A13.925,13.925,0,0,1,8.8,21.454a12.942,12.942,0,0,1,12.773-11.9,11.256,11.256,0,0,1,2.853.371,16.147,16.147,0,0,1,5.208-6.7A15.923,15.923,0,0,1,39.313,0,16.155,16.155,0,0,1,50.6,4.464a14.554,14.554,0,0,1,4.588,9.673,15.144,15.144,0,0,1,9.8,4.837A16.579,16.579,0,0,1,69.7,30.384c.247,8.8-7.07,16.494-15.75,16.494" transform="translate(0 0)"/>
        <path id="Path_1495274" data-name="Path 1495274" d="M42.389,51.921H19.942a3.4,3.4,0,0,1-3.1-1.736,3.713,3.713,0,0,1,0-3.6L28.623,26.993a3.7,3.7,0,0,1,3.225-1.86,3.577,3.577,0,0,1,3.224,1.984L45.736,46.712a3.713,3.713,0,0,1-.123,3.6,4.119,4.119,0,0,1-3.224,1.612M19.446,48.076c-.125.248,0,.372,0,.5s.247.247.5.247H42.512a.648.648,0,0,0,.5-.247c0-.124.124-.248,0-.5L32.22,28.481a.62.62,0,0,0-.993,0Z" transform="translate(3.745 5.748)"/>
        <path id="Path_1495275" data-name="Path 1495275" d="M29.268,41.211A1.641,1.641,0,0,1,27.656,39.6V32.9a1.612,1.612,0,1,1,3.224,0v6.7a1.732,1.732,0,0,1-1.612,1.612" transform="translate(6.324 7.156)"/>
      </g>
    </g>
  </g>
</svg>
