<svg xmlns="http://www.w3.org/2000/svg" xmlns:xlink="http://www.w3.org/1999/xlink" width="118" height="118" viewBox="0 0 118 118">
  <defs>
    <filter id="Rectangle_411831" x="0" y="0" width="118" height="118" filterUnits="userSpaceOnUse">
      <feOffset dy="3" input="SourceAlpha"/>
      <feGaussianBlur stdDeviation="3" result="blur"/>
      <feFlood flood-opacity="0.161"/>
      <feComposite operator="in" in2="blur"/>
      <feComposite in="SourceGraphic"/>
    </filter>
    <clipPath id="clip-path">
      <rect id="Rectangle_425829" data-name="Rectangle 425829" width="69.703" height="59.404" fill="none"/>
    </clipPath>
  </defs>
  <g id="Group_1228575" data-name="Group 1228575" transform="translate(-326.781 -3852)">
    <g transform="matrix(1, 0, 0, 1, 326.78, 3852)" filter="url(#Rectangle_411831)">
      <g id="Rectangle_411831-2" data-name="Rectangle 411831" transform="translate(9 6)" fill="#b8a9f1" stroke="#fff" stroke-width="2">
        <path d="M5,0H68a32,32,0,0,1,32,32V95a5,5,0,0,1-5,5H32A32,32,0,0,1,0,68V5A5,5,0,0,1,5,0Z" stroke="none"/>
        <path d="M5,1H68A31,31,0,0,1,99,32V95a4,4,0,0,1-4,4H32A31,31,0,0,1,1,68V5A4,4,0,0,1,5,1Z" fill="none"/>
      </g>
    </g>
    <g id="Group_1228584" data-name="Group 1228584" transform="translate(350.93 3878.298)">
      <g id="Group_1228576" data-name="Group 1228576" transform="translate(0 0)" clip-path="url(#clip-path)">
        <path id="Path_1495259" data-name="Path 1495259" d="M12.7,45.012c-6.2,0-11.285-5.455-11.285-11.656a11.432,11.432,0,0,1,8.8-11.038v-.248A11.326,11.326,0,0,1,21.5,10.784a13.122,13.122,0,0,1,3.845.619A14.437,14.437,0,0,1,39.238,1.111,14.213,14.213,0,0,1,53.747,15.248,14.825,14.825,0,0,1,68.258,30.006c0,7.937-6.449,15.006-14.511,15.006Z" transform="translate(0.323 0.255)" fill="#86dcfd"/>
        <path id="Path_1495260" data-name="Path 1495260" d="M38.832,39.25a12.4,12.4,0,1,1-12.4-12.4,12.438,12.438,0,0,1,12.4,12.4" transform="translate(3.208 6.14)" fill="#80af52"/>
        <path id="Path_1495261" data-name="Path 1495261" d="M35.11,19.715a1.406,1.406,0,0,1-.992-.372,1.688,1.688,0,0,1-.248-2.231A15.729,15.729,0,0,1,45.9,11.4a1.613,1.613,0,1,1,0,3.225,12.281,12.281,0,0,0-9.672,4.589,1.362,1.362,0,0,1-1.117.5" transform="translate(7.675 2.609)"/>
        <path id="Path_1495262" data-name="Path 1495262" d="M17.516,22.785a1.412,1.412,0,0,1-.992-.372A9.78,9.78,0,0,0,9.207,20.18a1.562,1.562,0,0,1-.371-3.1,12.521,12.521,0,0,1,9.673,2.854,1.562,1.562,0,0,1,.124,2.231,1.087,1.087,0,0,1-1.117.62" transform="translate(1.705 3.88)"/>
        <path id="Path_1495263" data-name="Path 1495263" d="M38.756,41.728a1.612,1.612,0,0,1-1.488-.993,1.508,1.508,0,0,1,.869-1.983c11.408-4.713,9.177-13.394,9.053-13.766a1.534,1.534,0,1,1,2.976-.743,13.89,13.89,0,0,1-.123,6.7c-.869,3.348-3.473,7.813-10.666,10.789-.248-.124-.372,0-.62,0" transform="translate(8.493 5.274)"/>
        <path id="Path_1495264" data-name="Path 1495264" d="M53.947,47H42.042a1.723,1.723,0,0,1-1.612-1.488A1.624,1.624,0,0,1,41.917,43.9h11.9c6.946,0,12.9-6.2,12.9-13.394s-5.952-13.27-12.9-13.27a1.641,1.641,0,0,1-1.611-1.612A12.577,12.577,0,0,0,39.314,3.1a12.911,12.911,0,0,0-12.4,9.176,1.93,1.93,0,0,1-.745.993,1.466,1.466,0,0,1-1.24.124,10.015,10.015,0,0,0-3.348-.619,9.685,9.685,0,0,0-9.673,9.673v.247a1.476,1.476,0,0,1-1.241,1.489A9.667,9.667,0,0,0,3.1,33.609c0,5.455,4.464,10.169,9.672,10.169.124,0,2.977,0,4.341.124A1.551,1.551,0,0,1,16.99,47c-1.488,0-4.093-.124-4.217-.124C5.829,46.878,0,40.8,0,33.609a12.541,12.541,0,0,1,2.853-8.061A13.9,13.9,0,0,1,8.8,21.455,12.943,12.943,0,0,1,21.579,9.549a11.248,11.248,0,0,1,2.852.372,16.163,16.163,0,0,1,5.208-6.7A15.924,15.924,0,0,1,39.314,0,16.155,16.155,0,0,1,50.6,4.465a14.558,14.558,0,0,1,4.589,9.673,15.142,15.142,0,0,1,9.8,4.836A16.582,16.582,0,0,1,69.7,30.384C69.945,39.313,62.628,47,53.947,47" transform="translate(0 0)"/>
        <path id="Path_1495265" data-name="Path 1495265" d="M26.731,53.541A13.952,13.952,0,1,1,40.745,39.527,14,14,0,0,1,26.731,53.541m0-24.8a10.851,10.851,0,1,0,0,21.7A10.85,10.85,0,0,0,37.644,39.527,10.983,10.983,0,0,0,26.731,28.738" transform="translate(2.908 5.863)"/>
        <path id="Path_1495266" data-name="Path 1495266" d="M22.542,43.249a1.363,1.363,0,0,1-1.24-.743l-2.481-3.845a1.531,1.531,0,0,1,2.6-1.613l1.736,2.6,7.813-5.084a1.532,1.532,0,1,1,1.613,2.6l-9.054,5.952c-.5,0-.743.124-.992.124" transform="translate(4.245 7.846)"/>
      </g>
    </g>
  </g>
</svg>
