<svg xmlns="http://www.w3.org/2000/svg" xmlns:xlink="http://www.w3.org/1999/xlink" width="118" height="118" viewBox="0 0 118 118">
  <defs>
    <filter id="Rectangle_411831" x="0" y="0" width="118" height="118" filterUnits="userSpaceOnUse">
      <feOffset dy="3" input="SourceAlpha"/>
      <feGaussianBlur stdDeviation="3" result="blur"/>
      <feFlood flood-opacity="0.161"/>
      <feComposite operator="in" in2="blur"/>
      <feComposite in="SourceGraphic"/>
    </filter>
    <clipPath id="clip-path">
      <rect id="Rectangle_425901" data-name="Rectangle 425901" width="61.734" height="58.462" fill="none"/>
    </clipPath>
  </defs>
  <g id="Group_1228569" data-name="Group 1228569" transform="translate(-326.781 -3852)">
    <g transform="matrix(1, 0, 0, 1, 326.78, 3852)" filter="url(#Rectangle_411831)">
      <g id="Rectangle_411831-2" data-name="Rectangle 411831" transform="translate(9 6)" fill="#b8a9f1" stroke="#fff" stroke-width="2">
        <path d="M5,0H68a32,32,0,0,1,32,32V95a5,5,0,0,1-5,5H32A32,32,0,0,1,0,68V5A5,5,0,0,1,5,0Z" stroke="none"/>
        <path d="M5,1H68A31,31,0,0,1,99,32V95a4,4,0,0,1-4,4H32A31,31,0,0,1,1,68V5A4,4,0,0,1,5,1Z" fill="none"/>
      </g>
    </g>
    <g id="Group_1228626" data-name="Group 1228626" transform="translate(354.914 3878.769)">
      <g id="Group_1228625" data-name="Group 1228625" transform="translate(0 0)" clip-path="url(#clip-path)">
        <path id="Path_1495701" data-name="Path 1495701" d="M36.948,6.718a21.4,21.4,0,0,0-30.063,0,20.9,20.9,0,0,0,0,29.766,21.469,21.469,0,0,0,27.021,2.548l3.042,3.011,5.03-4.98-2.926-2.9a20.989,20.989,0,0,0-2.1-27.45" transform="translate(0.104 0.087)" fill="#57606f"/>
        <path id="Path_1495702" data-name="Path 1495702" d="M31.644,10.268a15.073,15.073,0,0,0-21.172,0,14.716,14.716,0,0,0,0,20.964,15.073,15.073,0,0,0,21.172,0,14.716,14.716,0,0,0,0-20.964" transform="translate(0.963 0.938)" fill="#d7deed"/>
        <path id="Path_1495703" data-name="Path 1495703" d="M46.331,3.575a4.4,4.4,0,1,1-4.445,4.4,4.423,4.423,0,0,1,4.445-4.4" transform="translate(6.628 0.566)" fill="#4380a0"/>
        <path id="Path_1495704" data-name="Path 1495704" d="M6.333,37.975a2.9,2.9,0,1,1,0,5.791,2.882,2.882,0,0,1-2.925-2.9,2.956,2.956,0,0,1,2.925-2.9" transform="translate(0.539 6.009)" fill="#4380a0"/>
        <path id="Path_1495705" data-name="Path 1495705" d="M19.7,14.075A5.328,5.328,0,1,1,14.315,19.4,5.416,5.416,0,0,1,19.7,14.075m2.34,5.328a2.223,2.223,0,1,0-2.223,2.2,2.139,2.139,0,0,0,2.223-2.2" transform="translate(2.265 2.227)" fill="#07cc66"/>
        <path id="Path_1495706" data-name="Path 1495706" d="M32.374,19.215v2.2l-3.392.695a7.738,7.738,0,0,1-1.17,2.664l1.871,2.9-1.638,1.622-2.923-1.853A11.091,11.091,0,0,1,22.431,28.6l-.7,3.359H19.506L18.8,28.6a7.89,7.89,0,0,1-2.689-1.158l-2.926,1.853L11.553,27.67l1.871-2.9a10.909,10.909,0,0,1-1.169-2.664l-3.392-.695v-2.2l3.392-.695a7.735,7.735,0,0,1,1.169-2.664l-1.871-2.9,1.637-1.622,2.926,1.853A7.89,7.89,0,0,1,18.8,12.034l.7-3.359h2.223l.7,3.359a7.9,7.9,0,0,1,2.691,1.158l2.923-1.853,1.638,1.622-1.871,2.78a10.869,10.869,0,0,1,1.17,2.664ZM25.94,20.257a5.381,5.381,0,1,0-5.381,5.328,5.269,5.269,0,0,0,5.381-5.328" transform="translate(1.402 1.373)" fill="#fb2b3a"/>
        <path id="Path_1495707" data-name="Path 1495707" d="M41.49,30.97a1.88,1.88,0,0,1,0,2.78l-.233.232L34,41.162l-.234.232a1.991,1.991,0,0,1-2.808,0,1.88,1.88,0,0,1,0-2.78l1.4-1.39,5.03-4.98,1.4-1.39a2.165,2.165,0,0,1,1.4-.579,4.777,4.777,0,0,1,1.286.695" transform="translate(4.802 4.791)" fill="#a85120"/>
        <path id="Path_1495708" data-name="Path 1495708" d="M50.95,43.667A5.1,5.1,0,0,1,43.7,50.848L33.4,40.656l7.252-7.181Zm-2.223,4.98a1.88,1.88,0,0,0,0-2.78,1.924,1.924,0,0,0-2.808,0,1.88,1.88,0,0,0,0,2.78,1.923,1.923,0,0,0,2.808,0" transform="translate(5.285 5.297)" fill="#c86d36"/>
        <path id="Path_1495709" data-name="Path 1495709" d="M19.362,22.066a2.9,2.9,0,1,1,2.923-2.9,2.882,2.882,0,0,1-2.923,2.9m0-4.517a1.506,1.506,0,1,0,1.52,1.506,1.541,1.541,0,0,0-1.52-1.506" transform="translate(2.601 2.575)"/>
        <path id="Path_1495710" data-name="Path 1495710" d="M19.793,25.621A6.023,6.023,0,1,1,25.875,19.6a6.012,6.012,0,0,1-6.082,6.023m0-10.656A4.633,4.633,0,1,0,24.471,19.6a4.67,4.67,0,0,0-4.678-4.633" transform="translate(2.169 2.148)"/>
        <path id="Path_1495711" data-name="Path 1495711" d="M21.825,32.777H19.6a.74.74,0,0,1-.7-.579l-.7-2.9a15.718,15.718,0,0,1-2.106-.811l-2.574,1.622A.728.728,0,0,1,12.584,30l-1.521-1.622a.87.87,0,0,1-.118-.927L12.584,24.9a7.676,7.676,0,0,1-.819-2.085l-2.925-.695a.736.736,0,0,1-.586-.695v-2.2a.736.736,0,0,1,.586-.695l2.925-.695a15.376,15.376,0,0,1,.819-2.085L10.946,13.2a.713.713,0,0,1,.118-.927L12.7,10.655a.892.892,0,0,1,.937-.116L16.21,12.16a7.885,7.885,0,0,1,2.106-.811l.7-2.9a.74.74,0,0,1,.7-.579h2.223a.74.74,0,0,1,.7.579l.7,2.9a15.718,15.718,0,0,1,2.106.811l2.574-1.622a.728.728,0,0,1,.935.116L30.6,12.276a.87.87,0,0,1,.118.927l-1.638,2.548a7.752,7.752,0,0,1,.819,2.085l2.923.695a.736.736,0,0,1,.585.695v2.2a.736.736,0,0,1-.585.695l-2.923.695a15.376,15.376,0,0,1-.819,2.085l1.638,2.548a.714.714,0,0,1-.118.927L28.96,30a.888.888,0,0,1-.935.116l-2.574-1.622a7.885,7.885,0,0,1-2.106.811l-.7,2.9c-.234.347-.468.579-.819.579m-1.638-1.506H21.24l.585-2.78a.956.956,0,0,1,.585-.579,7.84,7.84,0,0,0,2.457-1.042,1.008,1.008,0,0,1,.819,0l2.455,1.506.7-.695-1.522-2.432a.989.989,0,0,1,0-.811,10.938,10.938,0,0,0,1.053-2.432.959.959,0,0,1,.585-.579l2.808-.579V19.8l-2.808-.579a.962.962,0,0,1-.585-.579,9.03,9.03,0,0,0-1.053-2.432.989.989,0,0,1,0-.811l1.522-2.432-.7-.695-2.455,1.506a1.008,1.008,0,0,1-.819,0A9.216,9.216,0,0,0,22.41,12.74a.957.957,0,0,1-.585-.579l-.585-2.78H20.187L19.6,12.16a.953.953,0,0,1-.585.579,7.863,7.863,0,0,0-2.457,1.042,1.008,1.008,0,0,1-.819,0l-2.457-1.506-.7.695L14.1,15.4a.972.972,0,0,1,0,.811,10.932,10.932,0,0,0-1.052,2.432.959.959,0,0,1-.585.579L9.659,19.8v1.042l2.809.579a.962.962,0,0,1,.585.579A7.681,7.681,0,0,0,14.1,24.438a.972.972,0,0,1,0,.811l-1.52,2.432.7.695,2.457-1.506a1.008,1.008,0,0,1,.819,0,11.165,11.165,0,0,0,2.457,1.042.954.954,0,0,1,.585.579Z" transform="translate(1.306 1.246)"/>
        <path id="Path_1495712" data-name="Path 1495712" d="M47.411,53.152a5.515,5.515,0,0,1-4.094-1.737L33.024,41.222a.858.858,0,0,1,0-1.042.878.878,0,0,1,1.052,0L44.37,50.372a4.543,4.543,0,0,0,3.157,1.274,4.763,4.763,0,0,0,3.16-1.274,4.237,4.237,0,0,0,0-6.139L40.393,34.041a.858.858,0,0,1,0-1.042.882.882,0,0,1,1.054,0L51.739,43.191a5.693,5.693,0,0,1,0,8.223,6.234,6.234,0,0,1-4.327,1.737" transform="translate(5.198 5.194)"/>
        <path id="Path_1495713" data-name="Path 1495713" d="M21.962,43.52A22.074,22.074,0,0,1,6.4,37.15a21.73,21.73,0,0,1,0-30.809,22.256,22.256,0,0,1,31.116,0,21.758,21.758,0,0,1,6.433,13.9,22.019,22.019,0,0,1-3.86,14.015l2.457,2.432a.854.854,0,0,1,0,1.042.88.88,0,0,1-1.053,0l-2.923-3.011a.9.9,0,0,1-.117-.927A20.417,20.417,0,0,0,36.467,7.268a20.69,20.69,0,0,0-29.127,0,20.2,20.2,0,0,0,0,28.84A20.582,20.582,0,0,0,33.426,38.54a.728.728,0,0,1,.935.116L37.4,41.667a.858.858,0,0,1,0,1.042.88.88,0,0,1-1.053,0l-2.457-2.664A22.006,22.006,0,0,1,21.962,43.52" transform="translate(0 0)"/>
        <path id="Path_1495714" data-name="Path 1495714" d="M32.358,42.863a2.337,2.337,0,0,1-1.872-.811,2.721,2.721,0,0,1-.819-1.853,2.294,2.294,0,0,1,.819-1.853l7.838-7.76a2.771,2.771,0,0,1,1.871-.811,2.337,2.337,0,0,1,1.872.811,2.707,2.707,0,0,1,0,3.822l-7.837,7.76a3.335,3.335,0,0,1-1.872.695m7.837-11.7a1.565,1.565,0,0,0-.936.347l-7.837,7.76a1.308,1.308,0,0,0-.351.927,1.047,1.047,0,0,0,.351.811,1.27,1.27,0,0,0,.819.347,1.067,1.067,0,0,0,.819-.347L40.9,33.25a1.251,1.251,0,0,0,0-1.737.71.71,0,0,0-.7-.347" transform="translate(4.694 4.711)"/>
        <path id="Path_1495715" data-name="Path 1495715" d="M21.1,36.416A15.742,15.742,0,0,1,9.99,31.9a15.553,15.553,0,0,1,0-22.006,15.928,15.928,0,0,1,22.225,0,15.55,15.55,0,0,1,0,22.006A15.737,15.737,0,0,1,21.1,36.416m0-29.651A14.307,14.307,0,0,0,6.833,20.9a13.857,13.857,0,0,0,4.21,9.961,14.34,14.34,0,0,0,10.06,4.17A14.307,14.307,0,0,0,35.374,20.9a13.861,13.861,0,0,0-4.21-9.961A13.677,13.677,0,0,0,21.1,6.765" transform="translate(0.859 0.851)"/>
        <path id="Path_1495716" data-name="Path 1495716" d="M45.79,48.4a2.337,2.337,0,0,1-1.872-.811,2.721,2.721,0,0,1-.819-1.853,2.294,2.294,0,0,1,.819-1.853,2.771,2.771,0,0,1,1.872-.811,2.338,2.338,0,0,1,1.872.811,2.721,2.721,0,0,1,.819,1.853,2.294,2.294,0,0,1-.819,1.853,2.191,2.191,0,0,1-1.872.811m0-3.822a1.067,1.067,0,0,0-.819.347,1.308,1.308,0,0,0-.351.927,1.047,1.047,0,0,0,.351.811,1.27,1.27,0,0,0,.819.347,1.067,1.067,0,0,0,.819-.347,1.245,1.245,0,0,0,.351-.811,1.531,1.531,0,0,0-.351-.927.915.915,0,0,0-.819-.347" transform="translate(6.82 6.816)"/>
        <path id="Path_1495717" data-name="Path 1495717" d="M60.379,50.665H4.817a.695.695,0,1,1,0-1.39H60.379a.752.752,0,0,1,.7.695.672.672,0,0,1-.7.695" transform="translate(0.651 7.797)"/>
        <path id="Path_1495718" data-name="Path 1495718" d="M28.707,48.165H1.687a.695.695,0,1,1,0-1.39h27.02a.75.75,0,0,1,.7.695.671.671,0,0,1-.7.695" transform="translate(0.156 7.401)"/>
        <path id="Path_1495719" data-name="Path 1495719" d="M34.073,45.665H13.6a.695.695,0,1,1,0-1.39H34.073a.751.751,0,0,1,.7.695c.117.463-.234.695-.7.695" transform="translate(2.041 7.006)"/>
        <path id="Path_1495720" data-name="Path 1495720" d="M6.428,44.656a3.591,3.591,0,1,1,3.626-3.591,3.485,3.485,0,0,1-3.626,3.591m0-5.791a2.21,2.21,0,0,0-2.223,2.2,2.14,2.14,0,0,0,2.223,2.2,2.2,2.2,0,1,0,0-4.4" transform="translate(0.443 5.93)"/>
        <path id="Path_1495721" data-name="Path 1495721" d="M46.427,13.167a5.166,5.166,0,0,1-5.146-5.1,5.147,5.147,0,0,1,10.293,0,5.167,5.167,0,0,1-5.147,5.1m0-8.687a3.591,3.591,0,1,0,3.626,3.591,3.627,3.627,0,0,0-3.626-3.591" transform="translate(6.532 0.471)"/>
      </g>
    </g>
  </g>
</svg>
