<svg xmlns="http://www.w3.org/2000/svg" xmlns:xlink="http://www.w3.org/1999/xlink" width="118" height="118" viewBox="0 0 118 118">
  <defs>
    <filter id="Rectangle_411831" x="0" y="0" width="118" height="118" filterUnits="userSpaceOnUse">
      <feOffset dy="3" input="SourceAlpha"/>
      <feGaussianBlur stdDeviation="3" result="blur"/>
      <feFlood flood-opacity="0.161"/>
      <feComposite operator="in" in2="blur"/>
      <feComposite in="SourceGraphic"/>
    </filter>
    <clipPath id="clip-path">
      <rect id="Rectangle_425900" data-name="Rectangle 425900" width="59.384" height="54.4" transform="translate(0 0)" fill="none"/>
    </clipPath>
  </defs>
  <g id="Group_1228616" data-name="Group 1228616" transform="translate(-326.781 -3852)">
    <g transform="matrix(1, 0, 0, 1, 326.78, 3852)" filter="url(#Rectangle_411831)">
      <g id="Rectangle_411831-2" data-name="Rectangle 411831" transform="translate(9 6)" fill="#b8a9f1" stroke="#fff" stroke-width="2">
        <path d="M5,0H68a32,32,0,0,1,32,32V95a5,5,0,0,1-5,5H32A32,32,0,0,1,0,68V5A5,5,0,0,1,5,0Z" stroke="none"/>
        <path d="M5,1H68A31,31,0,0,1,99,32V95a4,4,0,0,1-4,4H32A31,31,0,0,1,1,68V5A4,4,0,0,1,5,1Z" fill="none"/>
      </g>
    </g>
    <g id="Group_1228624" data-name="Group 1228624" transform="translate(356.089 3880.8)">
      <g id="Group_1228623" data-name="Group 1228623" clip-path="url(#clip-path)">
        <path id="Path_1495659" data-name="Path 1495659" d="M24.037,7.5V30.8a3.024,3.024,0,0,0,3.03,3H56.254a3.03,3.03,0,0,0,2.525-3V7.5Z" fill="#d7deed"/>
        <path id="Path_1495660" data-name="Path 1495660" d="M55.647.6H27.066a3.024,3.024,0,0,0-3.03,3V7.5H58.778V3.6a3.113,3.113,0,0,0-3.131-3" fill="#57606f"/>
        <path id="Path_1495661" data-name="Path 1495661" d="M36.358,3.2a.9.9,0,1,1-.909.9.9.9,0,0,1,.909-.9" fill="#07cc66"/>
        <path id="Path_1495662" data-name="Path 1495662" d="M32.52,3.2a.9.9,0,1,1-.909.9.9.9,0,0,1,.909-.9" fill="#f88f19"/>
        <path id="Path_1495663" data-name="Path 1495663" d="M28.783,3.2a.9.9,0,1,1-.909.9.9.9,0,0,1,.909-.9" fill="#fb2b3a"/>
        <rect id="Rectangle_425898" data-name="Rectangle 425898" width="6.968" height="2.5" transform="translate(44.235 46.2)" fill="#bdf9ff"/>
        <rect id="Rectangle_425899" data-name="Rectangle 425899" width="6.968" height="2.5" transform="translate(8.282 46.2)" fill="#bdf9ff"/>
        <path id="Path_1495664" data-name="Path 1495664" d="M8.282,46.2v2.5H15.25V46.2h8.181v2.5H36.055V46.2h8.181v2.5H51.2V46.2h3.737a3.923,3.923,0,0,1,2.727,1.1A3.674,3.674,0,0,1,58.779,50a3.817,3.817,0,0,1-3.838,3.8H4.444a3.923,3.923,0,0,1-2.727-1.1A3.674,3.674,0,0,1,.606,50a3.817,3.817,0,0,1,3.838-3.8H8.282Z" fill="#232b3f"/>
        <path id="Path_1495665" data-name="Path 1495665" d="M56.253,41.7a4.5,4.5,0,0,1-4.545,4.5H36.054v2.5H23.43V46.2H7.776a4.5,4.5,0,0,1-4.544-4.5V13.3A4.5,4.5,0,0,1,7.776,8.8h16.26v4.4H7.574V41.9H51.809V33.8h4.444v7.9Z" fill="#57606f"/>
        <path id="Path_1495666" data-name="Path 1495666" d="M7.575,38.7V13.1H24.037V30.7a3.024,3.024,0,0,0,3.03,3H51.81v8.1H7.575Z" fill="#cfe0e9"/>
        <path id="Path_1495667" data-name="Path 1495667" d="M54.334,13.1V30.6H39.791V27.5h3.131V13.1Z" fill="#5cbeff"/>
        <path id="Path_1495668" data-name="Path 1495668" d="M42.922,13.1V27.5H28.48V10H42.922Z" fill="#4a78ff"/>
        <path id="Path_1495669" data-name="Path 1495669" d="M54.94,54.4H4.443a4.453,4.453,0,0,1-3.13-1.3A4.362,4.362,0,0,1,0,50a4.461,4.461,0,0,1,4.443-4.4H8.281a.6.6,0,1,1,0,1.2H4.443a3.131,3.131,0,0,0-3.13,3.1,3.086,3.086,0,0,0,.909,2.2,3.147,3.147,0,0,0,2.221.9h50.5a3.131,3.131,0,0,0,3.131-3.1,3.086,3.086,0,0,0-.909-2.2,3.15,3.15,0,0,0-2.222-.9H51.1a.6.6,0,1,1,0-1.2H54.94a4.453,4.453,0,0,1,3.131,1.3A4.366,4.366,0,0,1,59.384,50a4.461,4.461,0,0,1-4.444,4.4"/>
        <path id="Path_1495670" data-name="Path 1495670" d="M36.055,49.4H23.431a.648.648,0,0,1-.606-.6V46.9H15.25a.6.6,0,1,1,0-1.2h8.181a.648.648,0,0,1,.606.6v1.9H35.449V46.3a.648.648,0,0,1,.606-.6h8.181a.6.6,0,1,1,0,1.2H36.661v1.9a.648.648,0,0,1-.606.6"/>
        <path id="Path_1495671" data-name="Path 1495671" d="M37.267,39.4H7.575a.6.6,0,1,1,0-1.2H37.267a.6.6,0,1,1,0,1.2"/>
        <path id="Path_1495672" data-name="Path 1495672" d="M15.149,49.4H8.181a.648.648,0,0,1-.606-.6V46.3a.648.648,0,0,1,.606-.6h6.968a.648.648,0,0,1,.606.6v2.5c.1.3-.2.6-.606.6M8.888,48.1h5.655V46.8H8.888Z"/>
        <path id="Path_1495673" data-name="Path 1495673" d="M51.2,49.4H44.235a.648.648,0,0,1-.606-.6V46.3a.648.648,0,0,1,.606-.6H51.2a.648.648,0,0,1,.606.6v2.5a.648.648,0,0,1-.606.6m-6.363-1.3H50.5V46.8H44.841Z"/>
        <path id="Path_1495674" data-name="Path 1495674" d="M7.776,46.9a5.254,5.254,0,0,1-5.251-5.2V13.3A5.253,5.253,0,0,1,7.776,8.1h16.26a.648.648,0,0,1,.606.6.648.648,0,0,1-.606.6H7.776a3.923,3.923,0,0,0-3.938,3.9V41.6a3.924,3.924,0,0,0,3.938,3.9.648.648,0,0,1,.606.6c0,.5-.3.8-.606.8"/>
        <path id="Path_1495675" data-name="Path 1495675" d="M51.81,42.5H7.575a.648.648,0,0,1-.606-.6V13.1a.648.648,0,0,1,.606-.6H24.037a.6.6,0,1,1,0,1.2H8.282V41.2H51.2V33.7a.606.606,0,0,1,1.212,0v8.1a.671.671,0,0,1-.606.7"/>
        <path id="Path_1495676" data-name="Path 1495676" d="M51.608,46.9a.6.6,0,1,1,0-1.2,3.924,3.924,0,0,0,3.939-3.9v-8a.606.606,0,0,1,1.211,0v8a5.08,5.08,0,0,1-5.15,5.1"/>
        <path id="Path_1495677" data-name="Path 1495677" d="M55.647,34.4H27.066a3.6,3.6,0,0,1-3.636-3.6V3.6A3.6,3.6,0,0,1,27.066,0H55.647a3.6,3.6,0,0,1,3.636,3.6V30.7a3.665,3.665,0,0,1-3.03,3.6c-.1,0-.4.1-.606.1M27.066,1.2a2.446,2.446,0,0,0-2.424,2.4V30.7a2.446,2.446,0,0,0,2.424,2.4H56.051a2.382,2.382,0,0,0,2.02-2.4V3.6a2.446,2.446,0,0,0-2.424-2.4Z"/>
        <path id="Path_1495678" data-name="Path 1495678" d="M58.778,8.1H24.036a.648.648,0,0,1-.606-.6.648.648,0,0,1,.606-.6H58.778a.648.648,0,0,1,.606.6.648.648,0,0,1-.606.6"/>
        <path id="Path_1495679" data-name="Path 1495679" d="M28.783,5.6A1.6,1.6,0,1,1,30.4,4a1.727,1.727,0,0,1-1.616,1.6m0-1.9a.266.266,0,0,0-.3.3.3.3,0,0,0,.606,0,.453.453,0,0,0-.3-.3"/>
        <path id="Path_1495680" data-name="Path 1495680" d="M32.52,5.6A1.6,1.6,0,1,1,34.136,4,1.587,1.587,0,0,1,32.52,5.6m0-1.9a.266.266,0,0,0-.3.3.3.3,0,0,0,.606,0,.321.321,0,0,0-.3-.3"/>
        <path id="Path_1495681" data-name="Path 1495681" d="M36.358,5.6A1.6,1.6,0,1,1,37.974,4a1.727,1.727,0,0,1-1.616,1.6m0-1.9a.266.266,0,0,0-.3.3.3.3,0,0,0,.606,0,.453.453,0,0,0-.3-.3"/>
        <path id="Path_1495682" data-name="Path 1495682" d="M42.922,28.1H28.48a.648.648,0,0,1-.6-.6V10a.648.648,0,0,1,.6-.6H43.023a.648.648,0,0,1,.606.6V27.5a.673.673,0,0,1-.707.6M29.086,26.9h13.23V10.6H29.086Z"/>
        <path id="Path_1495683" data-name="Path 1495683" d="M54.334,31.2H39.791a.648.648,0,0,1-.606-.6V27.5a.606.606,0,0,1,1.212,0V30h13.23V13.7h-10.7a.6.6,0,1,1,0-1.2H54.334a.648.648,0,0,1,.606.6V30.6a.579.579,0,0,1-.606.6"/>
        <path id="Path_1495684" data-name="Path 1495684" d="M40.4,25.6H30.9a.6.6,0,1,1,0-1.2H40.4A.648.648,0,0,1,41,25a.579.579,0,0,1-.606.6"/>
        <path id="Path_1495685" data-name="Path 1495685" d="M40.4,23.1H34.741a.6.6,0,1,1,0-1.2H40.4a.648.648,0,0,1,.606.6c.1.3-.2.6-.606.6"/>
        <path id="Path_1495686" data-name="Path 1495686" d="M40.4,20.6H30.9a.6.6,0,1,1,0-1.2H40.4A.648.648,0,0,1,41,20c.1.3-.2.6-.606.6"/>
        <path id="Path_1495687" data-name="Path 1495687" d="M35.348,18.1H30.905a.6.6,0,1,1,0-1.2h4.443a.648.648,0,0,1,.606.6c.1.3-.2.6-.606.6"/>
        <path id="Path_1495688" data-name="Path 1495688" d="M40.4,15.6H30.9a.6.6,0,1,1,0-1.2H40.4A.648.648,0,0,1,41,15c.1.3-.2.6-.606.6"/>
        <path id="Path_1495689" data-name="Path 1495689" d="M40.4,13.1H30.9a.6.6,0,1,1,0-1.2H40.4a.648.648,0,0,1,.606.6c.1.3-.2.6-.606.6"/>
        <path id="Path_1495690" data-name="Path 1495690" d="M39.186,18.1h-1.92a.6.6,0,1,1,0-1.2h1.92a.6.6,0,1,1,0,1.2"/>
        <path id="Path_1495691" data-name="Path 1495691" d="M32.823,23.1H30.905a.6.6,0,1,1,0-1.2h1.918a.648.648,0,0,1,.606.6c.1.3-.2.6-.606.6"/>
        <path id="Path_1495692" data-name="Path 1495692" d="M51.81,27.5H46.155a.6.6,0,1,1,0-1.2H51.81a.6.6,0,1,1,0,1.2"/>
        <path id="Path_1495693" data-name="Path 1495693" d="M51.81,25H46.155a.6.6,0,1,1,0-1.2H51.81a.6.6,0,1,1,0,1.2"/>
        <path id="Path_1495694" data-name="Path 1495694" d="M51.81,22.5H46.155a.6.6,0,1,1,0-1.2H51.81a.6.6,0,1,1,0,1.2"/>
        <path id="Path_1495695" data-name="Path 1495695" d="M51.81,20H46.155a.6.6,0,1,1,0-1.2H51.81a.6.6,0,1,1,0,1.2"/>
        <path id="Path_1495696" data-name="Path 1495696" d="M51.81,17.5H46.155a.6.6,0,1,1,0-1.2H51.81a.6.6,0,1,1,0,1.2"/>
        <path id="Path_1495697" data-name="Path 1495697" d="M13.332,16.2H7.675a.6.6,0,1,1,0-1.2h5.657a.647.647,0,0,1,.6.6.578.578,0,0,1-.6.6"/>
        <path id="Path_1495698" data-name="Path 1495698" d="M13.332,18.7H7.675a.6.6,0,1,1,0-1.2h5.657a.647.647,0,0,1,.6.6.578.578,0,0,1-.6.6"/>
        <path id="Path_1495699" data-name="Path 1495699" d="M13.332,21.2H7.675a.6.6,0,1,1,0-1.2h5.657a.647.647,0,0,1,.6.6.578.578,0,0,1-.6.6"/>
        <path id="Path_1495700" data-name="Path 1495700" d="M13.332,23.7H7.675a.6.6,0,1,1,0-1.2h5.657a.647.647,0,0,1,.6.6.578.578,0,0,1-.6.6"/>
      </g>
    </g>
  </g>
</svg>
