<svg xmlns="http://www.w3.org/2000/svg" xmlns:xlink="http://www.w3.org/1999/xlink" width="118" height="118" viewBox="0 0 118 118">
  <defs>
    <filter id="Rectangle_411831" x="0" y="0" width="118" height="118" filterUnits="userSpaceOnUse">
      <feOffset dy="3" input="SourceAlpha"/>
      <feGaussianBlur stdDeviation="3" result="blur"/>
      <feFlood flood-opacity="0.161"/>
      <feComposite operator="in" in2="blur"/>
      <feComposite in="SourceGraphic"/>
    </filter>
    <clipPath id="clip-path">
      <rect id="Rectangle_425832" data-name="Rectangle 425832" width="69.341" height="73.043" fill="none"/>
    </clipPath>
  </defs>
  <g id="Group_1228572" data-name="Group 1228572" transform="translate(-326.781 -3852)">
    <g transform="matrix(1, 0, 0, 1, 326.78, 3852)" filter="url(#Rectangle_411831)">
      <g id="Rectangle_411831-2" data-name="Rectangle 411831" transform="translate(9 6)" fill="#b8a9f1" stroke="#fff" stroke-width="2">
        <path d="M5,0H68a32,32,0,0,1,32,32V95a5,5,0,0,1-5,5H32A32,32,0,0,1,0,68V5A5,5,0,0,1,5,0Z" stroke="none"/>
        <path d="M5,1H68A31,31,0,0,1,99,32V95a4,4,0,0,1-4,4H32A31,31,0,0,1,1,68V5A4,4,0,0,1,5,1Z" fill="none"/>
      </g>
    </g>
    <g id="Group_1228587" data-name="Group 1228587" transform="translate(351.111 3871.479)">
      <g id="Group_1228582" data-name="Group 1228582" transform="translate(0 0)" clip-path="url(#clip-path)">
        <path id="Path_1495289" data-name="Path 1495289" d="M36.633,47.277a14.738,14.738,0,0,0,2.1-2.59l3.948,3.948-4.687,4.689-3.949-3.948a21.479,21.479,0,0,0,2.591-2.1" transform="translate(7.785 10.219)" fill="#3c3b3d"/>
        <path id="Path_1495290" data-name="Path 1495290" d="M12.579,44.512h-.246A11.244,11.244,0,0,1,9.864,22.3v-.246A11.269,11.269,0,0,1,21.093,10.829a13.069,13.069,0,0,1,3.824.617A14.364,14.364,0,0,1,38.736,1.205,14.141,14.141,0,0,1,53.171,15.271,14.749,14.749,0,0,1,67.607,29.952c0,7.9-6.663,15.053-14.559,15.053-.124,0,2.713,0-40.47-.493" transform="translate(0.252 0.276)" fill="#86dcfd"/>
        <path id="Path_1495291" data-name="Path 1495291" d="M45.69,39.57h0a14.022,14.022,0,0,0-1.356-5.305c0-.123-.124-.246-.124-.37a15.376,15.376,0,0,0-3.084-4.319,15.661,15.661,0,1,0-22.21,22.086,15.547,15.547,0,0,0,19.494,2.1A15.9,15.9,0,0,0,43.1,49.07a14.651,14.651,0,0,0,2.59-9.5" transform="translate(3.292 5.713)" fill="#a0cecb"/>
        <path id="Path_1495292" data-name="Path 1495292" d="M34.416,33.477a8.224,8.224,0,0,1,1.109,10.117,5.35,5.35,0,0,1-1.109,1.358,13.316,13.316,0,0,1-1.356,1.111,8.227,8.227,0,0,1-10.118-1.111,8.043,8.043,0,0,1,0-11.475,8.155,8.155,0,0,1,11.475,0" transform="translate(4.696 7.116)" fill="#d8f2f1"/>
        <path id="Path_1495293" data-name="Path 1495293" d="M28.91,49.2h0a9.218,9.218,0,0,1-6.786-2.838,9.607,9.607,0,0,1,0-13.695,9.425,9.425,0,0,1,6.786-2.838A9.223,9.223,0,0,1,35.7,32.662a9.7,9.7,0,0,1,1.234,12.091,18.018,18.018,0,0,1-1.234,1.6,8.484,8.484,0,0,1-1.6,1.358A9.406,9.406,0,0,1,28.91,49.2m0-16.286a6.738,6.738,0,0,0-4.687,1.973A6.6,6.6,0,0,0,28.91,46.111a7.435,7.435,0,0,0,3.578-.988c.371-.247.741-.617,1.109-.864a6.7,6.7,0,0,0,.865-1.111,6.646,6.646,0,0,0-5.552-10.24" transform="translate(4.403 6.821)"/>
        <path id="Path_1495294" data-name="Path 1495294" d="M30.329,58.123h0a17.6,17.6,0,0,1-12.214-5.06,17.082,17.082,0,0,1-4.936-14.189,17.165,17.165,0,0,1,34.177.864,18.017,18.017,0,0,1-2.714,10.611A16.811,16.811,0,0,1,42.3,53.188a13.747,13.747,0,0,1-2.961,2.344,15.758,15.758,0,0,1-9.006,2.591M16.264,39.491a14.305,14.305,0,0,0,4.072,11.352,13.9,13.9,0,0,0,9.993,4.195,14.152,14.152,0,0,0,7.65-2.221,11.689,11.689,0,0,0,2.344-1.973A11.068,11.068,0,0,0,42.174,48.5a14.421,14.421,0,0,0,2.22-8.638A14.048,14.048,0,0,0,30.329,26.783,14.274,14.274,0,0,0,16.264,39.491" transform="translate(2.984 5.42)"/>
        <path id="Path_1495295" data-name="Path 1495295" d="M46.469,50.327l-1.109.988L40.67,56l-.985,1.109-3.332-3.331,1.111-.987,4.687-4.689L43.138,47Z" transform="translate(8.313 10.747)" fill="#57606f"/>
        <path id="Path_1495296" data-name="Path 1495296" d="M48.356,54.212a3.276,3.276,0,0,1,0,4.689,3.206,3.206,0,0,1-4.687,0l-3.7-3.7,4.689-4.689Z" transform="translate(9.139 11.551)" fill="#3c3b3d"/>
        <path id="Path_1495297" data-name="Path 1495297" d="M42.1,50.431a1.5,1.5,0,0,1-1.109-.493L37.04,45.989a1.57,1.57,0,1,1,2.22-2.22l3.949,3.948a1.565,1.565,0,0,1,0,2.221,1.508,1.508,0,0,1-1.111.493" transform="translate(8.364 9.904)"/>
        <path id="Path_1495298" data-name="Path 1495298" d="M38.284,54.223a1.506,1.506,0,0,1-1.111-.493l-3.948-3.825a1.57,1.57,0,0,1,2.22-2.221l3.948,3.949a1.563,1.563,0,0,1,0,2.22,1.985,1.985,0,0,1-1.109.37" transform="translate(7.492 10.799)"/>
        <path id="Path_1495299" data-name="Path 1495299" d="M46.2,61.785A4.869,4.869,0,0,1,42.751,60.3l-3.7-3.7a1.57,1.57,0,0,1,2.22-2.22l3.7,3.7a1.585,1.585,0,0,0,1.234.493,1.885,1.885,0,0,0,1.234-.493,1.583,1.583,0,0,0,.493-1.235,1.885,1.885,0,0,0-.493-1.234l-3.7-3.7a1.57,1.57,0,1,1,2.221-2.22l3.7,3.7a4.871,4.871,0,0,1,1.481,3.454A4.67,4.67,0,0,1,49.66,60.3,4.484,4.484,0,0,1,46.2,61.785" transform="translate(8.824 11.258)"/>
        <path id="Path_1495300" data-name="Path 1495300" d="M39.953,58.886a1.51,1.51,0,0,1-1.111-.493l-3.207-3.208a1.563,1.563,0,0,1,0-2.221l6.785-6.786a1.565,1.565,0,0,1,2.221,0l3.331,3.331a1.563,1.563,0,0,1,0,2.221l-6.786,6.786a2.752,2.752,0,0,1-1.234.37m-1.111-4.812,1.111,1.111,4.565-4.566L43.408,49.51Z" transform="translate(8.043 10.455)"/>
        <path id="Path_1495301" data-name="Path 1495301" d="M34.63,19.715a1.406,1.406,0,0,1-.988-.37,1.684,1.684,0,0,1-.247-2.221,15.655,15.655,0,0,1,11.969-5.675,1.6,1.6,0,1,1,0,3.208,12.223,12.223,0,0,0-9.624,4.566,1.356,1.356,0,0,1-1.109.493" transform="translate(7.567 2.618)"/>
        <path id="Path_1495302" data-name="Path 1495302" d="M17.127,22.768a1.4,1.4,0,0,1-.987-.37,9.728,9.728,0,0,0-7.28-2.221,1.553,1.553,0,1,1-.37-3.084,12.455,12.455,0,0,1,9.624,2.838,1.554,1.554,0,0,1,.123,2.22,1.079,1.079,0,0,1-1.111.617" transform="translate(1.628 3.883)"/>
        <path id="Path_1495303" data-name="Path 1495303" d="M38.889,40.652a1.577,1.577,0,0,1,.864-2.1c11.35-4.687,9.13-13.324,9.006-13.695a1.526,1.526,0,0,1,2.961-.74A13.822,13.822,0,0,1,51.6,30.78c-.864,3.332-3.455,7.773-10.611,10.735a1.764,1.764,0,0,1-2.1-.864" transform="translate(8.86 5.247)"/>
        <path id="Path_1495304" data-name="Path 1495304" d="M53.3,46.885H48.982A1.5,1.5,0,0,1,47.5,45.4a13.819,13.819,0,0,0-1.234-4.936v-.123a1.573,1.573,0,0,1,2.838-1.358,21.894,21.894,0,0,1,1.481,4.689h2.961c6.909,0,12.832-6.169,12.832-13.325s-5.923-13.2-12.832-13.2a1.633,1.633,0,0,1-1.6-1.6A12.511,12.511,0,0,0,39.112,3.085a12.846,12.846,0,0,0-12.338,9.129,1.927,1.927,0,0,1-.74.988,1.456,1.456,0,0,1-1.234.123,9.987,9.987,0,0,0-3.332-.617,9.636,9.636,0,0,0-9.623,9.624v.246a1.465,1.465,0,0,1-1.234,1.481,9.616,9.616,0,0,0,2.1,19h3.948a4.386,4.386,0,0,0,.123-.741,1.526,1.526,0,0,1,2.961.741,7.3,7.3,0,0,0-.247,1.728,1.6,1.6,0,0,1-1.6,1.356H12.709A12.69,12.69,0,0,1,0,33.436a12.486,12.486,0,0,1,2.838-8.02A13.852,13.852,0,0,1,8.76,21.345,12.877,12.877,0,0,1,21.469,9.5a11.179,11.179,0,0,1,2.837.37,16.09,16.09,0,0,1,5.183-6.662A15.845,15.845,0,0,1,39.112,0,16.069,16.069,0,0,1,50.34,4.442a14.489,14.489,0,0,1,4.566,9.623,15.071,15.071,0,0,1,9.746,4.813,16.5,16.5,0,0,1,4.69,11.351c-.124,9.007-7.4,16.657-16.04,16.657" transform="translate(0 0)"/>
      </g>
    </g>
  </g>
</svg>
