<svg xmlns="http://www.w3.org/2000/svg" xmlns:xlink="http://www.w3.org/1999/xlink" width="118" height="118" viewBox="0 0 118 118">
  <defs>
    <filter id="Rectangle_411831" x="0" y="0" width="118" height="118" filterUnits="userSpaceOnUse">
      <feOffset dy="3" input="SourceAlpha"/>
      <feGaussianBlur stdDeviation="3" result="blur"/>
      <feFlood flood-opacity="0.161"/>
      <feComposite operator="in" in2="blur"/>
      <feComposite in="SourceGraphic"/>
    </filter>
    <clipPath id="clip-path">
      <rect id="Rectangle_425872" data-name="Rectangle 425872" width="52.618" height="55" fill="none"/>
    </clipPath>
  </defs>
  <g id="Group_1228571" data-name="Group 1228571" transform="translate(-326.781 -3857)">
    <g id="Group_1203422" data-name="Group 1203422" transform="translate(-465 1901)">
      <g id="Group_1203409" data-name="Group 1203409" transform="translate(465 -1896)">
        <g transform="matrix(1, 0, 0, 1, 326.78, 3852)" filter="url(#Rectangle_411831)">
          <g id="Rectangle_411831-2" data-name="Rectangle 411831" transform="translate(9 6)" fill="#37f1e9" stroke="#fff" stroke-width="2">
            <path d="M5,0H68a32,32,0,0,1,32,32V95a5,5,0,0,1-5,5H32A32,32,0,0,1,0,68V5A5,5,0,0,1,5,0Z" stroke="none"/>
            <path d="M5,1H68A31,31,0,0,1,99,32V95a4,4,0,0,1-4,4H32A31,31,0,0,1,1,68V5A4,4,0,0,1,5,1Z" fill="none"/>
          </g>
        </g>
      </g>
    </g>
    <g id="Group_1228606" data-name="Group 1228606" transform="translate(359.472 3885.5)">
      <g id="Group_1228605" data-name="Group 1228605" clip-path="url(#clip-path)">
        <path id="Path_1495413" data-name="Path 1495413" d="M21.916,11.9a11.228,11.228,0,0,0-9.8-5.6,12.322,12.322,0,0,0-3.838.6,11.2,11.2,0,0,0,0,21.2,11.841,11.841,0,0,0,3.838.6,11.311,11.311,0,0,0,9.8-5.6,10.852,10.852,0,0,0,1.515-5.6,11.616,11.616,0,0,0-1.515-5.6" fill="#fb2b3a"/>
        <path id="Path_1495414" data-name="Path 1495414" d="M49.386,34.4H10.706a2.445,2.445,0,0,0-2.424,2.4v6.4a2.445,2.445,0,0,0,2.424,2.4h38.68a2.445,2.445,0,0,0,2.424-2.4V36.8a2.445,2.445,0,0,0-2.424-2.4" fill="#8c9fb0"/>
        <path id="Path_1495415" data-name="Path 1495415" d="M49.386,11.9H21.916a10.846,10.846,0,0,1,1.515,5.6,10.587,10.587,0,0,1-1.515,5.6h27.47a2.445,2.445,0,0,0,2.424-2.4V14.3a2.445,2.445,0,0,0-2.424-2.4" fill="#8c9fb0"/>
        <path id="Path_1495416" data-name="Path 1495416" d="M49.386,23.1H21.916a11.227,11.227,0,0,1-9.8,5.6,12.32,12.32,0,0,1-3.837-.6v3.8a2.445,2.445,0,0,0,2.424,2.4h38.68a2.445,2.445,0,0,0,2.424-2.4V25.5a2.446,2.446,0,0,0-2.424-2.4" fill="#57606f"/>
        <path id="Path_1495417" data-name="Path 1495417" d="M49.386.6H10.706A2.446,2.446,0,0,0,8.282,3V6.8a11.894,11.894,0,0,1,3.837-.6,11.311,11.311,0,0,1,9.8,5.6h27.47A2.445,2.445,0,0,0,51.81,9.4V3A2.446,2.446,0,0,0,49.386.6" fill="#57606f"/>
        <path id="Path_1495418" data-name="Path 1495418" d="M12.826,23.6a1.451,1.451,0,0,1,0,2.2,1.629,1.629,0,0,1-1.111.5A1.554,1.554,0,0,1,10.6,23.6a1.629,1.629,0,0,1,1.111-.5,1.629,1.629,0,0,1,1.111.5" fill="#bdf9ff"/>
        <path id="Path_1495419" data-name="Path 1495419" d="M13.331,10.3v9.4a1.616,1.616,0,0,1-3.231,0V10.3a1.588,1.588,0,0,1,1.615-1.6,1.634,1.634,0,0,1,1.111.5,1.6,1.6,0,0,1,.505,1.1" fill="#bdf9ff"/>
        <path id="Path_1495420" data-name="Path 1495420" d="M46.76,38.1A1.908,1.908,0,0,1,48.678,40a1.848,1.848,0,0,1-1.918,1.9,1.9,1.9,0,1,1,0-3.8" fill="#f88f19"/>
        <path id="Path_1495421" data-name="Path 1495421" d="M46.76,26.9a1.907,1.907,0,0,1,1.918,1.9,1.847,1.847,0,0,1-1.918,1.9,1.9,1.9,0,1,1,0-3.8" fill="#f88f19"/>
        <path id="Path_1495422" data-name="Path 1495422" d="M46.76,15.6a1.908,1.908,0,0,1,1.918,1.9,1.848,1.848,0,0,1-1.918,1.9,1.9,1.9,0,1,1,0-3.8" fill="#f88f19"/>
        <path id="Path_1495423" data-name="Path 1495423" d="M46.76,4.4a1.907,1.907,0,0,1,1.918,1.9A1.847,1.847,0,0,1,46.76,8.2a1.9,1.9,0,1,1,0-3.8" fill="#f88f19"/>
        <path id="Path_1495424" data-name="Path 1495424" d="M44.841,40A1.919,1.919,0,0,1,41,40a1.848,1.848,0,0,1,1.919-1.9A1.908,1.908,0,0,1,44.841,40" fill="#079cff"/>
        <path id="Path_1495425" data-name="Path 1495425" d="M44.841,28.8A1.919,1.919,0,0,1,41,28.8a1.919,1.919,0,0,1,3.838,0" fill="#079cff"/>
        <path id="Path_1495426" data-name="Path 1495426" d="M44.841,17.5A1.919,1.919,0,0,1,41,17.5a1.848,1.848,0,0,1,1.919-1.9,1.908,1.908,0,0,1,1.919,1.9" fill="#079cff"/>
        <path id="Path_1495427" data-name="Path 1495427" d="M44.841,6.3A1.919,1.919,0,0,1,41,6.3a1.919,1.919,0,0,1,3.838,0" fill="#079cff"/>
        <path id="Path_1495428" data-name="Path 1495428" d="M41.1,40a1.919,1.919,0,0,1-3.838,0,1.848,1.848,0,0,1,1.919-1.9A1.977,1.977,0,0,1,41.1,40" fill="#07cc66"/>
        <path id="Path_1495429" data-name="Path 1495429" d="M41.1,28.8a1.919,1.919,0,0,1-3.838,0,1.847,1.847,0,0,1,1.919-1.9A1.908,1.908,0,0,1,41.1,28.8" fill="#07cc66"/>
        <path id="Path_1495430" data-name="Path 1495430" d="M41.1,17.5a1.919,1.919,0,0,1-3.838,0,1.848,1.848,0,0,1,1.919-1.9A1.977,1.977,0,0,1,41.1,17.5" fill="#07cc66"/>
        <path id="Path_1495431" data-name="Path 1495431" d="M41.1,6.3a1.919,1.919,0,0,1-3.838,0,1.847,1.847,0,0,1,1.919-1.9A1.908,1.908,0,0,1,41.1,6.3" fill="#07cc66"/>
        <path id="Path_1495432" data-name="Path 1495432" d="M42.013,52.2a1.262,1.262,0,0,1,.4.9A1.331,1.331,0,0,1,41.1,54.4H36.055V51.9H41.1a1.64,1.64,0,0,1,.909.3" fill="#232b3f"/>
        <path id="Path_1495433" data-name="Path 1495433" d="M24.037,51.9v2.5h-5.05a1.1,1.1,0,0,1-.909-.4,1.265,1.265,0,0,1-.4-.9,1.331,1.331,0,0,1,1.313-1.3h5.05Z" fill="#232b3f"/>
        <rect id="Rectangle_425871" data-name="Rectangle 425871" width="1.918" height="2.5" transform="translate(29.086 45.6)" fill="#232b3f"/>
        <path id="Path_1495434" data-name="Path 1495434" d="M36.055,51.9v2.5H24.037V50.6h4.444V48.1h3.13v2.5h4.444Z" fill="#8c9fb0"/>
        <path id="Path_1495435" data-name="Path 1495435" d="M29.086,46.3H10.7a3.131,3.131,0,0,1-3.131-3.1V36.8A3.131,3.131,0,0,1,10.7,33.7a.6.6,0,1,1,0,1.2,1.8,1.8,0,0,0-1.818,1.8v6.4A1.8,1.8,0,0,0,10.7,44.9H29.086a.648.648,0,0,1,.606.6c0,.5-.3.8-.606.8"/>
        <path id="Path_1495436" data-name="Path 1495436" d="M49.386,46.3H31a.6.6,0,1,1,0-1.2H49.386A1.8,1.8,0,0,0,51.2,43.3V36.9a1.8,1.8,0,0,0-1.818-1.8.6.6,0,1,1,0-1.2A3.13,3.13,0,0,1,52.517,37v6.4a3.171,3.171,0,0,1-3.131,2.9"/>
        <path id="Path_1495437" data-name="Path 1495437" d="M46.76,42.5A2.5,2.5,0,1,1,49.285,40a2.488,2.488,0,0,1-2.525,2.5m0-3.7a1.3,1.3,0,1,0,1.312,1.3,1.331,1.331,0,0,0-1.312-1.3"/>
        <path id="Path_1495438" data-name="Path 1495438" d="M43.023,42.5A2.5,2.5,0,1,1,45.548,40a2.552,2.552,0,0,1-2.525,2.5m0-3.7a1.3,1.3,0,1,0,1.313,1.3,1.405,1.405,0,0,0-1.313-1.3"/>
        <path id="Path_1495439" data-name="Path 1495439" d="M39.186,42.5A2.5,2.5,0,1,1,41.71,40a2.488,2.488,0,0,1-2.524,2.5m0-3.7A1.3,1.3,0,1,0,40.5,40.1a1.332,1.332,0,0,0-1.313-1.3"/>
        <path id="Path_1495440" data-name="Path 1495440" d="M31,41.9H11.412a.6.6,0,1,1,0-1.2H31a.6.6,0,1,1,0,1.2"/>
        <path id="Path_1495441" data-name="Path 1495441" d="M31,39.4H11.412a.6.6,0,1,1,0-1.2H31a.6.6,0,1,1,0,1.2"/>
        <path id="Path_1495442" data-name="Path 1495442" d="M46.76,31.3a2.5,2.5,0,1,1,2.525-2.5,2.488,2.488,0,0,1-2.525,2.5m0-3.8a1.3,1.3,0,1,0,1.312,1.3,1.33,1.33,0,0,0-1.312-1.3"/>
        <path id="Path_1495443" data-name="Path 1495443" d="M43.023,31.3a2.5,2.5,0,1,1,2.525-2.5,2.553,2.553,0,0,1-2.525,2.5m0-3.8a1.3,1.3,0,1,0,1.313,1.3,1.4,1.4,0,0,0-1.313-1.3"/>
        <path id="Path_1495444" data-name="Path 1495444" d="M39.186,31.3a2.5,2.5,0,1,1,2.524-2.5,2.488,2.488,0,0,1-2.524,2.5m0-3.8A1.3,1.3,0,1,0,40.5,28.8a1.331,1.331,0,0,0-1.313-1.3"/>
        <path id="Path_1495445" data-name="Path 1495445" d="M31,30.6H18.381a.6.6,0,1,1,0-1.2H31a.6.6,0,1,1,0,1.2"/>
        <path id="Path_1495446" data-name="Path 1495446" d="M31,28.1H23.431a.6.6,0,1,1,0-1.2H31a.6.6,0,1,1,0,1.2"/>
        <path id="Path_1495447" data-name="Path 1495447" d="M46.76,20a2.5,2.5,0,1,1,2.525-2.5A2.488,2.488,0,0,1,46.76,20m0-3.7a1.3,1.3,0,1,0,1.312,1.3,1.331,1.331,0,0,0-1.312-1.3"/>
        <path id="Path_1495448" data-name="Path 1495448" d="M43.023,20a2.5,2.5,0,1,1,2.525-2.5A2.552,2.552,0,0,1,43.023,20m0-3.7a1.3,1.3,0,1,0,1.313,1.3,1.405,1.405,0,0,0-1.313-1.3"/>
        <path id="Path_1495449" data-name="Path 1495449" d="M39.186,20a2.5,2.5,0,1,1,2.524-2.5A2.488,2.488,0,0,1,39.186,20m0-3.7A1.3,1.3,0,1,0,40.5,17.6a1.332,1.332,0,0,0-1.313-1.3"/>
        <path id="Path_1495450" data-name="Path 1495450" d="M31,19.4H25.956a.6.6,0,1,1,0-1.2H31a.6.6,0,1,1,0,1.2"/>
        <path id="Path_1495451" data-name="Path 1495451" d="M31,16.9H27.168a.6.6,0,1,1,0-1.2H31a.6.6,0,1,1,0,1.2"/>
        <path id="Path_1495452" data-name="Path 1495452" d="M46.76,8.8a2.5,2.5,0,1,1,2.525-2.5A2.488,2.488,0,0,1,46.76,8.8m0-3.8a1.3,1.3,0,1,0,1.312,1.3A1.33,1.33,0,0,0,46.76,5"/>
        <path id="Path_1495453" data-name="Path 1495453" d="M43.023,8.8a2.5,2.5,0,1,1,2.525-2.5,2.553,2.553,0,0,1-2.525,2.5m0-3.8a1.3,1.3,0,1,0,1.313,1.3A1.491,1.491,0,0,0,43.023,5"/>
        <path id="Path_1495454" data-name="Path 1495454" d="M39.186,8.8A2.5,2.5,0,1,1,41.71,6.3a2.488,2.488,0,0,1-2.524,2.5m0-3.8A1.3,1.3,0,1,0,40.5,6.3,1.331,1.331,0,0,0,39.186,5"/>
        <path id="Path_1495455" data-name="Path 1495455" d="M31,8.1H21.512a.648.648,0,0,1-.606-.6.648.648,0,0,1,.606-.6H31a.648.648,0,0,1,.606.6A.648.648,0,0,1,31,8.1"/>
        <path id="Path_1495456" data-name="Path 1495456" d="M31,5.6H16.462a.648.648,0,0,1-.606-.6.648.648,0,0,1,.606-.6H31a.648.648,0,0,1,.606.6A.648.648,0,0,1,31,5.6"/>
        <path id="Path_1495457" data-name="Path 1495457" d="M31,48.8a.648.648,0,0,1-.606-.6V46.3h-.606v1.9a.606.606,0,0,1-1.212,0V45.7a.649.649,0,0,1,.606-.6h1.919a.649.649,0,0,1,.606.6v2.5a.864.864,0,0,1-.707.6"/>
        <path id="Path_1495458" data-name="Path 1495458" d="M36.055,55H24.037a.6.6,0,1,1,0-1.2H36.055a.6.6,0,1,1,0,1.2"/>
        <path id="Path_1495459" data-name="Path 1495459" d="M36.055,52.5a.648.648,0,0,1-.606-.6v-.6H31.611A.648.648,0,0,1,31,50.7V48.8H29.087v1.9a.648.648,0,0,1-.606.6H24.643v.6a.606.606,0,0,1-1.212,0V50.6a.648.648,0,0,1,.606-.6h3.838V48.1a.648.648,0,0,1,.606-.6h3.13a.648.648,0,0,1,.606.6V50h3.838a.648.648,0,0,1,.606.6v1.3a.648.648,0,0,1-.606.6"/>
        <path id="Path_1495460" data-name="Path 1495460" d="M41.1,55h-5.05a.648.648,0,0,1-.606-.6V51.9a.649.649,0,0,1,.606-.6H41.1a1.931,1.931,0,0,1,1.313.5,1.891,1.891,0,0,1,.505,1.3A1.768,1.768,0,0,1,41.1,55m-4.444-1.2H41.1a.648.648,0,0,0,.606-.6.52.52,0,0,0-.2-.4.541.541,0,0,0-.4-.3H36.661Z"/>
        <path id="Path_1495461" data-name="Path 1495461" d="M24.037,55h-5.05a1.931,1.931,0,0,1-1.313-.5,1.647,1.647,0,0,1-.5-1.3,1.908,1.908,0,0,1,1.919-1.9h5.05a.648.648,0,0,1,.606.6v2.5a.865.865,0,0,1-.707.6m-5.05-2.5a.648.648,0,0,0-.606.6.518.518,0,0,0,.2.4.769.769,0,0,0,.4.2h4.444V52.5Z"/>
        <path id="Path_1495462" data-name="Path 1495462" d="M49.386,35H10.706a3.131,3.131,0,0,1-3.131-3.1V28.1a.606.606,0,0,1,1.212,0v3.8A1.8,1.8,0,0,0,10.6,33.7h38.68A1.8,1.8,0,0,0,51.1,31.9V25.5a1.8,1.8,0,0,0-1.818-1.8.6.6,0,1,1,0-1.2,3.131,3.131,0,0,1,3.131,3.1V32a3.024,3.024,0,0,1-3.03,3"/>
        <path id="Path_1495463" data-name="Path 1495463" d="M49.386,23.8H21.916a.6.6,0,1,1,0-1.2h27.47A1.8,1.8,0,0,0,51.2,20.8V14.4a1.8,1.8,0,0,0-1.818-1.8.6.6,0,1,1,0-1.2,3.13,3.13,0,0,1,3.131,3.1v6.4a3.171,3.171,0,0,1-3.131,2.9"/>
        <path id="Path_1495464" data-name="Path 1495464" d="M49.386,12.5H21.916a.6.6,0,1,1,0-1.2h27.47A1.8,1.8,0,0,0,51.2,9.5V3.1a1.8,1.8,0,0,0-1.818-1.8H10.706A1.8,1.8,0,0,0,8.888,3.1V6.9a.606.606,0,0,1-1.212,0V3.1A3.131,3.131,0,0,1,10.807,0h38.68a3.131,3.131,0,0,1,3.131,3.1V9.5a3.355,3.355,0,0,1-3.232,3"/>
        <path id="Path_1495465" data-name="Path 1495465" d="M12.019,29.4a11.082,11.082,0,0,1-4.04-.7A11.987,11.987,0,0,1,0,17.5,11.989,11.989,0,0,1,7.979,6.3a13.726,13.726,0,0,1,4.04-.7,12.194,12.194,0,0,1,10.4,5.9,12.023,12.023,0,0,1,1.616,5.9,11.049,11.049,0,0,1-1.616,5.9,11.837,11.837,0,0,1-10.4,6.1m0-22.5a10.474,10.474,0,0,0-3.536.6,10.69,10.69,0,0,0-7.17,10A10.7,10.7,0,0,0,12.019,28.1a10.608,10.608,0,0,0,9.29-15.9,10.706,10.706,0,0,0-9.29-5.3"/>
        <path id="Path_1495466" data-name="Path 1495466" d="M6.666,23.4a.532.532,0,0,1-.4-.2,8.034,8.034,0,0,1,0-11.5.76.76,0,0,1,.909,0,.739.739,0,0,1,0,.9,6.775,6.775,0,0,0,0,9.7.742.742,0,0,1,0,.9.557.557,0,0,1-.5.2"/>
        <path id="Path_1495467" data-name="Path 1495467" d="M17.371,23.4a.53.53,0,0,1-.4-.2.742.742,0,0,1,0-.9,6.773,6.773,0,0,0,0-9.7.739.739,0,0,1,0-.9.76.76,0,0,1,.909,0,8.032,8.032,0,0,1,0,11.5.559.559,0,0,1-.5.2"/>
        <path id="Path_1495468" data-name="Path 1495468" d="M11.715,21.9a2.231,2.231,0,0,1-2.222-2.2V10.3a2.231,2.231,0,0,1,2.222-2.2,2.063,2.063,0,0,1,1.515.6,2.191,2.191,0,0,1,.606,1.5v9.4a2.113,2.113,0,0,1-2.121,2.3m0-12.5a.9.9,0,0,0-.909.9v9.4a.909.909,0,0,0,1.818,0V10.3a.905.905,0,0,0-.3-.7.864.864,0,0,0-.606-.2"/>
        <path id="Path_1495469" data-name="Path 1495469" d="M11.715,26.9a2.231,2.231,0,0,1-2.222-2.2,2.025,2.025,0,0,1,.606-1.5,2.239,2.239,0,0,1,1.515-.6,2.066,2.066,0,0,1,1.515.6,2.159,2.159,0,0,1,0,3,1.774,1.774,0,0,1-1.414.7m0-3.1a.925.925,0,0,0-.707.3.918.918,0,0,0,.606,1.6.924.924,0,0,0,.707-.3.961.961,0,0,0,0-1.4c-.1-.2-.3-.2-.606-.2"/>
      </g>
    </g>
  </g>
</svg>
