<svg xmlns="http://www.w3.org/2000/svg" xmlns:xlink="http://www.w3.org/1999/xlink" width="118" height="118" viewBox="0 0 118 118">
  <defs>
    <filter id="Rectangle_411831" x="0" y="0" width="118" height="118" filterUnits="userSpaceOnUse">
      <feOffset dy="3" input="SourceAlpha"/>
      <feGaussianBlur stdDeviation="3" result="blur"/>
      <feFlood flood-opacity="0.161"/>
      <feComposite operator="in" in2="blur"/>
      <feComposite in="SourceGraphic"/>
    </filter>
    <clipPath id="clip-path">
      <rect id="Rectangle_425885" data-name="Rectangle 425885" width="59.384" height="58.7" transform="translate(0 0)" fill="none"/>
    </clipPath>
  </defs>
  <g id="Group_1228601" data-name="Group 1228601" transform="translate(-326.781 -3857)">
    <g id="Group_1203422" data-name="Group 1203422" transform="translate(-465 1901)">
      <g id="Group_1203409" data-name="Group 1203409" transform="translate(465 -1896)">
        <g transform="matrix(1, 0, 0, 1, 326.78, 3852)" filter="url(#Rectangle_411831)">
          <g id="Rectangle_411831-2" data-name="Rectangle 411831" transform="translate(9 6)" fill="#37f1e9" stroke="#fff" stroke-width="2">
            <path d="M5,0H68a32,32,0,0,1,32,32V95a5,5,0,0,1-5,5H32A32,32,0,0,1,0,68V5A5,5,0,0,1,5,0Z" stroke="none"/>
            <path d="M5,1H68A31,31,0,0,1,99,32V95a4,4,0,0,1-4,4H32A31,31,0,0,1,1,68V5A4,4,0,0,1,5,1Z" fill="none"/>
          </g>
        </g>
      </g>
    </g>
    <g id="Group_1228609" data-name="Group 1228609" transform="translate(356.089 3883.65)">
      <path id="Path_1495470" data-name="Path 1495470" d="M7.574,45.6V18.1H51.809V45.6Z" fill="#ecebed"/>
      <g id="Group_1228608" data-name="Group 1228608">
        <g id="Group_1228607" data-name="Group 1228607" clip-path="url(#clip-path)">
          <path id="Path_1495471" data-name="Path 1495471" d="M43.629,23.1H15.149a1.8,1.8,0,0,0-1.818,1.8V30a1.8,1.8,0,0,0,1.818,1.8H43.73A1.8,1.8,0,0,0,45.548,30V24.9a1.961,1.961,0,0,0-1.919-1.8" fill="#57606f"/>
          <path id="Path_1495472" data-name="Path 1495472" d="M45.346,13.1a1.846,1.846,0,0,0-1.717-1.3H15.149a1.729,1.729,0,0,0-1.717,1.3,1.078,1.078,0,0,0-.1.5v5.1a1.8,1.8,0,0,0,1.818,1.8H43.73a1.8,1.8,0,0,0,1.818-1.8V13.6c-.1-.2-.1-.4-.2-.5" fill="#57606f"/>
          <path id="Path_1495473" data-name="Path 1495473" d="M43.629.6H15.149a1.8,1.8,0,0,0-1.818,1.8V7.5a1.8,1.8,0,0,0,1.818,1.8H43.73a1.8,1.8,0,0,0,1.818-1.8V2.4A1.961,1.961,0,0,0,43.629.6" fill="#57606f"/>
          <rect id="Rectangle_425873" data-name="Rectangle 425873" width="22.117" height="2.5" transform="translate(18.381 9.3)" fill="#414a56"/>
          <rect id="Rectangle_425874" data-name="Rectangle 425874" width="22.117" height="2.5" transform="translate(18.381 20.6)" fill="#414a56"/>
          <rect id="Rectangle_425875" data-name="Rectangle 425875" width="2.525" height="8.1" transform="translate(45.447 37.4)" fill="#fb2b3a"/>
          <rect id="Rectangle_425876" data-name="Rectangle 425876" width="2.525" height="10.6" transform="translate(39.791 34.9)" fill="#fb2b3a"/>
          <rect id="Rectangle_425877" data-name="Rectangle 425877" width="2.525" height="6.9" transform="translate(34.136 38.7)" fill="#fb2b3a"/>
          <rect id="Rectangle_425878" data-name="Rectangle 425878" width="2.525" height="9.4" transform="translate(28.48 36.2)" fill="#fb2b3a"/>
          <rect id="Rectangle_425879" data-name="Rectangle 425879" width="2.525" height="6.3" transform="translate(22.723 39.3)" fill="#fb2b3a"/>
          <rect id="Rectangle_425880" data-name="Rectangle 425880" width="2.525" height="10.6" transform="translate(17.068 34.9)" fill="#fb2b3a"/>
          <rect id="Rectangle_425881" data-name="Rectangle 425881" width="2.525" height="7.5" transform="translate(11.412 38.1)" fill="#fb2b3a"/>
          <rect id="Rectangle_425882" data-name="Rectangle 425882" width="6.969" height="2.5" transform="translate(44.235 50.6)" fill="#bdf9ff"/>
          <rect id="Rectangle_425883" data-name="Rectangle 425883" width="12.624" height="2.5" transform="translate(23.43 50.6)" fill="#bdf9ff"/>
          <rect id="Rectangle_425884" data-name="Rectangle 425884" width="6.969" height="2.5" transform="translate(8.281 50.6)" fill="#bdf9ff"/>
          <path id="Path_1495474" data-name="Path 1495474" d="M57.667,51.6a3.674,3.674,0,0,1,1.111,2.7,3.817,3.817,0,0,1-3.838,3.8H4.443A3.922,3.922,0,0,1,1.717,57a4.243,4.243,0,0,1-1.01-2.7,3.817,3.817,0,0,1,3.838-3.8H8.382V53h6.969V50.5h8.18V53H36.155V50.5h8.181V53h6.969V50.5H54.94a5.1,5.1,0,0,1,2.727,1.1" fill="#313a52"/>
          <path id="Path_1495475" data-name="Path 1495475" d="M13.331,13.1h0v5H7.675V45.6H51.81V18.1H45.447V13.7a.743.743,0,0,0-.1-.5h6.565a4.246,4.246,0,0,1,4.241,4.2V46.3a4.246,4.246,0,0,1-4.241,4.2H7.473a4.247,4.247,0,0,1-4.242-4.2v-29a4.247,4.247,0,0,1,4.242-4.2Z" fill="#8c9fb0"/>
          <path id="Path_1495476" data-name="Path 1495476" d="M41.306,26.5a1.262,1.262,0,0,1,.4.9.971.971,0,0,1-.4.9,1.286,1.286,0,0,1-.909.4,1.33,1.33,0,0,1-1.313-1.3,1.081,1.081,0,0,1,.4-.9,1.233,1.233,0,0,1,1.818,0" fill="#07cc66"/>
          <path id="Path_1495477" data-name="Path 1495477" d="M41.306,15.3a1.262,1.262,0,0,1,.4.9.971.971,0,0,1-.4.9,1.286,1.286,0,0,1-.909.4,1.33,1.33,0,0,1-1.313-1.3,1.081,1.081,0,0,1,.4-.9,1.233,1.233,0,0,1,1.818,0" fill="#07cc66"/>
          <path id="Path_1495478" data-name="Path 1495478" d="M41.306,4a1.262,1.262,0,0,1,.4.9.971.971,0,0,1-.4.9,1.511,1.511,0,0,1-.909.4,1.33,1.33,0,0,1-1.313-1.3,1.081,1.081,0,0,1,.4-.9,1.233,1.233,0,0,1,1.818,0" fill="#07cc66"/>
          <path id="Path_1495479" data-name="Path 1495479" d="M36.256,26.5a1.262,1.262,0,0,1,.4.9.971.971,0,0,1-.4.9,1.286,1.286,0,0,1-.909.4,1.33,1.33,0,0,1-1.313-1.3,1.081,1.081,0,0,1,.4-.9,1.286,1.286,0,0,1,.909-.4,1.912,1.912,0,0,1,.909.4" fill="#ffd400"/>
          <path id="Path_1495480" data-name="Path 1495480" d="M36.256,15.3a1.262,1.262,0,0,1,.4.9.971.971,0,0,1-.4.9,1.286,1.286,0,0,1-.909.4,1.33,1.33,0,0,1-1.313-1.3,1.081,1.081,0,0,1,.4-.9,1.233,1.233,0,0,1,1.818,0" fill="#ffd400"/>
          <path id="Path_1495481" data-name="Path 1495481" d="M36.256,4a1.262,1.262,0,0,1,.4.9.971.971,0,0,1-.4.9,1.511,1.511,0,0,1-.909.4,1.33,1.33,0,0,1-1.313-1.3,1.081,1.081,0,0,1,.4-.9,1.286,1.286,0,0,1,.909-.4,1.912,1.912,0,0,1,.909.4" fill="#ffd400"/>
          <path id="Path_1495482" data-name="Path 1495482" d="M36.055,53.7H23.43a.648.648,0,0,1-.6-.6V50.6a.606.606,0,0,1,1.211,0v1.9H35.449V50.6a.606.606,0,0,1,1.212,0v2.5a.648.648,0,0,1-.606.6"/>
          <path id="Path_1495483" data-name="Path 1495483" d="M54.94,58.7H4.443a4.449,4.449,0,0,1-3.13-1.3A4.362,4.362,0,0,1,0,54.3a4.461,4.461,0,0,1,4.443-4.4h3.03a.6.6,0,1,1,0,1.2H4.443a3.13,3.13,0,0,0-3.13,3.1,3.085,3.085,0,0,0,.908,2.2,3.15,3.15,0,0,0,2.222.9h50.5a3.131,3.131,0,0,0,3.131-3.1,3.086,3.086,0,0,0-.909-2.2,3.15,3.15,0,0,0-2.222-.9H51.91a.6.6,0,1,1,0-1.2h3.03a4.453,4.453,0,0,1,3.131,1.3,4.365,4.365,0,0,1,1.312,3.1,4.461,4.461,0,0,1-4.443,4.4"/>
          <path id="Path_1495484" data-name="Path 1495484" d="M15.149,53.7H8.18a.649.649,0,0,1-.606-.6V50.6A.649.649,0,0,1,8.18,50a.648.648,0,0,1,.606.6v1.9h5.757V50.6a.606.606,0,0,1,1.212,0v2.5c.1.3-.2.6-.606.6"/>
          <path id="Path_1495485" data-name="Path 1495485" d="M51.2,53.7H44.235a.649.649,0,0,1-.606-.6V50.6a.606.606,0,0,1,1.212,0v1.9H50.5V50.6a.606.606,0,0,1,1.212,0v2.5a.5.5,0,0,1-.505.6"/>
          <path id="Path_1495486" data-name="Path 1495486" d="M11.412,46.2H7.574a.648.648,0,0,1-.606-.6V18.1a.648.648,0,0,1,.606-.6H13.23a.6.6,0,1,1,0,1.2H8.18V45h3.131a.648.648,0,0,1,.606.6.5.5,0,0,1-.505.6"/>
          <path id="Path_1495487" data-name="Path 1495487" d="M17.068,46.2H13.937a.6.6,0,1,1,0-1.2h3.131a.6.6,0,1,1,0,1.2"/>
          <path id="Path_1495488" data-name="Path 1495488" d="M22.723,46.2h-3.13a.6.6,0,1,1,0-1.2h3.13a.648.648,0,0,1,.606.6c.1.3-.2.6-.606.6"/>
          <path id="Path_1495489" data-name="Path 1495489" d="M28.48,46.2H25.349a.6.6,0,1,1,0-1.2H28.48a.6.6,0,1,1,0,1.2"/>
          <path id="Path_1495490" data-name="Path 1495490" d="M34.136,46.2H31A.6.6,0,1,1,31,45h3.131a.6.6,0,1,1,0,1.2"/>
          <path id="Path_1495491" data-name="Path 1495491" d="M39.791,46.2h-3.13a.6.6,0,1,1,0-1.2h3.13a.6.6,0,1,1,0,1.2"/>
          <path id="Path_1495492" data-name="Path 1495492" d="M45.447,46.2H42.316a.6.6,0,1,1,0-1.2h3.131a.648.648,0,0,1,.606.6c.1.3-.2.6-.606.6"/>
          <path id="Path_1495493" data-name="Path 1495493" d="M51.81,46.2H47.972a.6.6,0,1,1,0-1.2H51.1V18.7H45.447a.6.6,0,1,1,0-1.2H51.81a.648.648,0,0,1,.606.6V45.6a.648.648,0,0,1-.606.6"/>
          <path id="Path_1495494" data-name="Path 1495494" d="M51.911,51.2H7.473a4.825,4.825,0,0,1-4.847-4.8V17.3a4.825,4.825,0,0,1,4.847-4.8h5.858a.6.6,0,1,1,0,1.2H7.473a3.6,3.6,0,0,0-3.635,3.6v29a3.6,3.6,0,0,0,3.635,3.6H51.911a3.6,3.6,0,0,0,3.635-3.6v-29a3.6,3.6,0,0,0-3.635-3.6H45.447a.6.6,0,1,1,0-1.2h6.464a4.825,4.825,0,0,1,4.848,4.8v29a4.784,4.784,0,0,1-4.848,4.9"/>
          <path id="Path_1495495" data-name="Path 1495495" d="M43.629,32.4H15.149A2.446,2.446,0,0,1,12.725,30V24.9a2.446,2.446,0,0,1,2.424-2.4h3.232a.6.6,0,1,1,0,1.2H15.149a1.161,1.161,0,0,0-1.212,1.2V30a1.161,1.161,0,0,0,1.212,1.2H43.73A1.161,1.161,0,0,0,44.942,30V24.9a1.161,1.161,0,0,0-1.212-1.2H40.5a.6.6,0,1,1,0-1.2H43.73a2.446,2.446,0,0,1,2.424,2.4V30a2.469,2.469,0,0,1-2.525,2.4"/>
          <path id="Path_1495496" data-name="Path 1495496" d="M43.629,21.2H40.4a.6.6,0,1,1,0-1.2h3.232a1.161,1.161,0,0,0,1.212-1.2V13.7a.75.75,0,0,0-.1-.4,1.181,1.181,0,0,0-1.111-.8H40.4a.6.6,0,1,1,0-1.2h3.232A2.391,2.391,0,0,1,45.952,13a1.686,1.686,0,0,1,.1.7v5.1a2.321,2.321,0,0,1-2.424,2.4"/>
          <path id="Path_1495497" data-name="Path 1495497" d="M18.381,21.2H15.149a2.446,2.446,0,0,1-2.424-2.4V13.7a1.686,1.686,0,0,1,.1-.7,2.485,2.485,0,0,1,2.323-1.7h3.232a.6.6,0,1,1,0,1.2H15.149a1.093,1.093,0,0,0-1.111.8c0,.1-.1.2-.1.4v5.1A1.161,1.161,0,0,0,15.149,20h3.232a.6.6,0,1,1,0,1.2"/>
          <path id="Path_1495498" data-name="Path 1495498" d="M40.4,23.7H18.381a.648.648,0,0,1-.606-.6V20.6a.648.648,0,0,1,.606-.6H40.5a.648.648,0,0,1,.606.6v2.5a.673.673,0,0,1-.707.6M18.986,22.4H39.791V21.1H18.986Z"/>
          <path id="Path_1495499" data-name="Path 1495499" d="M43.629,9.9H40.4a.648.648,0,0,1-.606-.6.648.648,0,0,1,.606-.6h3.232a1.161,1.161,0,0,0,1.212-1.2V2.4a1.161,1.161,0,0,0-1.212-1.2H15.149a1.161,1.161,0,0,0-1.212,1.2V7.5a1.161,1.161,0,0,0,1.212,1.2h3.232a.6.6,0,1,1,0,1.2H15.149a2.446,2.446,0,0,1-2.424-2.4V2.4A2.446,2.446,0,0,1,15.149,0H43.73a2.446,2.446,0,0,1,2.424,2.4V7.5a2.469,2.469,0,0,1-2.525,2.4"/>
          <path id="Path_1495500" data-name="Path 1495500" d="M40.4,12.4H18.381a.648.648,0,0,1-.606-.6V9.3a.648.648,0,0,1,.606-.6H40.5a.648.648,0,0,1,.606.6v2.5a.673.673,0,0,1-.707.6M18.986,11.2H39.791V9.9H18.986Z"/>
          <path id="Path_1495501" data-name="Path 1495501" d="M40.4,29.3a1.908,1.908,0,0,1-1.414-3.2,1.682,1.682,0,0,1,1.313-.5,1.931,1.931,0,0,1,1.313.5,1.647,1.647,0,0,1,.5,1.3,1.891,1.891,0,0,1-.5,1.3,1.326,1.326,0,0,1-1.212.6m0-2.5a.526.526,0,0,0-.4.2.755.755,0,0,0-.2.4.648.648,0,0,0,.606.6.526.526,0,0,0,.4-.2.755.755,0,0,0,.2-.4.518.518,0,0,0-.2-.4.526.526,0,0,0-.4-.2"/>
          <path id="Path_1495502" data-name="Path 1495502" d="M35.348,29.3a1.907,1.907,0,0,1-1.414-3.2,1.682,1.682,0,0,1,1.313-.5,1.931,1.931,0,0,1,1.313.5,1.647,1.647,0,0,1,.5,1.3,1.891,1.891,0,0,1-.5,1.3,1.326,1.326,0,0,1-1.212.6m0-2.5a.526.526,0,0,0-.4.2.755.755,0,0,0-.2.4.648.648,0,0,0,.606.6.526.526,0,0,0,.4-.2.755.755,0,0,0,.2-.4.518.518,0,0,0-.2-.4.526.526,0,0,0-.4-.2"/>
          <path id="Path_1495503" data-name="Path 1495503" d="M30.3,28.1H17.068a.6.6,0,1,1,0-1.2H30.3a.648.648,0,0,1,.606.6c.1.3-.2.6-.606.6"/>
          <path id="Path_1495504" data-name="Path 1495504" d="M40.4,18.1a1.908,1.908,0,0,1-1.414-3.2,1.682,1.682,0,0,1,1.313-.5,1.931,1.931,0,0,1,1.313.5,1.647,1.647,0,0,1,.5,1.3,1.891,1.891,0,0,1-.5,1.3,1.326,1.326,0,0,1-1.212.6m0-2.5a.526.526,0,0,0-.4.2.755.755,0,0,0-.2.4.648.648,0,0,0,.606.6.526.526,0,0,0,.4-.2.755.755,0,0,0,.2-.4.518.518,0,0,0-.2-.4c-.1-.2-.2-.2-.4-.2"/>
          <path id="Path_1495505" data-name="Path 1495505" d="M35.348,18.1a1.907,1.907,0,0,1-1.414-3.2,1.682,1.682,0,0,1,1.313-.5,1.931,1.931,0,0,1,1.313.5,1.647,1.647,0,0,1,.5,1.3,1.891,1.891,0,0,1-.5,1.3,1.326,1.326,0,0,1-1.212.6m0-2.5a.526.526,0,0,0-.4.2.518.518,0,0,0-.2.4.648.648,0,0,0,.606.6.526.526,0,0,0,.4-.2.755.755,0,0,0,.2-.4.518.518,0,0,0-.2-.4c-.1-.2-.2-.2-.4-.2"/>
          <path id="Path_1495506" data-name="Path 1495506" d="M30.3,16.8H17.068a.6.6,0,1,1,0-1.2H30.3a.648.648,0,0,1,.606.6c.1.3-.2.6-.606.6"/>
          <path id="Path_1495507" data-name="Path 1495507" d="M40.4,6.8a1.908,1.908,0,0,1-1.414-3.2,1.974,1.974,0,0,1,2.626,0,1.647,1.647,0,0,1,.5,1.3,1.891,1.891,0,0,1-.5,1.3,1.326,1.326,0,0,1-1.212.6m0-2.5a.526.526,0,0,0-.4.2.755.755,0,0,0-.2.4.648.648,0,0,0,.606.6.526.526,0,0,0,.4-.2.755.755,0,0,0,.2-.4.755.755,0,0,0-.2-.4.526.526,0,0,0-.4-.2"/>
          <path id="Path_1495508" data-name="Path 1495508" d="M35.348,6.8a1.907,1.907,0,0,1-1.414-3.2,1.974,1.974,0,0,1,2.626,0,1.647,1.647,0,0,1,.5,1.3,1.891,1.891,0,0,1-.5,1.3,1.326,1.326,0,0,1-1.212.6m0-2.5a.526.526,0,0,0-.4.2.755.755,0,0,0-.2.4.648.648,0,0,0,.606.6.526.526,0,0,0,.4-.2.755.755,0,0,0,.2-.4.755.755,0,0,0-.2-.4.526.526,0,0,0-.4-.2"/>
          <path id="Path_1495509" data-name="Path 1495509" d="M30.3,5.6H17.068a.648.648,0,0,1-.606-.6.648.648,0,0,1,.606-.6H30.3A.648.648,0,0,1,30.9,5a.579.579,0,0,1-.606.6"/>
          <path id="Path_1495510" data-name="Path 1495510" d="M13.937,46.2H11.412a.648.648,0,0,1-.606-.6V38.1a.648.648,0,0,1,.606-.6h2.525a.648.648,0,0,1,.606.6v7.5a.648.648,0,0,1-.606.6m-1.919-1.3h1.313V38.6H12.018Z"/>
          <path id="Path_1495511" data-name="Path 1495511" d="M19.593,46.2H17.068a.648.648,0,0,1-.606-.6V34.9a.648.648,0,0,1,.606-.6h2.525a.648.648,0,0,1,.606.6V45.5a.671.671,0,0,1-.606.7m-1.919-1.3h1.312V35.5H17.674Z"/>
          <path id="Path_1495512" data-name="Path 1495512" d="M25.248,46.2H22.723a.648.648,0,0,1-.606-.6V39.3a.648.648,0,0,1,.606-.6h2.525a.648.648,0,0,1,.606.6v6.3c.1.3-.2.6-.606.6M23.43,44.9h1.212v-5H23.329v5Z"/>
          <path id="Path_1495513" data-name="Path 1495513" d="M31,46.2H28.48a.648.648,0,0,1-.606-.6V36.2a.648.648,0,0,1,.606-.6H31a.648.648,0,0,1,.606.6v9.4a.648.648,0,0,1-.606.6m-1.919-1.3H30.4V36.8H29.086Z"/>
          <path id="Path_1495514" data-name="Path 1495514" d="M36.661,46.2H34.136a.648.648,0,0,1-.606-.6V38.7a.648.648,0,0,1,.606-.6h2.525a.649.649,0,0,1,.606.6v6.9a.649.649,0,0,1-.606.6m-1.919-1.3h1.313V39.3H34.742Z"/>
          <path id="Path_1495515" data-name="Path 1495515" d="M42.316,46.2H39.791a.648.648,0,0,1-.606-.6V34.9a.648.648,0,0,1,.606-.6h2.525a.648.648,0,0,1,.606.6V45.5a.671.671,0,0,1-.606.7M40.4,44.9H41.71V35.5H40.4Z"/>
          <path id="Path_1495516" data-name="Path 1495516" d="M47.972,46.2H45.447a.648.648,0,0,1-.606-.6V37.5a.648.648,0,0,1,.606-.6h2.525a.648.648,0,0,1,.606.6v8.1c.1.3-.2.6-.606.6m-1.818-1.3h1.313V38H46.154Z"/>
          <path id="Path_1495517" data-name="Path 1495517" d="M51.81,21.8H48.679a.6.6,0,1,1,0-1.2H51.81a.6.6,0,1,1,0,1.2"/>
          <path id="Path_1495518" data-name="Path 1495518" d="M51.81,24.3H48.679a.6.6,0,1,1,0-1.2H51.81a.6.6,0,1,1,0,1.2"/>
          <path id="Path_1495519" data-name="Path 1495519" d="M51.81,26.8H48.679a.6.6,0,1,1,0-1.2H51.81a.6.6,0,1,1,0,1.2"/>
          <path id="Path_1495520" data-name="Path 1495520" d="M51.81,29.3H48.679a.6.6,0,1,1,0-1.2H51.81a.6.6,0,1,1,0,1.2"/>
          <path id="Path_1495521" data-name="Path 1495521" d="M10.806,21.8H7.675a.6.6,0,1,1,0-1.2h3.131a.6.6,0,1,1,0,1.2"/>
          <path id="Path_1495522" data-name="Path 1495522" d="M10.806,24.3H7.675a.6.6,0,1,1,0-1.2h3.131a.6.6,0,1,1,0,1.2"/>
          <path id="Path_1495523" data-name="Path 1495523" d="M10.806,26.8H7.675a.6.6,0,1,1,0-1.2h3.131a.6.6,0,1,1,0,1.2"/>
          <path id="Path_1495524" data-name="Path 1495524" d="M10.806,29.3H7.675a.6.6,0,1,1,0-1.2h3.131a.6.6,0,1,1,0,1.2"/>
        </g>
      </g>
    </g>
  </g>
</svg>
