<svg xmlns="http://www.w3.org/2000/svg" xmlns:xlink="http://www.w3.org/1999/xlink" width="118" height="118" viewBox="0 0 118 118">
  <defs>
    <filter id="Rectangle_411831" x="0" y="0" width="118" height="118" filterUnits="userSpaceOnUse">
      <feOffset dy="3" input="SourceAlpha"/>
      <feGaussianBlur stdDeviation="3" result="blur"/>
      <feFlood flood-opacity="0.161"/>
      <feComposite operator="in" in2="blur"/>
      <feComposite in="SourceGraphic"/>
    </filter>
    <clipPath id="clip-path">
      <rect id="Rectangle_425890" data-name="Rectangle 425890" width="59.417" height="58.126" fill="none"/>
    </clipPath>
  </defs>
  <g id="Group_1228603" data-name="Group 1228603" transform="translate(-326.781 -3857)">
    <g id="Group_1203422" data-name="Group 1203422" transform="translate(-465 1901)">
      <g id="Group_1203409" data-name="Group 1203409" transform="translate(465 -1896)">
        <g transform="matrix(1, 0, 0, 1, 326.78, 3852)" filter="url(#Rectangle_411831)">
          <g id="Rectangle_411831-2" data-name="Rectangle 411831" transform="translate(9 6)" fill="#37f1e9" stroke="#fff" stroke-width="2">
            <path d="M5,0H68a32,32,0,0,1,32,32V95a5,5,0,0,1-5,5H32A32,32,0,0,1,0,68V5A5,5,0,0,1,5,0Z" stroke="none"/>
            <path d="M5,1H68A31,31,0,0,1,99,32V95a4,4,0,0,1-4,4H32A31,31,0,0,1,1,68V5A4,4,0,0,1,5,1Z" fill="none"/>
          </g>
        </g>
      </g>
    </g>
    <g id="Group_1228614" data-name="Group 1228614" transform="translate(356.073 3883.937)">
      <g id="Group_1228613" data-name="Group 1228613" transform="translate(0 0)" clip-path="url(#clip-path)">
        <path id="Path_1495570" data-name="Path 1495570" d="M24.373,8.1H.607V51.99a3.986,3.986,0,0,0,4.039,4h49.91a3.987,3.987,0,0,0,4.041-4V8.1Z" transform="translate(0.107 1.43)" fill="#d7deed"/>
        <path id="Path_1495571" data-name="Path 1495571" d="M51.764,16.042V49.106H28.71c1.307-1.648,2.852-3.178,7.13-3.178a7.085,7.085,0,0,0,3.445-.824c4.041-2,5.586-5.883,2.5-13.06a9.134,9.134,0,0,1-.713-4.355,8.538,8.538,0,0,1,2.139-5.058L38.1,17.572c-4.636,2.234-7.249,1.177-9.388-.824-2.139,2-4.872,3.177-9.387.824-1.664,1.646-3.446,3.411-5.11,5.06a9.145,9.145,0,0,1,2.138,5.295,9.731,9.731,0,0,1-.712,4.118c-3.09,7.176-1.546,11.059,2.5,13.06a7.084,7.084,0,0,0,3.446.824c4.277,0,5.822,1.53,7.129,3.178H5.656V13.1H51.764Z" transform="translate(0.999 2.314)" fill="#abbfcf"/>
        <path id="Path_1495572" data-name="Path 1495572" d="M41.941,22.183H12.826c1.664-1.646,3.446-3.411,5.11-5.06,4.634,2.237,7.249,1.177,9.387-.824,2.14,2,4.872,3.177,9.388.824,1.781,1.53,3.565,3.413,5.229,5.06" transform="translate(2.266 2.879)" fill="#faa71a"/>
        <path id="Path_1495573" data-name="Path 1495573" d="M12.857,21.3H41.972a10.836,10.836,0,0,0-2.139,5.06,9.109,9.109,0,0,0,.712,4.354c3.09,7.179,1.546,11.06-2.494,13.062A7.089,7.089,0,0,1,34.6,44.6c-4.277,0-5.823,1.531-7.129,3.177h-.12C26.049,46.128,24.5,44.6,20.225,44.6a7.089,7.089,0,0,1-3.446-.822c-4.041-2-5.584-5.883-2.5-13.062A8.193,8.193,0,0,0,15,26.595,9.164,9.164,0,0,0,12.857,21.3" transform="translate(2.234 3.762)" fill="#ffd400"/>
        <rect id="Rectangle_425889" data-name="Rectangle 425889" width="34.224" height="4.471" transform="translate(24.48 5.177)" fill="#8c9fb0"/>
        <path id="Path_1495574" data-name="Path 1495574" d="M55.029,4.6v.471H20.805V.6H50.988a3.988,3.988,0,0,1,4.041,4" transform="translate(3.675 0.106)" fill="#abbfcf"/>
        <path id="Path_1495575" data-name="Path 1495575" d="M4.647.618a3.988,3.988,0,0,0-4.041,4V9.442H24.373V.5H4.647Z" transform="translate(0.107 0.088)" fill="#57606f"/>
        <path id="Path_1495576" data-name="Path 1495576" d="M13.463,3.1a1.564,1.564,0,0,1,1.543,1.531,1.544,1.544,0,0,1-3.089,0A1.654,1.654,0,0,1,13.463,3.1" transform="translate(2.105 0.547)"/>
        <path id="Path_1495577" data-name="Path 1495577" d="M9.726,3.1A1.566,1.566,0,0,1,11.27,4.631a1.544,1.544,0,0,1-3.089,0A1.566,1.566,0,0,1,9.726,3.1" transform="translate(1.445 0.547)"/>
        <path id="Path_1495578" data-name="Path 1495578" d="M5.888,3.1A1.566,1.566,0,0,1,7.433,4.631a1.545,1.545,0,0,1-3.09,0A1.654,1.654,0,0,1,5.888,3.1" transform="translate(0.767 0.547)"/>
        <path id="Path_1495579" data-name="Path 1495579" d="M58.7,9.012H.714A.764.764,0,0,1,0,8.306.765.765,0,0,1,.714,7.6H58.7a.764.764,0,0,1,.714.706.763.763,0,0,1-.714.706" transform="translate(0 1.342)"/>
        <path id="Path_1495580" data-name="Path 1495580" d="M55.136,5.212H20.912a.762.762,0,0,1-.712-.706.762.762,0,0,1,.712-.706H55.136a.763.763,0,0,1,.714.706.763.763,0,0,1-.714.706" transform="translate(3.568 0.671)"/>
        <path id="Path_1495581" data-name="Path 1495581" d="M20.912,10.337a.762.762,0,0,1-.712-.706V.806a.712.712,0,0,1,1.425,0V9.631a.681.681,0,0,1-.713.706" transform="translate(3.568 0.017)"/>
        <path id="Path_1495582" data-name="Path 1495582" d="M54.663,58.127H4.754A4.745,4.745,0,0,1,0,53.421V4.707A4.744,4.744,0,0,1,4.754,0h49.91a4.744,4.744,0,0,1,4.754,4.707V53.421a4.745,4.745,0,0,1-4.754,4.707M4.754,1.53A3.306,3.306,0,0,0,1.426,4.824V53.537a3.305,3.305,0,0,0,3.328,3.295h49.91a3.3,3.3,0,0,0,3.328-3.295V4.707a3.305,3.305,0,0,0-3.328-3.295H4.754Z" transform="translate(0 0)"/>
        <path id="Path_1495583" data-name="Path 1495583" d="M51.871,50.035H5.763a.763.763,0,0,1-.713-.707V13.2a.761.761,0,0,1,.713-.7H51.871a.761.761,0,0,1,.712.7V49.211a.79.79,0,0,1-.712.824M6.476,48.5H51.039V14.028H6.476Z" transform="translate(0.892 2.208)"/>
        <path id="Path_1495584" data-name="Path 1495584" d="M25.909,41.859h0a.919.919,0,0,1-.594-.235c-.6-.824-1.19-1.412-3.09-1.412a.707.707,0,1,1,0-1.413,4.863,4.863,0,0,1,3.684,1.3,4.861,4.861,0,0,1,3.684-1.3.707.707,0,1,1,0,1.413c-1.9,0-2.5.588-3.09,1.412a.659.659,0,0,1-.594.235" transform="translate(3.8 6.853)"/>
        <path id="Path_1495585" data-name="Path 1495585" d="M27.587,49.561a.907.907,0,0,1-.594-.235l-.119-.118c-1.307-1.528-2.614-2.824-6.536-2.824a8.639,8.639,0,0,1-3.8-.941,7.464,7.464,0,0,1-4.278-5.06c-.594-2.353-.12-5.295,1.426-8.942a11.082,11.082,0,0,0,.712-3.764,9.237,9.237,0,0,0-1.9-4.943.7.7,0,0,1,.119-.94l2.5-2.472a25.952,25.952,0,0,1,2.613-2.471.738.738,0,0,1,.832-.118,9.429,9.429,0,0,0,4.278,1.177,6.116,6.116,0,0,0,4.278-1.883.894.894,0,0,1,1.07,0,6.114,6.114,0,0,0,4.278,1.883,9.437,9.437,0,0,0,4.278-1.177.738.738,0,0,1,.832.118c.832.825,1.781,1.647,2.613,2.471l2.5,2.472a.722.722,0,0,1,.119.94,8.588,8.588,0,0,0-1.9,4.707,7.969,7.969,0,0,0,.713,4c1.545,3.648,2.02,6.589,1.426,8.942a7.53,7.53,0,0,1-4.278,5.06,8.639,8.639,0,0,1-3.8.941c-3.922,0-5.229,1.3-6.536,2.824l-.119.118a4.569,4.569,0,0,1-.713.235m-13.665-27.3a10.652,10.652,0,0,1,1.9,5.177,9.946,9.946,0,0,1-.832,4.471c-3.446,8.12-.357,10.825,2.139,12.119a7.135,7.135,0,0,0,3.209.707c4.041,0,5.823,1.293,7.13,2.823,1.307-1.53,3.09-2.823,7.129-2.823a7.917,7.917,0,0,0,3.21-.707c2.613-1.294,5.7-4,2.138-12.119a10.972,10.972,0,0,1-.832-4.707,9.533,9.533,0,0,1,1.9-4.942l-2.139-2.118q-1.07-1.057-2.138-2.118a11.348,11.348,0,0,1-4.4,1.059A7.268,7.268,0,0,1,27.469,17.2,7.269,7.269,0,0,1,22.6,19.086a10.874,10.874,0,0,1-4.4-1.059q-1.071,1.059-2.14,2.118c-.712.706-1.426,1.53-2.138,2.118" transform="translate(2.122 2.799)"/>
        <path id="Path_1495586" data-name="Path 1495586" d="M42.048,22.112H12.933a.706.706,0,1,1,0-1.412H42.048a.763.763,0,0,1,.713.7.683.683,0,0,1-.713.707" transform="translate(2.159 3.656)"/>
        <path id="Path_1495587" data-name="Path 1495587" d="M33.027,24.612H19.6a.706.706,0,1,1,0-1.412H33.027a.763.763,0,0,1,.713.7.682.682,0,0,1-.713.707" transform="translate(3.336 4.098)"/>
        <path id="Path_1495588" data-name="Path 1495588" d="M31.369,27.112H20.911a.706.706,0,1,1,0-1.412H31.369a.706.706,0,1,1,0,1.412" transform="translate(3.568 4.539)"/>
        <path id="Path_1495589" data-name="Path 1495589" d="M29.611,29.612H22.124a.706.706,0,1,1,0-1.412h7.487a.762.762,0,0,1,.712.7.682.682,0,0,1-.712.707" transform="translate(3.782 4.981)"/>
        <path id="Path_1495590" data-name="Path 1495590" d="M46.073,16.512H38.586a.706.706,0,1,1,0-1.412h7.487a.706.706,0,1,1,0,1.412" transform="translate(6.69 2.667)"/>
        <path id="Path_1495591" data-name="Path 1495591" d="M13.25,16.512H5.764a.706.706,0,1,1,0-1.412H13.25a.706.706,0,1,1,0,1.412" transform="translate(0.892 2.667)"/>
      </g>
    </g>
  </g>
</svg>
