<svg xmlns="http://www.w3.org/2000/svg" xmlns:xlink="http://www.w3.org/1999/xlink" width="118" height="118" viewBox="0 0 118 118">
  <defs>
    <filter id="Rectangle_411831" x="0" y="0" width="118" height="118" filterUnits="userSpaceOnUse">
      <feOffset dy="3" input="SourceAlpha"/>
      <feGaussianBlur stdDeviation="3" result="blur"/>
      <feFlood flood-opacity="0.161"/>
      <feComposite operator="in" in2="blur"/>
      <feComposite in="SourceGraphic"/>
    </filter>
  </defs>
  <g id="Group_1228549" data-name="Group 1228549" transform="translate(-326.781 -3857)">
    <g id="Group_1203422" data-name="Group 1203422" transform="translate(-465 1901)">
      <g id="Group_1203409" data-name="Group 1203409" transform="translate(465 -1896)">
        <g transform="matrix(1, 0, 0, 1, 326.78, 3852)" filter="url(#Rectangle_411831)">
          <g id="Rectangle_411831-2" data-name="Rectangle 411831" transform="translate(9 6)" fill="#37f1e9" stroke="#fff" stroke-width="2">
            <path d="M5,0H68a32,32,0,0,1,32,32V95a5,5,0,0,1-5,5H32A32,32,0,0,1,0,68V5A5,5,0,0,1,5,0Z" stroke="none"/>
            <path d="M5,1H68A31,31,0,0,1,99,32V95a4,4,0,0,1-4,4H32A31,31,0,0,1,1,68V5A4,4,0,0,1,5,1Z" fill="none"/>
          </g>
        </g>
      </g>
    </g>
    <g id="artificial-intelligence_9887802" transform="translate(353.588 3853.317)">
      <path id="Path_1260620" data-name="Path 1260620" d="M7.119,60.575l-.009.013-4.7,6.088a1.084,1.084,0,0,0,.262,1.57l3.194,2.1-1.212,2.4a1.087,1.087,0,0,0,.422,1.427l1.679.979-.666.779a1.084,1.084,0,0,0,.19,1.586q.694.5,1.386,1a.924.924,0,0,1,.394.829c-.105,1.867.343,4.339,1.978,5.485a3.827,3.827,0,0,0,3.811.137l5.814-2.488.124.137a24.159,24.159,0,0,1,4.541,7.394.518.518,0,0,0,.481.328H50.189A.518.518,0,0,0,50.6,89.5a19.714,19.714,0,0,1-4.451-11.545,20.086,20.086,0,0,1,.761-6.206,25.951,25.951,0,0,1,2.753-6.281q.276-.461.544-.927l.075-.129h5.475l.073.137a1.742,1.742,0,0,1,.1.228l2.019,5.631-.178.11A3.48,3.48,0,1,0,59.592,70a3.553,3.553,0,0,0-.469.032l-.207.028L56.9,64.428c-.2-.563-.543-1.052-1.195-1.052H50.864l.2-.381a21.836,21.836,0,0,0,2.387-6.25l.04-.211h7.492l.043.205a3.482,3.482,0,1,0,0-1.446l-.043.205h-7.35l.023-.28a17.459,17.459,0,0,0-.7-6.233l-.093-.329H55.7c.652,0,.993-.489,1.195-1.052l2.019-5.629.207.028a3.554,3.554,0,0,0,.469.033,3.489,3.489,0,1,0-1.829-.522l.178.11-2.019,5.631a1.725,1.725,0,0,1-.1.228l-.073.137H52.534l-.06-.175c-.07-.205-.142-.41-.216-.614a20.752,20.752,0,0,0-8.615-10.453A26.011,26.011,0,0,0,30.6,32.509a26.388,26.388,0,0,0-6.828.674,23.891,23.891,0,0,0-6.187,2.386A21.6,21.6,0,0,0,8.232,45.94c-.381.881-.7,1.809-1.014,2.717-.475,1.394-.92,2.8-1.355,4.207a1.952,1.952,0,0,0,.406,1.905l1.586,1.81.017.046a3.867,3.867,0,0,1-.752,3.949Z" transform="translate(-1.735 -1.735)" fill="#ffcd00" stroke="#000" stroke-width="2" fill-rule="evenodd"/>
      <path id="Path_1260621" data-name="Path 1260621" d="M62.7,56.47a2.188,2.188,0,1,1,2.188-2.188A2.188,2.188,0,0,1,62.7,56.47ZM47.791,61.383H36.2a.776.776,0,1,0,0,1.553H46.893c-.027.046-.052.088-.079.133a23.94,23.94,0,0,0-3.7,12.961,20.454,20.454,0,0,0,3.8,11.28H23.6a25.2,25.2,0,0,0-4.977-7.719.779.779,0,0,0-.868-.178L11.6,82.045a2.554,2.554,0,0,1-2.559-.007c-.963-.675-1.537-2.424-1.429-4.352a2.213,2.213,0,0,0-.925-1.95q-.454-.33-1.207-.873l.48-.56a1.343,1.343,0,0,0-.344-2.035l-1.457-.85L5.5,68.785a.776.776,0,0,0-.266-1L1.838,65.554l4.555-5.9a5.109,5.109,0,0,0,.9-5.36.772.772,0,0,0-.139-.229l-1.647-1.88a.662.662,0,0,1-.142-.669c1-3.239,1.787-5.53,2.323-6.8,4.209-9.666,13.68-12.871,21.137-12.646,9.556.287,17.6,5.576,20.484,13.473.01.029.019.056.03.086H33.984a.776.776,0,1,0,0,1.553H49.855a16.26,16.26,0,0,1,.781,6.325H33.452a.776.776,0,0,0,0,1.553H50.4a22.835,22.835,0,0,1-2.607,6.325ZM60.046,71.745a2.188,2.188,0,1,1-2.188-2.188,2.188,2.188,0,0,1,2.188,2.188ZM57.857,34.63a2.189,2.189,0,1,1-2.188,2.189A2.189,2.189,0,0,1,57.857,34.63ZM62.7,50.541a3.747,3.747,0,0,0-3.661,2.964H52.184a17.587,17.587,0,0,0-.712-6.325h2.5c.664,0,1.148-.412,1.438-1.223l1.948-5.432a3.8,3.8,0,0,0,.5.035A3.748,3.748,0,1,0,55.892,40l-1.948,5.434a1.4,1.4,0,0,1-.081.194H50.985c-.07-.2-.141-.411-.218-.619a21,21,0,0,0-8.721-10.584,26.257,26.257,0,0,0-13.176-3.91,25.363,25.363,0,0,0-13.15,3.093A21.936,21.936,0,0,0,6.26,44.1c-.559,1.324-1.36,3.662-2.379,6.95a2.211,2.211,0,0,0,.458,2.152l1.554,1.774a3.6,3.6,0,0,1-.713,3.7l-.01.014-4.7,6.087A1.342,1.342,0,0,0,.8,66.727l3,1.975L2.69,70.892a1.345,1.345,0,0,0,.522,1.768l1.41.823-.465.543a1.342,1.342,0,0,0,.236,1.964q.878.633,1.385,1a.661.661,0,0,1,.287.605c-.111,1.976.379,4.514,2.088,5.712a3.981,3.981,0,0,0,4.061.163l5.644-2.416a23.863,23.863,0,0,1,4.492,7.315.776.776,0,0,0,.722.492H48.455a.776.776,0,0,0,.609-1.258c-5.545-7.022-5.871-15.452-.918-23.739q.282-.471.546-.93h5.17a1.489,1.489,0,0,1,.081.194l1.948,5.433A3.739,3.739,0,1,0,57.857,68a3.819,3.819,0,0,0-.5.035l-1.948-5.432c-.291-.811-.775-1.223-1.438-1.223H49.562a21.919,21.919,0,0,0,2.413-6.325h7.067A3.741,3.741,0,1,0,62.7,50.541Z" transform="translate(0 0)" fill-rule="evenodd"/>
      <g id="Group_1204602" data-name="Group 1204602" transform="translate(15.633 46.539)">
        <g id="Group_1204595" data-name="Group 1204595">
          <path id="Path_1260615" data-name="Path 1260615" d="M141.774,152.046l4.213-11.061a.254.254,0,0,1,.471,0l4.175,11.062" transform="translate(-141.774 -140.827)" fill="none" stroke="#000" stroke-linecap="round" stroke-linejoin="round" stroke-miterlimit="10" stroke-width="3"/>
          <line id="Line_564" data-name="Line 564" x2="6.252" transform="translate(1.314 8.465)" fill="none" stroke="#000" stroke-linecap="round" stroke-linejoin="round" stroke-miterlimit="10" stroke-width="3"/>
        </g>
        <g id="Group_1204596" data-name="Group 1204596" transform="translate(12.931 0)">
          <line id="Line_565" data-name="Line 565" y2="11.219" fill="none" stroke="#000" stroke-linecap="round" stroke-linejoin="round" stroke-miterlimit="10" stroke-width="3"/>
        </g>
      </g>
    </g>
  </g>
</svg>
