<svg xmlns="http://www.w3.org/2000/svg" xmlns:xlink="http://www.w3.org/1999/xlink" width="118" height="118" viewBox="0 0 118 118">
  <defs>
    <filter id="Rectangle_411831" x="0" y="0" width="118" height="118" filterUnits="userSpaceOnUse">
      <feOffset dy="3" input="SourceAlpha"/>
      <feGaussianBlur stdDeviation="3" result="blur"/>
      <feFlood flood-opacity="0.161"/>
      <feComposite operator="in" in2="blur"/>
      <feComposite in="SourceGraphic"/>
    </filter>
    <clipPath id="clip-path">
      <rect id="Rectangle_425936" data-name="Rectangle 425936" width="55.069" height="61.454" fill="none"/>
    </clipPath>
  </defs>
  <g id="Group_1228658" data-name="Group 1228658" transform="translate(-326.781 -3852)">
    <g transform="matrix(1, 0, 0, 1, 326.78, 3852)" filter="url(#Rectangle_411831)">
      <g id="Rectangle_411831-2" data-name="Rectangle 411831" transform="translate(9 6)" fill="#b8a9f1" stroke="#fff" stroke-width="2">
        <path d="M5,0H68a32,32,0,0,1,32,32V95a5,5,0,0,1-5,5H32A32,32,0,0,1,0,68V5A5,5,0,0,1,5,0Z" stroke="none"/>
        <path d="M5,1H68A31,31,0,0,1,99,32V95a4,4,0,0,1-4,4H32A31,31,0,0,1,1,68V5A4,4,0,0,1,5,1Z" fill="none"/>
      </g>
    </g>
    <g id="Group_1228666" data-name="Group 1228666" transform="translate(358.247 3877.273)">
      <g id="Group_1228665" data-name="Group 1228665" clip-path="url(#clip-path)">
        <path id="Path_1495939" data-name="Path 1495939" d="M1.313,11.3V54.543a5.249,5.249,0,0,0,5.234,5.234H48.425a5.249,5.249,0,0,0,5.234-5.234V11.3Z" transform="translate(0.049 0.421)" fill="#ecf0f1"/>
        <rect id="Rectangle_425932" data-name="Rectangle 425932" width="41.877" height="38.004" transform="translate(6.596 16.96)" fill="#d7deed"/>
        <path id="Path_1495940" data-name="Path 1495940" d="M42.2,27.757V39.483H31.732V36.341l-3.873-.732,3.873-1.989V27.757Z" transform="translate(1.037 1.033)" fill="#80af52"/>
        <path id="Path_1495941" data-name="Path 1495941" d="M48.424,1.211H6.547A5.25,5.25,0,0,0,1.312,6.446V11.68H53.659V6.446a5.184,5.184,0,0,0-5.235-5.235" transform="translate(0.049 0.045)" fill="#74829c"/>
        <rect id="Rectangle_425933" data-name="Rectangle 425933" width="2.617" height="2.617" transform="translate(43.239 19.577)"/>
        <rect id="Rectangle_425934" data-name="Rectangle 425934" width="28.791" height="2.617" transform="translate(13.191 19.577)"/>
        <path id="Path_1495942" data-name="Path 1495942" d="M13.979,5.046a1.361,1.361,0,1,1-1.361,1.361,1.386,1.386,0,0,1,1.361-1.361" transform="translate(0.47 0.188)"/>
        <rect id="Rectangle_425935" data-name="Rectangle 425935" width="2.617" height="2.617" transform="translate(9.214 19.577)"/>
        <path id="Path_1495943" data-name="Path 1495943" d="M10.243,5.046A1.361,1.361,0,1,1,8.882,6.407a1.32,1.32,0,0,1,1.361-1.361" transform="translate(0.331 0.188)"/>
        <path id="Path_1495944" data-name="Path 1495944" d="M6.408,5.046A1.361,1.361,0,1,1,5.047,6.407,1.386,1.386,0,0,1,6.408,5.046" transform="translate(0.188 0.188)"/>
        <path id="Path_1495945" data-name="Path 1495945" d="M48.469,61.454H6.592A6.523,6.523,0,0,1,.1,54.963V6.49A6.523,6.523,0,0,1,6.592,0H48.469A6.523,6.523,0,0,1,54.96,6.49V54.963a6.392,6.392,0,0,1-6.491,6.491M6.592,2.616A3.934,3.934,0,0,0,2.719,6.49V54.963a3.933,3.933,0,0,0,3.873,3.873H48.469a3.933,3.933,0,0,0,3.873-3.873V6.49a3.934,3.934,0,0,0-3.873-3.874Z" transform="translate(0.004)"/>
        <path id="Path_1495946" data-name="Path 1495946" d="M53.708,12.714H1.361a1.361,1.361,0,0,1,0-2.722H53.708a1.361,1.361,0,1,1,0,2.722" transform="translate(0 0.372)"/>
        <path id="Path_1495947" data-name="Path 1495947" d="M48.285,55.659H24.728a1.361,1.361,0,0,1,0-2.722h22.3V17.761H7.769V53.147H13a1.361,1.361,0,1,1,0,2.722H6.408a1.386,1.386,0,0,1-1.362-1.361V16.4a1.386,1.386,0,0,1,1.362-1.36H48.285a1.385,1.385,0,0,1,1.361,1.36v38a1.371,1.371,0,0,1-1.361,1.256" transform="translate(0.188 0.56)"/>
        <path id="Path_1495948" data-name="Path 1495948" d="M42.25,40.9H31.782a1.386,1.386,0,0,1-1.362-1.36V37.441l-2.826-.523a1.343,1.343,0,0,1-.313-2.513l3.245-1.57V27.7a1.385,1.385,0,0,1,1.36-1.361h10.47A1.386,1.386,0,0,1,43.716,27.7V39.535A1.562,1.562,0,0,1,42.25,40.9m-9.108-2.617h7.852V29.066H33.142v4.607a1.288,1.288,0,0,1-.733,1.151l-.524.208h.21a1.246,1.246,0,0,1,1.048,1.257Z" transform="translate(0.988 0.981)"/>
        <path id="Path_1495949" data-name="Path 1495949" d="M39.494,44.206H31.642a1.361,1.361,0,1,1,0-2.723h7.852a1.361,1.361,0,0,1,0,2.723" transform="translate(1.127 1.544)"/>
        <path id="Path_1495950" data-name="Path 1495950" d="M39.494,48.041H31.642a1.361,1.361,0,1,1,0-2.722h7.852a1.361,1.361,0,1,1,0,2.722" transform="translate(1.127 1.687)"/>
        <path id="Path_1495951" data-name="Path 1495951" d="M26.885,26.7a2.517,2.517,0,0,1,0,3.646l-4.791,4.791,4.791,4.791a2.51,2.51,0,0,1,.728,1.875,2.283,2.283,0,0,1-.728,1.771,2.517,2.517,0,0,1-3.646,0l-4.791-4.792L13.657,43.57a2.509,2.509,0,0,1-1.874.729,2.554,2.554,0,0,1-1.874-4.375L14.7,35.134,9.908,30.343a2.615,2.615,0,1,1,3.645-3.751l4.792,4.792,4.791-4.792a2.508,2.508,0,0,1,1.874-.728,2.609,2.609,0,0,1,1.875.833" transform="translate(0.34 0.961)" fill="#f14742"/>
        <path id="Path_1495952" data-name="Path 1495952" d="M11.83,45.7a4.214,4.214,0,0,1-2.813-1.146,3.842,3.842,0,0,1-1.145-2.812,4.023,4.023,0,0,1,1.145-2.812l3.854-3.853L9.017,31.225a4.023,4.023,0,0,1-1.145-2.812A4.215,4.215,0,0,1,9.017,25.6a4.02,4.02,0,0,1,2.813-1.146A4.213,4.213,0,0,1,14.642,25.6L18.5,29.454,22.35,25.6a4.02,4.02,0,0,1,2.813-1.146A4.211,4.211,0,0,1,27.974,25.6a4.018,4.018,0,0,1,1.146,2.812,4.211,4.211,0,0,1-1.146,2.812L24.12,35.079l3.853,3.853a3.843,3.843,0,0,1,1.146,2.812,4.018,4.018,0,0,1-1.146,2.812A3.84,3.84,0,0,1,25.163,45.7a4.02,4.02,0,0,1-2.813-1.146L18.5,40.7l-3.854,3.853A4.02,4.02,0,0,1,11.83,45.7m0-18.436a1.274,1.274,0,0,0-.938.417,1.32,1.32,0,0,0-.417.938,1.276,1.276,0,0,0,.417.938l4.791,4.791a1.546,1.546,0,0,1,.416.937,1.267,1.267,0,0,1-.416.938l-4.791,4.791a1.32,1.32,0,0,0-.417.938,1.132,1.132,0,0,0,.417.938,1.549,1.549,0,0,0,.938.416,1.269,1.269,0,0,0,.937-.416L17.559,38.1a1.318,1.318,0,0,1,1.874,0l4.791,4.791a1.32,1.32,0,0,0,.939.416,1.13,1.13,0,0,0,.937-.416,1.551,1.551,0,0,0,.416-.938,1.27,1.27,0,0,0-.416-.938l-4.791-4.791a1.32,1.32,0,0,1,0-1.874L26.1,29.559a1.321,1.321,0,0,0,.416-.938,1.128,1.128,0,0,0-.416-.938,1.32,1.32,0,0,0-.937-.417,1.134,1.134,0,0,0-.939.417l-4.791,4.791a1.55,1.55,0,0,1-.937.417,1.273,1.273,0,0,1-.938-.417l-4.792-4.791a1.016,1.016,0,0,0-.937-.417" transform="translate(0.293 0.91)"/>
      </g>
    </g>
  </g>
</svg>
