<svg xmlns="http://www.w3.org/2000/svg" xmlns:xlink="http://www.w3.org/1999/xlink" width="118" height="118" viewBox="0 0 118 118">
  <defs>
    <filter id="Rectangle_411831" x="0" y="0" width="118" height="118" filterUnits="userSpaceOnUse">
      <feOffset dy="3" input="SourceAlpha"/>
      <feGaussianBlur stdDeviation="3" result="blur"/>
      <feFlood flood-opacity="0.161"/>
      <feComposite operator="in" in2="blur"/>
      <feComposite in="SourceGraphic"/>
    </filter>
    <clipPath id="clip-path">
      <rect id="Rectangle_425931" data-name="Rectangle 425931" width="64.668" height="58.851" fill="none"/>
    </clipPath>
  </defs>
  <g id="Group_1228657" data-name="Group 1228657" transform="translate(-326.781 -3852)">
    <g transform="matrix(1, 0, 0, 1, 326.78, 3852)" filter="url(#Rectangle_411831)">
      <g id="Rectangle_411831-2" data-name="Rectangle 411831" transform="translate(9 6)" fill="#b8a9f1" stroke="#fff" stroke-width="2">
        <path d="M5,0H68a32,32,0,0,1,32,32V95a5,5,0,0,1-5,5H32A32,32,0,0,1,0,68V5A5,5,0,0,1,5,0Z" stroke="none"/>
        <path d="M5,1H68A31,31,0,0,1,99,32V95a4,4,0,0,1-4,4H32A31,31,0,0,1,1,68V5A4,4,0,0,1,5,1Z" fill="none"/>
      </g>
    </g>
    <g id="Group_1228664" data-name="Group 1228664" transform="translate(353.447 3878.575)">
      <path id="Path_1495921" data-name="Path 1495921" d="M49.9,32.9H5.147V53.827H58.292V32.9Z" transform="translate(0.558 3.569)" fill="#73665c"/>
      <rect id="Rectangle_425930" data-name="Rectangle 425930" width="22.377" height="9.847" transform="translate(21.034 42.067)" fill="#a28671"/>
      <path id="Path_1495922" data-name="Path 1495922" d="M53.7,16.452V29.094H34.116V16.452Z" transform="translate(3.701 1.785)" fill="#d7deed"/>
      <path id="Path_1495923" data-name="Path 1495923" d="M19.217,20.389l2.462,6.265L19.217,29.34l-2.462-2.686Z" transform="translate(1.817 2.212)" fill="#313a52"/>
      <g id="Group_1228663" data-name="Group 1228663" transform="translate(0 0)">
        <g id="Group_1228662" data-name="Group 1228662" clip-path="url(#clip-path)">
          <path id="Path_1495924" data-name="Path 1495924" d="M22.422,26.654,19.96,20.389a9.979,9.979,0,0,1,9.957,9.957,8.919,8.919,0,0,1-.783,3.8H10.675a10.484,10.484,0,0,1-.784-3.8,9.979,9.979,0,0,1,9.957-9.957L17.5,26.654l2.461,2.573Z" transform="translate(1.073 2.212)" fill="#4e679b"/>
          <path id="Path_1495925" data-name="Path 1495925" d="M19.469,11.4a5.035,5.035,0,1,1-5.035,5.035A5.014,5.014,0,0,1,19.469,11.4" transform="translate(1.566 1.237)" fill="#ffd8a8"/>
          <path id="Path_1495926" data-name="Path 1495926" d="M60.658,1.312V9.7H28.548V7.354L21.5,6.906l7.049-3.468V1.312Z" transform="translate(2.332 0.143)" fill="#86dcfd"/>
          <path id="Path_1495927" data-name="Path 1495927" d="M58.434,55.424H5.289A1.482,1.482,0,0,1,3.835,53.97V33.047a1.482,1.482,0,0,1,1.454-1.454,1.481,1.481,0,0,1,1.454,1.454v19.58H57.091V33.047a1.454,1.454,0,0,1,2.909,0V54.081a1.918,1.918,0,0,1-1.566,1.343" transform="translate(0.416 3.427)"/>
          <path id="Path_1495928" data-name="Path 1495928" d="M19.6,22.949a6.377,6.377,0,0,1,0-12.754,6.447,6.447,0,0,1,6.377,6.377A6.374,6.374,0,0,1,19.6,22.949m0-9.957a3.58,3.58,0,1,0,3.58,3.58,3.534,3.534,0,0,0-3.58-3.58" transform="translate(1.434 1.106)"/>
          <path id="Path_1495929" data-name="Path 1495929" d="M14.576,34.773a1.482,1.482,0,0,1-1.454-1.454v-3.8a1.454,1.454,0,1,1,2.909,0v3.8a1.481,1.481,0,0,1-1.454,1.454" transform="translate(1.423 3.044)"/>
          <path id="Path_1495930" data-name="Path 1495930" d="M23.66,34.773a1.482,1.482,0,0,1-1.454-1.454v-3.8a1.454,1.454,0,1,1,2.909,0v3.8a1.563,1.563,0,0,1-1.454,1.454" transform="translate(2.409 3.044)"/>
          <path id="Path_1495931" data-name="Path 1495931" d="M19.352,30.814a1.216,1.216,0,0,1-1.008-.448l-2.461-2.574a1.777,1.777,0,0,1-.336-1.453l2.461-6.266a1.455,1.455,0,0,1,2.686,0l2.461,6.266a1.183,1.183,0,0,1-.336,1.453l-2.461,2.574a1.215,1.215,0,0,1-1.006.448m-.9-4.252.9.9.895-.9-.895-2.238Z" transform="translate(1.682 2.08)"/>
          <path id="Path_1495932" data-name="Path 1495932" d="M29.367,35.736a1,1,0,0,1-.559-.113,1.51,1.51,0,0,1-.784-1.79A8.015,8.015,0,0,0,28.7,30.59a8.616,8.616,0,0,0-17.231,0,8.015,8.015,0,0,0,.672,3.243,1.382,1.382,0,0,1-2.573,1.008,11.022,11.022,0,0,1-.784-4.251,11.412,11.412,0,1,1,22.823,0,13.61,13.61,0,0,1-.783,4.251,1.748,1.748,0,0,1-1.454.9" transform="translate(0.952 2.08)"/>
          <path id="Path_1495933" data-name="Path 1495933" d="M58.195,34.4H45.663a1.455,1.455,0,0,1,0-2.91H58.307a1.481,1.481,0,0,1,1.454,1.455A1.584,1.584,0,0,1,58.195,34.4" transform="translate(4.795 3.416)"/>
          <path id="Path_1495934" data-name="Path 1495934" d="M44.865,34.4H1.454a1.455,1.455,0,0,1,0-2.91H44.865a1.48,1.48,0,0,1,1.454,1.455A1.563,1.563,0,0,1,44.865,34.4" transform="translate(0 3.416)"/>
          <path id="Path_1495935" data-name="Path 1495935" d="M53.837,30.58H45.446a1.455,1.455,0,0,1,0-2.91h7.049V17.825H35.712V27.67H42.76a1.481,1.481,0,0,1,1.454,1.455,1.582,1.582,0,0,1-1.566,1.454h-8.39A1.481,1.481,0,0,1,32.8,29.126V16.594a1.483,1.483,0,0,1,1.455-1.455H53.837a1.482,1.482,0,0,1,1.454,1.455V29.237a1.464,1.464,0,0,1-1.454,1.343" transform="translate(3.558 1.642)"/>
          <path id="Path_1495936" data-name="Path 1495936" d="M46.2,34.937H40.61a1.4,1.4,0,0,1-1.342-1.79l1.454-5.594a1.24,1.24,0,0,1,1.342-1.006H44.75a1.343,1.343,0,0,1,1.342,1.006l1.342,5.482c0,.112.112.224.112.448A1.465,1.465,0,0,1,46.2,34.937m-3.8-2.8h2.014l-.784-2.8h-.559Z" transform="translate(4.255 2.88)"/>
          <path id="Path_1495937" data-name="Path 1495937" d="M60.791,11.3H28.681a1.481,1.481,0,0,1-1.454-1.454V8.839L21.521,8.5a1.219,1.219,0,0,1-1.23-1.12,1.5,1.5,0,0,1,.783-1.566l6.266-3.131V1.455A1.481,1.481,0,0,1,28.793,0H61.015A1.481,1.481,0,0,1,62.47,1.455v8.39A1.893,1.893,0,0,1,60.791,11.3M30.024,8.5H59.449V2.909H30.024V3.58a1.376,1.376,0,0,1-.784,1.23l-2.349,1.23,1.9.113A1.36,1.36,0,0,1,30.136,7.5Z" transform="translate(2.199 0)"/>
          <path id="Path_1495938" data-name="Path 1495938" d="M41.495,49.293H19.118a1.48,1.48,0,0,1-1.454-1.454V37.993a1.481,1.481,0,0,1,1.454-1.455H41.495a1.482,1.482,0,0,1,1.454,1.455v9.845a1.481,1.481,0,0,1-1.454,1.454M20.573,46.5h19.58V39.448H20.573Z" transform="translate(1.916 3.963)"/>
        </g>
      </g>
    </g>
  </g>
</svg>
