<svg xmlns="http://www.w3.org/2000/svg" xmlns:xlink="http://www.w3.org/1999/xlink" width="118" height="118" viewBox="0 0 118 118">
  <defs>
    <filter id="Rectangle_411831" x="0" y="0" width="118" height="118" filterUnits="userSpaceOnUse">
      <feOffset dy="3" input="SourceAlpha"/>
      <feGaussianBlur stdDeviation="3" result="blur"/>
      <feFlood flood-opacity="0.161"/>
      <feComposite operator="in" in2="blur"/>
      <feComposite in="SourceGraphic"/>
    </filter>
    <clipPath id="clip-path">
      <rect id="Rectangle_425929" data-name="Rectangle 425929" width="62.873" height="63.745" fill="none"/>
    </clipPath>
  </defs>
  <g id="Group_1228646" data-name="Group 1228646" transform="translate(-326.781 -3857)">
    <g id="Group_1203422" data-name="Group 1203422" transform="translate(-465 1901)">
      <g id="Group_1203409" data-name="Group 1203409" transform="translate(465 -1896)">
        <g transform="matrix(1, 0, 0, 1, 326.78, 3852)" filter="url(#Rectangle_411831)">
          <g id="Rectangle_411831-2" data-name="Rectangle 411831" transform="translate(9 6)" fill="#37f1e9" stroke="#fff" stroke-width="2">
            <path d="M5,0H68a32,32,0,0,1,32,32V95a5,5,0,0,1-5,5H32A32,32,0,0,1,0,68V5A5,5,0,0,1,5,0Z" stroke="none"/>
            <path d="M5,1H68A31,31,0,0,1,99,32V95a4,4,0,0,1-4,4H32A31,31,0,0,1,1,68V5A4,4,0,0,1,5,1Z" fill="none"/>
          </g>
        </g>
      </g>
    </g>
    <g id="Group_1228655" data-name="Group 1228655" transform="translate(354.345 3881.128)">
      <path id="Path_1495871" data-name="Path 1495871" d="M18.267,8.782V27.85l-5.447-9.48Z" transform="translate(1.02 0.699)" fill="#d25400"/>
      <path id="Path_1495872" data-name="Path 1495872" d="M7.772,8.782,13.22,18.37,7.772,27.85Z" transform="translate(0.618 0.699)" fill="#d25400"/>
      <path id="Path_1495873" data-name="Path 1495873" d="M13.22,17.663l5.447,9.48H7.772Z" transform="translate(0.618 1.405)" fill="#ea7e23"/>
      <path id="Path_1495874" data-name="Path 1495874" d="M18.668,8.782,13.221,18.37,7.772,8.782Z" transform="translate(0.618 0.699)" fill="#ea7e23"/>
      <path id="Path_1495875" data-name="Path 1495875" d="M23.005,32.289H3.936V5.047H23.005ZM18.973,9.079H8.077V28.148h10.9Z" transform="translate(0.313 0.402)" fill="#ecf0f1"/>
      <rect id="Rectangle_425928" data-name="Rectangle 425928" width="35.414" height="27.242" transform="translate(23.319 5.448)" fill="#d7deed"/>
      <path id="Path_1495876" data-name="Path 1495876" d="M47.818,45.118l2.506,6.211-2.506,2.615-2.4-2.615Z" transform="translate(3.614 3.59)" fill="#313a52"/>
      <path id="Path_1495877" data-name="Path 1495877" d="M10.884,45.118l2.4,6.211-2.4,2.615L8.377,51.329Z" transform="translate(0.667 3.59)" fill="#313a52"/>
      <path id="Path_1495878" data-name="Path 1495878" d="M29.355,45.118l2.507,6.211-2.507,2.615-2.506-2.615Z" transform="translate(2.136 3.59)" fill="#3c3b3d"/>
      <g id="Group_1228654" data-name="Group 1228654" transform="translate(0 0)">
        <g id="Group_1228653" data-name="Group 1228653" clip-path="url(#clip-path)">
          <path id="Path_1495879" data-name="Path 1495879" d="M29.909,45.118A10,10,0,0,1,39.934,55.143a8.361,8.361,0,0,1-.762,3.705H20.647a10.709,10.709,0,0,1-.763-3.705A10.14,10.14,0,0,1,29.909,45.118L27.4,51.329l2.506,2.615,2.507-2.615Z" transform="translate(1.582 3.59)" fill="#ef727a"/>
          <path id="Path_1495880" data-name="Path 1495880" d="M48.38,45.118l-2.506,6.211,2.506,2.615,2.506-2.615L48.38,45.118A10,10,0,0,1,58.4,55.143a8.376,8.376,0,0,1-.762,3.705H39.117a10.733,10.733,0,0,1-.762-3.705A10.139,10.139,0,0,1,48.38,45.118" transform="translate(3.052 3.59)" fill="#65b2fe"/>
          <path id="Path_1495881" data-name="Path 1495881" d="M11.438,45.118A10,10,0,0,1,21.463,55.143a8.361,8.361,0,0,1-.763,3.705H2.175a10.732,10.732,0,0,1-.762-3.705A10,10,0,0,1,11.438,45.118L8.931,51.329l2.507,2.615,2.506-2.615Z" transform="translate(0.112 3.59)" fill="#65b2fe"/>
          <path id="Path_1495882" data-name="Path 1495882" d="M48.01,35.832A5.012,5.012,0,1,1,43,40.844a5,5,0,0,1,5.012-5.012" transform="translate(3.421 2.851)" fill="#ffd8a8"/>
          <path id="Path_1495883" data-name="Path 1495883" d="M29.539,35.832a5.012,5.012,0,1,1,0,10.025,4.932,4.932,0,0,1-5.012-5.012,5,5,0,0,1,5.012-5.012" transform="translate(1.951 2.851)" fill="#ffd8a8"/>
          <path id="Path_1495884" data-name="Path 1495884" d="M11.068,35.832a5.012,5.012,0,1,1-5.012,5.012,4.931,4.931,0,0,1,5.012-5.012" transform="translate(0.482 2.851)" fill="#ffd8a8"/>
          <path id="Path_1495885" data-name="Path 1495885" d="M51.984,0A1.442,1.442,0,0,1,53.4,1.416a1.416,1.416,0,0,1-2.833,0A1.443,1.443,0,0,1,51.984,0" transform="translate(4.023 0)"/>
          <path id="Path_1495886" data-name="Path 1495886" d="M48.25,0a1.442,1.442,0,0,1,1.415,1.416,1.416,1.416,0,1,1-2.833,0A1.443,1.443,0,0,1,48.25,0" transform="translate(3.726 0)"/>
          <path id="Path_1495887" data-name="Path 1495887" d="M44.414,0a1.442,1.442,0,0,1,1.416,1.416,1.416,1.416,0,0,1-2.833,0A1.443,1.443,0,0,1,44.414,0" transform="translate(3.421 0)"/>
          <path id="Path_1495888" data-name="Path 1495888" d="M40.68,0A1.442,1.442,0,0,1,42.1,1.416,1.441,1.441,0,0,1,40.68,2.833a1.542,1.542,0,0,1-1.416-1.525A1.352,1.352,0,0,1,40.68,0" transform="translate(3.124 0)"/>
          <path id="Path_1495889" data-name="Path 1495889" d="M36.844,0a1.443,1.443,0,0,1,1.416,1.416,1.416,1.416,0,1,1-2.833,0A1.442,1.442,0,0,1,36.844,0" transform="translate(2.819 0)"/>
          <path id="Path_1495890" data-name="Path 1495890" d="M33.109,0a1.442,1.442,0,0,1,1.416,1.416,1.416,1.416,0,0,1-2.833,0A1.443,1.443,0,0,1,33.109,0" transform="translate(2.522 0)"/>
          <path id="Path_1495891" data-name="Path 1495891" d="M29.274,0a1.442,1.442,0,0,1,1.416,1.416,1.416,1.416,0,0,1-2.833,0A1.442,1.442,0,0,1,29.274,0" transform="translate(2.217 0)"/>
          <path id="Path_1495892" data-name="Path 1495892" d="M25.539,0a1.443,1.443,0,0,1,1.416,1.416,1.442,1.442,0,0,1-1.416,1.416,1.542,1.542,0,0,1-1.416-1.525A1.352,1.352,0,0,1,25.539,0" transform="translate(1.919 0)"/>
          <path id="Path_1495893" data-name="Path 1495893" d="M21.7,0a1.443,1.443,0,0,1,1.416,1.416,1.416,1.416,0,0,1-2.833,0A1.442,1.442,0,0,1,21.7,0" transform="translate(1.614 0)"/>
          <path id="Path_1495894" data-name="Path 1495894" d="M17.969,0a1.443,1.443,0,0,1,1.416,1.416,1.416,1.416,0,0,1-2.833,0A1.442,1.442,0,0,1,17.969,0" transform="translate(1.317 0)"/>
          <path id="Path_1495895" data-name="Path 1495895" d="M14.134,0a1.442,1.442,0,0,1,1.416,1.416,1.416,1.416,0,1,1-2.833,0A1.443,1.443,0,0,1,14.134,0" transform="translate(1.012 0)"/>
          <path id="Path_1495896" data-name="Path 1495896" d="M10.4,0a1.443,1.443,0,0,1,1.416,1.416A1.442,1.442,0,0,1,10.4,2.833,1.541,1.541,0,0,1,8.983,1.307,1.351,1.351,0,0,1,10.4,0" transform="translate(0.715 0)"/>
          <path id="Path_1495897" data-name="Path 1495897" d="M6.564,0A1.442,1.442,0,0,1,7.981,1.416a1.416,1.416,0,1,1-2.833,0A1.443,1.443,0,0,1,6.564,0" transform="translate(0.41 0)"/>
          <path id="Path_1495898" data-name="Path 1495898" d="M11.165,47.261a6.32,6.32,0,1,1,6.32-6.32,6.325,6.325,0,0,1-6.32,6.32m0-9.916a3.6,3.6,0,1,0,3.595,3.6,3.628,3.628,0,0,0-3.595-3.6" transform="translate(0.385 2.755)"/>
          <path id="Path_1495899" data-name="Path 1495899" d="M10.983,55.355A1.185,1.185,0,0,1,10,54.92L7.5,52.3a1.733,1.733,0,0,1-.327-1.416l2.506-6.211a1.315,1.315,0,0,1,1.308-.872,1.416,1.416,0,0,1,1.307.872L14.8,50.888a1.154,1.154,0,0,1-.327,1.416L11.963,54.92a1.334,1.334,0,0,1-.98.435M10,51.106l.872.981.871-.981-.871-2.289Z" transform="translate(0.567 3.486)"/>
          <path id="Path_1495900" data-name="Path 1495900" d="M20.7,60.259H2.18a1.413,1.413,0,0,1-1.307-.871,11.24,11.24,0,0,1,10.46-15.582A11.243,11.243,0,0,1,21.793,59.387c0,.545-.436.871-1.089.871M3.269,57.535H19.832A8.649,8.649,0,0,0,11.55,46.53,8.649,8.649,0,0,0,3.269,57.535" transform="translate(0 3.486)"/>
          <path id="Path_1495901" data-name="Path 1495901" d="M29.636,47.261a6.32,6.32,0,1,1,6.321-6.32,6.256,6.256,0,0,1-6.321,6.32m0-9.916a3.6,3.6,0,1,0,3.6,3.6,3.492,3.492,0,0,0-3.6-3.6" transform="translate(1.855 2.755)"/>
          <path id="Path_1495902" data-name="Path 1495902" d="M29.454,55.355h0a1.186,1.186,0,0,1-.981-.435L25.967,52.3a1.733,1.733,0,0,1-.327-1.416l2.507-6.211a1.416,1.416,0,0,1,2.615,0l2.506,6.211a1.155,1.155,0,0,1-.326,1.416L30.434,54.92a1.064,1.064,0,0,1-.98.435m-.872-4.249.872.981.871-.981-.871-2.289Z" transform="translate(2.037 3.486)"/>
          <path id="Path_1495903" data-name="Path 1495903" d="M39.276,60.259H20.752a1.416,1.416,0,0,1-1.308-.871,11.333,11.333,0,1,1,20.922,0,.989.989,0,0,1-1.089.871M21.732,57.535H38.295a8.609,8.609,0,1,0-16.563,0" transform="translate(1.478 3.486)"/>
          <path id="Path_1495904" data-name="Path 1495904" d="M48.107,47.261a6.32,6.32,0,1,1,6.32-6.32,6.189,6.189,0,0,1-6.32,6.32m0-9.916a3.6,3.6,0,1,0,3.6,3.6,3.558,3.558,0,0,0-3.6-3.6" transform="translate(3.325 2.755)"/>
          <path id="Path_1495905" data-name="Path 1495905" d="M47.925,55.355h0a1.186,1.186,0,0,1-.981-.435L44.438,52.3a1.733,1.733,0,0,1-.327-1.416l2.506-6.211a1.417,1.417,0,0,1,2.616,0l2.507,6.211a1.156,1.156,0,0,1-.327,1.416L48.905,54.92a1.064,1.064,0,0,1-.98.435m-.872-4.249.872.981.871-.981-.871-2.289Z" transform="translate(3.506 3.486)"/>
          <path id="Path_1495906" data-name="Path 1495906" d="M57.747,60.259H39.222a1.415,1.415,0,0,1-1.307-.871,11.333,11.333,0,1,1,20.922,0,.989.989,0,0,1-1.089.871M40.2,57.535H56.766a8.609,8.609,0,1,0-16.563,0" transform="translate(2.947 3.486)"/>
          <path id="Path_1495907" data-name="Path 1495907" d="M58.524,33.709H4.041a1.442,1.442,0,0,1-1.417-1.416V5.05A1.442,1.442,0,0,1,4.041,3.634,1.442,1.442,0,0,1,5.458,5.05V30.985H57.215V5.159a1.417,1.417,0,0,1,2.834,0V32.4a1.632,1.632,0,0,1-1.525,1.307" transform="translate(0.209 0.289)"/>
          <path id="Path_1495908" data-name="Path 1495908" d="M61.448,6.467H1.517a1.416,1.416,0,1,1,0-2.833H61.448A1.442,1.442,0,0,1,62.865,5.05a1.443,1.443,0,0,1-1.416,1.416" transform="translate(0.008 0.289)"/>
          <path id="Path_1495909" data-name="Path 1495909" d="M21.7,33.709a1.441,1.441,0,0,1-1.416-1.416V5.05a1.416,1.416,0,0,1,2.833,0V32.292A1.442,1.442,0,0,1,21.7,33.709" transform="translate(1.614 0.289)"/>
          <path id="Path_1495910" data-name="Path 1495910" d="M18.772,29.371H7.876A1.441,1.441,0,0,1,6.46,27.955V8.886A1.442,1.442,0,0,1,7.876,7.469h10.9A1.443,1.443,0,0,1,20.19,8.886V27.955a1.616,1.616,0,0,1-1.417,1.416M9.184,26.647h8.172V10.3H9.184Z" transform="translate(0.514 0.594)"/>
          <path id="Path_1495911" data-name="Path 1495911" d="M18.767,29.358a1.368,1.368,0,0,1-1.2-.653L6.672,9.635a1.365,1.365,0,0,1,2.4-1.306L19.966,27.4a1.4,1.4,0,0,1-.544,1.853c-.218,0-.436.109-.654.109" transform="translate(0.519 0.608)"/>
          <path id="Path_1495912" data-name="Path 1495912" d="M7.77,29.366a1.541,1.541,0,0,1-.653-.218A1.4,1.4,0,0,1,6.572,27.3l10.9-19.069a1.366,1.366,0,0,1,2.4,1.308L8.969,28.6a1.338,1.338,0,0,1-1.2.763" transform="translate(0.511 0.599)"/>
          <path id="Path_1495913" data-name="Path 1495913" d="M36.34,11.514H26.751a1.416,1.416,0,1,1,0-2.833H36.34A1.441,1.441,0,0,1,37.756,10.1a1.616,1.616,0,0,1-1.416,1.416" transform="translate(2.016 0.691)"/>
          <path id="Path_1495914" data-name="Path 1495914" d="M36.34,15.35H26.751a1.416,1.416,0,1,1,0-2.833H36.34a1.441,1.441,0,0,1,1.416,1.416A1.616,1.616,0,0,1,36.34,15.35" transform="translate(2.016 0.996)"/>
          <path id="Path_1495915" data-name="Path 1495915" d="M36.34,22.919H26.751a1.416,1.416,0,1,1,0-2.833H36.34A1.441,1.441,0,0,1,37.756,21.5a1.615,1.615,0,0,1-1.416,1.416" transform="translate(2.016 1.598)"/>
          <path id="Path_1495916" data-name="Path 1495916" d="M36.34,26.654H26.751a1.416,1.416,0,1,1,0-2.833H36.34a1.441,1.441,0,0,1,1.416,1.416,1.615,1.615,0,0,1-1.416,1.416" transform="translate(2.016 1.896)"/>
          <path id="Path_1495917" data-name="Path 1495917" d="M50.168,22.919H40.579a1.416,1.416,0,1,1,0-2.833h9.589a1.416,1.416,0,1,1,0,2.833" transform="translate(3.116 1.598)"/>
          <path id="Path_1495918" data-name="Path 1495918" d="M50.168,26.654H40.579a1.416,1.416,0,1,1,0-2.833h9.589a1.416,1.416,0,0,1,0,2.833" transform="translate(3.116 1.896)"/>
          <path id="Path_1495919" data-name="Path 1495919" d="M50.168,11.514H40.579a1.416,1.416,0,1,1,0-2.833h9.589a1.416,1.416,0,1,1,0,2.833" transform="translate(3.116 0.691)"/>
          <path id="Path_1495920" data-name="Path 1495920" d="M50.168,15.35H40.579a1.416,1.416,0,1,1,0-2.833h9.589a1.416,1.416,0,1,1,0,2.833" transform="translate(3.116 0.996)"/>
        </g>
      </g>
    </g>
  </g>
</svg>
