<svg xmlns="http://www.w3.org/2000/svg" xmlns:xlink="http://www.w3.org/1999/xlink" width="118" height="118" viewBox="0 0 118 118">
  <defs>
    <filter id="Rectangle_411831" x="0" y="0" width="118" height="118" filterUnits="userSpaceOnUse">
      <feOffset dy="3" input="SourceAlpha"/>
      <feGaussianBlur stdDeviation="3" result="blur"/>
      <feFlood flood-opacity="0.161"/>
      <feComposite operator="in" in2="blur"/>
      <feComposite in="SourceGraphic"/>
    </filter>
    <clipPath id="clip-path">
      <rect id="Rectangle_425831" data-name="Rectangle 425831" width="69.945" height="63.745" fill="none"/>
    </clipPath>
  </defs>
  <g id="Group_1228573" data-name="Group 1228573" transform="translate(-326.781 -3852)">
    <g transform="matrix(1, 0, 0, 1, 326.78, 3852)" filter="url(#Rectangle_411831)">
      <g id="Rectangle_411831-2" data-name="Rectangle 411831" transform="translate(9 6)" fill="#b8a9f1" stroke="#fff" stroke-width="2">
        <path d="M5,0H68a32,32,0,0,1,32,32V95a5,5,0,0,1-5,5H32A32,32,0,0,1,0,68V5A5,5,0,0,1,5,0Z" stroke="none"/>
        <path d="M5,1H68A31,31,0,0,1,99,32V95a4,4,0,0,1-4,4H32A31,31,0,0,1,1,68V5A4,4,0,0,1,5,1Z" fill="none"/>
      </g>
    </g>
    <g id="Group_1228586" data-name="Group 1228586" transform="translate(350.809 3876.127)">
      <g id="Group_1228580" data-name="Group 1228580" transform="translate(0 0)" clip-path="url(#clip-path)">
        <path id="Path_1495276" data-name="Path 1495276" d="M12.7,46.022c-6.2,0-11.285-5.457-11.285-11.656a11.432,11.432,0,0,1,8.8-11.038v-.248A11.326,11.326,0,0,1,21.5,11.794a13.162,13.162,0,0,1,3.845.618A14.437,14.437,0,0,1,39.238,2.121,14.213,14.213,0,0,1,53.747,16.257,14.826,14.826,0,0,1,68.258,31.016c0,7.937-6.449,15.006-14.511,15.006H12.7Z" transform="translate(0.323 0.485)" fill="#86dcfd"/>
        <path id="Path_1495277" data-name="Path 1495277" d="M38.832,39.683V51.091a4.129,4.129,0,0,1-4.091,4.093H18.122a4.129,4.129,0,0,1-4.093-4.093V34.474a4.128,4.128,0,0,1,4.093-4.092H34.741a4.128,4.128,0,0,1,4.091,4.092Z" transform="translate(3.208 6.948)" fill="#5165a2"/>
        <path id="Path_1495278" data-name="Path 1495278" d="M8.349,1.413a3.07,3.07,0,0,1,3.1,3.1,3.1,3.1,0,1,1-6.2,0,3.07,3.07,0,0,1,3.1-3.1" transform="translate(1.2 0.323)" fill="#86dcfd"/>
        <path id="Path_1495279" data-name="Path 1495279" d="M52.757,1.313a4.713,4.713,0,1,1-4.713,4.712,4.712,4.712,0,0,1,4.713-4.712" transform="translate(10.986 0.3)" fill="#86dcfd"/>
        <path id="Path_1495280" data-name="Path 1495280" d="M35.11,20.725a1.406,1.406,0,0,1-.992-.372,1.688,1.688,0,0,1-.248-2.231A15.729,15.729,0,0,1,45.9,12.415a1.612,1.612,0,1,1,0,3.224,12.283,12.283,0,0,0-9.672,4.59,1.366,1.366,0,0,1-1.117.5" transform="translate(7.675 2.839)"/>
        <path id="Path_1495281" data-name="Path 1495281" d="M17.516,23.795a1.412,1.412,0,0,1-.992-.372A9.775,9.775,0,0,0,9.207,21.19a1.562,1.562,0,0,1-.371-3.1,12.525,12.525,0,0,1,9.673,2.853,1.564,1.564,0,0,1,.124,2.233,1.087,1.087,0,0,1-1.117.62" transform="translate(1.705 4.11)"/>
        <path id="Path_1495282" data-name="Path 1495282" d="M38.756,42.738a1.612,1.612,0,0,1-1.488-.993,1.508,1.508,0,0,1,.869-1.983C49.545,35.049,47.314,26.368,47.19,26a1.534,1.534,0,1,1,2.976-.743,13.89,13.89,0,0,1-.123,6.7c-.869,3.348-3.473,7.813-10.666,10.789-.248-.124-.372,0-.62,0" transform="translate(8.493 5.505)"/>
        <path id="Path_1495283" data-name="Path 1495283" d="M53.947,48.012H42.042a1.723,1.723,0,0,1-1.612-1.488,1.624,1.624,0,0,1,1.488-1.612h11.9c6.946,0,12.9-6.2,12.9-13.394s-5.952-13.271-12.9-13.271a1.64,1.64,0,0,1-1.611-1.611,12.576,12.576,0,0,0-12.9-12.525,12.909,12.909,0,0,0-12.4,9.176,1.93,1.93,0,0,1-.745.993,1.461,1.461,0,0,1-1.24.123,10.045,10.045,0,0,0-3.348-.618,9.684,9.684,0,0,0-9.673,9.672V23.7a1.474,1.474,0,0,1-1.241,1.488A9.67,9.67,0,0,0,3.1,34.619c0,5.455,4.464,10.169,9.672,10.169.124,0,2.977,0,4.341.124a1.551,1.551,0,0,1-.124,3.1c-1.488,0-4.093-.124-4.217-.124C5.829,47.888,0,41.811,0,34.619a12.546,12.546,0,0,1,2.853-8.063A13.918,13.918,0,0,1,8.8,22.465,12.943,12.943,0,0,1,21.579,10.559a11.3,11.3,0,0,1,2.852.371,16.167,16.167,0,0,1,5.208-6.7A15.924,15.924,0,0,1,39.314,1.01,16.15,16.15,0,0,1,50.6,5.475a14.558,14.558,0,0,1,4.589,9.673,15.142,15.142,0,0,1,9.8,4.836A16.579,16.579,0,0,1,69.7,31.394c.248,8.929-7.069,16.618-15.749,16.618" transform="translate(0 0.231)"/>
        <path id="Path_1495284" data-name="Path 1495284" d="M35.041,57.1H18.422a5.689,5.689,0,0,1-5.7-5.7V34.773a5.69,5.69,0,0,1,5.7-5.7H35.041a5.691,5.691,0,0,1,5.7,5.7V51.392a5.772,5.772,0,0,1-5.7,5.7m-16.619-24.8a2.621,2.621,0,0,0-2.6,2.6V51.516a2.62,2.62,0,0,0,2.6,2.6H35.041a2.62,2.62,0,0,0,2.6-2.6V34.773a2.619,2.619,0,0,0-2.6-2.6H18.422Z" transform="translate(2.908 6.648)"/>
        <path id="Path_1495285" data-name="Path 1495285" d="M24.423,51.23a1.641,1.641,0,0,1-1.612-1.612V35.729a1.612,1.612,0,1,1,3.224,0V49.742a1.623,1.623,0,0,1-1.612,1.488" transform="translate(5.216 7.802)"/>
        <path id="Path_1495286" data-name="Path 1495286" d="M30.006,41.923a1.516,1.516,0,0,1-1.116-.5l-3.6-3.472-3.6,3.6a1.578,1.578,0,0,1-2.232-2.231l4.712-4.713a1.574,1.574,0,0,1,2.232,0l4.713,4.713a1.572,1.572,0,0,1,0,2.231,2,2,0,0,1-1.117.372" transform="translate(4.345 7.808)"/>
        <path id="Path_1495287" data-name="Path 1495287" d="M8.649,9.425a4.713,4.713,0,1,1,4.712-4.712A4.792,4.792,0,0,1,8.649,9.425m0-6.2A1.641,1.641,0,0,0,7.037,4.837a1.612,1.612,0,1,0,3.224,0A1.84,1.84,0,0,0,8.649,3.225" transform="translate(0.9 0)"/>
        <path id="Path_1495288" data-name="Path 1495288" d="M53.034,12.5a6.14,6.14,0,0,1-6.2-6.2,6.2,6.2,0,0,1,12.4,0,6.14,6.14,0,0,1-6.2,6.2m0-9.3a3.1,3.1,0,1,0,3.1,3.1,3.07,3.07,0,0,0-3.1-3.1" transform="translate(10.709 0.023)"/>
      </g>
    </g>
  </g>
</svg>
