<svg xmlns="http://www.w3.org/2000/svg" xmlns:xlink="http://www.w3.org/1999/xlink" width="118" height="118" viewBox="0 0 118 118">
  <defs>
    <filter id="Rectangle_411831" x="0" y="0" width="118" height="118" filterUnits="userSpaceOnUse">
      <feOffset dy="3" input="SourceAlpha"/>
      <feGaussianBlur stdDeviation="3" result="blur"/>
      <feFlood flood-opacity="0.161"/>
      <feComposite operator="in" in2="blur"/>
      <feComposite in="SourceGraphic"/>
    </filter>
    <clipPath id="clip-path">
      <rect id="Rectangle_425897" data-name="Rectangle 425897" width="59.384" height="57.5" fill="none"/>
    </clipPath>
  </defs>
  <g id="Group_1228617" data-name="Group 1228617" transform="translate(-326.781 -3852)">
    <g transform="matrix(1, 0, 0, 1, 326.78, 3852)" filter="url(#Rectangle_411831)">
      <g id="Rectangle_411831-2" data-name="Rectangle 411831" transform="translate(9 6)" fill="#b8a9f1" stroke="#fff" stroke-width="2">
        <path d="M5,0H68a32,32,0,0,1,32,32V95a5,5,0,0,1-5,5H32A32,32,0,0,1,0,68V5A5,5,0,0,1,5,0Z" stroke="none"/>
        <path d="M5,1H68A31,31,0,0,1,99,32V95a4,4,0,0,1-4,4H32A31,31,0,0,1,1,68V5A4,4,0,0,1,5,1Z" fill="none"/>
      </g>
    </g>
    <g id="Group_1228622" data-name="Group 1228622" transform="translate(356.089 3879.25)">
      <g id="Group_1228621" data-name="Group 1228621" clip-path="url(#clip-path)">
        <path id="Path_1495624" data-name="Path 1495624" d="M45.548,24.2H13.836A1.8,1.8,0,0,0,12.018,26v5.1a1.8,1.8,0,0,0,1.818,1.8H45.548a1.8,1.8,0,0,0,1.818-1.8V26a1.8,1.8,0,0,0-1.818-1.8" fill="#57606f"/>
        <path id="Path_1495625" data-name="Path 1495625" d="M45.548.5H13.836a1.8,1.8,0,0,0-1.818,1.8V7.4a1.8,1.8,0,0,0,1.818,1.8H45.548a1.8,1.8,0,0,0,1.818-1.8V2.3A1.8,1.8,0,0,0,45.548.5" fill="#abbfcf"/>
        <path id="Path_1495626" data-name="Path 1495626" d="M45.548,12.4H13.836a1.8,1.8,0,0,0-1.818,1.8v5.1a1.8,1.8,0,0,0,1.818,1.8H45.548a1.8,1.8,0,0,0,1.818-1.8V14.2a1.8,1.8,0,0,0-1.818-1.8" fill="#8c9fb0"/>
        <path id="Path_1495627" data-name="Path 1495627" d="M58.778,34.5a2.7,2.7,0,0,1-.606,1.7l-6.363,7.1a10.428,10.428,0,0,1-3.433,2.5,10.084,10.084,0,0,1-4.242.9,2.917,2.917,0,0,0-2.929,2.9v7.1H33.631V48.9c0-5.3,5.252-9.7,9.8-9.7h.808a10.158,10.158,0,0,0,7.675-3.4l2.626-2.9a2.334,2.334,0,0,1,1.818-.8,2.374,2.374,0,0,1,2.424,2.4" fill="#ffd5ab"/>
        <path id="Path_1495628" data-name="Path 1495628" d="M25.956,48.9v7.8H18.381V49.6a2.916,2.916,0,0,0-2.928-2.9,10.081,10.081,0,0,1-4.242-.9,9.488,9.488,0,0,1-3.434-2.5L1.414,36.2a2.512,2.512,0,0,1-.605-1.7A2.486,2.486,0,0,1,3.333,32a2.541,2.541,0,0,1,1.818.8l2.626,2.9a10.16,10.16,0,0,0,7.676,3.4h.808a9.957,9.957,0,0,1,9.695,9.8" fill="#ffd5ab"/>
        <path id="Path_1495629" data-name="Path 1495629" d="M55.546,9.2a3.1,3.1,0,1,1-3.131,3.1,3.131,3.131,0,0,1,3.131-3.1" fill="#4380a0"/>
        <path id="Path_1495630" data-name="Path 1495630" d="M4.747,19.2a2.2,2.2,0,1,1-2.222,2.2,2.231,2.231,0,0,1,2.222-2.2" fill="#4380a0"/>
        <path id="Path_1495631" data-name="Path 1495631" d="M43.225,27.7a1.262,1.262,0,0,1,.4.9.971.971,0,0,1-.4.9,1.286,1.286,0,0,1-.909.4A1.33,1.33,0,0,1,41,28.6a1.081,1.081,0,0,1,.4-.9,1.233,1.233,0,0,1,1.818,0" fill="#fb2b3a"/>
        <path id="Path_1495632" data-name="Path 1495632" d="M43.225,15.8a1.262,1.262,0,0,1,.4.9.971.971,0,0,1-.4.9,1.286,1.286,0,0,1-.909.4A1.33,1.33,0,0,1,41,16.7a1.081,1.081,0,0,1,.4-.9,1.233,1.233,0,0,1,1.818,0" fill="#fb2b3a"/>
        <path id="Path_1495633" data-name="Path 1495633" d="M43.225,4a1.262,1.262,0,0,1,.4.9,1.081,1.081,0,0,1-.4.9,1.511,1.511,0,0,1-.909.4A1.33,1.33,0,0,1,41,4.9a1.081,1.081,0,0,1,.4-.9,1.288,1.288,0,0,1,.909-.4.988.988,0,0,1,.909.4" fill="#fb2b3a"/>
        <path id="Path_1495634" data-name="Path 1495634" d="M38.176,27.7a1.262,1.262,0,0,1,.4.9.971.971,0,0,1-.4.9,1.286,1.286,0,0,1-.909.4,1.33,1.33,0,0,1-1.313-1.3,1.081,1.081,0,0,1,.4-.9,1.233,1.233,0,0,1,1.818,0" fill="#07cc66"/>
        <path id="Path_1495635" data-name="Path 1495635" d="M38.176,15.8a1.262,1.262,0,0,1,.4.9.971.971,0,0,1-.4.9,1.286,1.286,0,0,1-.909.4,1.33,1.33,0,0,1-1.313-1.3,1.081,1.081,0,0,1,.4-.9,1.233,1.233,0,0,1,1.818,0" fill="#07cc66"/>
        <path id="Path_1495636" data-name="Path 1495636" d="M38.176,4a1.262,1.262,0,0,1,.4.9,1.081,1.081,0,0,1-.4.9,1.511,1.511,0,0,1-.909.4,1.33,1.33,0,0,1-1.313-1.3,1.081,1.081,0,0,1,.4-.9,1.286,1.286,0,0,1,.909-.4.988.988,0,0,1,.909.4" fill="#07cc66"/>
        <rect id="Rectangle_425894" data-name="Rectangle 425894" width="25.249" height="3.1" transform="translate(17.068 9.2)" fill="#232b3f"/>
        <rect id="Rectangle_425895" data-name="Rectangle 425895" width="25.249" height="3.1" transform="translate(17.068 21.1)" fill="#232b3f"/>
        <rect id="Rectangle_425896" data-name="Rectangle 425896" width="25.249" height="3.1" transform="translate(17.068 33)" fill="#232b3f"/>
        <path id="Path_1495637" data-name="Path 1495637" d="M41.1,57.4a.648.648,0,0,1-.606-.6V49.6a3.5,3.5,0,0,1,3.535-3.5,10.253,10.253,0,0,0,3.939-.8A10.855,10.855,0,0,0,51.2,42.9l6.363-7.1a1.836,1.836,0,0,0,.5-1.2,1.933,1.933,0,0,0-3.333-1.3l-2.626,2.9a11.07,11.07,0,0,1-8.18,3.6h-.707c-4.141,0-9.09,4-9.09,9v7.8a.606.606,0,0,1-1.211,0V48.8a9.822,9.822,0,0,1,3.433-7.3,10.618,10.618,0,0,1,6.969-3h.707A10.161,10.161,0,0,0,51.3,35.3l2.627-2.9a3.028,3.028,0,0,1,2.322-1.1,3.128,3.128,0,0,1,3.131,3.1,3.209,3.209,0,0,1-.808,2.1l-6.363,7.1a11.154,11.154,0,0,1-3.736,2.7,11.5,11.5,0,0,1-4.444,1,2.274,2.274,0,0,0-2.323,2.3v7.1a.671.671,0,0,1-.606.7"/>
        <path id="Path_1495638" data-name="Path 1495638" d="M25.956,57.4a.648.648,0,0,1-.606-.6V49a9.072,9.072,0,0,0-9.089-9h-.808a11.072,11.072,0,0,1-8.181-3.6L4.646,33.5a1.912,1.912,0,0,0-1.414-.6,1.906,1.906,0,0,0-1.919,1.9,1.652,1.652,0,0,0,.5,1.2l6.363,7.1a10.86,10.86,0,0,0,3.232,2.4,8.97,8.97,0,0,0,3.939.8,3.5,3.5,0,0,1,3.534,3.5v7.1a.606.606,0,0,1-1.212,0V49.6a2.274,2.274,0,0,0-2.322-2.3,11.383,11.383,0,0,1-4.444-.9,10.8,10.8,0,0,1-3.737-2.7L.809,36.6A3.21,3.21,0,0,1,0,34.5a3.063,3.063,0,0,1,3.131-3.1,3.031,3.031,0,0,1,2.323,1.1L8.08,35.4a9.822,9.822,0,0,0,7.272,3.2h.808a10.337,10.337,0,0,1,10.4,10.3v7.8a.671.671,0,0,1-.606.7"/>
        <path id="Path_1495639" data-name="Path 1495639" d="M46.154,57.4H13.331a.6.6,0,1,1,0-1.2H46.154a.6.6,0,1,1,0,1.2"/>
        <path id="Path_1495640" data-name="Path 1495640" d="M17.068,33.6H13.836a2.445,2.445,0,0,1-2.423-2.4V26.1a2.445,2.445,0,0,1,2.423-2.4h3.232a.6.6,0,1,1,0,1.2H13.836a1.16,1.16,0,0,0-1.211,1.2v5.1a1.16,1.16,0,0,0,1.211,1.2h3.232a.6.6,0,1,1,0,1.2"/>
        <path id="Path_1495641" data-name="Path 1495641" d="M45.548,33.6H42.316a.6.6,0,1,1,0-1.2h3.232a1.161,1.161,0,0,0,1.212-1.2V26.1a1.161,1.161,0,0,0-1.212-1.2H42.316a.6.6,0,1,1,0-1.2h3.232a2.446,2.446,0,0,1,2.424,2.4v5.1a2.446,2.446,0,0,1-2.424,2.4"/>
        <path id="Path_1495642" data-name="Path 1495642" d="M42.316,36.7H17.068a.648.648,0,0,1-.606-.6V33a.648.648,0,0,1,.606-.6H42.316a.648.648,0,0,1,.606.6v3.1a.648.648,0,0,1-.606.6M17.674,35.5H41.711V33.6H17.674Z"/>
        <path id="Path_1495643" data-name="Path 1495643" d="M17.068,21.7H13.836a2.445,2.445,0,0,1-2.423-2.4V14.2a2.445,2.445,0,0,1,2.423-2.4h3.232a.6.6,0,1,1,0,1.2H13.836a1.16,1.16,0,0,0-1.211,1.2v5.1a1.16,1.16,0,0,0,1.211,1.2h3.232a.6.6,0,1,1,0,1.2"/>
        <path id="Path_1495644" data-name="Path 1495644" d="M45.548,21.7H42.316a.6.6,0,1,1,0-1.2h3.232a1.161,1.161,0,0,0,1.212-1.2V14.2A1.161,1.161,0,0,0,45.548,13H42.316a.6.6,0,1,1,0-1.2h3.232a2.446,2.446,0,0,1,2.424,2.4v5.1a2.446,2.446,0,0,1-2.424,2.4"/>
        <path id="Path_1495645" data-name="Path 1495645" d="M42.316,24.9H17.068a.648.648,0,0,1-.606-.6V21.2a.648.648,0,0,1,.606-.6H42.316a.648.648,0,0,1,.606.6v3.1a.648.648,0,0,1-.606.6M17.674,23.6H41.711V21.7H17.674Z"/>
        <path id="Path_1495646" data-name="Path 1495646" d="M45.548,9.9H42.316a.648.648,0,0,1-.606-.6.648.648,0,0,1,.606-.6h3.232A1.161,1.161,0,0,0,46.76,7.5V2.4a1.161,1.161,0,0,0-1.212-1.2H13.836a1.161,1.161,0,0,0-1.212,1.2V7.5a1.161,1.161,0,0,0,1.212,1.2h3.232a.6.6,0,1,1,0,1.2H13.836a2.446,2.446,0,0,1-2.424-2.4V2.4A2.446,2.446,0,0,1,13.836,0H45.548a2.446,2.446,0,0,1,2.424,2.4V7.5a2.446,2.446,0,0,1-2.424,2.4"/>
        <path id="Path_1495647" data-name="Path 1495647" d="M42.316,13H17.068a.648.648,0,0,1-.606-.6V9.3a.648.648,0,0,1,.606-.6H42.316a.648.648,0,0,1,.606.6v3.1a.648.648,0,0,1-.606.6M17.674,11.7H41.711V9.8H17.674Z"/>
        <path id="Path_1495648" data-name="Path 1495648" d="M42.316,30.5A1.907,1.907,0,0,1,40.9,27.3a1.682,1.682,0,0,1,1.313-.5,1.931,1.931,0,0,1,1.313.5,1.647,1.647,0,0,1,.505,1.3,1.891,1.891,0,0,1-.505,1.3,1.326,1.326,0,0,1-1.212.6m0-2.5a.526.526,0,0,0-.4.2.755.755,0,0,0-.2.4.648.648,0,0,0,.606.6.526.526,0,0,0,.4-.2.5.5,0,0,0,0-.8c-.1-.2-.2-.2-.4-.2"/>
        <path id="Path_1495649" data-name="Path 1495649" d="M37.267,30.5a1.907,1.907,0,0,1-1.414-3.2,1.682,1.682,0,0,1,1.313-.5,1.931,1.931,0,0,1,1.313.5,1.647,1.647,0,0,1,.505,1.3,1.891,1.891,0,0,1-.505,1.3,1.326,1.326,0,0,1-1.212.6m0-2.5a.526.526,0,0,0-.4.2.755.755,0,0,0-.2.4.648.648,0,0,0,.606.6.526.526,0,0,0,.4-.2.5.5,0,0,0,0-.8c-.1-.2-.2-.2-.4-.2"/>
        <path id="Path_1495650" data-name="Path 1495650" d="M32.217,29.2H15.856a.6.6,0,1,1,0-1.2H32.318a.648.648,0,0,1,.606.6c0,.3-.4.6-.707.6"/>
        <path id="Path_1495651" data-name="Path 1495651" d="M42.316,18.6A1.907,1.907,0,0,1,40.9,15.4a1.682,1.682,0,0,1,1.313-.5,1.931,1.931,0,0,1,1.313.5,1.647,1.647,0,0,1,.505,1.3,1.891,1.891,0,0,1-.505,1.3,1.326,1.326,0,0,1-1.212.6m0-2.5a.526.526,0,0,0-.4.2.755.755,0,0,0-.2.4.648.648,0,0,0,.606.6.526.526,0,0,0,.4-.2.755.755,0,0,0,.2-.4.518.518,0,0,0-.2-.4.526.526,0,0,0-.4-.2"/>
        <path id="Path_1495652" data-name="Path 1495652" d="M37.267,18.6a1.907,1.907,0,0,1-1.414-3.2,1.682,1.682,0,0,1,1.313-.5,1.931,1.931,0,0,1,1.313.5,1.647,1.647,0,0,1,.505,1.3,1.891,1.891,0,0,1-.505,1.3,1.326,1.326,0,0,1-1.212.6m0-2.5a.526.526,0,0,0-.4.2.755.755,0,0,0-.2.4.648.648,0,0,0,.606.6.526.526,0,0,0,.4-.2.755.755,0,0,0,.2-.4.518.518,0,0,0-.2-.4.526.526,0,0,0-.4-.2"/>
        <path id="Path_1495653" data-name="Path 1495653" d="M32.217,17.4H15.856a.6.6,0,1,1,0-1.2H32.318a.648.648,0,0,1,.606.6.864.864,0,0,1-.707.6"/>
        <path id="Path_1495654" data-name="Path 1495654" d="M42.316,6.7A1.907,1.907,0,0,1,40.9,3.5a1.974,1.974,0,0,1,2.626,0,1.647,1.647,0,0,1,.505,1.3,1.891,1.891,0,0,1-.505,1.3,1.326,1.326,0,0,1-1.212.6m0-2.5a.526.526,0,0,0-.4.2.755.755,0,0,0-.2.4.648.648,0,0,0,.606.6.526.526,0,0,0,.4-.2.755.755,0,0,0,.2-.4.755.755,0,0,0-.2-.4.526.526,0,0,0-.4-.2"/>
        <path id="Path_1495655" data-name="Path 1495655" d="M37.267,6.7a1.907,1.907,0,0,1-1.414-3.2,1.974,1.974,0,0,1,2.626,0,1.647,1.647,0,0,1,.505,1.3,1.891,1.891,0,0,1-.505,1.3,1.326,1.326,0,0,1-1.212.6m0-2.5a.526.526,0,0,0-.4.2.755.755,0,0,0-.2.4.648.648,0,0,0,.606.6.526.526,0,0,0,.4-.2.755.755,0,0,0,.2-.4.755.755,0,0,0-.2-.4.526.526,0,0,0-.4-.2"/>
        <path id="Path_1495656" data-name="Path 1495656" d="M32.217,5.5H15.856a.648.648,0,0,1-.606-.6.648.648,0,0,1,.606-.6H32.318a.648.648,0,0,1,.606.6c0,.3-.4.6-.707.6"/>
        <path id="Path_1495657" data-name="Path 1495657" d="M4.747,24.2a2.8,2.8,0,1,1,2.828-2.8,2.748,2.748,0,0,1-2.828,2.8m0-4.3a1.6,1.6,0,1,0,0,3.2,1.6,1.6,0,1,0,0-3.2"/>
        <path id="Path_1495658" data-name="Path 1495658" d="M55.546,16.1a3.8,3.8,0,1,1,3.838-3.8,3.817,3.817,0,0,1-3.838,3.8m0-6.2a2.5,2.5,0,1,0,2.525,2.5,2.488,2.488,0,0,0-2.525-2.5"/>
      </g>
    </g>
  </g>
</svg>
