<svg xmlns="http://www.w3.org/2000/svg" xmlns:xlink="http://www.w3.org/1999/xlink" width="118" height="118" viewBox="0 0 118 118">
  <defs>
    <filter id="Rectangle_411831" x="0" y="0" width="118" height="118" filterUnits="userSpaceOnUse">
      <feOffset dy="3" input="SourceAlpha"/>
      <feGaussianBlur stdDeviation="3" result="blur"/>
      <feFlood flood-opacity="0.161"/>
      <feComposite operator="in" in2="blur"/>
      <feComposite in="SourceGraphic"/>
    </filter>
    <clipPath id="clip-path">
      <rect id="Rectangle_425870" data-name="Rectangle 425870" width="69.056" height="69.058" fill="none"/>
    </clipPath>
  </defs>
  <g id="Group_1228591" data-name="Group 1228591" transform="translate(-326.781 -3857)">
    <g id="Group_1203422" data-name="Group 1203422" transform="translate(-465 1901)">
      <g id="Group_1203409" data-name="Group 1203409" transform="translate(465 -1896)">
        <g transform="matrix(1, 0, 0, 1, 326.78, 3852)" filter="url(#Rectangle_411831)">
          <g id="Rectangle_411831-2" data-name="Rectangle 411831" transform="translate(9 6)" fill="#37f1e9" stroke="#fff" stroke-width="2">
            <path d="M5,0H68a32,32,0,0,1,32,32V95a5,5,0,0,1-5,5H32A32,32,0,0,1,0,68V5A5,5,0,0,1,5,0Z" stroke="none"/>
            <path d="M5,1H68A31,31,0,0,1,99,32V95a4,4,0,0,1-4,4H32A31,31,0,0,1,1,68V5A4,4,0,0,1,5,1Z" fill="none"/>
          </g>
        </g>
      </g>
    </g>
    <g id="Group_1228600" data-name="Group 1228600" transform="translate(351.253 3878.471)">
      <g id="Group_1228599" data-name="Group 1228599" transform="translate(0 0)" clip-path="url(#clip-path)">
        <path id="Path_1495386" data-name="Path 1495386" d="M15.828,10.283a4.163,4.163,0,0,1-.113,5.633,4.05,4.05,0,0,1-5.633.113.111.111,0,0,1-.113-.113,4.063,4.063,0,0,1,5.746-5.745Z" transform="translate(1.071 1.096)" fill="#313a52"/>
        <path id="Path_1495387" data-name="Path 1495387" d="M9.517,31.369a4.016,4.016,0,0,1-3.943,4.055H5.461a4.055,4.055,0,1,1,0-8.111h.112a4.016,4.016,0,0,1,3.943,4.055" transform="translate(0.171 3.329)" fill="#5165a2"/>
        <path id="Path_1495388" data-name="Path 1495388" d="M35.525,56.851v.225a4.055,4.055,0,0,1-8.111,0v-.112a3.945,3.945,0,0,1,4.055-3.943,4.071,4.071,0,0,1,4.055,3.83" transform="translate(3.34 6.461)" fill="#5165a2"/>
        <path id="Path_1495389" data-name="Path 1495389" d="M16.017,46.721a4.079,4.079,0,0,1,0,5.745v.113a4.063,4.063,0,1,1-5.746-5.746,3.981,3.981,0,0,1,5.746-.112" transform="translate(1.107 5.551)" fill="#313a52"/>
        <path id="Path_1495390" data-name="Path 1495390" d="M52.572,46.42a4.062,4.062,0,1,1-5.745,5.745l-.225-.224a4.021,4.021,0,0,1,.225-5.521,4.131,4.131,0,0,1,5.519-.225.242.242,0,0,0,.225.225" transform="translate(5.558 5.514)" fill="#313a52"/>
        <path id="Path_1495391" data-name="Path 1495391" d="M61.232,30.967a4.038,4.038,0,0,1-4.055,4.055h-.451a4.043,4.043,0,0,1-3.6-4.055,4.125,4.125,0,0,1,3.492-4.055h.563a4.112,4.112,0,0,1,4.055,4.055" transform="translate(6.473 3.28)" fill="#5165a2"/>
        <path id="Path_1495392" data-name="Path 1495392" d="M52.267,9.871a4.079,4.079,0,0,1,0,5.745c-.112.113-.224.225-.338.338a4.094,4.094,0,0,1-5.745-5.745c.112-.112.224-.338.338-.451a4.189,4.189,0,0,1,5.745.113" transform="translate(5.524 1.057)" fill="#313a52"/>
        <path id="Path_1495393" data-name="Path 1495393" d="M35.124,5.36v.451a4.084,4.084,0,0,1-8.111,0V5.36a4.055,4.055,0,1,1,8.111,0" transform="translate(3.291 0.159)" fill="#5165a2"/>
        <path id="Path_1495394" data-name="Path 1495394" d="M44.555,21.557c0,8,.112,12.166-.451,15.209-.788,3.718-2.7,5.406-7.549,10.477l-1.126,1.125H29.122c-.339-.337-.79-.788-1.129-1.125-3.04-3.155-4.956-4.957-6.195-6.986a9.412,9.412,0,0,1-1.352-3.491,53.18,53.18,0,0,1-.564-9.8V21.557a16.108,16.108,0,0,0,12.281-2.478,11.3,11.3,0,0,0,4.167,2.14,18.1,18.1,0,0,0,8.225.338" transform="translate(2.423 2.325)" fill="#e64c42"/>
        <path id="Path_1495395" data-name="Path 1495395" d="M47.475,12.172a1.631,1.631,0,0,1-.789-.224l-.225-.113a1.544,1.544,0,0,1-.563-.9,1.515,1.515,0,0,1,.225-1.014,1.385,1.385,0,0,1,1.126-.563,1.627,1.627,0,0,1,.789.225h.224a1.384,1.384,0,0,1,.564,1.126,1.635,1.635,0,0,1-.225.789,1.155,1.155,0,0,1-1.126.675m-3.492-2.139a1.605,1.605,0,0,1-.676-.225.111.111,0,0,1-.113-.112,1.522,1.522,0,0,1-.675-.79,1.33,1.33,0,0,1,.112-1.126,1.389,1.389,0,0,1,1.24-.789c.225,0,.45.113.675.113a.111.111,0,0,1,.113.112,1.387,1.387,0,0,1,.79,1.239,1.592,1.592,0,0,1-.227.676,1.318,1.318,0,0,1-1.239.9M40.265,8.342a.679.679,0,0,1-.451-.112H39.7a1.192,1.192,0,0,1-.788-.676,1.305,1.305,0,0,1,0-1.126,1.462,1.462,0,0,1,1.352-.9.677.677,0,0,1,.45.112h.113a1.359,1.359,0,0,1,.9,1.352c0,.225,0,.339-.112.451a1.464,1.464,0,0,1-1.352.9M36.434,7.215H35.87a2.437,2.437,0,0,1-.9-.563,1.674,1.674,0,0,1-.225-1.014,1.833,1.833,0,0,1,.45-.789,1.391,1.391,0,0,1,1.127-.225h.112a1.811,1.811,0,0,1,.789.451,1.279,1.279,0,0,1,.339.9v.339a1.824,1.824,0,0,1-.451.789c-.112,0-.451.112-.676.112" transform="translate(4.233 0.558)"/>
        <path id="Path_1495396" data-name="Path 1495396" d="M56.758,29.771a1.277,1.277,0,0,1-.9-.338,1.385,1.385,0,0,1-.451-.9V28.42a1.083,1.083,0,0,1,.224-1.014,1.545,1.545,0,0,1,.9-.563,1.079,1.079,0,0,1,1.126.338,1.389,1.389,0,0,1,.45.9v.339a1.277,1.277,0,0,1-.337.9,1.394,1.394,0,0,1-.9.45Zm-.9-3.942a1.631,1.631,0,0,1-.789-.225,2.942,2.942,0,0,1-.563-.676v-.112a1.476,1.476,0,0,1,.9-1.8,1.567,1.567,0,0,1,1.24.225,3.052,3.052,0,0,1,.563.675v.113c0,.113.112.225.112.451a1.623,1.623,0,0,1-.225.789,3,3,0,0,1-.675.563c-.227-.113-.338,0-.563,0M54.506,22a1.385,1.385,0,0,1-1.24-.788V21.1a1.486,1.486,0,0,1,.676-1.915,1.007,1.007,0,0,1,.563-.113,1.385,1.385,0,0,1,1.239.79.11.11,0,0,0,.113.112,1.019,1.019,0,0,1,.112.563,1.388,1.388,0,0,1-.789,1.24,4.493,4.493,0,0,1-.675.224m-2.028-3.6a1.238,1.238,0,0,1-1.126-.676.11.11,0,0,0-.113-.112,1.319,1.319,0,0,1,.451-1.915,1.635,1.635,0,0,1,.789-.225,1.238,1.238,0,0,1,1.126.676.11.11,0,0,0,.112.112,1.623,1.623,0,0,1,.227.789,1.559,1.559,0,0,1-.676,1.24c-.225,0-.563.112-.789.112" transform="translate(6.215 1.885)"/>
        <path id="Path_1495397" data-name="Path 1495397" d="M51.661,48.814a1.615,1.615,0,0,1-.788-.225,1.384,1.384,0,0,1-.564-1.126,1.635,1.635,0,0,1,.225-.789.11.11,0,0,1,.113-.112A1.383,1.383,0,0,1,51.774,46a1.635,1.635,0,0,1,.789.224,1.329,1.329,0,0,1,.339,1.915l-.113.113a1.145,1.145,0,0,1-1.127.563m2.14-3.379a1.419,1.419,0,0,1-.675-.113,1.384,1.384,0,0,1-.789-1.239c0-.227.112-.451.112-.676a.111.111,0,0,1,.113-.113,1.385,1.385,0,0,1,1.239-.788,1.436,1.436,0,0,1,.676.112,1.509,1.509,0,0,1,.675.789,1.329,1.329,0,0,1-.112,1.126v.113a1.386,1.386,0,0,1-1.24.789m1.691-3.718a.674.674,0,0,1-.451-.113,1.358,1.358,0,0,1-.9-1.352.677.677,0,0,1,.112-.45v-.113a1.464,1.464,0,0,1,1.352-.9.682.682,0,0,1,.451.112,1.19,1.19,0,0,1,.788.676,1.305,1.305,0,0,1,0,1.126v.113a1.668,1.668,0,0,1-1.351.9m1.126-3.943h-.339a1.339,1.339,0,0,1-1.126-1.352v-.451A1.339,1.339,0,0,1,56.5,34.845h.338a2.471,2.471,0,0,1,.9.563,1.147,1.147,0,0,1,.225,1.014v.113a1.344,1.344,0,0,1-1.352,1.239" transform="translate(6.13 4.246)"/>
        <path id="Path_1495398" data-name="Path 1495398" d="M34.791,58.423a1.28,1.28,0,0,1-.9-.338,1.392,1.392,0,0,1-.452-.9v-.224a1.28,1.28,0,0,1,.339-.9,1.387,1.387,0,0,1,.9-.45h.112a1.08,1.08,0,0,1,1.127.338,1.453,1.453,0,0,1-.675,2.478h-.452Zm3.943-.9a1.635,1.635,0,0,1-.789-.225,3.031,3.031,0,0,1-.563-.676c0-.112-.113-.225-.113-.45a1.579,1.579,0,0,1,1.015-1.352H38.4c.113,0,.224-.113.451-.113A1.579,1.579,0,0,1,40.2,55.719a1.334,1.334,0,0,1-.113,1.126,1.518,1.518,0,0,1-.789.676h-.563Zm3.83-1.465a1.384,1.384,0,0,1-1.239-.789,1.01,1.01,0,0,1-.113-.563A1.386,1.386,0,0,1,42,53.467h.113a1.012,1.012,0,0,1,.563-.113,1.385,1.385,0,0,1,1.239.789,1.305,1.305,0,0,1,0,1.126,1.184,1.184,0,0,1-.675.789h-.676Zm3.606-1.915a1.239,1.239,0,0,1-1.126-.675,1.635,1.635,0,0,1-.225-.789,1.241,1.241,0,0,1,.675-1.127.111.111,0,0,0,.113-.112,1.628,1.628,0,0,1,.789-.225,1.238,1.238,0,0,1,1.126.676,1.32,1.32,0,0,1-.45,1.915h-.113a1.507,1.507,0,0,1-.789.338" transform="translate(4.074 6.241)"/>
        <path id="Path_1495399" data-name="Path 1495399" d="M26.675,58.283h-.45a1.811,1.811,0,0,1-.789-.45,1.279,1.279,0,0,1-.338-.9v-.338a1.813,1.813,0,0,1,.451-.789,1.386,1.386,0,0,1,1.125-.225h.113a2.452,2.452,0,0,1,.9.563,1.674,1.674,0,0,1,.225,1.014,1.157,1.157,0,0,1-1.24,1.126m-3.942-1.126h0a.682.682,0,0,1-.451-.112H22.17a1.464,1.464,0,0,1-.9-1.352.68.68,0,0,1,.112-.451,1.464,1.464,0,0,1,1.352-.9.682.682,0,0,1,.451.112H23.3a1.372,1.372,0,0,1,.789,1.8,1.464,1.464,0,0,1-1.352.9m-3.718-1.69c-.225,0-.451-.112-.675-.112a.111.111,0,0,1-.113-.113A1.385,1.385,0,0,1,17.439,54a1.609,1.609,0,0,1,.224-.675,1.386,1.386,0,0,1,1.24-.789,1.59,1.59,0,0,1,.675.225h.113a1.51,1.51,0,0,1,.675.789,1.329,1.329,0,0,1-.112,1.126,1.315,1.315,0,0,1-1.24.789m-3.492-2.14a1.635,1.635,0,0,1-.789-.225l-.112-.112a1.386,1.386,0,0,1-.563-1.127,1.627,1.627,0,0,1,.224-.788,1.387,1.387,0,0,1,1.127-.564,1.627,1.627,0,0,1,.788.225.111.111,0,0,1,.113.112,1.328,1.328,0,0,1,.338,1.916,1.385,1.385,0,0,1-1.126.563" transform="translate(1.713 6.155)"/>
        <path id="Path_1495400" data-name="Path 1495400" d="M9.449,47.646a1.558,1.558,0,0,1-1.24-.675L8.1,46.857a1.616,1.616,0,0,1-.225-.789,1.558,1.558,0,0,1,.675-1.239,1.623,1.623,0,0,1,.789-.225,1.556,1.556,0,0,1,1.24.676.11.11,0,0,0,.112.112,1.318,1.318,0,0,1-.45,1.915,1.023,1.023,0,0,1-.789.338m-1.916-3.6a1.385,1.385,0,0,1-1.239-.789.11.11,0,0,0-.113-.112,1.021,1.021,0,0,1-.112-.563,1.388,1.388,0,0,1,.789-1.24,1.012,1.012,0,0,1,.563-.113,1.387,1.387,0,0,1,1.24.79v.112a1.309,1.309,0,0,1,0,1.126,1.191,1.191,0,0,1-.676.789Zm-1.464-3.83h0a1.623,1.623,0,0,1-.789-.225,2.029,2.029,0,0,1-.563-.789v-.112c0-.113-.112-.225-.112-.451a1.623,1.623,0,0,1,.225-.789,2.006,2.006,0,0,1,.788-.563h.339A1.456,1.456,0,0,1,7.308,38.3v.112A1.337,1.337,0,0,1,7.2,39.535a1.517,1.517,0,0,1-.789.676Zm-.9-3.943a1.288,1.288,0,0,1-.9-.338,1.394,1.394,0,0,1-.45-.9v-.339a1.353,1.353,0,0,1,1.239-1.352,1.905,1.905,0,0,1,1.126.338,1.385,1.385,0,0,1,.451.9v.112A1.519,1.519,0,0,1,6.407,35.7a1.556,1.556,0,0,1-.9.563Z" transform="translate(0.465 4.063)"/>
        <path id="Path_1495401" data-name="Path 1495401" d="M5.481,28.027H5.143a2.46,2.46,0,0,1-.9-.563,1.681,1.681,0,0,1-.224-1.014v-.112a1.8,1.8,0,0,1,.451-.789,1.563,1.563,0,0,1,1.239-.225,1.813,1.813,0,0,1,.789.451,1.278,1.278,0,0,1,.338.9v.451a1.822,1.822,0,0,1-.45.789c-.227,0-.563.112-.9.112m1.24-3.943h0c-.225,0-.338,0-.451-.112a1.371,1.371,0,0,1-.789-1.8v-.112a1.465,1.465,0,0,1,1.352-.9c.225,0,.339,0,.451.113a1.464,1.464,0,0,1,.9,1.352c0,.225,0,.338-.112.45v.113a1.464,1.464,0,0,1-1.352.9m1.69-3.6a1.585,1.585,0,0,1-.675-.225,1.517,1.517,0,0,1-.676-.789,1.334,1.334,0,0,1,.113-1.126l.112-.112a1.292,1.292,0,0,1,1.239-.676,1.605,1.605,0,0,1,.676.225,1.294,1.294,0,0,1,.675,1.24,1.609,1.609,0,0,1-.224.675.11.11,0,0,1-.113.112,1.32,1.32,0,0,1-1.126.676m2.14-3.492a1.635,1.635,0,0,1-.789-.225,1.441,1.441,0,0,1-.338-2.027v-.113a1.388,1.388,0,0,1,1.126-.563,1.5,1.5,0,0,1,.9.338,1.39,1.39,0,0,1,.564,1.127,1.024,1.024,0,0,1-.339.789.11.11,0,0,1-.112.112,1.057,1.057,0,0,1-1.014.563" transform="translate(0.489 1.713)"/>
        <path id="Path_1495402" data-name="Path 1495402" d="M16.829,11.114a1.554,1.554,0,0,1-1.239-.676,1.319,1.319,0,0,1,.45-1.915h.225a1.635,1.635,0,0,1,.789-.225,1.554,1.554,0,0,1,1.239.676,1.619,1.619,0,0,1,.227.789A1.559,1.559,0,0,1,17.843,11a.11.11,0,0,0-.112.113,2.415,2.415,0,0,0-.9,0M20.435,9.2a1.385,1.385,0,0,1-1.24-.788A1.486,1.486,0,0,1,19.871,6.5H20.1a1.007,1.007,0,0,1,.562-.113,1.386,1.386,0,0,1,1.24.789,1.012,1.012,0,0,1,.113.563,1.387,1.387,0,0,1-.79,1.24H21.11a1.6,1.6,0,0,1-.675.224m3.83-1.464A1.579,1.579,0,0,1,22.913,6.72a1.337,1.337,0,0,1,.112-1.126,1.522,1.522,0,0,1,.789-.676h.113c.112,0,.225-.112.338-.112a1.456,1.456,0,0,1,1.352,1.014v.338A1.353,1.353,0,0,1,24.6,7.509H24.49c.112.224-.113.224-.225.224m4.055-.9a1.283,1.283,0,0,1-.9-.338,1.439,1.439,0,0,1,.789-2.479h.338A1.354,1.354,0,0,1,29.9,5.256v.225a1.353,1.353,0,0,1-1.24,1.352H28.32Z" transform="translate(1.871 0.49)"/>
        <path id="Path_1495403" data-name="Path 1495403" d="M31.215,11.04a5.406,5.406,0,0,1-5.408-4.956V5.519a5.52,5.52,0,0,1,11.04,0v.564a5.791,5.791,0,0,1-5.632,4.956m0-8.224a2.743,2.743,0,0,0-2.7,2.7v.225a2.613,2.613,0,0,0,2.7,2.366,2.689,2.689,0,0,0,2.7-2.366V5.519a2.74,2.74,0,0,0-2.7-2.7" transform="translate(3.145 0)"/>
        <path id="Path_1495404" data-name="Path 1495404" d="M31.628,62.756a5.529,5.529,0,0,1-5.519-5.521v-.112a5.526,5.526,0,0,1,11.04-.225v.338a5.6,5.6,0,0,1-5.521,5.521m0-8.224a2.648,2.648,0,1,0,2.7,2.591V57.01a2.788,2.788,0,0,0-2.7-2.478" transform="translate(3.181 6.302)"/>
        <path id="Path_1495405" data-name="Path 1495405" d="M49.492,18.459h0a5.364,5.364,0,0,1-3.83-1.577,5.494,5.494,0,0,1-.451-7.21c.113-.225.339-.338.451-.563a5.44,5.44,0,0,1,7.661,0,5.508,5.508,0,0,1,0,7.773,2.466,2.466,0,0,1-.563.45,5.2,5.2,0,0,1-3.268,1.127m.113-8.224a2.639,2.639,0,0,0-1.915.789c-.113.112-.113.225-.225.225A2.664,2.664,0,0,0,49.6,15.53a3.354,3.354,0,0,0,1.689-.563c.113-.113.225-.113.225-.225a2.792,2.792,0,0,0,0-3.83,3.916,3.916,0,0,0-1.915-.676" transform="translate(5.37 0.918)"/>
        <path id="Path_1495406" data-name="Path 1495406" d="M13.24,55.2a5.407,5.407,0,1,1,3.83-9.237,5.477,5.477,0,0,1,.112,7.66l-.112.113A5.779,5.779,0,0,1,13.24,55.2m-1.916-7.322a2.719,2.719,0,0,0-.789,1.915,2.638,2.638,0,0,0,.789,1.915,2.717,2.717,0,0,0,1.916.789,2.648,2.648,0,0,0,1.915-4.506A2.723,2.723,0,0,0,13.24,47.2a2.164,2.164,0,0,0-1.916.676" transform="translate(0.954 5.409)"/>
        <path id="Path_1495407" data-name="Path 1495407" d="M57.223,36.622h-.564a5.385,5.385,0,0,1-4.843-5.407,5.464,5.464,0,0,1,4.731-5.407h.676a5.529,5.529,0,0,1,5.519,5.521,5.34,5.34,0,0,1-5.519,5.294m0-8.111h-.339a2.728,2.728,0,0,0,0,5.407h.339a2.7,2.7,0,1,0,0-5.407" transform="translate(6.314 3.145)"/>
        <path id="Path_1495408" data-name="Path 1495408" d="M5.519,37.048a5.52,5.52,0,0,1,0-11.04h.113a5.506,5.506,0,0,1,5.407,5.521,5.58,5.58,0,0,1-5.407,5.519Zm0-8.223a2.7,2.7,0,0,0,0,5.407,2.646,2.646,0,0,0,2.591-2.7,2.571,2.571,0,0,0-2.591-2.7h0" transform="translate(0 3.169)"/>
        <path id="Path_1495409" data-name="Path 1495409" d="M12.939,18.648h0a5.112,5.112,0,0,1-3.6-1.352l-.227-.225a5.417,5.417,0,0,1,7.661-7.66l.225.225a5.558,5.558,0,0,1-.225,7.548,5.564,5.564,0,0,1-3.83,1.464m0-8.111a2.639,2.639,0,0,0-1.915.789,2.714,2.714,0,0,0-.789,1.915,2.638,2.638,0,0,0,.789,1.915l.112.113a2.564,2.564,0,0,0,1.8.675,2.639,2.639,0,0,0,1.915-.789,2.763,2.763,0,0,0,.112-3.718l-.112-.112a2.321,2.321,0,0,0-1.915-.789" transform="translate(0.918 0.955)"/>
        <path id="Path_1495410" data-name="Path 1495410" d="M49.794,55a5.364,5.364,0,0,1-3.83-1.577L45.74,53.2a5.413,5.413,0,0,1,4.054-9.012,5.743,5.743,0,0,1,3.492,1.239,1.544,1.544,0,0,0,.451.338,5.44,5.44,0,0,1,0,7.661A5.832,5.832,0,0,1,49.794,55m0-8.224a2.653,2.653,0,0,0-2.028,4.394l.113.112a2.719,2.719,0,0,0,1.915.789,2.638,2.638,0,0,0,1.915-.789,2.717,2.717,0,0,0,.789-1.915,2.467,2.467,0,0,0-.789-1.915l-.224-.225a3.737,3.737,0,0,0-1.691-.451" transform="translate(5.406 5.384)"/>
        <path id="Path_1495411" data-name="Path 1495411" d="M35.564,49.983a1.813,1.813,0,0,1-1.014-.338,1.429,1.429,0,0,1,0-2.028l1.127-1.126A10.448,10.448,0,0,1,36.8,45.364c3.943-4.055,5.519-5.633,6.084-8.674.451-2.366.451-5.746.451-11.266V23.4a20.581,20.581,0,0,1-7.1-.45,13.359,13.359,0,0,1-3.831-1.8A18.036,18.036,0,0,1,21.595,23.51v3.717c0,4.732.112,7.436.563,9.464A9.715,9.715,0,0,0,23.4,39.844c1.014,1.691,2.817,3.492,5.408,6.2l1.576,1.577a1.434,1.434,0,0,1-2.027,2.028l-1.577-1.577a38.971,38.971,0,0,1-5.858-6.759,12.082,12.082,0,0,1-1.576-3.943,54.4,54.4,0,0,1-.563-10.139V21.82a1.562,1.562,0,0,1,.563-1.127,2.181,2.181,0,0,1,1.126-.338A14.613,14.613,0,0,0,31.734,18.1a1.35,1.35,0,0,1,1.69.112,10.09,10.09,0,0,0,3.606,1.915,18.319,18.319,0,0,0,7.547.225,1.365,1.365,0,0,1,1.126.338,1.222,1.222,0,0,1,.451,1.014v3.6c0,5.972,0,9.238-.562,11.829-.79,3.831-2.7,5.746-6.872,10.027-.339.338-.676.675-1.126,1.126L36.465,49.42a1.148,1.148,0,0,1-.9.563" transform="translate(2.288 2.177)"/>
        <path id="Path_1495412" data-name="Path 1495412" d="M41.1,46.812H22.853a1.465,1.465,0,0,1,0-2.929H41.217a1.491,1.491,0,0,1,1.463,1.464A1.679,1.679,0,0,1,41.1,46.812" transform="translate(2.606 5.347)"/>
      </g>
    </g>
  </g>
</svg>
