<svg xmlns="http://www.w3.org/2000/svg" xmlns:xlink="http://www.w3.org/1999/xlink" width="118" height="118" viewBox="0 0 118 118">
  <defs>
    <filter id="Rectangle_411831" x="0" y="0" width="118" height="118" filterUnits="userSpaceOnUse">
      <feOffset dy="3" input="SourceAlpha"/>
      <feGaussianBlur stdDeviation="3" result="blur"/>
      <feFlood flood-opacity="0.161"/>
      <feComposite operator="in" in2="blur"/>
      <feComposite in="SourceGraphic"/>
    </filter>
    <clipPath id="clip-path">
      <rect id="Rectangle_425893" data-name="Rectangle 425893" width="56.758" height="49.3" transform="translate(0 0)" fill="none"/>
    </clipPath>
  </defs>
  <g id="Group_1228618" data-name="Group 1228618" transform="translate(-326.781 -3852)">
    <g transform="matrix(1, 0, 0, 1, 326.78, 3852)" filter="url(#Rectangle_411831)">
      <g id="Rectangle_411831-2" data-name="Rectangle 411831" transform="translate(9 6)" fill="#b8a9f1" stroke="#fff" stroke-width="2">
        <path d="M5,0H68a32,32,0,0,1,32,32V95a5,5,0,0,1-5,5H32A32,32,0,0,1,0,68V5A5,5,0,0,1,5,0Z" stroke="none"/>
        <path d="M5,1H68A31,31,0,0,1,99,32V95a4,4,0,0,1-4,4H32A31,31,0,0,1,1,68V5A4,4,0,0,1,5,1Z" fill="none"/>
      </g>
    </g>
    <g id="Group_1228620" data-name="Group 1228620" transform="translate(357.402 3883.35)">
      <g id="Group_1228619" data-name="Group 1228619" clip-path="url(#clip-path)">
        <path id="Path_1495592" data-name="Path 1495592" d="M52.314.6H4.443A3.817,3.817,0,0,0,.605,4.4V36.8a3.817,3.817,0,0,0,3.838,3.8H52.314a3.818,3.818,0,0,0,3.838-3.8V4.4A3.818,3.818,0,0,0,52.314.6" fill="#57606f"/>
        <path id="Path_1495593" data-name="Path 1495593" d="M27.571,4.3H4.443V33.1H52.415V4.3Z" fill="#d7deed"/>
        <rect id="Rectangle_425891" data-name="Rectangle 425891" width="3.131" height="8.1" transform="translate(31.712 40.6)" fill="#414a56"/>
        <rect id="Rectangle_425892" data-name="Rectangle 425892" width="3.131" height="8.1" transform="translate(22.218 40.6)" fill="#414a56"/>
        <path id="Path_1495594" data-name="Path 1495594" d="M28.076,10a3.1,3.1,0,1,1-3.131,3.1A3.131,3.131,0,0,1,28.076,10" fill="#5cbeff"/>
        <path id="Path_1495595" data-name="Path 1495595" d="M42.315,25v4.3H35.347V25h6.968Z" fill="#f88f19"/>
        <path id="Path_1495596" data-name="Path 1495596" d="M31.51,25v4.3H24.642V25H31.51Z" fill="#f88f19"/>
        <path id="Path_1495597" data-name="Path 1495597" d="M20.8,25v4.3H13.836V25H20.8Z" fill="#f88f19"/>
        <path id="Path_1495598" data-name="Path 1495598" d="M29.389,36.1a1.262,1.262,0,0,1,.4.9,1.081,1.081,0,0,1-.4.9,1.419,1.419,0,0,1-.909.3,1.33,1.33,0,0,1-1.313-1.3,1.079,1.079,0,0,1,.405-.9,1.283,1.283,0,0,1,.908-.4,1.363,1.363,0,0,1,.909.5"/>
        <path id="Path_1495599" data-name="Path 1495599" d="M28.076,16.8A3.8,3.8,0,1,1,31.913,13a3.817,3.817,0,0,1-3.837,3.8m0-6.2A2.5,2.5,0,1,0,30.6,13.1a2.488,2.488,0,0,0-2.524-2.5"/>
        <path id="Path_1495600" data-name="Path 1495600" d="M22.218,49.3a.648.648,0,0,1-.6-.6V40.6a.606.606,0,0,1,1.212,0v8.1a.649.649,0,0,1-.607.6"/>
        <path id="Path_1495601" data-name="Path 1495601" d="M34.843,49.3a.648.648,0,0,1-.606-.6V40.6a.606.606,0,0,1,1.211,0v8.1a.648.648,0,0,1-.605.6"/>
        <path id="Path_1495602" data-name="Path 1495602" d="M25.349,49.3a.648.648,0,0,1-.605-.6V40.6a.606.606,0,0,1,1.211,0v8.1a.648.648,0,0,1-.606.6"/>
        <path id="Path_1495603" data-name="Path 1495603" d="M31.712,49.3a.649.649,0,0,1-.607-.6V40.6a.606.606,0,0,1,1.212,0v8.1a.648.648,0,0,1-.605.6"/>
        <path id="Path_1495604" data-name="Path 1495604" d="M37.267,49.3H19.794a.6.6,0,1,1,0-1.2H37.267a.6.6,0,1,1,0,1.2"/>
        <path id="Path_1495605" data-name="Path 1495605" d="M52.415,33.7H4.443a.648.648,0,0,1-.6-.6V4.3a.648.648,0,0,1,.6-.6H52.415a.648.648,0,0,1,.606.6V33.1a.648.648,0,0,1-.606.6M5.05,32.5H51.81V5H5.05Z"/>
        <path id="Path_1495606" data-name="Path 1495606" d="M4.443,1.2A3.174,3.174,0,0,0,1.212,4.4V36.8A3.174,3.174,0,0,0,4.443,40H52.314a3.176,3.176,0,0,0,3.232-3.2V4.4a3.176,3.176,0,0,0-3.232-3.2Zm47.871,40H4.443A4.461,4.461,0,0,1,0,36.8V4.4A4.461,4.461,0,0,1,4.443,0H52.314a4.461,4.461,0,0,1,4.443,4.4V36.8a4.461,4.461,0,0,1-4.443,4.4"/>
        <path id="Path_1495607" data-name="Path 1495607" d="M52.415,20H45.446a.6.6,0,1,1,0-1.2h6.969a.6.6,0,1,1,0,1.2"/>
        <path id="Path_1495608" data-name="Path 1495608" d="M52.415,17.5H45.446a.6.6,0,1,1,0-1.2h6.969a.6.6,0,1,1,0,1.2"/>
        <path id="Path_1495609" data-name="Path 1495609" d="M52.415,15H45.446a.6.6,0,1,1,0-1.2h6.969a.6.6,0,1,1,0,1.2"/>
        <path id="Path_1495610" data-name="Path 1495610" d="M52.415,12.5H45.446a.6.6,0,1,1,0-1.2h6.969a.6.6,0,1,1,0,1.2"/>
        <path id="Path_1495611" data-name="Path 1495611" d="M52.415,10H45.446a.648.648,0,0,1-.6-.6.648.648,0,0,1,.6-.6h6.969a.648.648,0,0,1,.606.6.648.648,0,0,1-.606.6"/>
        <path id="Path_1495612" data-name="Path 1495612" d="M52.415,7.5H45.446a.648.648,0,0,1-.6-.6.648.648,0,0,1,.6-.6h6.969a.648.648,0,0,1,.606.6.648.648,0,0,1-.606.6"/>
        <path id="Path_1495613" data-name="Path 1495613" d="M11.311,20H4.343a.6.6,0,1,1,0-1.2h6.968a.648.648,0,0,1,.606.6c.1.3-.2.6-.606.6"/>
        <path id="Path_1495614" data-name="Path 1495614" d="M11.311,17.5H4.343a.6.6,0,1,1,0-1.2h6.968a.648.648,0,0,1,.606.6c.1.3-.2.6-.606.6"/>
        <path id="Path_1495615" data-name="Path 1495615" d="M11.311,15H4.343a.6.6,0,1,1,0-1.2h6.968a.648.648,0,0,1,.606.6c.1.3-.2.6-.606.6"/>
        <path id="Path_1495616" data-name="Path 1495616" d="M11.311,12.5H4.343a.6.6,0,1,1,0-1.2h6.968a.648.648,0,0,1,.606.6c.1.3-.2.6-.606.6"/>
        <path id="Path_1495617" data-name="Path 1495617" d="M11.311,10H4.343a.648.648,0,0,1-.606-.6.648.648,0,0,1,.606-.6h6.968a.648.648,0,0,1,.606.6c.1.3-.2.6-.606.6"/>
        <path id="Path_1495618" data-name="Path 1495618" d="M11.311,7.5H4.343a.648.648,0,0,1-.606-.6.648.648,0,0,1,.606-.6h6.968a.648.648,0,0,1,.606.6c.1.3-.2.6-.606.6"/>
        <path id="Path_1495619" data-name="Path 1495619" d="M20.805,30H13.836a.649.649,0,0,1-.607-.6V25a.649.649,0,0,1,.607-.6h6.969a.648.648,0,0,1,.6.6v4.4a.648.648,0,0,1-.6.6m-6.262-1.3H20.2V25.6H14.543Z"/>
        <path id="Path_1495620" data-name="Path 1495620" d="M31.51,30H24.541a.649.649,0,0,1-.607-.6V25a.649.649,0,0,1,.607-.6H31.51a.648.648,0,0,1,.605.6v4.4c.1.3-.2.6-.605.6m-6.262-1.3H30.9V25.6H25.248Z"/>
        <path id="Path_1495621" data-name="Path 1495621" d="M42.315,30H35.348a.649.649,0,0,1-.607-.6V25a.649.649,0,0,1,.607-.6h6.967a.649.649,0,0,1,.607.6v4.4a.649.649,0,0,1-.607.6m-6.362-1.3h5.656V25.6H35.953Z"/>
        <path id="Path_1495622" data-name="Path 1495622" d="M39.084,25.6a.648.648,0,0,1-.6-.6V21.2H17.674V25a.606.606,0,0,1-1.212,0V20.6a.648.648,0,0,1,.6-.6H39.185a.648.648,0,0,1,.606.6V25a.673.673,0,0,1-.707.6"/>
        <path id="Path_1495623" data-name="Path 1495623" d="M28.076,25.6a.648.648,0,0,1-.606-.6V16.2a.606.606,0,0,1,1.211,0V25a.648.648,0,0,1-.6.6"/>
      </g>
    </g>
  </g>
</svg>
