<svg xmlns="http://www.w3.org/2000/svg" xmlns:xlink="http://www.w3.org/1999/xlink" width="118" height="118" viewBox="0 0 118 118">
  <defs>
    <filter id="Rectangle_411831" x="0" y="0" width="118" height="118" filterUnits="userSpaceOnUse">
      <feOffset dy="3" input="SourceAlpha"/>
      <feGaussianBlur stdDeviation="3" result="blur"/>
      <feFlood flood-opacity="0.161"/>
      <feComposite operator="in" in2="blur"/>
      <feComposite in="SourceGraphic"/>
    </filter>
    <clipPath id="clip-path">
      <rect id="Rectangle_425910" data-name="Rectangle 425910" width="59.861" height="68.803" fill="none"/>
    </clipPath>
  </defs>
  <g id="Group_1228630" data-name="Group 1228630" transform="translate(-326.781 -3852)">
    <g transform="matrix(1, 0, 0, 1, 326.78, 3852)" filter="url(#Rectangle_411831)">
      <g id="Rectangle_411831-2" data-name="Rectangle 411831" transform="translate(9 6)" fill="#b8a9f1" stroke="#fff" stroke-width="2">
        <path d="M5,0H68a32,32,0,0,1,32,32V95a5,5,0,0,1-5,5H32A32,32,0,0,1,0,68V5A5,5,0,0,1,5,0Z" stroke="none"/>
        <path d="M5,1H68A31,31,0,0,1,99,32V95a4,4,0,0,1-4,4H32A31,31,0,0,1,1,68V5A4,4,0,0,1,5,1Z" fill="none"/>
      </g>
    </g>
    <g id="Group_1228637" data-name="Group 1228637" transform="translate(355.85 3873.599)">
      <g id="Group_1228636" data-name="Group 1228636" transform="translate(0 0)" clip-path="url(#clip-path)">
        <path id="Path_1495746" data-name="Path 1495746" d="M51.5,15H7.668A6.2,6.2,0,0,1,1.4,21.264V40.048a6.2,6.2,0,0,1,6.263,6.262H51.5a6.2,6.2,0,0,1,6.26-6.262V21.264A6.2,6.2,0,0,1,51.5,15" transform="translate(0.347 3.708)" fill="#80af52"/>
        <path id="Path_1495747" data-name="Path 1495747" d="M43.435,7.507l-9.393,6.262V1.245Z" transform="translate(8.412 0.308)" fill="#232b3f"/>
        <path id="Path_1495748" data-name="Path 1495748" d="M15.819,53.315v3.131L6.427,50.185l9.392-6.262v9.392Z" transform="translate(1.588 10.854)" fill="#232b3f"/>
        <rect id="Rectangle_425908" data-name="Rectangle 425908" width="15.654" height="6.262" transform="translate(26.799 4.683)" fill="#313a52"/>
        <rect id="Rectangle_425909" data-name="Rectangle 425909" width="15.654" height="6.262" transform="translate(17.407 57.907)" fill="#313a52"/>
        <path id="Path_1495749" data-name="Path 1495749" d="M26.184,18.717A11.021,11.021,0,1,1,15.163,29.738,11.021,11.021,0,0,1,26.184,18.717" transform="translate(3.747 4.626)" fill="#ffd24d"/>
        <path id="Path_1495750" data-name="Path 1495750" d="M39.684,25.044a3.131,3.131,0,1,1-3.133,3.13,3.1,3.1,0,0,1,3.133-3.13" transform="translate(9.032 6.189)" fill="#70993f"/>
        <path id="Path_1495751" data-name="Path 1495751" d="M9.557,25.044a3.131,3.131,0,1,1-3.13,3.13,3.1,3.1,0,0,1,3.13-3.13" transform="translate(1.588 6.189)" fill="#70993f"/>
        <path id="Path_1495752" data-name="Path 1495752" d="M1.4,15H7.667A6.2,6.2,0,0,1,1.4,21.264Z" transform="translate(0.347 3.708)" fill="#70993f"/>
        <path id="Path_1495753" data-name="Path 1495753" d="M7.668,41.348H1.406V35.086a6.2,6.2,0,0,1,6.262,6.262" transform="translate(0.347 8.671)" fill="#70993f"/>
        <path id="Path_1495754" data-name="Path 1495754" d="M47.834,35.086v6.262h-6.26a6.2,6.2,0,0,1,6.26-6.262" transform="translate(10.273 8.671)" fill="#70993f"/>
        <path id="Path_1495755" data-name="Path 1495755" d="M47.834,15v6.262A6.2,6.2,0,0,1,41.574,15Z" transform="translate(10.273 3.708)" fill="#70993f"/>
        <path id="Path_1495756" data-name="Path 1495756" d="M25.393,30.446v1.878c.752,0,1.252-.251,1.252-.877a.688.688,0,0,0-.374-.626,6.221,6.221,0,0,0-.878-.375m-.751-3.007v-2c-.752,0-1.127.375-1.127.877a.954.954,0,0,0,.251.626,2.006,2.006,0,0,0,.877.5m0,4.885V30.195l-.752-.251c-.5-.125-1-.375-1.377-.5a2.715,2.715,0,0,1-1-.626,2.019,2.019,0,0,1-.5-.877,3.092,3.092,0,0,1-.126-1.127,6.323,6.323,0,0,1,.251-1.5l.752-1.126,1.126-.752c.377-.125.877-.251,1.378-.375V21.429h1.127v1.627a4.635,4.635,0,0,1,1.878.5c.626.249,1.127.5,1.629.751L27.9,26.563s-.123-.126-.249-.251a.963.963,0,0,0-.626-.251l-.751-.375c-.252-.125-.626-.125-.878-.251v2.129l.5.126a7.016,7.016,0,0,1,1.5.5,5.1,5.1,0,0,1,1.127.626,7.009,7.009,0,0,1,.752,1,3.9,3.9,0,0,1,.249,1.377,2.676,2.676,0,0,1-.375,1.5,3.373,3.373,0,0,1-.877,1,3.922,3.922,0,0,1-1.252.627,6.323,6.323,0,0,1-1.5.251v1.878H24.392V34.579a5.891,5.891,0,0,1-2.129-.5,6.537,6.537,0,0,1-1.878-.877l1.126-2.255a1.543,1.543,0,0,0,.377.251,2.025,2.025,0,0,0,.751.375,8.42,8.42,0,0,0,1,.377c.251.249.626.249,1,.375" transform="translate(5.037 5.296)"/>
        <path id="Path_1495757" data-name="Path 1495757" d="M26.481,42.559A12.523,12.523,0,1,1,39,30.035,12.56,12.56,0,0,1,26.481,42.559m0-21.915a9.393,9.393,0,1,0,9.392,9.392,9.461,9.461,0,0,0-9.392-9.392" transform="translate(3.449 4.328)"/>
        <path id="Path_1495758" data-name="Path 1495758" d="M40.006,33.256A4.759,4.759,0,1,1,44.764,28.5a4.757,4.757,0,0,1-4.758,4.759m0-6.262a1.628,1.628,0,1,0,1.627,1.629,1.658,1.658,0,0,0-1.627-1.629" transform="translate(8.71 5.866)"/>
        <path id="Path_1495759" data-name="Path 1495759" d="M9.88,33.256A4.759,4.759,0,1,1,14.639,28.5,4.757,4.757,0,0,1,9.88,33.256m0-6.262a1.628,1.628,0,1,0,1.629,1.629A1.657,1.657,0,0,0,9.88,26.994" transform="translate(1.265 5.866)"/>
        <path id="Path_1495760" data-name="Path 1495760" d="M1.728,23.239a1.628,1.628,0,1,1,0-3.256,4.757,4.757,0,0,0,4.759-4.759,1.628,1.628,0,0,1,3.256,0,8.241,8.241,0,0,1-8.015,8.015" transform="translate(0.024 3.36)"/>
        <path id="Path_1495761" data-name="Path 1495761" d="M8.015,43.323a1.659,1.659,0,0,1-1.629-1.629,4.757,4.757,0,0,0-4.759-4.759,1.628,1.628,0,0,1,0-3.256,7.938,7.938,0,0,1,7.89,7.89,1.523,1.523,0,0,1-1.5,1.753" transform="translate(0 8.323)"/>
        <path id="Path_1495762" data-name="Path 1495762" d="M48.157,23.214a7.936,7.936,0,0,1-7.889-7.889,1.627,1.627,0,1,1,3.255,0,4.757,4.757,0,0,0,4.76,4.759,1.657,1.657,0,0,1,1.627,1.627,1.876,1.876,0,0,1-1.753,1.5" transform="translate(9.951 3.385)"/>
        <path id="Path_1495763" data-name="Path 1495763" d="M41.9,43.3a1.659,1.659,0,0,1-1.629-1.629,7.937,7.937,0,0,1,7.889-7.889,1.628,1.628,0,1,1,0,3.256A4.757,4.757,0,0,0,43.4,41.8a1.443,1.443,0,0,1-1.5,1.5" transform="translate(9.95 8.348)"/>
        <path id="Path_1495764" data-name="Path 1495764" d="M58.083,48.262H1.727A1.658,1.658,0,0,1,.1,46.633V15.326A1.657,1.657,0,0,1,1.727,13.7H58.083a1.657,1.657,0,0,1,1.627,1.629V46.633a1.658,1.658,0,0,1-1.627,1.629M3.356,45.13H56.58V16.953H3.356Z" transform="translate(0.025 3.385)"/>
        <path id="Path_1495765" data-name="Path 1495765" d="M34.363,15.578a1.594,1.594,0,0,1-.751-.125,1.54,1.54,0,0,1-.877-1.378v-3.13a1.628,1.628,0,0,1,3.256,0V11.2L41,7.813,35.992,4.432v.251a1.628,1.628,0,0,1-3.256,0V1.551A1.539,1.539,0,0,1,33.613.175,1.539,1.539,0,0,1,35.24.3l9.392,6.262a1.66,1.66,0,0,1,.752,1.252,1.373,1.373,0,0,1-.752,1.252L35.24,15.327a2.3,2.3,0,0,1-.877.251" transform="translate(8.089 0)"/>
        <path id="Path_1495766" data-name="Path 1495766" d="M37.465,11.867H21.811a1.657,1.657,0,0,1-1.627-1.627V3.977A1.657,1.657,0,0,1,21.811,2.35H37.465a1.658,1.658,0,0,1,1.629,1.627v6.262a1.658,1.658,0,0,1-1.629,1.627M23.44,8.736H35.962V5.6H23.44Z" transform="translate(4.988 0.581)"/>
        <path id="Path_1495767" data-name="Path 1495767" d="M16.142,58.257a2.332,2.332,0,0,1-.877-.251L5.873,51.745a1.658,1.658,0,0,1-.752-1.252,1.374,1.374,0,0,1,.752-1.252l9.392-6.262a1.586,1.586,0,0,1,2.5,1.252v3.13a1.628,1.628,0,1,1-3.256,0V47.11L9.5,50.492l5.008,3.381v-.251a1.628,1.628,0,0,1,3.256,0v3.131a1.538,1.538,0,0,1-.875,1.377,1.588,1.588,0,0,1-.752.126" transform="translate(1.265 10.547)"/>
        <path id="Path_1495768" data-name="Path 1495768" d="M29.934,54.545H14.281a1.658,1.658,0,0,1-1.629-1.627V46.656a1.659,1.659,0,0,1,1.629-1.629H29.934a1.659,1.659,0,0,1,1.629,1.629v6.262a1.658,1.658,0,0,1-1.629,1.627m-14.026-3.13H28.432v-3.13H15.908Z" transform="translate(3.126 11.127)"/>
      </g>
    </g>
  </g>
</svg>
