<svg xmlns="http://www.w3.org/2000/svg" xmlns:xlink="http://www.w3.org/1999/xlink" width="118" height="118" viewBox="0 0 118 118">
  <defs>
    <filter id="Rectangle_411831" x="0" y="0" width="118" height="118" filterUnits="userSpaceOnUse">
      <feOffset dy="3" input="SourceAlpha"/>
      <feGaussianBlur stdDeviation="3" result="blur"/>
      <feFlood flood-opacity="0.161"/>
      <feComposite operator="in" in2="blur"/>
      <feComposite in="SourceGraphic"/>
    </filter>
    <clipPath id="clip-path">
      <rect id="Rectangle_425816" data-name="Rectangle 425816" width="59.618" height="62.589" fill="none"/>
    </clipPath>
  </defs>
  <g id="Group_1228555" data-name="Group 1228555" transform="translate(-326.781 -3857)">
    <g id="Group_1203422" data-name="Group 1203422" transform="translate(-465 1901)">
      <g id="Group_1203409" data-name="Group 1203409" transform="translate(465 -1896)">
        <g transform="matrix(1, 0, 0, 1, 326.78, 3852)" filter="url(#Rectangle_411831)">
          <g id="Rectangle_411831-2" data-name="Rectangle 411831" transform="translate(9 6)" fill="#37f1e9" stroke="#fff" stroke-width="2">
            <path d="M5,0H68a32,32,0,0,1,32,32V95a5,5,0,0,1-5,5H32A32,32,0,0,1,0,68V5A5,5,0,0,1,5,0Z" stroke="none"/>
            <path d="M5,1H68A31,31,0,0,1,99,32V95a4,4,0,0,1-4,4H32A31,31,0,0,1,1,68V5A4,4,0,0,1,5,1Z" fill="none"/>
          </g>
        </g>
      </g>
    </g>
    <g id="Group_1228563" data-name="Group 1228563" transform="translate(355.972 3881.706)">
      <rect id="Rectangle_425810" data-name="Rectangle 425810" width="11.988" height="4.032" transform="translate(42.327 53.359)" fill="#da5359"/>
      <g id="Group_1228562" data-name="Group 1228562" transform="translate(0 0)">
        <g id="Group_1228561" data-name="Group 1228561" clip-path="url(#clip-path)">
          <path id="Path_1495211" data-name="Path 1495211" d="M41.421,38.669l-29.384-.425H10.764A9.667,9.667,0,0,1,8.642,19.149v-.212A9.69,9.69,0,0,1,18.3,9.284a11.237,11.237,0,0,1,3.289.531A12.349,12.349,0,0,1,33.465,1.009,12.159,12.159,0,0,1,45.877,13.1,12.681,12.681,0,0,1,58.289,25.727c0,6.788-5.729,12.942-12.517,12.942h-4.35Z" transform="translate(0.057 0.052)" fill="#86dcfd"/>
          <rect id="Rectangle_425811" data-name="Rectangle 425811" width="11.988" height="4.032" transform="translate(42.327 57.284)" fill="#ef727a"/>
          <path id="Path_1495212" data-name="Path 1495212" d="M52.154,46.934v4.032H40.273V46.934H52.154Z" transform="translate(2.054 2.394)" fill="#ef727a"/>
          <rect id="Rectangle_425812" data-name="Rectangle 425812" width="11.987" height="4.032" transform="translate(25.036 57.284)" fill="#febe76"/>
          <rect id="Rectangle_425813" data-name="Rectangle 425813" width="11.987" height="4.032" transform="translate(25.036 53.36)" fill="#e8a664"/>
          <path id="Path_1495213" data-name="Path 1495213" d="M35.808,46.934v4.032H23.821V46.934H35.808Z" transform="translate(1.215 2.394)" fill="#febe76"/>
          <rect id="Rectangle_425814" data-name="Rectangle 425814" width="11.988" height="4.032" transform="translate(7.85 57.284)" fill="#d7deed"/>
          <rect id="Rectangle_425815" data-name="Rectangle 425815" width="11.988" height="4.032" transform="translate(7.85 53.36)" fill="#afb9d2"/>
          <path id="Path_1495214" data-name="Path 1495214" d="M19.351,46.934v4.032H7.469V46.934H19.351Z" transform="translate(0.381 2.394)" fill="#d7deed"/>
          <path id="Path_1495215" data-name="Path 1495215" d="M29.54,48.895a1.4,1.4,0,0,1-1.379-1.379V36.908a1.379,1.379,0,1,1,2.758,0V47.516a1.4,1.4,0,0,1-1.379,1.379" transform="translate(1.436 1.813)"/>
          <path id="Path_1495216" data-name="Path 1495216" d="M34.584,18.411a1.2,1.2,0,0,1-.849-.318,1.445,1.445,0,0,1-.212-1.909A13.458,13.458,0,0,1,43.812,11.3a1.379,1.379,0,1,1,0,2.759,10.5,10.5,0,0,0-8.274,3.926,1.163,1.163,0,0,1-.954.424" transform="translate(1.697 0.577)"/>
          <path id="Path_1495217" data-name="Path 1495217" d="M15.76,21.842a1.205,1.205,0,0,1-.849-.318,8.362,8.362,0,0,0-6.259-1.91,1.336,1.336,0,0,1-.318-2.653A10.708,10.708,0,0,1,16.608,19.4a1.335,1.335,0,0,1,.106,1.909.928.928,0,0,1-.954.531" transform="translate(0.365 0.86)"/>
          <path id="Path_1495218" data-name="Path 1495218" d="M39.528,38.922a1.306,1.306,0,0,1-1.167-.742,1.245,1.245,0,0,1,.637-1.7c4.137-1.7,6.682-4.243,7.532-7.532a8.746,8.746,0,0,0,.106-4.243,1.312,1.312,0,1,1,2.546-.638,11.889,11.889,0,0,1-.105,5.729c-.743,2.864-2.971,6.683-9.124,9.23h-.106c0-.213-.212-.107-.318-.107" transform="translate(1.95 1.177)"/>
          <path id="Path_1495219" data-name="Path 1495219" d="M45.828,40.1H41.584L12.2,39.674H10.926A10.91,10.91,0,0,1,0,28.748a10.736,10.736,0,0,1,2.439-6.9,11.917,11.917,0,0,1,5.092-3.5A11.07,11.07,0,0,1,18.458,8.168a9.628,9.628,0,0,1,2.44.317,13.812,13.812,0,0,1,4.455-5.728A13.618,13.618,0,0,1,33.628,0a13.821,13.821,0,0,1,9.654,3.818,12.46,12.46,0,0,1,3.926,8.275,12.954,12.954,0,0,1,8.38,4.138,14.182,14.182,0,0,1,4.032,9.76C59.512,33.522,53.253,40.1,45.828,40.1m-2.334-2.651h2.334c5.94,0,11.032-5.3,11.032-11.457A11.372,11.372,0,0,0,45.828,14.639a1.405,1.405,0,0,1-1.38-1.38A10.758,10.758,0,0,0,33.416,2.546,11.043,11.043,0,0,0,22.808,10.4a1.644,1.644,0,0,1-.637.848,1.258,1.258,0,0,1-1.06.107,8.574,8.574,0,0,0-2.865-.531,8.285,8.285,0,0,0-8.275,8.275v.211A1.259,1.259,0,0,1,8.91,20.58a8.267,8.267,0,0,0,1.8,16.337h1.273Z" transform="translate(0 0)"/>
          <path id="Path_1495220" data-name="Path 1495220" d="M35.88,52.31A1.4,1.4,0,0,1,34.5,50.931V48.279H25.166v2.652a1.379,1.379,0,1,1-2.758,0V46.9a1.4,1.4,0,0,1,1.379-1.38H35.774a1.4,1.4,0,0,1,1.379,1.38v4.031A1.388,1.388,0,0,1,35.88,52.31" transform="translate(1.143 2.322)"/>
          <path id="Path_1495221" data-name="Path 1495221" d="M35.88,56.146A1.4,1.4,0,0,1,34.5,54.767V52.114H25.166v2.653a1.379,1.379,0,1,1-2.758,0V50.735a1.4,1.4,0,0,1,1.379-1.379H35.774a1.4,1.4,0,0,1,1.379,1.379v4.032a1.388,1.388,0,0,1-1.273,1.379" transform="translate(1.143 2.518)"/>
          <path id="Path_1495222" data-name="Path 1495222" d="M35.875,59.874H23.888A1.4,1.4,0,0,1,22.509,58.5V54.571a1.4,1.4,0,0,1,1.379-1.379H35.875a1.4,1.4,0,0,1,1.38,1.379V58.6a1.574,1.574,0,0,1-1.38,1.273M25.267,57.223H34.5V55.845H25.161v1.378Z" transform="translate(1.148 2.714)"/>
          <path id="Path_1495223" data-name="Path 1495223" d="M47.67,48.637a1.4,1.4,0,0,1-1.379-1.379V43.228H14.466v4.031a1.379,1.379,0,0,1-2.758,0v-5.3a1.4,1.4,0,0,1,1.379-1.38H47.564a1.4,1.4,0,0,1,1.379,1.38v5.3a1.315,1.315,0,0,1-1.273,1.379" transform="translate(0.597 2.07)"/>
          <path id="Path_1495224" data-name="Path 1495224" d="M19.423,52.31a1.4,1.4,0,0,1-1.379-1.379V48.279H8.814v2.652a1.379,1.379,0,0,1-2.758,0V46.9a1.4,1.4,0,0,1,1.379-1.38H19.423A1.4,1.4,0,0,1,20.8,46.9v4.031a1.4,1.4,0,0,1-1.379,1.379" transform="translate(0.309 2.322)"/>
          <path id="Path_1495225" data-name="Path 1495225" d="M19.423,56.146a1.4,1.4,0,0,1-1.379-1.379V52.114H8.814v2.653a1.379,1.379,0,0,1-2.758,0V50.735a1.4,1.4,0,0,1,1.379-1.379H19.423A1.4,1.4,0,0,1,20.8,50.735v4.032a1.4,1.4,0,0,1-1.379,1.379" transform="translate(0.309 2.518)"/>
          <path id="Path_1495226" data-name="Path 1495226" d="M19.418,59.875H7.536A1.4,1.4,0,0,1,6.157,58.5V54.571a1.4,1.4,0,0,1,1.379-1.378H19.418A1.4,1.4,0,0,1,20.8,54.571V58.6a1.389,1.389,0,0,1-1.379,1.273M8.809,57.224h9.335V55.846H8.809Z" transform="translate(0.314 2.714)"/>
          <path id="Path_1495227" data-name="Path 1495227" d="M52.222,52.3a1.4,1.4,0,0,1-1.379-1.379V48.274H41.508v2.652A1.4,1.4,0,0,1,40.129,52.3a1.2,1.2,0,0,1-1.168-1.273V47a1.4,1.4,0,0,1,1.379-1.378H52.328A1.4,1.4,0,0,1,53.707,47v4.032A1.587,1.587,0,0,1,52.222,52.3" transform="translate(1.987 2.327)"/>
          <path id="Path_1495228" data-name="Path 1495228" d="M52.222,56.146a1.4,1.4,0,0,1-1.379-1.379V52.114H41.508v2.653a1.4,1.4,0,0,1-1.379,1.379,1.235,1.235,0,0,1-1.168-1.379V50.735a1.4,1.4,0,0,1,1.379-1.379H52.328a1.4,1.4,0,0,1,1.379,1.379v4.032a1.583,1.583,0,0,1-1.485,1.379" transform="translate(1.987 2.518)"/>
          <path id="Path_1495229" data-name="Path 1495229" d="M52.222,59.875H40.34A1.4,1.4,0,0,1,38.961,58.5V54.571a1.4,1.4,0,0,1,1.379-1.378H52.328a1.4,1.4,0,0,1,1.379,1.378V58.6a1.588,1.588,0,0,1-1.485,1.273M41.613,57.224h9.335V55.846H41.613Z" transform="translate(1.987 2.714)"/>
        </g>
      </g>
    </g>
  </g>
</svg>
