<svg xmlns="http://www.w3.org/2000/svg" xmlns:xlink="http://www.w3.org/1999/xlink" width="118" height="118" viewBox="0 0 118 118">
  <defs>
    <filter id="Rectangle_411831" x="0" y="0" width="118" height="118" filterUnits="userSpaceOnUse">
      <feOffset dy="3" input="SourceAlpha"/>
      <feGaussianBlur stdDeviation="3" result="blur"/>
      <feFlood flood-opacity="0.161"/>
      <feComposite operator="in" in2="blur"/>
      <feComposite in="SourceGraphic"/>
    </filter>
    <clipPath id="clip-path">
      <rect id="Rectangle_425907" data-name="Rectangle 425907" width="66.12" height="68.885" fill="none"/>
    </clipPath>
  </defs>
  <g id="Group_1228631" data-name="Group 1228631" transform="translate(-326.781 -3852)">
    <g transform="matrix(1, 0, 0, 1, 326.78, 3852)" filter="url(#Rectangle_411831)">
      <g id="Rectangle_411831-2" data-name="Rectangle 411831" transform="translate(9 6)" fill="#b8a9f1" stroke="#fff" stroke-width="2">
        <path d="M5,0H68a32,32,0,0,1,32,32V95a5,5,0,0,1-5,5H32A32,32,0,0,1,0,68V5A5,5,0,0,1,5,0Z" stroke="none"/>
        <path d="M5,1H68A31,31,0,0,1,99,32V95a4,4,0,0,1-4,4H32A31,31,0,0,1,1,68V5A4,4,0,0,1,5,1Z" fill="none"/>
      </g>
    </g>
    <g id="Group_1228635" data-name="Group 1228635" transform="translate(352.721 3873.557)">
      <g id="Group_1228634" data-name="Group 1228634" transform="translate(0 0)" clip-path="url(#clip-path)">
        <path id="Path_1495722" data-name="Path 1495722" d="M3.815,6.326v23.5a6.809,6.809,0,0,0,6.8,6.8h32.6a6.809,6.809,0,0,0,6.8-6.8V6.326Z" transform="translate(0.561 0.93)" fill="#ecf0f1"/>
        <path id="Path_1495723" data-name="Path 1495723" d="M41.322,17.272a7.428,7.428,0,0,1,.806,3.226,7.257,7.257,0,1,1-14.513,0h7.257l5.759-2.88Z" transform="translate(4.063 2.541)" fill="#c6613e"/>
        <path id="Path_1495724" data-name="Path 1495724" d="M40.391,17.789l-.692.345-5.759,2.88V13.757a7.536,7.536,0,0,1,6.45,4.032" transform="translate(4.994 2.024)" fill="#d25400"/>
        <path id="Path_1495725" data-name="Path 1495725" d="M34.872,13.858V21H27.615a7.2,7.2,0,0,1,7.257-7.142" transform="translate(4.063 2.038)" fill="#ea7e23"/>
        <path id="Path_1495726" data-name="Path 1495726" d="M47.622,46.192l2.65,6.566-2.65,2.765-2.534-2.765Z" transform="translate(6.634 6.796)" fill="#3c3b3d"/>
        <path id="Path_1495727" data-name="Path 1495727" d="M29.26,46.192l2.65,6.566-2.65,2.765-2.65-2.765Z" transform="translate(3.915 6.796)" fill="#313a52"/>
        <path id="Path_1495728" data-name="Path 1495728" d="M48.656,46.192l-2.65,6.566,2.65,2.765,2.65-2.765-2.65-6.566a10.57,10.57,0,0,1,10.6,10.6,8.847,8.847,0,0,1-.806,3.916H38.864a11.317,11.317,0,0,1-.805-3.916,10.717,10.717,0,0,1,10.6-10.6" transform="translate(5.599 6.796)" fill="#ef727a"/>
        <path id="Path_1495729" data-name="Path 1495729" d="M30.279,46.192a10.57,10.57,0,0,1,10.6,10.6,8.846,8.846,0,0,1-.805,3.916H20.488a11.292,11.292,0,0,1-.806-3.916,10.718,10.718,0,0,1,10.6-10.6l-2.65,6.566,2.65,2.765,2.65-2.765Z" transform="translate(2.896 6.796)" fill="#65b2fe"/>
        <path id="Path_1495730" data-name="Path 1495730" d="M47.977,36.954a5.3,5.3,0,1,1-5.3,5.3,5.284,5.284,0,0,1,5.3-5.3" transform="translate(6.279 5.436)" fill="#ffd8a8"/>
        <path id="Path_1495731" data-name="Path 1495731" d="M29.6,36.954a5.3,5.3,0,1,1,0,10.6,5.214,5.214,0,0,1-5.3-5.3,5.284,5.284,0,0,1,5.3-5.3" transform="translate(3.575 5.436)" fill="#ffd8a8"/>
        <path id="Path_1495732" data-name="Path 1495732" d="M53.717,6.158a2.777,2.777,0,0,1-2.074.806H4.184a2.852,2.852,0,0,1-2.879-2.88,3.31,3.31,0,0,1,.806-2.073,2.612,2.612,0,0,1,2.073-.806H51.759a2.852,2.852,0,0,1,2.88,2.879,2.694,2.694,0,0,1-.922,2.074" transform="translate(0.192 0.177)" fill="#b3b3b3"/>
        <rect id="Rectangle_425902" data-name="Rectangle 425902" width="2.88" height="14.399" transform="translate(26.033 15.897)"/>
        <rect id="Rectangle_425903" data-name="Rectangle 425903" width="2.88" height="13.018" transform="translate(21.655 17.278)"/>
        <rect id="Rectangle_425904" data-name="Rectangle 425904" width="2.879" height="11.519" transform="translate(17.394 18.776)"/>
        <rect id="Rectangle_425905" data-name="Rectangle 425905" width="2.88" height="10.137" transform="translate(13.016 20.158)"/>
        <rect id="Rectangle_425906" data-name="Rectangle 425906" width="2.879" height="8.64" transform="translate(8.755 21.655)"/>
        <path id="Path_1495733" data-name="Path 1495733" d="M29.777,49.111a6.681,6.681,0,1,1,6.681-6.681,6.612,6.612,0,0,1-6.681,6.681m0-10.482a3.8,3.8,0,1,0,3.8,3.8,3.692,3.692,0,0,0-3.8-3.8" transform="translate(3.398 5.259)"/>
        <path id="Path_1495734" data-name="Path 1495734" d="M29.443,57.1h0a1.252,1.252,0,0,1-1.037-.46l-2.649-2.765a1.83,1.83,0,0,1-.346-1.5l2.65-6.566a1.5,1.5,0,0,1,2.765,0l2.649,6.566a1.221,1.221,0,0,1-.344,1.5l-2.65,2.765a1.123,1.123,0,0,1-1.037.46M28.522,52.6l.921,1.037.921-1.037-.921-2.419Z" transform="translate(3.732 6.604)"/>
        <path id="Path_1495735" data-name="Path 1495735" d="M40.263,62.282H20.681A1.5,1.5,0,0,1,19.3,61.36a11.981,11.981,0,1,1,22.117,0,1.046,1.046,0,0,1-1.152.922M21.716,59.4h17.51a9.1,9.1,0,1,0-17.51,0" transform="translate(2.704 6.604)"/>
        <path id="Path_1495736" data-name="Path 1495736" d="M48.154,49.111a6.681,6.681,0,1,1,6.681-6.681,6.543,6.543,0,0,1-6.681,6.681m0-10.482a3.8,3.8,0,1,0,3.8,3.8,3.76,3.76,0,0,0-3.8-3.8" transform="translate(6.102 5.259)"/>
        <path id="Path_1495737" data-name="Path 1495737" d="M47.82,57.1h0a1.254,1.254,0,0,1-1.038-.46l-2.649-2.765a1.838,1.838,0,0,1-.345-1.5l2.65-6.566a1.5,1.5,0,0,1,2.765,0l2.649,6.566a1.221,1.221,0,0,1-.345,1.5l-2.65,2.765a1.121,1.121,0,0,1-1.036.46M46.9,52.6l.922,1.037.92-1.037-.92-2.419Z" transform="translate(6.436 6.604)"/>
        <path id="Path_1495738" data-name="Path 1495738" d="M58.639,62.282H39.056a1.493,1.493,0,0,1-1.381-.922,11.98,11.98,0,1,1,22.117,0,1.047,1.047,0,0,1-1.153.922M40.093,59.4H57.6a9.1,9.1,0,1,0-17.51,0" transform="translate(5.407 6.604)"/>
        <path id="Path_1495739" data-name="Path 1495739" d="M43.274,38.2H10.79a8.21,8.21,0,0,1-8.179-8.179V6.518a1.524,1.524,0,0,1,1.5-1.5,1.524,1.524,0,0,1,1.5,1.5v23.5a5.285,5.285,0,0,0,5.3,5.3H43.5a5.284,5.284,0,0,0,5.3-5.3V6.518a1.5,1.5,0,0,1,3,0v23.5A8.592,8.592,0,0,1,43.274,38.2" transform="translate(0.384 0.738)"/>
        <path id="Path_1495740" data-name="Path 1495740" d="M51.951,8.639H4.376A4.375,4.375,0,0,1,0,4.262a4.662,4.662,0,0,1,1.266-3.11A5.174,5.174,0,0,1,4.376,0H51.951a4.375,4.375,0,0,1,4.377,4.377,4.67,4.67,0,0,1-1.266,3.11,5.17,5.17,0,0,1-3.111,1.152M4.376,2.879A1.407,1.407,0,0,0,3.34,3.34a1.461,1.461,0,0,0-.462,1.037,1.525,1.525,0,0,0,1.5,1.5H51.951a1.408,1.408,0,0,0,1.037-.46,1.722,1.722,0,0,0,.46-1.037,1.525,1.525,0,0,0-1.5-1.5Z" transform="translate(0 0)"/>
        <path id="Path_1495741" data-name="Path 1495741" d="M35.049,29.832a8.64,8.64,0,1,1,7.718-12.556,8.909,8.909,0,0,1,.921,3.916,8.7,8.7,0,0,1-8.639,8.64m0-14.4a5.76,5.76,0,1,0,5.76,5.76,6.868,6.868,0,0,0-.576-2.65,5.789,5.789,0,0,0-5.184-3.11" transform="translate(3.886 1.846)"/>
        <path id="Path_1495742" data-name="Path 1495742" d="M35.064,22.7H27.807a1.5,1.5,0,1,1,0-3h5.759v-5.76a1.5,1.5,0,1,1,3,0v7.257a1.525,1.525,0,0,1-1.5,1.5" transform="translate(3.871 1.831)"/>
        <path id="Path_1495743" data-name="Path 1495743" d="M34.123,22.133a1.449,1.449,0,0,1-.576-2.765l5.76-2.879a1.468,1.468,0,1,1,1.266,2.649l-5.759,2.879c-.232,0-.462.116-.692.116" transform="translate(4.811 2.403)"/>
        <path id="Path_1495744" data-name="Path 1495744" d="M14.788,11.731H9.029a1.5,1.5,0,1,1,0-3h5.759a1.5,1.5,0,1,1,0,3" transform="translate(1.108 1.285)"/>
        <path id="Path_1495745" data-name="Path 1495745" d="M14.788,15.447H9.029a1.5,1.5,0,1,1,0-3h5.759a1.5,1.5,0,1,1,0,3" transform="translate(1.108 1.832)"/>
      </g>
    </g>
  </g>
</svg>
