<svg xmlns="http://www.w3.org/2000/svg" xmlns:xlink="http://www.w3.org/1999/xlink" width="118" height="118" viewBox="0 0 118 118">
  <defs>
    <filter id="Rectangle_411831" x="0" y="0" width="118" height="118" filterUnits="userSpaceOnUse">
      <feOffset dy="3" input="SourceAlpha"/>
      <feGaussianBlur stdDeviation="3" result="blur"/>
      <feFlood flood-opacity="0.161"/>
      <feComposite operator="in" in2="blur"/>
      <feComposite in="SourceGraphic"/>
    </filter>
    <clipPath id="clip-path">
      <rect id="Rectangle_425939" data-name="Rectangle 425939" width="48.703" height="67.339" fill="none"/>
    </clipPath>
  </defs>
  <g id="Group_1228661" data-name="Group 1228661" transform="translate(-326.781 -3852)">
    <g transform="matrix(1, 0, 0, 1, 326.78, 3852)" filter="url(#Rectangle_411831)">
      <g id="Rectangle_411831-2" data-name="Rectangle 411831" transform="translate(9 6)" fill="#b8a9f1" stroke="#fff" stroke-width="2">
        <path d="M5,0H68a32,32,0,0,1,32,32V95a5,5,0,0,1-5,5H32A32,32,0,0,1,0,68V5A5,5,0,0,1,5,0Z" stroke="none"/>
        <path d="M5,1H68A31,31,0,0,1,99,32V95a4,4,0,0,1-4,4H32A31,31,0,0,1,1,68V5A4,4,0,0,1,5,1Z" fill="none"/>
      </g>
    </g>
    <g id="Group_1228670" data-name="Group 1228670" transform="translate(361.43 3874.331)">
      <g id="Group_1228669" data-name="Group 1228669" transform="translate(0 0)" clip-path="url(#clip-path)">
        <path id="Path_1495970" data-name="Path 1495970" d="M42.7,1.413H9.886V9.987H1.312V58.576H42.583c0-.458.116-47.674.116-57.163" transform="translate(0.174 0.188)" fill="#ecf0f1"/>
        <path id="Path_1495971" data-name="Path 1495971" d="M42.69,22.912V52.866l-4.344,10.06-3.088-7.2-1.143-2.858V22.912Z" transform="translate(4.526 3.04)" fill="#3c3b3d"/>
        <rect id="Rectangle_425938" data-name="Rectangle 425938" width="8.574" height="4.344" transform="translate(38.641 21.608)" fill="#b53532"/>
        <path id="Path_1495972" data-name="Path 1495972" d="M42.69,15.347v4.574H34.116V15.347a2.587,2.587,0,0,1,2.63-2.629h3.315a2.827,2.827,0,0,1,2.629,2.629" transform="translate(4.526 1.688)" fill="#f14742"/>
        <path id="Path_1495973" data-name="Path 1495973" d="M9.886,1.413V9.987H1.312C5.085,6.1,6,5.3,9.886,1.413" transform="translate(0.174 0.188)" fill="#bec3c7"/>
        <path id="Path_1495974" data-name="Path 1495974" d="M10.06,11.661H1.486a1.486,1.486,0,0,1,0-2.972H8.574v-7.2a1.486,1.486,0,0,1,2.972,0v8.689a1.7,1.7,0,0,1-1.486,1.486" transform="translate(0 0)"/>
        <path id="Path_1495975" data-name="Path 1495975" d="M39.785,60.236H1.486A1.513,1.513,0,0,1,0,58.75V10.161a1.4,1.4,0,0,1,.456-1.03L9.032.557A1.7,1.7,0,0,1,10.06.1H42.873a1.512,1.512,0,0,1,1.485,1.486V14.505a1.486,1.486,0,0,1-2.972,0V3.073H10.518L2.859,10.732V57.264H39.785a1.486,1.486,0,1,1,0,2.972" transform="translate(0 0.014)"/>
        <path id="Path_1495976" data-name="Path 1495976" d="M38.519,65.811a1.24,1.24,0,0,1-1.257-.914L32.917,54.835c-.113-.114-.113-.228-.113-.456V15.508a3.975,3.975,0,0,1,4-4h3.316a3.975,3.975,0,0,1,4,4V54.379a1.033,1.033,0,0,1-.114.572l-4.345,10.06c0,.456-.572.8-1.143.8M35.662,54.036l2.858,6.631,2.859-6.631V15.508a1.145,1.145,0,0,0-1.144-1.143H36.919a1.144,1.144,0,0,0-1.143,1.143Z" transform="translate(4.352 1.527)"/>
        <path id="Path_1495977" data-name="Path 1495977" d="M42.864,20.737H34.29a1.486,1.486,0,1,1,0-2.972h8.574a1.512,1.512,0,0,1,1.486,1.486,1.7,1.7,0,0,1-1.486,1.486" transform="translate(4.352 2.357)"/>
        <path id="Path_1495978" data-name="Path 1495978" d="M42.864,24.471H34.29a1.486,1.486,0,1,1,0-2.971h8.574a1.512,1.512,0,0,1,1.486,1.486,1.7,1.7,0,0,1-1.486,1.485" transform="translate(4.352 2.853)"/>
        <path id="Path_1495979" data-name="Path 1495979" d="M20.824,18.213H6.533a1.486,1.486,0,0,1,0-2.972H20.824a1.513,1.513,0,0,1,1.486,1.486,1.7,1.7,0,0,1-1.486,1.486" transform="translate(0.67 2.022)"/>
        <path id="Path_1495980" data-name="Path 1495980" d="M20.824,21.948H6.533a1.486,1.486,0,1,1,0-2.972H20.824a1.513,1.513,0,0,1,1.486,1.486,1.7,1.7,0,0,1-1.486,1.486" transform="translate(0.67 2.518)"/>
        <path id="Path_1495981" data-name="Path 1495981" d="M32.256,25.784H6.532a1.487,1.487,0,0,1,0-2.973H32.256A1.514,1.514,0,0,1,33.742,24.3a1.7,1.7,0,0,1-1.486,1.486" transform="translate(0.67 3.027)"/>
        <path id="Path_1495982" data-name="Path 1495982" d="M32.256,29.518H6.532a1.486,1.486,0,0,1,0-2.972H32.256a1.514,1.514,0,0,1,1.486,1.486,1.7,1.7,0,0,1-1.486,1.486" transform="translate(0.67 3.522)"/>
        <path id="Path_1495983" data-name="Path 1495983" d="M32.256,33.353H6.532a1.486,1.486,0,0,1,0-2.972H32.256a1.513,1.513,0,0,1,1.486,1.486,1.6,1.6,0,0,1-1.486,1.486" transform="translate(0.67 4.031)"/>
        <path id="Path_1495984" data-name="Path 1495984" d="M32.256,37.088H6.532a1.487,1.487,0,0,1,0-2.973H32.256A1.514,1.514,0,0,1,33.742,35.6a1.6,1.6,0,0,1-1.486,1.486" transform="translate(0.67 4.527)"/>
        <path id="Path_1495985" data-name="Path 1495985" d="M32.256,40.924H6.532a1.486,1.486,0,0,1,0-2.972H32.256a1.513,1.513,0,0,1,1.486,1.486,1.6,1.6,0,0,1-1.486,1.486" transform="translate(0.67 5.036)"/>
        <path id="Path_1495986" data-name="Path 1495986" d="M28.08,48.981H25.222a1.579,1.579,0,0,1-1.258-.686,1.9,1.9,0,0,1-.113-1.372v-.114l-2.744.686a1.429,1.429,0,0,1-1.487-.458,1.211,1.211,0,0,1-.113-1.486v-.114l-2.744.686a1.415,1.415,0,0,1-.686-2.744l5.717-1.486a1.429,1.429,0,0,1,1.487.458,1.209,1.209,0,0,1,.113,1.486v.114l2.744-.686a1.428,1.428,0,0,1,1.486.458,1.211,1.211,0,0,1,.114,1.486l-.342.8h.57A1.513,1.513,0,0,1,29.451,47.5a1.5,1.5,0,0,1-1.372,1.486" transform="translate(1.988 5.553)"/>
      </g>
    </g>
  </g>
</svg>
