<svg xmlns="http://www.w3.org/2000/svg" xmlns:xlink="http://www.w3.org/1999/xlink" width="118" height="118" viewBox="0 0 118 118">
  <defs>
    <filter id="Rectangle_411831" x="0" y="0" width="118" height="118" filterUnits="userSpaceOnUse">
      <feOffset dy="3" input="SourceAlpha"/>
      <feGaussianBlur stdDeviation="3" result="blur"/>
      <feFlood flood-opacity="0.161"/>
      <feComposite operator="in" in2="blur"/>
      <feComposite in="SourceGraphic"/>
    </filter>
    <clipPath id="clip-path">
      <rect id="Rectangle_425937" data-name="Rectangle 425937" width="70.931" height="62.098" fill="none"/>
    </clipPath>
  </defs>
  <g id="Group_1228659" data-name="Group 1228659" transform="translate(-326.781 -3852)">
    <g transform="matrix(1, 0, 0, 1, 326.78, 3852)" filter="url(#Rectangle_411831)">
      <g id="Rectangle_411831-2" data-name="Rectangle 411831" transform="translate(9 6)" fill="#b8a9f1" stroke="#fff" stroke-width="2">
        <path d="M5,0H68a32,32,0,0,1,32,32V95a5,5,0,0,1-5,5H32A32,32,0,0,1,0,68V5A5,5,0,0,1,5,0Z" stroke="none"/>
        <path d="M5,1H68A31,31,0,0,1,99,32V95a4,4,0,0,1-4,4H32A31,31,0,0,1,1,68V5A4,4,0,0,1,5,1Z" fill="none"/>
      </g>
    </g>
    <g id="Group_1228668" data-name="Group 1228668" transform="translate(350.316 3876.951)">
      <g id="Group_1228667" data-name="Group 1228667" transform="translate(0 0)" clip-path="url(#clip-path)">
        <path id="Path_1495953" data-name="Path 1495953" d="M46.932,35.327A13.953,13.953,0,0,1,60.859,49.253,12.4,12.4,0,0,1,59.8,54.447H34.068a13.209,13.209,0,0,1-1.062-5.194,14.377,14.377,0,0,1,.944-5.075,13.905,13.905,0,0,1,12.982-8.851" transform="translate(5.587 5.98)" fill="#65b2fe"/>
        <path id="Path_1495954" data-name="Path 1495954" d="M17.661,35.327a14.025,14.025,0,0,1,12.982,8.851,14.377,14.377,0,0,1,.944,5.075,12.4,12.4,0,0,1-1.062,5.194H4.8a13.209,13.209,0,0,1-1.062-5.194A14.029,14.029,0,0,1,17.661,35.327" transform="translate(0.632 5.98)" fill="#65b2fe"/>
        <path id="Path_1495955" data-name="Path 1495955" d="M31.99,1.312a11.8,11.8,0,1,1-11.8,11.8,11.837,11.837,0,0,1,11.8-11.8" transform="translate(3.417 0.222)" fill="#80af52"/>
        <path id="Path_1495956" data-name="Path 1495956" d="M16.653,23.518A6.963,6.963,0,1,1,9.69,30.481a6.975,6.975,0,0,1,6.963-6.963" transform="translate(1.64 3.981)" fill="#ffd8a8"/>
        <path id="Path_1495957" data-name="Path 1495957" d="M45.924,23.518a6.963,6.963,0,1,1-6.963,6.963,6.9,6.9,0,0,1,6.963-6.963" transform="translate(6.595 3.981)" fill="#ffd8a8"/>
        <path id="Path_1495958" data-name="Path 1495958" d="M45.429,35.327l3.422,8.733-3.422,3.659-3.541-3.659Z" transform="translate(7.091 5.98)" fill="#313a52"/>
        <path id="Path_1495959" data-name="Path 1495959" d="M16.14,35.327l3.541,8.733L16.14,47.719l-3.422-3.659Z" transform="translate(2.153 5.98)" fill="#313a52"/>
        <path id="Path_1495960" data-name="Path 1495960" d="M16.858,39.065a8.379,8.379,0,1,1,8.38-8.379,8.264,8.264,0,0,1-8.38,8.379m0-13.926a5.429,5.429,0,1,0,5.429,5.429,5.341,5.341,0,0,0-5.429-5.429" transform="translate(1.435 3.776)"/>
        <path id="Path_1495961" data-name="Path 1495961" d="M16.352,49.34a1.281,1.281,0,0,1-1.062-.471l-3.422-3.542a1.877,1.877,0,0,1-.354-1.534l3.422-8.733a1.423,1.423,0,0,1,1.416-.944,1.532,1.532,0,0,1,1.416.944l3.422,8.733a1.251,1.251,0,0,1-.353,1.534l-3.422,3.542a1.153,1.153,0,0,1-1.063.471M14.7,43.911l1.77,1.77,1.77-1.77-1.77-4.366Z" transform="translate(1.941 5.775)"/>
        <path id="Path_1495962" data-name="Path 1495962" d="M30.849,56.186a1.065,1.065,0,0,1-.59-.118,1.6,1.6,0,0,1-.826-1.888,12.964,12.964,0,0,0,.944-4.72,12.679,12.679,0,0,0-.826-4.6,12.439,12.439,0,0,0-11.566-7.908A12.594,12.594,0,0,0,5.474,49.459a12.964,12.964,0,0,0,.944,4.72,1.353,1.353,0,0,1-.826,1.888A1.352,1.352,0,0,1,3.7,55.241a16.306,16.306,0,0,1-1.181-5.782,15.355,15.355,0,0,1,29.624-5.665,15.1,15.1,0,0,1,1.063,5.665,14.082,14.082,0,0,1-1.181,5.782,1.15,1.15,0,0,1-1.18.945" transform="translate(0.427 5.775)"/>
        <path id="Path_1495963" data-name="Path 1495963" d="M46.129,39.065a8.379,8.379,0,1,1,8.38-8.379,8.412,8.412,0,0,1-8.38,8.379m0-13.926a5.429,5.429,0,1,0,5.429,5.429,5.492,5.492,0,0,0-5.429-5.429" transform="translate(6.39 3.776)"/>
        <path id="Path_1495964" data-name="Path 1495964" d="M45.623,49.34h0a1.282,1.282,0,0,1-1.062-.471l-3.422-3.542a1.877,1.877,0,0,1-.354-1.534l3.422-8.733a1.423,1.423,0,0,1,1.416-.944,1.535,1.535,0,0,1,1.417.944l3.421,8.733a1.251,1.251,0,0,1-.353,1.534l-3.422,3.542a1.445,1.445,0,0,1-1.063.471m-1.77-5.429,1.77,1.77,1.77-1.77-1.77-4.366Z" transform="translate(6.896 5.775)"/>
        <path id="Path_1495965" data-name="Path 1495965" d="M60,56.169a1.059,1.059,0,0,1-.589-.118,1.594,1.594,0,0,1-.827-1.888,12.964,12.964,0,0,0,.944-4.72,12.4,12.4,0,0,0-23.958-4.485,11.838,11.838,0,0,0-.826,4.6,12.941,12.941,0,0,0,.945,4.72,1.458,1.458,0,1,1-2.715,1.062,16.311,16.311,0,0,1-1.181-5.782,15.112,15.112,0,0,1,1.063-5.666A15.356,15.356,0,0,1,62.48,49.56,14.086,14.086,0,0,1,61.3,55.342a1.328,1.328,0,0,1-1.3.827" transform="translate(5.382 5.792)"/>
        <path id="Path_1495966" data-name="Path 1495966" d="M39,44.653H24.245a1.534,1.534,0,1,1,0-3.068H39a1.561,1.561,0,0,1,1.534,1.534A1.752,1.752,0,0,1,39,44.653" transform="translate(3.844 7.04)"/>
        <path id="Path_1495967" data-name="Path 1495967" d="M32.212,26.554A13.277,13.277,0,1,1,45.547,13.336,13.323,13.323,0,0,1,32.212,26.554m0-23.6a10.327,10.327,0,1,0,0,20.653,10.327,10.327,0,1,0,0-20.653" transform="translate(3.195 0)"/>
        <path id="Path_1495968" data-name="Path 1495968" d="M28.739,18.509a1.444,1.444,0,0,1-1.063-.472L24.49,14.85a1.5,1.5,0,0,1,2.125-2.125l2.125,2.125,7.317-7.317a1.5,1.5,0,1,1,2.125,2.125L29.8,18.037a1.44,1.44,0,0,1-1.062.472" transform="translate(4.071 1.201)"/>
        <path id="Path_1495969" data-name="Path 1495969" d="M69.4,53.435H1.535a1.535,1.535,0,1,1,0-3.069H69.4A1.563,1.563,0,0,1,70.931,51.9,1.751,1.751,0,0,1,69.4,53.435" transform="translate(0 8.526)"/>
      </g>
    </g>
  </g>
</svg>
