<svg xmlns="http://www.w3.org/2000/svg" xmlns:xlink="http://www.w3.org/1999/xlink" width="118" height="118" viewBox="0 0 118 118">
  <defs>
    <filter id="Rectangle_411831" x="0" y="0" width="118" height="118" filterUnits="userSpaceOnUse">
      <feOffset dy="3" input="SourceAlpha"/>
      <feGaussianBlur stdDeviation="3" result="blur"/>
      <feFlood flood-opacity="0.161"/>
      <feComposite operator="in" in2="blur"/>
      <feComposite in="SourceGraphic"/>
    </filter>
    <clipPath id="clip-path">
      <rect id="Rectangle_413731" data-name="Rectangle 413731" width="68.043" height="68.043" fill="none"/>
    </clipPath>
  </defs>
  <g id="Group_1228660" data-name="Group 1228660" transform="translate(-326.781 -3852)">
    <g transform="matrix(1, 0, 0, 1, 326.78, 3852)" filter="url(#Rectangle_411831)">
      <g id="Rectangle_411831-2" data-name="Rectangle 411831" transform="translate(9 6)" fill="#b8a9f1" stroke="#fff" stroke-width="2">
        <path d="M5,0H68a32,32,0,0,1,32,32V95a5,5,0,0,1-5,5H32A32,32,0,0,1,0,68V5A5,5,0,0,1,5,0Z" stroke="none"/>
        <path d="M5,1H68A31,31,0,0,1,99,32V95a4,4,0,0,1-4,4H32A31,31,0,0,1,1,68V5A4,4,0,0,1,5,1Z" fill="none"/>
      </g>
    </g>
    <g id="Group_1228671" data-name="Group 1228671" transform="translate(351.76 3873.978)">
      <rect id="Rectangle_413727" data-name="Rectangle 413727" width="68.043" height="68.043" fill="none"/>
      <g id="Group_1222755" data-name="Group 1222755">
        <g id="Group_1222754" data-name="Group 1222754" clip-path="url(#clip-path)">
          <path id="Path_1285626" data-name="Path 1285626" d="M151.144,239.294h-43.79V206.452h41.6a2.189,2.189,0,0,1,2.189,2.189Z" transform="translate(-92.978 -178.914)" fill="#ccd1d9"/>
          <rect id="Rectangle_413730" data-name="Rectangle 413730" width="35.032" height="24.084" transform="translate(18.755 31.917)" fill="#69d6f4"/>
          <path id="Path_1285627" data-name="Path 1285627" d="M125.871,460.762H96.313a5.476,5.476,0,0,1-5.474-5.474,1.1,1.1,0,0,1,1.095-1.095h45.979a1.1,1.1,0,0,1,1.095,1.095,5.453,5.453,0,0,1-4.379,5.364,5.158,5.158,0,0,1-1.095.109h-7.663Z" transform="translate(-78.653 -393.814)" fill="#969faa"/>
          <path id="Path_1285628" data-name="Path 1285628" d="M65.375,24.774H43.48a2.2,2.2,0,0,0-2.189,2.189V46.669a2.2,2.2,0,0,0,2.189,2.189h8.758l.832,3.317a1.4,1.4,0,0,0,2.715,0l.832-3.317h8.758a2.2,2.2,0,0,0,2.189-2.189V26.963a2.2,2.2,0,0,0-2.189-2.189" transform="translate(-35.673 -21.32)" fill="#e6e9ed"/>
          <path id="Path_1285629" data-name="Path 1285629" d="M128.25,140.387v3.284a1.1,1.1,0,0,1-1.095,1.095h-2.189a1.1,1.1,0,0,1-1.095-1.095v-3.284Z" transform="translate(-107.306 -121.607)" fill="#b4dd7f"/>
          <path id="Path_1285630" data-name="Path 1285630" d="M107.355,61.77a3.962,3.962,0,0,1,3.963-3.963h.832a3.962,3.962,0,0,1,3.963,3.963v.153a2.1,2.1,0,0,1-.011.263h-8.725a1.067,1.067,0,0,1-.022-.263Z" transform="translate(-92.979 -49.974)" fill="#b4dd7f"/>
          <path id="Path_1285631" data-name="Path 1285631" d="M152.383,14.826a7.663,7.663,0,1,1,0,15.326h-1.095a7.872,7.872,0,0,1-2.31,4.379l-.361.328a7.872,7.872,0,0,1-5.08,1.861h-.985a6.593,6.593,0,0,1-6.59-6.59,6.486,6.486,0,0,1,.339-2.091l.755-2.266H109.688V22.49a3.891,3.891,0,0,1-2.168-3.284h29.536l-.35-.69a7.085,7.085,0,0,1-.744-3.175,7.1,7.1,0,0,1,7.083-7.083h.493a7.862,7.862,0,0,1,7.751,6.568Zm3.284,7.663a3.284,3.284,0,1,0-3.284,3.284,3.28,3.28,0,0,0,3.284-3.284m-8.758-6.569a3.284,3.284,0,1,0-3.284,3.284,3.28,3.28,0,0,0,3.284-3.284m0,13.137a3.284,3.284,0,1,0-3.284,3.284,3.28,3.28,0,0,0,3.284-3.284" transform="translate(-93.122 -6.994)" fill="#b4dd7f"/>
          <path id="Path_1285632" data-name="Path 1285632" d="M12.637,283.463a6.577,6.577,0,0,0,8.758,6.2v4.751H17.016v-.372a2.189,2.189,0,0,0-3.733-1.555l-.274.274-3.1-3.1.274-.274a2.189,2.189,0,0,0-1.555-3.733H8.258v-4.379H8.63a2.189,2.189,0,0,0,1.555-3.733l-.274-.274,3.1-3.1.274.274a2.189,2.189,0,0,0,3.733-1.555v-.372h4.379v4.751a6.577,6.577,0,0,0-8.758,6.2Z" transform="translate(-7.019 -236.22)" fill="#ffc729"/>
          <path id="Path_1285633" data-name="Path 1285633" d="M50.048,312.117v6.2a6.568,6.568,0,1,1,0-12.393v6.2a2.189,2.189,0,1,0-2.189,2.189,2.2,2.2,0,0,0,2.189-2.189" transform="translate(-35.672 -264.874)" fill="#fcd770"/>
          <path id="Path_1285634" data-name="Path 1285634" d="M326.444,306.644v14.232h-4.379V306.644a1.1,1.1,0,0,1,1.095-1.095h2.189a1.1,1.1,0,0,1,1.095,1.095" transform="translate(-279.226 -264.874)" fill="#ef7385"/>
          <path id="Path_1285635" data-name="Path 1285635" d="M260.379,339.676v9.853H256v-9.853a1.1,1.1,0,0,1,1.095-1.095h2.189a1.1,1.1,0,0,1,1.095,1.095" transform="translate(-221.919 -293.527)" fill="#ef7385"/>
          <path id="Path_1285636" data-name="Path 1285636" d="M194.315,372.708v5.474h-4.379v-5.474a1.1,1.1,0,0,1,1.095-1.095h2.189a1.1,1.1,0,0,1,1.095,1.095" transform="translate(-164.613 -322.18)" fill="#ef7385"/>
          <path id="Path_1285637" data-name="Path 1285637" d="M351.218,41.79a4.379,4.379,0,1,0-4.379-4.379,4.383,4.383,0,0,0,4.379,4.379m0-6.568a2.189,2.189,0,1,1-2.189,2.189,2.192,2.192,0,0,1,2.189-2.189" transform="translate(-300.715 -28.484)"/>
          <path id="Path_1285638" data-name="Path 1285638" d="M351.218,140.887a4.379,4.379,0,1,0-4.379-4.379,4.383,4.383,0,0,0,4.379,4.379m0-6.568a2.189,2.189,0,1,1-2.189,2.189,2.192,2.192,0,0,1,2.189-2.189" transform="translate(-300.715 -114.444)"/>
          <path id="Path_1285639" data-name="Path 1285639" d="M417.282,91.339A4.379,4.379,0,1,0,412.9,86.96a4.383,4.383,0,0,0,4.379,4.379m0-6.568a2.189,2.189,0,1,1-2.189,2.189,2.192,2.192,0,0,1,2.189-2.189" transform="translate(-358.022 -71.464)"/>
          <path id="Path_1285640" data-name="Path 1285640" d="M59.116,24.085a8.758,8.758,0,0,0,0-17.516H58.9A8.924,8.924,0,0,0,50.267,0H49.78a8.179,8.179,0,0,0-7.7,10.947H32.842V5.475A3.288,3.288,0,0,0,29.558,2.19H7.663A3.288,3.288,0,0,0,4.379,5.475V25.18a3.288,3.288,0,0,0,3.284,3.284h5.474v6.568H8.758V36.5a1.094,1.094,0,0,1-1.869.775l-1.04-1.04L1.205,40.882l1.04,1.04a1.094,1.094,0,0,1-.775,1.869H0v6.568H1.47a1.095,1.095,0,0,1,.775,1.869l-1.04,1.04,4.644,4.644,1.04-1.04a1.095,1.095,0,0,1,1.869.775v1.47h4.379a2.192,2.192,0,0,0-2.189,2.189,6.575,6.575,0,0,0,6.568,6.569H54.737a6.575,6.575,0,0,0,6.569-6.569,2.192,2.192,0,0,0-2.189-2.189V29.559a3.278,3.278,0,0,0-1.492-2.745A8.937,8.937,0,0,0,58.9,24.085ZM44.423,10.861A5.991,5.991,0,0,1,49.78,2.19h.487a6.745,6.745,0,0,1,6.675,5.654l.152.914h2.022a6.568,6.568,0,0,1,0,13.137H57.094l-.153.914a6.744,6.744,0,0,1-6.674,5.654h-.98a5.5,5.5,0,0,1-5.216-7.236l1.238-3.711H17.516V14.651l-.605-.3a2.837,2.837,0,0,1-1.227-1.21H45.56Zm1.557,43.877H43.79V41.6h2.189Zm0-15.327H43.79A2.192,2.192,0,0,0,41.6,41.6V54.738h-2.19V45.98a2.192,2.192,0,0,0-2.189-2.189H35.032a2.192,2.192,0,0,0-2.189,2.189v8.758H30.653V50.359a2.192,2.192,0,0,0-2.189-2.189H26.274a2.192,2.192,0,0,0-2.189,2.189v4.379H19.705V32.843H52.548V54.738H48.169V41.6a2.192,2.192,0,0,0-2.189-2.19M37.221,54.738H35.032V45.98h2.189Zm-8.758,0H26.274V50.359h2.189ZM21.107,30.654l.547-2.189H43.926a7.659,7.659,0,0,0,5.362,2.189ZM32.842,19.706H42.27l-.277.829a7.725,7.725,0,0,0-.393,2.431,7.638,7.638,0,0,0,.759,3.308H32.64a3.223,3.223,0,0,0,.2-1.095Zm-15.326,0h2.189V21.9H17.516Zm-2.1-8.758a2.865,2.865,0,0,1,2.776-2.189h.836a2.864,2.864,0,0,1,2.776,2.189ZM6.568,25.18V5.475A1.1,1.1,0,0,1,7.663,4.38H29.558a1.1,1.1,0,0,1,1.095,1.095v5.474H24.015a5.047,5.047,0,0,0-4.988-4.379h-.836a5.061,5.061,0,0,0-5.054,5.056v.16a5.025,5.025,0,0,0,2.189,4.166V21.9a2.192,2.192,0,0,0,2.189,2.189h2.189A2.192,2.192,0,0,0,21.895,21.9V19.706h8.758V25.18a1.1,1.1,0,0,1-1.095,1.095H19.946L18.91,30.421a.319.319,0,0,1-.6,0l-1.038-4.146H7.663A1.1,1.1,0,0,1,6.568,25.18m6.569,18.812a3.25,3.25,0,0,0-1.095-.2,3.284,3.284,0,1,0,0,6.568,3.247,3.247,0,0,0,1.095-.2v2.269a5.474,5.474,0,1,1,0-10.7Zm0,3.083a1.095,1.095,0,1,1-1.095-1.095,1.1,1.1,0,0,1,1.095,1.095m-2.265,9.853A3.293,3.293,0,0,0,5.9,54.87L4.248,53.214A3.224,3.224,0,0,0,4.5,50.2a3.225,3.225,0,0,0-2.315-1.952V45.9A3.224,3.224,0,0,0,4.5,43.951a3.224,3.224,0,0,0-.257-3.017L5.9,39.279a3.294,3.294,0,0,0,4.969-2.057h2.265V39.5a7.576,7.576,0,0,0-1.095-.093,7.663,7.663,0,1,0,0,15.327,7.575,7.575,0,0,0,1.095-.093v2.283Zm46.055,8.149V63.5H54.737v2.189H52.548V63.5H50.358v2.189H48.169V63.5H45.979v2.189H17.516a4.383,4.383,0,0,1-4.379-4.379H59.116a4.364,4.364,0,0,1-2.19,3.77m-41.6-5.96V28.464h.241l.622,2.487a2.489,2.489,0,0,0,1.327,1.632V56.928H54.737V30.654h-4.47a8.933,8.933,0,0,0,5.813-2.139,1.08,1.08,0,0,1,.846,1.044V59.117Z" transform="translate(0.144 0.168)"/>
        </g>
      </g>
    </g>
  </g>
</svg>
