<svg xmlns="http://www.w3.org/2000/svg" xmlns:xlink="http://www.w3.org/1999/xlink" width="118" height="118" viewBox="0 0 118 118">
  <defs>
    <filter id="Rectangle_411831" x="0" y="0" width="118" height="118" filterUnits="userSpaceOnUse">
      <feOffset dy="3" input="SourceAlpha"/>
      <feGaussianBlur stdDeviation="3" result="blur"/>
      <feFlood flood-opacity="0.161"/>
      <feComposite operator="in" in2="blur"/>
      <feComposite in="SourceGraphic"/>
    </filter>
    <clipPath id="clip-path">
      <rect id="Rectangle_425927" data-name="Rectangle 425927" width="64.367" height="67.699" fill="none"/>
    </clipPath>
  </defs>
  <g id="Group_1228645" data-name="Group 1228645" transform="translate(-326.781 -3857)">
    <g id="Group_1203422" data-name="Group 1203422" transform="translate(-465 1901)">
      <g id="Group_1203409" data-name="Group 1203409" transform="translate(465 -1896)">
        <g transform="matrix(1, 0, 0, 1, 326.78, 3852)" filter="url(#Rectangle_411831)">
          <g id="Rectangle_411831-2" data-name="Rectangle 411831" transform="translate(9 6)" fill="#37f1e9" stroke="#fff" stroke-width="2">
            <path d="M5,0H68a32,32,0,0,1,32,32V95a5,5,0,0,1-5,5H32A32,32,0,0,1,0,68V5A5,5,0,0,1,5,0Z" stroke="none"/>
            <path d="M5,1H68A31,31,0,0,1,99,32V95a4,4,0,0,1-4,4H32A31,31,0,0,1,1,68V5A4,4,0,0,1,5,1Z" fill="none"/>
          </g>
        </g>
      </g>
    </g>
    <g id="Group_1228652" data-name="Group 1228652" transform="translate(353.598 3879.15)">
      <g id="Group_1228651" data-name="Group 1228651" transform="translate(0 0)" clip-path="url(#clip-path)">
        <path id="Path_1495843" data-name="Path 1495843" d="M17.156,1.406v8.621H8.536c3.793-3.909,4.712-4.712,8.62-8.621" transform="translate(1.234 0.203)" fill="#bec3c7"/>
        <path id="Path_1495844" data-name="Path 1495844" d="M17.156,1.406v8.621H8.536c0,.575.114,40.574.114,48.734.46,0,41.034.116,41.609.116V1.406Z" transform="translate(1.234 0.203)" fill="#ecf0f1"/>
        <path id="Path_1495845" data-name="Path 1495845" d="M10.4,41.875H9.482a9.161,9.161,0,1,0,9.885,11.034,11.355,11.355,0,0,0,.229-1.954,9.2,9.2,0,0,0-9.195-9.08" transform="translate(0.174 6.055)" fill="#74829c"/>
        <path id="Path_1495846" data-name="Path 1495846" d="M48.487,8.938a7.947,7.947,0,0,0-2.874.459,8.613,8.613,0,0,0-5.746,8.161,8.725,8.725,0,0,0,5.746,8.161,7.948,7.948,0,0,0,2.874.46,8.621,8.621,0,0,0,0-17.241" transform="translate(5.765 1.292)" fill="#ffd24d"/>
        <path id="Path_1495847" data-name="Path 1495847" d="M47.589,16V14.509c-.575,0-.806.229-.806.689a.6.6,0,0,0,.231.46,2.472,2.472,0,0,0,.575.345m.573,2.184v1.379c.576,0,.92-.23.92-.575a.6.6,0,0,0-.23-.46,1.882,1.882,0,0,0-.69-.345m-.689,3.1a4.048,4.048,0,0,1-1.608-.345,2.611,2.611,0,0,1-1.379-.689l.8-1.725.23.23a.875.875,0,0,0,.575.23,1.644,1.644,0,0,0,.689.23c.231.114.575.114.806.229V17.842l-.575-.116-1.036-.345c-.229-.114-.459-.345-.689-.46a2.048,2.048,0,0,1-.46-.575,1.71,1.71,0,0,1-.114-.8,2.281,2.281,0,0,1,.23-1.034,2.074,2.074,0,0,1,.575-.806,3.5,3.5,0,0,1,.8-.573,3.339,3.339,0,0,1,1.034-.23v-1.15h.8V12.9a2.731,2.731,0,0,1,1.38.345,10.721,10.721,0,0,1,1.149.575l-.8,1.609a.4.4,0,0,0-.23-.116c-.114-.114-.23-.114-.459-.229s-.346-.116-.576-.23a1.45,1.45,0,0,0-.69-.116v1.609l.346.116a10.458,10.458,0,0,1,1.034.345,4.837,4.837,0,0,1,.8.46c.231.229.346.459.576.689a2.3,2.3,0,0,1,.23,1.035,3.413,3.413,0,0,1-.23,1.149,2.049,2.049,0,0,1-.576.8,2.29,2.29,0,0,1-.918.459c-.346.116-.69.116-1.036.231v1.378h-.8Z" transform="translate(6.433 1.698)"/>
        <path id="Path_1495848" data-name="Path 1495848" d="M21.277,26.511a1.494,1.494,0,1,1,0,2.989A1.606,1.606,0,0,1,19.783,28a1.52,1.52,0,0,1,1.494-1.494" transform="translate(2.861 3.833)"/>
        <path id="Path_1495849" data-name="Path 1495849" d="M21.277,30.327a1.494,1.494,0,1,1,0,2.989,1.626,1.626,0,0,1-1.494-1.609,1.425,1.425,0,0,1,1.494-1.379" transform="translate(2.861 4.385)"/>
        <path id="Path_1495850" data-name="Path 1495850" d="M21.277,34.042a1.494,1.494,0,1,1,0,2.989,1.494,1.494,0,0,1,0-2.989" transform="translate(2.861 4.922)"/>
        <path id="Path_1495851" data-name="Path 1495851" d="M21.277,37.858a1.494,1.494,0,1,1,0,2.989,1.626,1.626,0,0,1-1.494-1.609,1.425,1.425,0,0,1,1.494-1.379" transform="translate(2.861 5.474)"/>
        <path id="Path_1495852" data-name="Path 1495852" d="M21.277,41.573a1.494,1.494,0,1,1,0,2.989,1.605,1.605,0,0,1-1.494-1.494,1.521,1.521,0,0,1,1.494-1.495" transform="translate(2.861 6.011)"/>
        <path id="Path_1495853" data-name="Path 1495853" d="M21.277,45.389a1.494,1.494,0,1,1,0,2.989,1.626,1.626,0,0,1-1.494-1.609,1.425,1.425,0,0,1,1.494-1.379" transform="translate(2.861 6.563)"/>
        <path id="Path_1495854" data-name="Path 1495854" d="M11.235,51.615a1.494,1.494,0,0,1,0,2.989A1.607,1.607,0,0,1,9.74,53.109a1.522,1.522,0,0,1,1.495-1.494" transform="translate(1.408 7.463)"/>
        <path id="Path_1495855" data-name="Path 1495855" d="M7.419,46.594a1.494,1.494,0,1,1-1.495,1.494,1.606,1.606,0,0,1,1.495-1.494" transform="translate(0.857 6.737)"/>
        <path id="Path_1495856" data-name="Path 1495856" d="M17.345,11.724H8.725a1.494,1.494,0,1,1,0-2.989h7.126V1.495a1.494,1.494,0,1,1,2.989,0V10.23a1.705,1.705,0,0,1-1.495,1.494" transform="translate(1.045 0)"/>
        <path id="Path_1495857" data-name="Path 1495857" d="M48.661,27.862a10.677,10.677,0,0,1-3.333-.575,9.951,9.951,0,0,1-6.666-9.54,10.058,10.058,0,0,1,6.666-9.539,10.645,10.645,0,0,1,3.333-.576,10.115,10.115,0,1,1,0,20.23m0-17.241a6.009,6.009,0,0,0-2.414.46,7.177,7.177,0,0,0,0,13.562,8.948,8.948,0,0,0,2.414.46,7.241,7.241,0,0,0,0-14.483" transform="translate(5.591 1.103)"/>
        <path id="Path_1495858" data-name="Path 1495858" d="M6.206,55.222a1.6,1.6,0,0,1-1.149-.575,1.6,1.6,0,0,1,.23-2.069l7.241-5.747a1.6,1.6,0,0,1,2.068.231,1.594,1.594,0,0,1-.23,2.068L7.125,54.877a1.3,1.3,0,0,1-.919.345" transform="translate(0.69 6.73)"/>
        <path id="Path_1495859" data-name="Path 1495859" d="M8.725,49.409A1.5,1.5,0,0,1,7.231,48.03V10.215A1.4,1.4,0,0,1,7.69,9.181L16.311.56A1.71,1.71,0,0,1,17.345.1H50.333a1.521,1.521,0,0,1,1.494,1.495v9.08a1.52,1.52,0,0,1-1.494,1.494,1.5,1.5,0,0,1-1.495-1.379v-7.7H17.8l-7.7,7.7V47.915a1.505,1.505,0,0,1-1.379,1.495" transform="translate(1.046 0.014)"/>
        <path id="Path_1495860" data-name="Path 1495860" d="M49.1,57.349H17.26a1.521,1.521,0,0,1-1.495-1.494,1.506,1.506,0,0,1,1.379-1.495H47.489V23.787a1.521,1.521,0,0,1,1.494-1.495,1.506,1.506,0,0,1,1.495,1.38V55.74A1.4,1.4,0,0,1,49.1,57.349" transform="translate(2.28 3.223)"/>
        <path id="Path_1495861" data-name="Path 1495861" d="M10.575,61.819A10.546,10.546,0,0,1,0,51.245a10.832,10.832,0,0,1,2.758-7.126A11.065,11.065,0,0,1,9.54,40.67h1.035A10.546,10.546,0,0,1,21.149,51.245a14.22,14.22,0,0,1-.229,2.3,10.583,10.583,0,0,1-10.345,8.275m0-18.39h-.69a7.828,7.828,0,0,0-7.011,7.7,7.7,7.7,0,0,0,7.7,7.7,7.847,7.847,0,0,0,7.585-6.092,8.819,8.819,0,0,0,.23-1.725,7.856,7.856,0,0,0-7.815-7.585" transform="translate(0 5.88)"/>
        <path id="Path_1495862" data-name="Path 1495862" d="M42.234,48.276H24.993a1.494,1.494,0,1,1,0-2.987H42.234a1.494,1.494,0,1,1,0,2.987" transform="translate(3.398 6.548)"/>
        <path id="Path_1495863" data-name="Path 1495863" d="M42.234,44.461H24.993a1.494,1.494,0,1,1,0-2.987H42.234a1.494,1.494,0,0,1,0,2.987" transform="translate(3.398 5.997)"/>
        <path id="Path_1495864" data-name="Path 1495864" d="M42.234,40.746H24.993a1.494,1.494,0,1,1,0-2.989H42.234a1.494,1.494,0,0,1,0,2.989" transform="translate(3.398 5.459)"/>
        <path id="Path_1495865" data-name="Path 1495865" d="M42.234,36.915H24.993A1.521,1.521,0,0,1,23.5,35.421a1.426,1.426,0,0,1,1.495-1.379H42.234a1.521,1.521,0,0,1,1.494,1.494,1.425,1.425,0,0,1-1.494,1.379" transform="translate(3.398 4.922)"/>
        <path id="Path_1495866" data-name="Path 1495866" d="M42.234,33.215H24.993a1.494,1.494,0,1,1,0-2.989H42.234a1.494,1.494,0,0,1,0,2.989" transform="translate(3.398 4.37)"/>
        <path id="Path_1495867" data-name="Path 1495867" d="M42.234,29.4H24.993a1.494,1.494,0,1,1,0-2.989H42.234a1.494,1.494,0,0,1,0,2.989" transform="translate(3.398 3.818)"/>
        <path id="Path_1495868" data-name="Path 1495868" d="M30.987,15.642H13.746a1.494,1.494,0,0,1,0-2.989H30.987a1.522,1.522,0,0,1,1.495,1.494,1.706,1.706,0,0,1-1.495,1.495" transform="translate(1.772 1.829)"/>
        <path id="Path_1495869" data-name="Path 1495869" d="M30.987,19.357H13.746a1.494,1.494,0,0,1,0-2.989H30.987a1.522,1.522,0,0,1,1.495,1.495,1.706,1.706,0,0,1-1.495,1.494" transform="translate(1.772 2.366)"/>
        <path id="Path_1495870" data-name="Path 1495870" d="M30.987,23.173H13.746a1.494,1.494,0,0,1,0-2.989H30.987a1.522,1.522,0,0,1,1.495,1.495,1.706,1.706,0,0,1-1.495,1.494" transform="translate(1.772 2.918)"/>
      </g>
    </g>
  </g>
</svg>
