<svg xmlns="http://www.w3.org/2000/svg" xmlns:xlink="http://www.w3.org/1999/xlink" width="118" height="118" viewBox="0 0 118 118">
  <defs>
    <filter id="Rectangle_411831" x="0" y="0" width="118" height="118" filterUnits="userSpaceOnUse">
      <feOffset dy="3" input="SourceAlpha"/>
      <feGaussianBlur stdDeviation="3" result="blur"/>
      <feFlood flood-opacity="0.161"/>
      <feComposite operator="in" in2="blur"/>
      <feComposite in="SourceGraphic"/>
    </filter>
    <clipPath id="clip-path">
      <rect id="Rectangle_425926" data-name="Rectangle 425926" width="73.744" height="55.28" fill="none"/>
    </clipPath>
  </defs>
  <g id="Group_1228644" data-name="Group 1228644" transform="translate(-326.781 -3857)">
    <g id="Group_1203422" data-name="Group 1203422" transform="translate(-465 1901)">
      <g id="Group_1203409" data-name="Group 1203409" transform="translate(465 -1896)">
        <g transform="matrix(1, 0, 0, 1, 326.78, 3852)" filter="url(#Rectangle_411831)">
          <g id="Rectangle_411831-2" data-name="Rectangle 411831" transform="translate(9 6)" fill="#37f1e9" stroke="#fff" stroke-width="2">
            <path d="M5,0H68a32,32,0,0,1,32,32V95a5,5,0,0,1-5,5H32A32,32,0,0,1,0,68V5A5,5,0,0,1,5,0Z" stroke="none"/>
            <path d="M5,1H68A31,31,0,0,1,99,32V95a4,4,0,0,1-4,4H32A31,31,0,0,1,1,68V5A4,4,0,0,1,5,1Z" fill="none"/>
          </g>
        </g>
      </g>
    </g>
    <g id="Group_1228650" data-name="Group 1228650" transform="translate(348.909 3885.361)">
      <g id="Group_1228649" data-name="Group 1228649" transform="translate(0 0)" clip-path="url(#clip-path)">
        <path id="Path_1495824" data-name="Path 1495824" d="M22.785,27.757a3.037,3.037,0,0,1,3.067,3.067,3.536,3.536,0,0,1-.858,2.21,2.786,2.786,0,0,1-2.209.858H4.38a3.037,3.037,0,0,1-3.067-3.068,3.525,3.525,0,0,1,.858-2.208,2.954,2.954,0,0,1,2.209-.859H22.785Z" transform="translate(0.283 5.987)" fill="gray"/>
        <path id="Path_1495825" data-name="Path 1495825" d="M60.636,27.757A3.037,3.037,0,0,1,63.7,30.824a3.53,3.53,0,0,1-.859,2.21,2.783,2.783,0,0,1-2.208.858H42.23a3.037,3.037,0,0,1-3.067-3.068,3.526,3.526,0,0,1,.859-2.208,2.953,2.953,0,0,1,2.208-.859H60.636Z" transform="translate(8.446 5.987)" fill="gray"/>
        <path id="Path_1495826" data-name="Path 1495826" d="M68.415,20.47a5.387,5.387,0,0,1,1.595,3.8,5.446,5.446,0,0,1-5.4,5.4H40.562L39.457,25.01H33.322l-1.1,4.662H7.923a5.444,5.444,0,0,1-5.4-5.4,5.446,5.446,0,0,1,5.4-5.4H64.734a5.324,5.324,0,0,1,3.681,1.595" transform="translate(0.544 4.071)" fill="#b3b3b3"/>
        <path id="Path_1495827" data-name="Path 1495827" d="M36.085,28.584l5.03,19.878H22.71l5.03-19.878,1.105-4.662H34.98Z" transform="translate(4.898 5.159)" fill="#3c3b3d"/>
        <path id="Path_1495828" data-name="Path 1495828" d="M15.844,1.211a10.8,10.8,0,1,1-10.8,10.8,10.8,10.8,0,0,1,10.8-10.8" transform="translate(1.088 0.262)" fill="#4e679b"/>
        <path id="Path_1495829" data-name="Path 1495829" d="M48.648,1.211a10.8,10.8,0,1,1-10.8,10.8,10.8,10.8,0,0,1,10.8-10.8" transform="translate(8.163 0.262)" fill="#ffd24d"/>
        <path id="Path_1495830" data-name="Path 1495830" d="M47.228,9.818V7.979c-.735,0-.981.367-.981.859a.931.931,0,0,0,.246.611,1.954,1.954,0,0,0,.735.368m.614,2.7v1.718c.735,0,1.105-.244,1.105-.735a.675.675,0,0,0-.37-.614,1.981,1.981,0,0,0-.735-.368M51.277,7l-1.1,1.963s-.123-.122-.246-.246-.368-.123-.491-.246a1.737,1.737,0,0,0-.737-.244,7.223,7.223,0,0,0-.858-.246V9.942l.491.122a4.435,4.435,0,0,1,1.349.492,2.665,2.665,0,0,1,.982.613,2.212,2.212,0,0,1,.613.859,3.618,3.618,0,0,1,.246,1.225,5.277,5.277,0,0,1-.246,1.473,6.815,6.815,0,0,1-.735.981,4.977,4.977,0,0,1-1.105.614,4.413,4.413,0,0,1-1.349.246v1.718H47.1V16.445a11.171,11.171,0,0,1-1.963-.367,6.29,6.29,0,0,1-1.841-.859l1.105-2.086a1.57,1.57,0,0,0,.367.246,2.684,2.684,0,0,0,.614.368c.246.122.614.246.859.367a3.8,3.8,0,0,0,.981.247V12.4l-.735-.246a3.676,3.676,0,0,1-1.228-.49,2.21,2.21,0,0,1-.858-.614,2.564,2.564,0,0,1-.491-.735,2.4,2.4,0,0,1-.123-.982,4.406,4.406,0,0,1,.246-1.349A1.913,1.913,0,0,1,44.773,7a2.385,2.385,0,0,1,1.105-.614c.368-.122.859-.244,1.349-.368V4.542h.982V6.014a9.893,9.893,0,0,1,1.841.368A5.813,5.813,0,0,1,51.277,7" transform="translate(9.338 0.98)"/>
        <path id="Path_1495831" data-name="Path 1495831" d="M28.83,29.535H19.259a1.6,1.6,0,0,1,0-3.191H28.83a1.6,1.6,0,0,1,0,3.191" transform="translate(3.809 5.682)"/>
        <path id="Path_1495832" data-name="Path 1495832" d="M64.872,31.407a1.6,1.6,0,0,1,0-3.191,3.8,3.8,0,1,0,0-7.608H8.184a3.8,3.8,0,1,0,0,7.608,1.6,1.6,0,0,1,0,3.191,7.3,7.3,0,0,1-4.909-1.963,6.762,6.762,0,0,1-1.963-4.909,6.861,6.861,0,0,1,6.872-6.872h56.81A7.3,7.3,0,0,1,69.9,19.628a6.756,6.756,0,0,1,1.962,4.908,6.966,6.966,0,0,1-6.994,6.872" transform="translate(0.283 3.81)"/>
        <path id="Path_1495833" data-name="Path 1495833" d="M43.667,29.535H34.1a1.6,1.6,0,0,1,0-3.191h9.571a1.623,1.623,0,0,1,1.595,1.6,1.715,1.715,0,0,1-1.595,1.595" transform="translate(7.009 5.682)"/>
        <path id="Path_1495834" data-name="Path 1495834" d="M41.389,50.3a1.474,1.474,0,0,1-1.472-1.105l-5.89-23.436H30.346l-5.89,23.436a1.518,1.518,0,1,1-2.946-.737l6.135-24.539a1.359,1.359,0,0,1,1.473-1.1h6.134a1.474,1.474,0,0,1,1.473,1.1l6.134,24.539a1.454,1.454,0,0,1-1.1,1.842c-.123-.123-.246,0-.368,0" transform="translate(4.625 4.92)"/>
        <path id="Path_1495835" data-name="Path 1495835" d="M50.478,45.987H16.735a1.6,1.6,0,0,1,0-3.191H50.478a1.625,1.625,0,0,1,1.595,1.6,1.821,1.821,0,0,1-1.595,1.595" transform="translate(3.265 9.23)"/>
        <path id="Path_1495836" data-name="Path 1495836" d="M49.6,42.151h-7.73a1.595,1.595,0,1,1,0-3.19H49.6a1.595,1.595,0,1,1,0,3.19" transform="translate(8.685 8.403)"/>
        <path id="Path_1495837" data-name="Path 1495837" d="M20.63,42.151H12.9a1.595,1.595,0,1,1,0-3.19h7.73a1.623,1.623,0,0,1,1.595,1.595,1.82,1.82,0,0,1-1.595,1.595" transform="translate(2.438 8.403)"/>
        <path id="Path_1495838" data-name="Path 1495838" d="M16.106,24.539a12.27,12.27,0,1,1,12.27-12.27,12.306,12.306,0,0,1-12.27,12.27m0-21.472a9.27,9.27,0,0,0-9.2,9.2,9.2,9.2,0,0,0,18.405,0,9.27,9.27,0,0,0-9.2-9.2" transform="translate(0.827 0)"/>
        <path id="Path_1495839" data-name="Path 1495839" d="M48.91,24.539A12.27,12.27,0,1,1,61.181,12.27,12.306,12.306,0,0,1,48.91,24.539m0-21.472a9.27,9.27,0,0,0-9.2,9.2,9.2,9.2,0,0,0,18.405,0,9.27,9.27,0,0,0-9.2-9.2" transform="translate(7.902 0)"/>
        <path id="Path_1495840" data-name="Path 1495840" d="M19.047,12.69H14.385a1.541,1.541,0,0,1-1.472-1.1L11.319,6.923a1.551,1.551,0,1,1,2.943-.982L15.489,9.5h3.437a1.625,1.625,0,0,1,1.595,1.595,1.45,1.45,0,0,1-1.473,1.595" transform="translate(2.425 1.054)"/>
        <path id="Path_1495841" data-name="Path 1495841" d="M60.919,35.669H42.513a4.66,4.66,0,0,1-4.662-4.662A4.967,4.967,0,0,1,39.2,27.693a4.268,4.268,0,0,1,3.313-1.349H60.919a4.661,4.661,0,0,1,4.662,4.663,4.61,4.61,0,0,1-4.662,4.662M42.513,29.535a1.5,1.5,0,0,0-1.1.49,1.556,1.556,0,0,0-.491,1.1,1.624,1.624,0,0,0,1.595,1.6H60.918a1.5,1.5,0,0,0,1.105-.491,1.554,1.554,0,0,0,.491-1.105,1.624,1.624,0,0,0-1.6-1.594Z" transform="translate(8.163 5.682)"/>
        <path id="Path_1495842" data-name="Path 1495842" d="M23.068,35.669H4.663A4.661,4.661,0,0,1,0,31.007a4.973,4.973,0,0,1,1.349-3.314,4.745,4.745,0,0,1,3.314-1.349H23.068a4.661,4.661,0,0,1,4.663,4.663,4.612,4.612,0,0,1-4.663,4.662M4.663,29.535a1.5,1.5,0,0,0-1.105.49,1.56,1.56,0,0,0-.49,1.1,1.624,1.624,0,0,0,1.595,1.6H23.068a1.5,1.5,0,0,0,1.1-.491,1.554,1.554,0,0,0,.491-1.105,1.623,1.623,0,0,0-1.595-1.594Z" transform="translate(0 5.682)"/>
      </g>
    </g>
  </g>
</svg>
