<svg xmlns="http://www.w3.org/2000/svg" xmlns:xlink="http://www.w3.org/1999/xlink" width="118" height="118" viewBox="0 0 118 118">
  <defs>
    <filter id="Rectangle_411831" x="0" y="0" width="118" height="118" filterUnits="userSpaceOnUse">
      <feOffset dy="3" input="SourceAlpha"/>
      <feGaussianBlur stdDeviation="3" result="blur"/>
      <feFlood flood-opacity="0.161"/>
      <feComposite operator="in" in2="blur"/>
      <feComposite in="SourceGraphic"/>
    </filter>
    <clipPath id="clip-path">
      <rect id="Rectangle_425888" data-name="Rectangle 425888" width="56.758" height="58.1" transform="translate(0 0)" fill="none"/>
    </clipPath>
  </defs>
  <g id="Group_1228602" data-name="Group 1228602" transform="translate(-326.781 -3857)">
    <g id="Group_1203422" data-name="Group 1203422" transform="translate(-465 1901)">
      <g id="Group_1203409" data-name="Group 1203409" transform="translate(465 -1896)">
        <g transform="matrix(1, 0, 0, 1, 326.78, 3852)" filter="url(#Rectangle_411831)">
          <g id="Rectangle_411831-2" data-name="Rectangle 411831" transform="translate(9 6)" fill="#37f1e9" stroke="#fff" stroke-width="2">
            <path d="M5,0H68a32,32,0,0,1,32,32V95a5,5,0,0,1-5,5H32A32,32,0,0,1,0,68V5A5,5,0,0,1,5,0Z" stroke="none"/>
            <path d="M5,1H68A31,31,0,0,1,99,32V95a4,4,0,0,1-4,4H32A31,31,0,0,1,1,68V5A4,4,0,0,1,5,1Z" fill="none"/>
          </g>
        </g>
      </g>
    </g>
    <g id="Group_1228612" data-name="Group 1228612" transform="translate(357.402 3883.95)">
      <rect id="Rectangle_425886" data-name="Rectangle 425886" width="3.131" height="8.101" transform="translate(31.712 49.3)" fill="#414a56"/>
      <rect id="Rectangle_425887" data-name="Rectangle 425887" width="3.131" height="8.101" transform="translate(22.218 49.3)" fill="#414a56"/>
      <g id="Group_1228611" data-name="Group 1228611">
        <g id="Group_1228610" data-name="Group 1228610" clip-path="url(#clip-path)">
          <path id="Path_1495525" data-name="Path 1495525" d="M52.315,9.3H42.821a12.132,12.132,0,0,1,1.313,3.8h8.181V41.8H4.444V13.1h8.181a24.035,24.035,0,0,1,1.312-3.8H4.444A3.817,3.817,0,0,0,.606,13.1V45.5a3.817,3.817,0,0,0,3.838,3.8H52.315a3.817,3.817,0,0,0,3.837-3.8V13.1a3.817,3.817,0,0,0-3.837-3.8" fill="#57606f"/>
          <path id="Path_1495526" data-name="Path 1495526" d="M4.444,36.8V13.1h8.181a13.3,13.3,0,0,0-.4,3.5,15.753,15.753,0,0,0,4.444,11,16.753,16.753,0,0,0,11.615,5h.2A16.246,16.246,0,0,0,40.1,27.7a16.121,16.121,0,0,0,4.443-11,13.3,13.3,0,0,0-.4-3.5h8.181V41.8H4.444v-5Z" fill="#d7deed"/>
          <path id="Path_1495527" data-name="Path 1495527" d="M28.379,22.6a15.45,15.45,0,0,1,7.372,1.8c-1.413,4.8-4.14,8.1-7.271,8.1h-.1Z" fill="#079cff"/>
          <path id="Path_1495528" data-name="Path 1495528" d="M21.007,24.4c1.414,4.8,4.141,8.1,7.271,8.1a15.939,15.939,0,0,1-11.614-5,19.014,19.014,0,0,1,4.343-3.1" fill="#079cff"/>
          <path id="Path_1495529" data-name="Path 1495529" d="M44.134,13.1a13.3,13.3,0,0,1,.4,3.5H36.863a27.667,27.667,0,0,0-1.111-7.9,16.763,16.763,0,0,0,4.342-3.2,14.588,14.588,0,0,1,2.727,3.8,15.381,15.381,0,0,1,1.313,3.8" fill="#5cbeff"/>
          <path id="Path_1495530" data-name="Path 1495530" d="M36.863,16.5h7.675a15.753,15.753,0,0,1-4.443,11,15.226,15.226,0,0,0-4.343-3.2,25.976,25.976,0,0,0,1.111-7.8" fill="#079cff"/>
          <path id="Path_1495531" data-name="Path 1495531" d="M28.48.6A16.244,16.244,0,0,1,40.094,5.5a15.226,15.226,0,0,1-4.343,3.2C34.338,3.9,31.611.6,28.48.6" fill="#079cff"/>
          <path id="Path_1495532" data-name="Path 1495532" d="M40.1,27.6a16.246,16.246,0,0,1-11.614,4.9c3.131-.1,5.857-3.3,7.271-8.1A16.768,16.768,0,0,1,40.1,27.6" fill="#5cbeff"/>
          <path id="Path_1495533" data-name="Path 1495533" d="M36.863,16.5H28.38V10.4a15.45,15.45,0,0,0,7.372-1.8,28.189,28.189,0,0,1,1.111,7.9" fill="#079cff"/>
          <path id="Path_1495534" data-name="Path 1495534" d="M28.379,16.5h8.483a27.632,27.632,0,0,1-1.111,7.9,16.7,16.7,0,0,0-7.372-1.8Z" fill="#5cbeff"/>
          <path id="Path_1495535" data-name="Path 1495535" d="M35.752,8.7a16.7,16.7,0,0,1-7.372,1.8V.6h.1c3.13,0,5.857,3.3,7.271,8.1" fill="#5cbeff"/>
          <path id="Path_1495536" data-name="Path 1495536" d="M29.389,44.8a1.262,1.262,0,0,1,.4.9,1.081,1.081,0,0,1-.4.9,1.511,1.511,0,0,1-.909.4,1.33,1.33,0,0,1-1.313-1.3,1.081,1.081,0,0,1,.4-.9,1.233,1.233,0,0,1,1.818,0"/>
          <path id="Path_1495537" data-name="Path 1495537" d="M28.379,22.6v9.9h-.1c-3.131-.1-5.857-3.3-7.272-8.1a16.7,16.7,0,0,1,7.373-1.8" fill="#5cbeff"/>
          <path id="Path_1495538" data-name="Path 1495538" d="M28.379,16.5v6.1a15.454,15.454,0,0,0-7.373,1.8,27.161,27.161,0,0,1-1.11-7.9Z" fill="#079cff"/>
          <path id="Path_1495539" data-name="Path 1495539" d="M28.379,10.4v6.1H19.9a27.668,27.668,0,0,1,1.11-7.9,15.454,15.454,0,0,0,7.373,1.8" fill="#5cbeff"/>
          <path id="Path_1495540" data-name="Path 1495540" d="M28.379.6v9.9a15.454,15.454,0,0,1-7.373-1.8C22.421,3.9,25.147.6,28.278.6Z" fill="#079cff"/>
          <path id="Path_1495541" data-name="Path 1495541" d="M28.278.6c-3.131.1-5.857,3.3-7.271,8.1a16.768,16.768,0,0,1-4.343-3.2A16.243,16.243,0,0,1,28.278.6" fill="#5cbeff"/>
          <path id="Path_1495542" data-name="Path 1495542" d="M21.007,8.7A27.16,27.16,0,0,0,19.9,16.6H12.22a13.257,13.257,0,0,1,.4-3.5,24.035,24.035,0,0,1,1.312-3.8,14.588,14.588,0,0,1,2.727-3.8,16.768,16.768,0,0,0,4.343,3.2" fill="#079cff"/>
          <path id="Path_1495543" data-name="Path 1495543" d="M19.9,16.5a27.667,27.667,0,0,0,1.111,7.9,16.5,16.5,0,0,0-4.242,3.1,16.122,16.122,0,0,1-4.444-11Z" fill="#5cbeff"/>
          <path id="Path_1495544" data-name="Path 1495544" d="M28.278,33.2h0c-3.333-.1-6.262-3.3-7.878-8.6a29.384,29.384,0,0,1,0-16C22.016,3.3,24.945.1,28.278,0a.648.648,0,0,1,.606.6.648.648,0,0,1-.606.6c-2.727.1-5.252,3-6.666,7.7a27.262,27.262,0,0,0,0,15.4c1.414,4.7,3.939,7.6,6.666,7.7a.6.6,0,1,1,0,1.2"/>
          <path id="Path_1495545" data-name="Path 1495545" d="M28.48,33.2a.6.6,0,1,1,0-1.2c2.727-.1,5.252-3,6.666-7.7a27.262,27.262,0,0,0,0-15.4c-1.414-4.7-3.939-7.6-6.666-7.7a.648.648,0,0,1-.606-.6A.648.648,0,0,1,28.48,0c3.333.1,6.261,3.3,7.878,8.6a29.384,29.384,0,0,1,0,16c-1.617,5.3-4.545,8.5-7.878,8.6"/>
          <path id="Path_1495546" data-name="Path 1495546" d="M28.379,11.1A16.976,16.976,0,0,1,20.7,9.3,16.017,16.017,0,0,1,16.26,6a.74.74,0,0,1,0-.9.76.76,0,0,1,.909,0,17.842,17.842,0,0,0,4.14,3.1,15.669,15.669,0,0,0,7.07,1.7,15.662,15.662,0,0,0,7.069-1.7,15.437,15.437,0,0,0,4.141-3.1.642.642,0,0,1,.909,0,.559.559,0,0,1,0,.9,17.636,17.636,0,0,1-4.444,3.3,18.379,18.379,0,0,1-7.675,1.8"/>
          <path id="Path_1495547" data-name="Path 1495547" d="M40.1,28.2c-.2,0-.3-.1-.505-.2a17.869,17.869,0,0,0-4.141-3.1,15.549,15.549,0,0,0-14.139,0,17.467,17.467,0,0,0-4.141,3,.642.642,0,0,1-.909,0,.627.627,0,0,1,0-.9A20.472,20.472,0,0,1,20.7,23.7a16.672,16.672,0,0,1,7.676-1.8,16.975,16.975,0,0,1,7.675,1.8A16.021,16.021,0,0,1,40.5,27a.74.74,0,0,1,0,.9.377.377,0,0,1-.4.3"/>
          <path id="Path_1495548" data-name="Path 1495548" d="M44.538,17.2H12.22a.6.6,0,1,1,0-1.2H44.538a.6.6,0,1,1,0,1.2"/>
          <path id="Path_1495549" data-name="Path 1495549" d="M28.379,33.2a.648.648,0,0,1-.606-.6V.6a.606.606,0,0,1,1.212,0v32a.648.648,0,0,1-.606.6"/>
          <path id="Path_1495550" data-name="Path 1495550" d="M22.219,58.1a.648.648,0,0,1-.606-.6V49.3a.606.606,0,0,1,1.212,0v8.1a.671.671,0,0,1-.606.7"/>
          <path id="Path_1495551" data-name="Path 1495551" d="M34.843,58.1a.648.648,0,0,1-.606-.6V49.3a.606.606,0,0,1,1.212,0v8.1a.671.671,0,0,1-.606.7"/>
          <path id="Path_1495552" data-name="Path 1495552" d="M25.35,58.1a.648.648,0,0,1-.606-.6V49.3a.606.606,0,0,1,1.212,0v8.1a.671.671,0,0,1-.606.7"/>
          <path id="Path_1495553" data-name="Path 1495553" d="M31.712,58.1a.648.648,0,0,1-.606-.6V49.3a.606.606,0,0,1,1.212,0v8.1a.671.671,0,0,1-.606.7"/>
          <path id="Path_1495554" data-name="Path 1495554" d="M37.267,58.1H19.8a.6.6,0,1,1,0-1.2H37.267a.6.6,0,1,1,0,1.2"/>
          <path id="Path_1495555" data-name="Path 1495555" d="M52.416,42.4H4.444a.649.649,0,0,1-.606-.6V13.1a.649.649,0,0,1,.606-.6h8.181a.6.6,0,1,1,0,1.2H5.049V41.2h46.76V13.7H44.236a.6.6,0,1,1,0-1.2h8.18a.648.648,0,0,1,.6.6V41.9a.653.653,0,0,1-.6.5"/>
          <path id="Path_1495556" data-name="Path 1495556" d="M52.315,49.9H4.444A4.461,4.461,0,0,1,0,45.5V13.1A4.461,4.461,0,0,1,4.444,8.7h9.493a.649.649,0,0,1,.607.6.649.649,0,0,1-.607.6H4.444a3.175,3.175,0,0,0-3.232,3.2V45.5a3.175,3.175,0,0,0,3.232,3.2H52.315a3.175,3.175,0,0,0,3.232-3.2V13.1a3.175,3.175,0,0,0-3.232-3.2H42.821a.649.649,0,0,1-.606-.6.649.649,0,0,1,.606-.6h9.494a4.461,4.461,0,0,1,4.443,4.4V45.5a4.461,4.461,0,0,1-4.443,4.4"/>
          <path id="Path_1495557" data-name="Path 1495557" d="M52.416,39.9H40.4a.6.6,0,1,1,0-1.2H52.416a.6.6,0,1,1,0,1.2"/>
          <path id="Path_1495558" data-name="Path 1495558" d="M52.416,37.4H41.61a.6.6,0,1,1,0-1.2h10.7a.648.648,0,0,1,.606.6.562.562,0,0,1-.5.6"/>
          <path id="Path_1495559" data-name="Path 1495559" d="M52.416,34.9H42.923a.6.6,0,1,1,0-1.2h9.493a.6.6,0,1,1,0,1.2"/>
          <path id="Path_1495560" data-name="Path 1495560" d="M52.416,32.4h-8.18a.6.6,0,1,1,0-1.2h8.18a.6.6,0,1,1,0,1.2"/>
          <path id="Path_1495561" data-name="Path 1495561" d="M52.416,29.9H45.447a.6.6,0,1,1,0-1.2h6.969a.6.6,0,1,1,0,1.2"/>
          <path id="Path_1495562" data-name="Path 1495562" d="M52.416,27.4H46.76a.6.6,0,1,1,0-1.2h5.656a.6.6,0,1,1,0,1.2"/>
          <path id="Path_1495563" data-name="Path 1495563" d="M16.361,39.9H4.444a.6.6,0,1,1,0-1.2H16.462a.648.648,0,0,1,.6.6.672.672,0,0,1-.706.6"/>
          <path id="Path_1495564" data-name="Path 1495564" d="M15.149,37.4H4.444a.6.6,0,1,1,0-1.2H15.149a.6.6,0,1,1,0,1.2"/>
          <path id="Path_1495565" data-name="Path 1495565" d="M13.836,34.9H4.342a.6.6,0,1,1,0-1.2h9.494a.648.648,0,0,1,.606.6.579.579,0,0,1-.606.6"/>
          <path id="Path_1495566" data-name="Path 1495566" d="M12.625,32.4H4.444a.6.6,0,1,1,0-1.2h8.181a.6.6,0,1,1,0,1.2"/>
          <path id="Path_1495567" data-name="Path 1495567" d="M11.311,29.9H4.342a.6.6,0,1,1,0-1.2h6.969a.648.648,0,0,1,.606.6.579.579,0,0,1-.606.6"/>
          <path id="Path_1495568" data-name="Path 1495568" d="M10.1,27.4H4.444a.6.6,0,1,1,0-1.2H10.1a.6.6,0,1,1,0,1.2"/>
          <path id="Path_1495569" data-name="Path 1495569" d="M28.379,33.2h-.1A16.9,16.9,0,0,1,16.26,28.1a16.346,16.346,0,0,1-4.646-11.5,14.583,14.583,0,0,1,.4-3.6,16.312,16.312,0,0,1,1.414-3.9A15.468,15.468,0,0,1,16.26,5.2,16.5,16.5,0,0,1,28.278.1h.2A16.9,16.9,0,0,1,40.5,5.2a17.486,17.486,0,0,1,2.828,3.9A16.312,16.312,0,0,1,44.74,13a14.583,14.583,0,0,1,.4,3.6A16.63,16.63,0,0,1,28.48,33.2Zm0-1.3h.1a15.132,15.132,0,0,0,11.109-4.8,15.427,15.427,0,0,0,4.343-10.6,13.043,13.043,0,0,0-.4-3.4,17.241,17.241,0,0,0-1.313-3.6,15.494,15.494,0,0,0-2.626-3.7A15.934,15.934,0,0,0,28.48,1h-.2A15.13,15.13,0,0,0,17.169,5.8a16.387,16.387,0,0,0-2.626,3.7,15.407,15.407,0,0,0-1.313,3.6,18.434,18.434,0,0,0-.4,3.4,14.986,14.986,0,0,0,4.343,10.6,15.932,15.932,0,0,0,11.109,4.8h.1"/>
        </g>
      </g>
    </g>
  </g>
</svg>
